<svg xmlns="http://www.w3.org/2000/svg" width="1326.421" height="432" viewBox="0 0 1326.421 432">
  <g id="bg-curve" transform="translate(-1621 -1873)">
    <path id="Path_178277" data-name="Path 178277" d="M1641,2305H2929a20.006,20.006,0,0,0,18.421-12.2V1934.775C2556.934,2048.63,2134.211,1902.255,1621,1873v412A20,20,0,0,0,1641,2305Z" fill="#e6fff8"/>
    <path id="Path_178278" data-name="Path 178278" d="M2848.9,2305q.16-4.473.437-8.925c5.429-87.133,43.758-161.228,98.081-228.263v-3.883c-55.606,67.977-94.981,143.209-100.512,231.994q-.282,4.527-.442,9.077Z" fill="#fff"/>
    <path id="Path_178279" data-name="Path 178279" d="M2679.965,2305c1.321-118.975,49.356-236.323,139.88-342q-1.974.308-3.951.606c-45.685,53.53-80.444,109.951-103.788,168.6-22.592,56.761-34.175,114.61-34.688,172.8Z" fill="#fff"/>
    <path id="Path_178280" data-name="Path 178280" d="M2504.716,2305c1.786-75.488,33.621-146.407,94.927-211.239,38.744-40.972,72.083-80.275,100.4-118.4-1.012.055-2.026.1-3.038.156-28.121,37.6-61.047,76.3-99.129,116.57-61.758,65.309-93.816,136.791-95.595,212.913Z" fill="#fff"/>
    <path id="Path_178281" data-name="Path 178281" d="M1896.491,2305c18.959-106.25,74.649-211.873,129.17-315.252,9.674-18.343,19.677-37.31,29.191-55.78,2.241-4.35,4.392-8.688,6.489-13.018l-2.54-.359c-1.983,4.08-4,8.166-6.114,12.264-9.508,18.456-19.509,37.42-29.18,55.756C1968.813,2092.319,1912.945,2198.278,1894,2305Z" fill="#fff"/>
    <path id="Path_178282" data-name="Path 178282" d="M1790.791,2305c12.479-58.007,33.734-117.437,63.777-177.315a1236.331,1236.331,0,0,0,86.513-223.185q-1.31-.171-2.621-.339a1224.1,1224.1,0,0,1-86.069,222.43c-30.319,60.43-51.834,120.085-64.435,178.409Z" fill="#fff"/>
    <path id="Path_178283" data-name="Path 178283" d="M1737.528,2305h2.143c1.651-71.076-10.221-135.286-36.068-195.485-19.124-44.538-46.046-87.38-82.6-130.364v3.752c35.458,42.066,61.661,84.012,80.365,127.573C1727.006,2170.194,1739.141,2233.97,1737.528,2305Z" fill="#fff"/>
  </g>
</svg>
