<svg xmlns="http://www.w3.org/2000/svg" width="190" height="340.862" viewBox="0 0 190 340.862">
  <g id="t1-b1" transform="translate(-2728.515 755.994)">
    <g id="Group_115053" data-name="Group 115053" transform="translate(2728.515 -435.49)" opacity="0.5" style="mix-blend-mode: multiply;isolation: isolate">
      <ellipse id="Ellipse_4917" data-name="Ellipse 4917" cx="71.649" cy="10.179" rx="71.649" ry="10.179" fill="#96e3cd"/>
    </g>
    <g id="girl_with_box" data-name="girl with box" transform="translate(2741.516 -755.994)">
      <g id="Group_115066" data-name="Group 115066" transform="translate(53.106 311.622)">
        <g id="Group_115057" data-name="Group 115057" transform="translate(1.908 0)">
          <g id="Group_115056" data-name="Group 115056">
            <g id="Group_115055" data-name="Group 115055">
              <g id="Group_115054" data-name="Group 115054">
                <path id="Path_177448" data-name="Path 177448" d="M2825.409-294.177l1.882-17.88,3.438.86-2.579,16.676Z" transform="translate(-2825.409 312.058)" fill="#f5735d"/>
              </g>
            </g>
          </g>
        </g>
        <g id="Group_115061" data-name="Group 115061" transform="translate(0 14.391)">
          <g id="Group_115060" data-name="Group 115060">
            <g id="Group_115059" data-name="Group 115059">
              <g id="Group_115058" data-name="Group 115058">
                <path id="Path_177449" data-name="Path 177449" d="M2824.464-285.644a4.922,4.922,0,0,0,1.034.184c2.392.169,14.943.962,15.253-1.06.344-2.235-3.568-7.409-13.066-3.783C2820.127-287.417,2823-286.069,2824.464-285.644Z" transform="translate(-2822.691 291.556)" fill="#27456e"/>
              </g>
            </g>
          </g>
        </g>
        <g id="Group_115065" data-name="Group 115065" transform="translate(0 15.203)">
          <g id="Group_115064" data-name="Group 115064">
            <g id="Group_115063" data-name="Group 115063">
              <g id="Group_115062" data-name="Group 115062">
                <path id="Path_177450" data-name="Path 177450" d="M2827.685-289.958c.432-.165.853-.311,1.262-.441-1.828,1.869,1.589,4.224,6.99,4.224,3.32,0,4.3-.843,4.474-1.649a2.87,2.87,0,0,1,.34,1.649c-.311,2.022-12.862,1.229-15.253,1.06a4.92,4.92,0,0,1-1.034-.184C2823-285.724,2820.127-287.072,2827.685-289.958Z" transform="translate(-2822.691 290.399)" fill="#12263f"/>
              </g>
            </g>
          </g>
        </g>
      </g>
      <g id="Group_115079" data-name="Group 115079" transform="translate(22.433 291.179)">
        <g id="Group_115070" data-name="Group 115070" transform="translate(1.778)">
          <g id="Group_115069" data-name="Group 115069">
            <g id="Group_115068" data-name="Group 115068">
              <g id="Group_115067" data-name="Group 115067">
                <path id="Path_177451" data-name="Path 177451" d="M2781.527-327.665l11.858-13.514,2.312,2.687-11.731,12.129Z" transform="translate(-2781.527 341.179)" fill="#e85653"/>
              </g>
            </g>
          </g>
        </g>
        <g id="Group_115074" data-name="Group 115074" transform="translate(0 12.205)">
          <g id="Group_115073" data-name="Group 115073">
            <g id="Group_115072" data-name="Group 115072">
              <g id="Group_115071" data-name="Group 115071">
                <path id="Path_177452" data-name="Path 177452" d="M2779.568-321.252a4.876,4.876,0,0,0,.629.841c1.629,1.759,10.245,10.919,11.855,9.657,1.78-1.4,2.462-7.846-6.947-11.694C2777.615-325.511,2778.793-322.559,2779.568-321.252Z" transform="translate(-2778.994 323.792)" fill="#27456e"/>
              </g>
            </g>
          </g>
        </g>
        <g id="Group_115078" data-name="Group 115078" transform="translate(0 12.205)">
          <g id="Group_115077" data-name="Group 115077">
            <g id="Group_115076" data-name="Group 115076">
              <g id="Group_115075" data-name="Group 115075">
                <path id="Path_177453" data-name="Path 177453" d="M2785.1-322.448c.428.176.834.356,1.222.541-2.611.114-1.728,4.168,2.213,7.862,2.423,2.269,3.712,2.323,4.392,1.857a2.866,2.866,0,0,1-.879,1.435c-1.61,1.262-10.226-7.9-11.855-9.657a4.876,4.876,0,0,1-.629-.841C2778.793-322.559,2777.615-325.511,2785.1-322.448Z" transform="translate(-2778.994 323.792)" fill="#12263f"/>
              </g>
            </g>
          </g>
        </g>
      </g>
      <g id="Group_115097" data-name="Group 115097" transform="translate(29.729 196.695)">
        <g id="Group_115083" data-name="Group 115083" transform="translate(0 0.418)">
          <g id="Group_115082" data-name="Group 115082">
            <g id="Group_115081" data-name="Group 115081">
              <g id="Group_115080" data-name="Group 115080">
                <path id="Path_177454" data-name="Path 177454" d="M2830.7-475.187l4.864,58.444a2.215,2.215,0,0,1-.608,1.671L2793.483-371.6l-4.095-4.34,32.385-39.365-11.318-58.946Z" transform="translate(-2789.388 475.187)" fill="#00ceeb"/>
              </g>
            </g>
          </g>
        </g>
        <g id="Group_115088" data-name="Group 115088" transform="translate(9.79)">
          <g id="Group_115087" data-name="Group 115087">
            <g id="Group_115086" data-name="Group 115086">
              <g id="Group_115085" data-name="Group 115085">
                <g id="Group_115084" data-name="Group 115084">
                  <path id="Path_177455" data-name="Path 177455" d="M2803.335-474.289l21.073,66.243-5.5,52.779,6.189.688,9-55.484-5.562-65.718Z" transform="translate(-2803.335 475.782)" fill="#77e7f7"/>
                </g>
              </g>
            </g>
          </g>
        </g>
        <g id="Group_115093" data-name="Group 115093" transform="translate(9.79 0)">
          <g id="Group_115092" data-name="Group 115092">
            <g id="Group_115091" data-name="Group 115091">
              <g id="Group_115090" data-name="Group 115090">
                <g id="Group_115089" data-name="Group 115089">
                  <path id="Path_177456" data-name="Path 177456" d="M2820.658-355.074l-1.751-.194,5.5-52.778-21.074-66.243,25.2-1.492,1.049,12.583c-1.787-2.1-7.684-7.8-13.685-1.322-6.532,7.048,12.034,56.56,12.034,56.56Z" transform="translate(-2803.335 475.782)" fill="#00ceeb"/>
                </g>
              </g>
            </g>
          </g>
        </g>
        <g id="Group_115096" data-name="Group 115096" transform="translate(35.49 6.017)">
          <g id="Group_115095" data-name="Group 115095">
            <g id="Group_115094" data-name="Group 115094">
              <path id="Path_177457" data-name="Path 177457" d="M2845.008-407.438l-5.06-56.014a.422.422,0,0,1,.04-.22l1.563-3.294a.43.43,0,0,1,.573-.2.429.429,0,0,1,.2.572l-1.513,3.19,5.045,55.077Z" transform="translate(-2839.947 467.21)" fill="#008da1"/>
            </g>
          </g>
        </g>
      </g>
      <g id="Group_115101" data-name="Group 115101" transform="translate(0 129.844)">
        <g id="Group_115100" data-name="Group 115100">
          <g id="Group_115099" data-name="Group 115099">
            <g id="Group_115098" data-name="Group 115098">
              <path id="Path_177458" data-name="Path 177458" d="M2804.02-571.018s9.751.88,13.3,1.767c14.65,3.662,32.054,35.815,46.01,14.884a50.506,50.506,0,0,1,4.983,1.145s-9.469,32.394-42.361,17.443c0,0-3.693,27.5-6.039,33.136,0,0-19.3,5.409-34.576.79,0,0-3.544-22.473-6.855-31.848,0,0-3.565,5.828-13.286,9.32,0,0,6.673,11.761,14.6,15.638a7.629,7.629,0,0,1-2.7,5.114s-32.439-6.76-29.915-22S2767.9-568.454,2804.02-571.018Z" transform="translate(-2747.037 571.018)" fill="#ffcf19"/>
            </g>
          </g>
        </g>
      </g>
      <g id="Group_115105" data-name="Group 115105" transform="translate(31.524 152.926)">
        <g id="Group_115104" data-name="Group 115104">
          <g id="Group_115103" data-name="Group 115103">
            <g id="Group_115102" data-name="Group 115102">
              <path id="Path_177459" data-name="Path 177459" d="M2798.719-492.054s-3.486-22.1-6.774-31.612a68.2,68.2,0,0,0,6.5-14.469s-1.845,33.749,19.7,37.21c10.572,1.7,15.862-2.65,18.511-7.519-1.126,6.749-2.381,13.242-3.364,15.6C2833.295-492.844,2814-487.435,2798.719-492.054Z" transform="translate(-2791.945 538.135)" fill="#d6a900"/>
            </g>
          </g>
        </g>
      </g>
      <g id="Group_115109" data-name="Group 115109" transform="translate(50.496 129.844)">
        <g id="Group_115108" data-name="Group 115108">
          <g id="Group_115107" data-name="Group 115107">
            <g id="Group_115106" data-name="Group 115106">
              <path id="Path_177460" data-name="Path 177460" d="M2836.608-569.835a16.707,16.707,0,0,1,1.016,7.333,7.218,7.218,0,0,1-11.758,4.923c-4.094-3.349-6.969-8.283-6.892-12.686q3.142-.511,6.486-.753S2830.406-570.478,2836.608-569.835Z" transform="translate(-2818.973 571.018)" fill="#f5735d"/>
            </g>
          </g>
        </g>
      </g>
      <g id="Group_115113" data-name="Group 115113" transform="translate(31.443 147.099)">
        <g id="Group_115112" data-name="Group 115112">
          <g id="Group_115111" data-name="Group 115111">
            <g id="Group_115110" data-name="Group 115110">
              <path id="Path_177461" data-name="Path 177461" d="M2791.83-526.376c5.059-8.64,7.67-19.6,7.7-19.723a.437.437,0,0,1,.525-.326.437.437,0,0,1,.325.525c-.029.124-2.8,11.76-8.182,20.614C2792.075-525.665,2791.951-526.03,2791.83-526.376Z" transform="translate(-2791.83 546.436)" fill="#c48300"/>
            </g>
          </g>
        </g>
      </g>
      <g id="Group_115117" data-name="Group 115117" transform="translate(30.049 192.824)">
        <g id="Group_115116" data-name="Group 115116">
          <g id="Group_115115" data-name="Group 115115">
            <g id="Group_115114" data-name="Group 115114">
              <path id="Path_177462" data-name="Path 177462" d="M2789.844-478.405s1.507,3.8,3.469,4.041a3.156,3.156,0,0,0,1.391-.077.99.99,0,0,0,.385-.215c.184-.183.153-.449.3-.651.191-.27.639-.239.836-.5.175-.235.068-.59.218-.843.125-.212.4-.3.509-.528.084-.182.027-.4.089-.592.074-.232.313-.392.354-.632a.55.55,0,0,0-.033-.277c-.1-.27-1.139-.854-1.139-.854a1.05,1.05,0,0,0-.1-1.45c-.614-.556-5.455-.194-5.455-.194Z" transform="translate(-2789.844 481.297)" fill="#f5735d"/>
            </g>
          </g>
        </g>
      </g>
      <g id="Group_115121" data-name="Group 115121" transform="translate(34.178 193.347)">
        <g id="Group_115120" data-name="Group 115120">
          <g id="Group_115119" data-name="Group 115119">
            <g id="Group_115118" data-name="Group 115118">
              <path id="Path_177463" data-name="Path 177463" d="M2797.52-480.088a.771.771,0,0,1,.452.714c0,.039,0,.06,0,.06l-2.245-1.236A7.505,7.505,0,0,1,2797.52-480.088Z" transform="translate(-2795.726 480.551)" fill="#e85653"/>
            </g>
          </g>
        </g>
      </g>
      <g id="Group_115125" data-name="Group 115125" transform="translate(9.887 180.283)">
        <g id="Group_115124" data-name="Group 115124">
          <g id="Group_115123" data-name="Group 115123">
            <g id="Group_115122" data-name="Group 115122">
              <path id="Path_177464" data-name="Path 177464" d="M2771.836-499.162c2.64,3.789,7.146,9.384,12.158,11.834a7.63,7.63,0,0,1-2.7,5.114s-11.409-2.378-20.168-7.493C2764.65-492.905,2768.238-496.04,2771.836-499.162Z" transform="translate(-2761.121 499.162)" fill="#d6a900"/>
            </g>
          </g>
        </g>
      </g>
      <g id="Group_115129" data-name="Group 115129" transform="translate(8.083 153.071)">
        <g id="Group_115128" data-name="Group 115128">
          <g id="Group_115127" data-name="Group 115127">
            <g id="Group_115126" data-name="Group 115126">
              <path id="Path_177465" data-name="Path 177465" d="M2760.562-536.648c2.851-.807,7.46-1.905,8.294-.837,1.223,1.567-1.555,8.776-.1,8.484s9.236-2.165,9.822.74c.424,2.1.12,6.1-.081,8.141-.59.508-1.268,1.041-2.032,1.581.276-1.344,1.775-9.251-1.256-9.194-3.313.064-7.376,2.394-8.542.362s1.555-8.777-1.292-8.656c-2.246.1-5.529,1.527-6.82,2.128Q2759.5-535.277,2760.562-536.648Z" transform="translate(-2758.552 537.928)" fill="#c48300"/>
            </g>
          </g>
        </g>
      </g>
      <g id="Group_115133" data-name="Group 115133" transform="translate(4.135 160.078)">
        <g id="Group_115132" data-name="Group 115132">
          <g id="Group_115131" data-name="Group 115131">
            <g id="Group_115130" data-name="Group 115130">
              <path id="Path_177466" data-name="Path 177466" d="M2754.218-526.7c2.4-.918,5-1.671,5.717-.972,1.424,1.387-.351,8.906,1.048,8.419s8.857-3.4,9.83-.6a27.631,27.631,0,0,1,.926,6.174c-.518.281-1.066.557-1.639.828-.063-2.771-.53-6.337-2.553-6.021-3.274.512-6.984,3.372-8.414,1.517s.351-8.906-2.454-8.4a14.423,14.423,0,0,0-3.753,1.451Q2753.531-525.494,2754.218-526.7Z" transform="translate(-2752.928 527.947)" fill="#c48300"/>
            </g>
          </g>
        </g>
      </g>
      <g id="Group_115138" data-name="Group 115138" transform="translate(77.066 134.876)">
        <g id="Group_115135" data-name="Group 115135" transform="translate(1.736 31.012)">
          <g id="Group_115134" data-name="Group 115134">
            <path id="Path_177467" data-name="Path 177467" d="M2859.3-519.67Z" transform="translate(-2859.299 519.67)" fill="#d6a900"/>
          </g>
        </g>
        <g id="Group_115137" data-name="Group 115137">
          <g id="Group_115136" data-name="Group 115136">
            <path id="Path_177468" data-name="Path 177468" d="M2896.05-552.231a50.5,50.5,0,0,1,4.983,1.145s-9.467,32.384-42.347,17.449c.618-4.158,3.143-23.389-1.86-30.213C2869.854-555.206,2884.2-534.452,2896.05-552.231Z" transform="translate(-2856.825 563.85)" fill="#d6a900"/>
          </g>
        </g>
      </g>
      <g id="Group_115140" data-name="Group 115140" transform="translate(79.428 143.751)">
        <g id="Group_115139" data-name="Group 115139">
          <path id="Path_177469" data-name="Path 177469" d="M2860.19-533.76c.045-.406.091-.835.136-1.279,1.418-1.748,8.727-2.709,7.779-3.86-.995-1.206-6.6-7.52-4.192-9.508a25.673,25.673,0,0,1,4.941-2.8q.744.633,1.488,1.256c-2.537,1.088-5.22,2.7-4.263,4.417,1.705,3.051,5.894,5.675,4.582,7.769s-8.941,2.914-7.414,5.5a24.91,24.91,0,0,0,3.882,5.1h0c-.195-.053-.392-.11-.589-.166-.18-.051-.36-.1-.542-.159-.242-.073-.484-.147-.73-.225l-.07-.023q-.912-.294-1.85-.639l-.026-.01A17,17,0,0,1,2860.19-533.76Z" transform="translate(-2860.19 551.206)" fill="#c48300"/>
        </g>
      </g>
      <g id="Group_115144" data-name="Group 115144" transform="translate(36.025)">
        <g id="Group_115143" data-name="Group 115143">
          <path id="Path_177470" data-name="Path 177470" d="M2937.964-696.247c-7.577-39.473-44.664-65.7-82.838-58.581s-63,44.9-55.4,84.364c7.759,40.279,43.531,65.014,82.838,58.581C2920.887-618.155,2945.541-656.774,2937.964-696.247Z" transform="translate(-2798.358 755.994)" fill="#22f0b0"/>
          <g id="Group_115142" data-name="Group 115142" transform="translate(20.696 26.725)">
            <g id="Group_115141" data-name="Group 115141">
              <path id="Path_177471" data-name="Path 177471" d="M2827.842-683.119s26.7,58.849,35.158,60.09a107.853,107.853,0,0,0,17.318.892s55.327-69.738,51.28-77.455-27.821-18.331-27.821-18.331-33.7,64.658-34.5,62.064-12.921-31.537-12.921-31.537S2828.612-686.825,2827.842-683.119Z" transform="translate(-2827.842 717.922)" fill="#f1f1f1"/>
            </g>
          </g>
        </g>
      </g>
      <g id="Group_115146" data-name="Group 115146" transform="translate(87.385 148.557)">
        <g id="Group_115145" data-name="Group 115145">
          <path id="Path_177472" data-name="Path 177472" d="M2871.585-530.209c.761-1.715,8-2.608,7.111-3.687s-5.91-6.729-3.751-8.508a18.474,18.474,0,0,1,3.275-1.956q.738.538,1.476,1.034c-1.905.942-3.543,2.185-2.812,3.492,1.525,2.731,5.274,5.079,4.1,6.952s-8,2.608-6.634,4.925a26.088,26.088,0,0,0,2.887,3.992h-.007q-.624-.042-1.264-.111l-.032,0q-.642-.07-1.3-.169l-.018,0C2872.91-526.215,2871.178-529.293,2871.585-530.209Z" transform="translate(-2871.525 544.36)" fill="#c48300"/>
        </g>
      </g>
      <g id="Group_115175" data-name="Group 115175" transform="translate(51.871 94.751)">
        <g id="Group_115150" data-name="Group 115150" transform="translate(1.067)">
          <g id="Group_115149" data-name="Group 115149">
            <g id="Group_115148" data-name="Group 115148">
              <g id="Group_115147" data-name="Group 115147">
                <path id="Path_177473" data-name="Path 177473" d="M2841.075-598.812s12.216-4.206,8.956-15.314-18-7.618-23.947,2.249c0,0-1.3-3.2-3.041-.756s.922,14.542.922,14.542S2829.927-595.038,2841.075-598.812Z" transform="translate(-2822.453 621.012)" fill="#27456e"/>
              </g>
            </g>
          </g>
        </g>
        <g id="Group_115154" data-name="Group 115154" transform="translate(1.069 5.849)">
          <g id="Group_115153" data-name="Group 115153">
            <g id="Group_115152" data-name="Group 115152">
              <g id="Group_115151" data-name="Group 115151">
                <path id="Path_177474" data-name="Path 177474" d="M2822.7-609.335c-.2,6.259,7.137.4,7.137.4s3.311,6.468,11.964,5.716c7.651-.664,7.92-7.811,7.88-9.457.129.331.249.675.355,1.037,3.26,11.108-8.956,15.314-8.956,15.314-11.149,3.774-17.109.721-17.109.721S2821.733-605.749,2822.7-609.335Z" transform="translate(-2822.456 612.679)" fill="#12263f"/>
              </g>
            </g>
          </g>
        </g>
        <g id="Group_115158" data-name="Group 115158" transform="translate(2.707 24.732)">
          <g id="Group_115157" data-name="Group 115157">
            <g id="Group_115156" data-name="Group 115156">
              <g id="Group_115155" data-name="Group 115155">
                <path id="Path_177475" data-name="Path 177475" d="M2824.788-570.7l2.033-15.083,6.4,2.023-.333,13.7C2830.438-570.251,2827.24-570.552,2824.788-570.7Z" transform="translate(-2824.788 585.779)" fill="#f5735d"/>
              </g>
            </g>
          </g>
        </g>
        <g id="Group_115162" data-name="Group 115162" transform="translate(5.119 26.423)">
          <g id="Group_115161" data-name="Group 115161">
            <g id="Group_115160" data-name="Group 115160">
              <g id="Group_115159" data-name="Group 115159">
                <path id="Path_177476" data-name="Path 177476" d="M2834.091-576.736c-5.675-1.789-5.866-6.633-5.866-6.633l6.007.841Z" transform="translate(-2828.224 583.369)" fill="#e85653"/>
              </g>
            </g>
          </g>
        </g>
        <g id="Group_115166" data-name="Group 115166" transform="translate(0 16.804)">
          <g id="Group_115165" data-name="Group 115165">
            <g id="Group_115164" data-name="Group 115164">
              <g id="Group_115163" data-name="Group 115163">
                <path id="Path_177477" data-name="Path 177477" d="M2838.153-594.267s.371,11.544-5.232,10.738a11.411,11.411,0,0,1-8.013-5.017s-4.235.4-3.963-3.053,3.6-3.921,4.5-1.473C2825.447-593.073,2825.946-601.213,2838.153-594.267Z" transform="translate(-2820.932 597.072)" fill="#f5735d"/>
              </g>
            </g>
          </g>
        </g>
        <g id="Group_115171" data-name="Group 115171" transform="translate(3.769 16.031)">
          <g id="Group_115170" data-name="Group 115170">
            <g id="Group_115169" data-name="Group 115169">
              <g id="Group_115168" data-name="Group 115168">
                <g id="Group_115167" data-name="Group 115167">
                  <path id="Path_177478" data-name="Path 177478" d="M2826.77-593.293a.508.508,0,0,0,.536-.4,4.029,4.029,0,0,1,4.178-3.466c4.193,0,9.541,3.7,9.595,3.742a.508.508,0,0,0,.707-.125.509.509,0,0,0-.126-.708c-.229-.16-5.649-3.918-10.174-3.925a5.116,5.116,0,0,0-5.173,4.269.507.507,0,0,0,.389.6A.557.557,0,0,0,2826.77-593.293Z" transform="translate(-2826.302 598.174)" fill="#0e1d30"/>
                </g>
              </g>
            </g>
          </g>
        </g>
        <g id="Group_115174" data-name="Group 115174" transform="translate(7.487 23.831)">
          <g id="Group_115173" data-name="Group 115173">
            <g id="Group_115172" data-name="Group 115172">
              <path id="Path_177479" data-name="Path 177479" d="M2835.791-584.322s-3.23-.724-4.193-2.74C2831.6-587.062,2831.582-580.916,2835.791-584.322Z" transform="translate(-2831.598 587.062)" fill="#fff"/>
            </g>
          </g>
        </g>
      </g>
      <g id="Group_115176" data-name="Group 115176" transform="translate(114.653 142.419)">
        <path id="Path_177480" data-name="Path 177480" d="M2911.014-553.1c1.271-.072,2.308,2.114,2.308,2.114l4.163-.649a32.318,32.318,0,0,1-1.739,3.924l-3.235-1.073C2911.644-549.79,2909.228-553,2911.014-553.1Z" transform="translate(-2910.372 553.103)" fill="#f5735d"/>
      </g>
    </g>
  </g>
</svg>
