<svg xmlns="http://www.w3.org/2000/svg" width="204" height="260.434" viewBox="0 0 204 260.434">
  <g id="t1-b2" transform="translate(-3851.812 602.464)">
    <g id="Group_115215" data-name="Group 115215" transform="translate(3898.277 -364.798)" opacity="0.5" style="mix-blend-mode: multiply;isolation: isolate">
      <ellipse id="Ellipse_4957" data-name="Ellipse 4957" cx="78.768" cy="11.384" rx="78.768" ry="11.384" transform="translate(0 0)" fill="#96e3cd"/>
    </g>
    <g id="Group_115219" data-name="Group 115219" transform="translate(3851.812 -599.618)">
      <g id="Group_115218" data-name="Group 115218" transform="translate(0 0)">
        <g id="Group_115217" data-name="Group 115217">
          <g id="Group_115216" data-name="Group 115216">
            <path id="Path_178249" data-name="Path 178249" d="M3853.172-513.7c7.71,40.02,43.252,64.6,82.307,58.2,38.076-6.232,62.572-44.6,55.043-83.822s-44.379-65.28-82.306-58.205S3845.618-552.913,3853.172-513.7Z" transform="translate(-3851.812 598.679)" fill="#ffcf19"/>
          </g>
        </g>
      </g>
    </g>
    <g id="Group_115220" data-name="Group 115220" transform="translate(3870.482 -576.086)">
      <path id="Path_178250" data-name="Path 178250" d="M3984.8-534.92c-.248-6.162-16.369-29.252-22.929-27.089-2.514.829-15.628,10.313-30.845,21.776-12.579-15.391-23.429-27.757-24.919-27.128-3.734,1.575-22.5,18.947-22.5,18.947s9.752,12.553,21.878,27.736c-15.873,12.33-28.866,22.766-28.843,23.344,0,0,17.677,26.351,21.431,25.25,1.459-.428,14.911-9.077,30.8-19.856,11.236,13.444,20.645,23.958,22.533,23.882,5.214-.21,23.28-11.382,22.141-16.084-.4-1.646-8.33-12.536-18.629-25.928C3971.347-521.853,3984.9-532.428,3984.8-534.92Z" transform="translate(-3876.642 567.384)" fill="#f1f1f1"/>
    </g>
    <g id="Group_115222" data-name="Group 115222" transform="translate(3961.774 -587.437)">
      <g id="Group_115221" data-name="Group 115221">
        <path id="Path_178251" data-name="Path 178251" d="M3998.051-579.158l.5-.9,1.231-2.2.128-.229s19.469,10.437,23.37,11.686c12.7,4.064,31.5,7.113,31.5,7.113s-16.964,19.21-28.96,13.209S3998.051-579.158,3998.051-579.158Z" transform="translate(-3998.051 582.479)" fill="#430087"/>
      </g>
    </g>
    <g id="Group_115223" data-name="Group 115223" transform="translate(4028.497 -359.775)">
      <path id="Path_178252" data-name="Path 178252" d="M4104.532-273.313a5.4,5.4,0,0,1-1.125.2c-2.6.192-16.253,1.1-16.6-1.1-.382-2.43,3.857-8.071,14.2-4.158C4109.244-275.256,4106.118-273.78,4104.532-273.313Z" transform="translate(-4086.786 279.714)" fill="#27456e"/>
    </g>
    <g id="Group_115224" data-name="Group 115224" transform="translate(4028.497 -358.907)">
      <path id="Path_178253" data-name="Path 178253" d="M4101.012-278.084q-.708-.267-1.375-.475c1.994,2.026-1.714,4.6-7.59,4.618-3.612.011-4.679-.9-4.874-1.778a3.113,3.113,0,0,0-.363,1.794c.345,2.2,14,1.3,16.6,1.1a5.4,5.4,0,0,0,1.125-.2C4106.118-273.493,4109.244-274.969,4101.012-278.084Z" transform="translate(-4086.785 278.559)" fill="#12263f"/>
    </g>
    <g id="Group_115225" data-name="Group 115225" transform="translate(4036.733 -375.85)">
      <path id="Path_178254" data-name="Path 178254" d="M4106.769-282.354l-5.322-18.192a.757.757,0,0,0-.912-.521l-2.227.564a.757.757,0,0,0-.528.986l5.82,16.465a2.459,2.459,0,0,0,2.02,1.621l.331.041A.757.757,0,0,0,4106.769-282.354Z" transform="translate(-4097.737 301.091)" fill="#e85653"/>
    </g>
    <g id="Group_115226" data-name="Group 115226" transform="translate(3978.747 -359.623)">
      <path id="Path_178255" data-name="Path 178255" d="M4038.368-273.11a5.348,5.348,0,0,1-1.125.2c-2.6.193-16.251,1.1-16.6-1.1-.382-2.43,3.857-8.072,14.2-4.158C4043.08-275.053,4039.954-273.577,4038.368-273.11Z" transform="translate(-4020.622 279.511)" fill="#27456e"/>
    </g>
    <g id="Group_115227" data-name="Group 115227" transform="translate(3978.746 -358.755)">
      <path id="Path_178256" data-name="Path 178256" d="M4034.847-277.881q-.705-.267-1.375-.476c1.995,2.027-1.714,4.6-7.591,4.618-3.611.011-4.677-.9-4.873-1.778a3.111,3.111,0,0,0-.363,1.795c.346,2.2,14,1.295,16.6,1.1a5.4,5.4,0,0,0,1.125-.2C4039.954-273.29,4043.08-274.766,4034.847-277.881Z" transform="translate(-4020.622 278.357)" fill="#12263f"/>
    </g>
    <g id="Group_115228" data-name="Group 115228" transform="translate(3991.088 -378.328)">
      <path id="Path_178257" data-name="Path 178257" d="M4041.961-283.02l-1.215-20.823a.758.758,0,0,0-.914-.521l-2.226.563a.758.758,0,0,0-.528.987l1.712,19.1a2.461,2.461,0,0,0,2.021,1.622l.33.041A.757.757,0,0,0,4041.961-283.02Z" transform="translate(-4037.035 304.387)" fill="#f5735d"/>
    </g>
    <g id="Group_115229" data-name="Group 115229" transform="translate(3904.009 -542.972)">
      <path id="Path_178258" data-name="Path 178258" d="M3934.282-515.632s-1.98-6.452-3.315-6.188.295,3.215-.637,3.138-4.257-5.234-5.81-4.612c-1.323.529,3.356,4.783,2.968,4.939s-5.25-2.313-6.042-1.816.59,1.926,4.07,2.966c0,0,1.46.5,1.258.668s-5.2-.62-5.265.125,1.227,1.04,5.126,1.552c0,0,.745.062.357.217s-4.722.359-3.494,1.4,10.468.495,10.468.495Z" transform="translate(-3921.229 523.345)" fill="#f5735d"/>
    </g>
    <g id="Group_115231" data-name="Group 115231" transform="translate(3981.385 -498.751)">
      <g id="Group_115230" data-name="Group 115230">
        <path id="Path_178259" data-name="Path 178259" d="M4068.661-464.537s1.671,57.041,1.318,64.149,14.4,61.3,14.4,61.3,1.494-.94,1.871.181,2.448,5.6.394,6.358-6.351,2.638-6.917,1.33-3.2-6.349-.021-6.92c0,0-22.416-52.115-24.124-60.152s-5.136-28.04-5.136-28.04-11.133,29.4-11.5,30.9-.384,57.8-.384,57.8,1.869-.193,2.061,1.116.763,5.234-.731,5.613-8.039,1.334-8.417.026-1.517-6.542,2.037-6.74c0,0-9.9-57.764-9.359-63.376s7.664-62.494,7.664-62.494Z" transform="translate(-4024.131 464.537)" fill="#00ceeb"/>
      </g>
    </g>
    <g id="Group_115232" data-name="Group 115232" transform="translate(4007.701 -493.744)">
      <path id="Path_178260" data-name="Path 178260" d="M4059.129-424.674s3.613-10.953,4.808-17.97c0,0,13,.428,13.548-15.234.4,14.071,1.463,53.325,1.175,59.142-.352,7.109,14.4,61.3,14.4,61.3s1.493-.94,1.871.181,2.449,5.6.394,6.358-6.352,2.638-6.917,1.33-3.2-6.349-.021-6.92c0,0-22.416-52.115-24.124-60.152S4059.129-424.674,4059.129-424.674Z" transform="translate(-4059.129 457.878)" fill="#009fb5"/>
    </g>
    <g id="Group_115233" data-name="Group 115233" transform="translate(4007.665 -478.93)">
      <path id="Path_178261" data-name="Path 178261" d="M4063.972-437.787a.468.468,0,0,1,.539-.383.467.467,0,0,1,.384.539,142.986,142.986,0,0,1-5.445,19.774c-.21-1.214-.333-1.929-.333-1.929l-.037.1A137.7,137.7,0,0,0,4063.972-437.787Z" transform="translate(-4059.08 438.177)" fill="#006573"/>
    </g>
    <g id="Group_115234" data-name="Group 115234" transform="translate(4037.134 -374.23)">
      <path id="Path_178262" data-name="Path 178262" d="M4098.763-296.91h-.03a.468.468,0,0,1-.462-.441.469.469,0,0,1,.441-.493,11.23,11.23,0,0,0,3.807-1.093c.146.538.232.855.249.919A11.819,11.819,0,0,1,4098.763-296.91Z" transform="translate(-4098.27 298.937)" fill="#006573"/>
    </g>
    <g id="Group_115235" data-name="Group 115235" transform="translate(3987.716 -592.054)">
      <path id="Path_178263" data-name="Path 178263" d="M4047.161-585.67l1.953,18.434-8.254.476.538-7.483s-3.919,2.63-7.105.583c-2.837-1.823-1.355-14.958-1.355-14.958Z" transform="translate(-4032.55 588.619)" fill="#f5735d"/>
    </g>
    <g id="Group_115236" data-name="Group 115236" transform="translate(3914.619 -571.422)">
      <path id="Path_178264" data-name="Path 178264" d="M3935.34-521.743s27.223,20.768,41.392,18.577c9.254-1.431,17.72-15.578,17.72-15.578s8.95,21.388,12.161,31.852c0,0,14.632,14.17,42.263-2.374,0,0,7.679-42.338,1.689-59.108-5.471-15.32-33.445-13.511-41.744-11.469-13.083,3.22-25.109,15.694-41.508,35.383,0,0-16.263,2.855-29.463-1.5A4.48,4.48,0,0,0,3935.34-521.743Z" transform="translate(-3935.34 561.182)" fill="#5b2ab5"/>
    </g>
    <g id="Group_115237" data-name="Group 115237" transform="translate(3973.751 -542.846)">
      <path id="Path_178265" data-name="Path 178265" d="M4020.65-523.178s3.109,37.959,30.225,36.94c12.189-.458,18-8.945,20.714-18.151-1.156,13.242-3.206,24.55-3.206,24.55-27.631,16.544-42.263,2.374-42.263,2.374-3.128-10.192-11.7-30.743-12.142-31.806A87.129,87.129,0,0,0,4020.65-523.178Z" transform="translate(-4013.979 523.178)" fill="#430087"/>
    </g>
    <g id="Group_115239" data-name="Group 115239" transform="translate(3914.589 -544.812)">
      <g id="Group_115238" data-name="Group 115238" transform="translate(0 0)">
        <path id="Path_178266" data-name="Path 178266" d="M3935.423-514.044a.451.451,0,0,1,.089.049c6.706,4.951,15.308,10.956,23.814,14.93,10.023,4.682,17.676,5.347,22.75,1.978,11.688-7.764,19.1-28.189,19.174-28.395a.468.468,0,0,1,.6-.283.468.468,0,0,1,.283.6,91.87,91.87,0,0,1-5.224,11.4c-3.076,5.67-8.057,13.3-14.313,17.457a14.466,14.466,0,0,1-8.146,2.266c-4.348.014-9.536-1.379-15.517-4.174-8.437-3.942-16.94-9.845-23.631-14.772C3935.294-513.051,3935.418-514.029,3935.423-514.044Z" transform="translate(-3935.299 525.793)" fill="#430087"/>
      </g>
    </g>
    <g id="Group_115240" data-name="Group 115240" transform="translate(3977.082 -528.055)">
      <path id="Path_178267" data-name="Path 178267" d="M4072.992-503.354c-.084,1.2-.178,2.383-.279,3.555a192.091,192.091,0,0,0-53.051,6.677c-.433-1.09-.853-2.139-1.253-3.131C4041.557-504.49,4068.1-503.6,4072.992-503.354Z" transform="translate(-4018.408 503.508)" fill="#ffcf19"/>
    </g>
    <g id="Group_115241" data-name="Group 115241" transform="translate(3977.082 -523.417)">
      <path id="Path_178268" data-name="Path 178268" d="M4028.758-493.828c-4.2.915-7.345,1.747-9.1,2.237-.434-1.09-.854-2.139-1.254-3.131,2.813-1,5.678-1.868,8.546-2.617C4027.5-496.157,4028.1-494.981,4028.758-493.828Z" transform="translate(-4018.408 497.339)" fill="#e0b100"/>
    </g>
    <g id="Group_115242" data-name="Group 115242" transform="translate(3980.347 -519.081)">
      <path id="Path_178269" data-name="Path 178269" d="M4022.75-485.043c20.423-6.733,42.859-6.7,50.525-6.455-.131,1.232-.267,2.435-.406,3.6a193.646,193.646,0,0,0-48.859,6.14C4023.594-482.855,4023.173-483.954,4022.75-485.043Z" transform="translate(-4022.75 491.573)" fill="#ffcf19"/>
    </g>
    <g id="Group_115245" data-name="Group 115245" transform="translate(3980.347 -519.042)">
      <g id="Group_115243" data-name="Group 115243" transform="translate(0 3.693)">
        <path id="Path_178270" data-name="Path 178270" d="M4032.906-486.611a28.789,28.789,0,0,0,3.156,3.383c-5.168.984-9.314,1.983-12.052,2.7l0-.008q-.309-.816-.624-1.633l0-.008q-.314-.819-.631-1.635C4026.106-484.918,4029.516-485.841,4032.906-486.611Z" transform="translate(-4022.75 486.611)" fill="#e0b100"/>
      </g>
      <g id="Group_115244" data-name="Group 115244" transform="translate(47.183)">
        <path id="Path_178271" data-name="Path 178271" d="M4087.476-491.522c.495.011.953.023,1.365.037l-.007.062q-.045.417-.089.831l0,.034c-.03.274-.06.544-.091.814l-.02.183c-.028.253-.057.5-.086.753l-.016.138q-.038.324-.075.643l-.017.139q-1.477-.017-2.937-.005A28.755,28.755,0,0,0,4087.476-491.522Z" transform="translate(-4085.498 491.522)" fill="#e0b100"/>
      </g>
    </g>
    <g id="Group_115246" data-name="Group 115246" transform="translate(3984.995 -602.464)">
      <path id="Path_178272" data-name="Path 178272" d="M4040.2-583.2s3.948,6.534,8.8,3.714,2.218-8.8,2.218-8.8,3,1.113,2.993-.01-2.809-.926-2.809-.926,3.923-1.695,2.794-3.749-3.553.385-3.553.385-2.081-7.662-12.748-9.687-13.8,12.013,1.729,14.771c0,0,3.313-3.034,4.118.923C4044.885-580.965,4040.2-583.2,4040.2-583.2Z" transform="translate(-4028.932 602.465)" fill="#ffe47a"/>
    </g>
    <g id="Group_115247" data-name="Group 115247" transform="translate(3984.996 -597.31)">
      <path id="Path_178273" data-name="Path 178273" d="M4051.406-587.514s2.805-.2,2.809.926-2.993.01-2.993.01,2.637,5.977-2.217,8.8-8.8-3.714-8.8-3.714,4.683,2.23,3.544-3.377c-.8-3.957-4.118-.923-4.118-.923-8.229-1.461-11.217-6.088-10.623-9.815.78,5.752,13.392,8.793,17.722,7.175,3.188-1.193,2.71-4.091,1.926-6.064a11.4,11.4,0,0,1,2,3.62s2.423-2.438,3.552-.385S4051.406-587.514,4051.406-587.514Z" transform="translate(-4028.933 595.609)" fill="#ffcf19"/>
    </g>
    <g id="Group_115248" data-name="Group 115248" transform="translate(3987.845 -571.461)">
      <path id="Path_178274" data-name="Path 178274" d="M4032.722-559.789c.086-.022.171-.045.256-.066a61.135,61.135,0,0,1,18.247-1.162C4048.786-560.231,4042.823-558.858,4032.722-559.789Z" transform="translate(-4032.722 561.233)" fill="#f5735d"/>
    </g>
    <g id="Group_115249" data-name="Group 115249" transform="translate(3984.247 -505.438)">
      <path id="Path_178275" data-name="Path 178275" d="M4058.389-466.94a57.162,57.162,0,0,0,14.421-6.489q-.1.641-.187,1.222a58.728,58.728,0,0,1-13.947,6.158,45.78,45.78,0,0,1-12.569,1.89q-1.3,0-2.569-.077a34.952,34.952,0,0,1-15.128-4.476q-.229-.667-.473-1.36a34.026,34.026,0,0,0,15.644,4.9A43.4,43.4,0,0,0,4058.389-466.94Z" transform="translate(-4027.937 473.429)" fill="#1e003d"/>
    </g>
    <g id="Group_115250" data-name="Group 115250" transform="translate(3956.087 -589.815)">
      <path id="Path_178276" data-name="Path 178276" d="M3996.562-580.93l.113.092,1.231-2.2c-1.419-.628-4.293-1.926-5.064-2.341a3.242,3.242,0,0,0-2.355-.067l3.328,2.492s-3.284.91-2.263,2.041C3991.99-580.424,3995.9-580.927,3996.562-580.93Z" transform="translate(-3990.487 585.642)" fill="#e85653"/>
    </g>
  </g>
</svg>
