<svg xmlns="http://www.w3.org/2000/svg" width="505" height="353.5" viewBox="0 0 505 353.5">
  <g id="t1-i3" transform="translate(-3319 3376)">
    <path id="Rectángulo_36758" data-name="Rectángulo 36758" d="M0,0H505V353.5H0Z" transform="translate(3319 -3376)" fill="none"/>
    <path id="Path_175210" data-name="Path 175210" d="M3333.957-3122.23c1.031,2.472,6.25,14.454,21.231,26.022,52.093,40.223,119.848-3.631,218.777,1.648,113.294,6.046,146.879,70.1,192.55,44.647,49.307-27.476,43.519-120.713,35.857-160.667a218.752,218.752,0,0,0-45.449-96.386c-15.36-18.8-40.768-49.889-85.646-63.35-8.43-2.527-34.366-9.479-78.227-2.995-114.7,16.958-185.451,101.175-207.869,127.858C3358.214-3213.347,3316.608-3163.823,3333.957-3122.23Z" transform="translate(2.849)" fill="#c7ffed"/>
    <g id="Group_114983" data-name="Group 114983" transform="translate(3452.131 -3376)">
      <path id="Path_175211" data-name="Path 175211" d="M3669.039-3112.375h-238.7a5.9,5.9,0,0,0-5.886,5.884h0a5.9,5.9,0,0,0,5.886,5.883h238.7a5.9,5.9,0,0,0,5.884-5.883h0A5.9,5.9,0,0,0,3669.039-3112.375Z" transform="translate(-3424.45 3445.202)" fill="#1ab886" fill-rule="evenodd"/>
      <path id="Path_175212" data-name="Path 175212" d="M3573.313-3224.915c-4.508,15.981-8.917,25.765-8.044,42.3l5.155,97.682-16.06-.723s3.189-97.73-3.535-103.693-14.935.908-14.935.908l-27.636,32.848-2.082,57.041h-16.06s3.511-30.491,8.062-59.988c2.463-15.966,35.59-52.527,31.436-54C3528.849-3212.814,3573.313-3224.915,3573.313-3224.915Z" transform="translate(-3407.213 3415.66)" fill="#27456e" fill-rule="evenodd"/>
      <path id="Path_175213" data-name="Path 175213" d="M3549.45-3114.792a8.206,8.206,0,0,1-5.27,4.9c-3.947,1.053-11.049-.446-13.154,1.315s-1.652,3.616-1.652,3.616l-1.475.26.09,2.906,17.675.524a8.266,8.266,0,0,1,2.934-1.079,4.406,4.406,0,0,1,2.308,1.069l9.578-.17.046-2.967-.949-1c.74-3.963.4-6.512-2.941-9.055Z" transform="translate(-3397.295 3444.567)" fill="#12263f" fill-rule="evenodd"/>
      <path id="Path_175214" data-name="Path 175214" d="M3536.639-3108.116a.682.682,0,0,0,.749-.579.682.682,0,0,0-.749-.578.68.68,0,0,0-.747.578A.681.681,0,0,0,3536.639-3108.116Z" transform="translate(-3395.197 3446.016)" fill="#ebe2bb" fill-rule="evenodd"/>
      <path id="Path_175215" data-name="Path 175215" d="M3533.343-3107.827c1.565,0,2.842-.332,2.842-.738s-1.276-.739-2.842-.739-2.842.332-2.842.739S3531.778-3107.827,3533.343-3107.827Z" transform="translate(-3396.612 3446.008)" fill="#ebe2bb" fill-rule="evenodd"/>
      <path id="Path_175216" data-name="Path 175216" d="M3530.116-3105.87l14.1.187S3533.481-3106.916,3530.116-3105.87Z" transform="translate(-3396.713 3446.799)" fill="#27456e" fill-rule="evenodd"/>
      <path id="Path_175217" data-name="Path 175217" d="M3499.94-3125.49a8.2,8.2,0,0,1-5.27,4.9c-3.947,1.053-11.049-.446-13.154,1.317s-1.652,3.615-1.652,3.615l-1.475.261.091,2.906,17.674.524a8.284,8.284,0,0,1,2.934-1.081,4.411,4.411,0,0,1,2.309,1.069l9.577-.17.046-2.967-.949-1c.741-3.964.4-6.512-2.941-9.054Z" transform="translate(-3410.291 3441.759)" fill="#12263f" fill-rule="evenodd"/>
      <path id="Path_175218" data-name="Path 175218" d="M3487.13-3118.813a.682.682,0,0,0,.748-.58.682.682,0,0,0-.748-.579.681.681,0,0,0-.748.579A.681.681,0,0,0,3487.13-3118.813Z" transform="translate(-3408.193 3443.207)" fill="#ebe2bb" fill-rule="evenodd"/>
      <path id="Path_175219" data-name="Path 175219" d="M3483.834-3118.525c1.564,0,2.841-.331,2.841-.739s-1.276-.739-2.841-.739-2.842.332-2.842.739S3482.269-3118.525,3483.834-3118.525Z" transform="translate(-3409.608 3443.2)" fill="#ebe2bb" fill-rule="evenodd"/>
      <path id="Path_175220" data-name="Path 175220" d="M3480.606-3116.568l14.1.187S3483.972-3117.614,3480.606-3116.568Z" transform="translate(-3409.709 3443.991)" fill="#27456e" fill-rule="evenodd"/>
      <path id="Path_175221" data-name="Path 175221" d="M3501.341-3175.835l-3.66,61.4-4.481-.542S3495.625-3120.848,3501.341-3175.835Z" transform="translate(-3406.403 3428.543)" fill="#12263f" fill-rule="evenodd"/>
      <path id="Path_175222" data-name="Path 175222" d="M3544.364-3193.454l2.452,96.556-4.537-.543S3544.385-3138.467,3544.364-3193.454Z" transform="translate(-3393.52 3423.918)" fill="#12263f" fill-rule="evenodd"/>
      <path id="Path_175223" data-name="Path 175223" d="M3501.8-3262.7l11.8,55.924s-1.045,4.879,6.66,8.6,12.837,1.665,12.837,1.665l34.83-4.169s6.214-9.171,3.649-14.3-20.522-63.106-20.522-63.106l-9.235,1.025-3.592-10.26-28.945,11.109,2.78,8.9Z" transform="translate(-3404.146 3399.277)" fill="#f1efed" fill-rule="evenodd"/>
      <path id="Path_175224" data-name="Path 175224" d="M3524.576-3271.892l3.527,3.679,1.856,3.386,9.727-14.37-9.221,18.912-3.365-3.532,11.271,56.188,26.075-4.038-2.019,6.055,4.878-6.56-1.511,9.357s-39.89,2.67-41.381,4.521-9.225-3.771-9.225-3.771l2.659-59.9-2.187,3.534-5.732-11.014,5.732,7.145,2.859-6.224Z" transform="translate(-3402.012 3401.411)" fill="#cac4be" fill-rule="evenodd"/>
      <path id="Path_175225" data-name="Path 175225" d="M3515.768-3265.243l-1.374-13.052,6.354-2.4,6.182,12.881-3.962,3.69,10.946,59.621-6.146,13.316-10.813-8.725,2.262-64.13Z" transform="translate(-3400.84 3401.017)" fill="#e8b700" fill-rule="evenodd"/>
      <path id="Path_175226" data-name="Path 175226" d="M3535.387-3261.933l6.85-15.1,42.4-14.315s10.26,3.42,10.26,8.21,1.369,51.99,1.369,51.99l-15.05,1.368,1.369-42.414s-2.7,1.589-3.863.892-1.164-2.8-1.164-2.8a1.924,1.924,0,0,1-2.445.814C3573.368-3273.865,3535.387-3261.933,3535.387-3261.933Z" transform="translate(-3395.329 3398.221)" fill="#f1efed" fill-rule="evenodd"/>
      <path id="Path_175227" data-name="Path 175227" d="M3542.545-3273.846l33.528-11.3s-2.255,10.439-.061,8.266,5.239-7.352,5.239-7.352-2.5,5.73-.878,6.34,6.3-3.046,6.3-3.046l1.015,45.286-6.093.812-.552-40.136s-3.25,1.52-3.863.891a5.1,5.1,0,0,1-.9-1.251s-2.4,1.4-2.9.347-.955-2.29-.955-2.29l-31.132,10.25Z" transform="translate(-3393.781 3399.85)" fill="#dcd6d1" fill-rule="evenodd"/>
      <path id="Path_175228" data-name="Path 175228" d="M3574.52-3221.731c-.508,1.479-7.114,2.061-8.147,2.756s-.366,3.362-.366,3.362l10.051-3.708c-7.45,5.869-10.5,3.5-8.862,9.392l11.639-8.388c-6.088,7.035-11.09,7.777-7.875,13.9l12.1-13.9-3.253-22.739Z" transform="translate(-3387.347 3411.423)" fill="#dc6c59" fill-rule="evenodd"/>
      <path id="Path_175229" data-name="Path 175229" d="M3575.359-3242.72c.089.528.046.266.136.785q.335,1.92.616,3.88c-3.647,1.838-8.934,6.445-3.826,20.622.635.11,3.068.718,3.55-.292,0,0,1.888-12.509,1.888-12.483s.582,4.875.847,8.583c.943,13.149-8.744,15.235-.182,20.207,6.108-14.268,4.613-26.949,5.3-42Z" transform="translate(-3386.199 3410.803)" fill="#e6976f" fill-rule="evenodd"/>
      <path id="Path_175230" data-name="Path 175230" d="M3508.3-3118.424,3466.976-3376h-1.453l40.416,257.183-4.139-.69.337,2.508,12.575,1.066-.263-1.464Z" transform="translate(-3413.668 3376)" fill="#5000a1" fill-rule="evenodd"/>
      <path id="Path_175231" data-name="Path 175231" d="M3442.657-3275.241c-1.322-.834-6.835,2.851-8.076,2.957s-2.391-2.392-2.391-2.392l10.154-3.409c-9.481.095-10.378,3.85-12.789-1.766l14.327-.756c-9.153-1.667-13.516.888-14.848-5.9l18.14,3.25,11.712,19.76Z" transform="translate(-3423.247 3399.492)" fill="#dc6c59" fill-rule="evenodd"/>
      <path id="Path_175232" data-name="Path 175232" d="M3456.836-3258.144c-.261-.467-.131-.236-.386-.7q-.941-1.708-1.952-3.411c-3.994.854-11,.576-15.9-13.673.425-.485,1.94-2.483,2.949-2,0,0,9.307,8.567,9.292,8.546s-2.6-4.163-4.717-7.22c-7.5-10.839-16.36-6.392-12.8-15.632,13.7,7.292,20.481,18.112,30.445,29.41Z" transform="translate(-3422.336 3397.99)" fill="#e6976f" fill-rule="evenodd"/>
      <g id="Group_114981" data-name="Group 114981" transform="translate(31.715 132.719)">
        <path id="Path_175233" data-name="Path 175233" d="M3517.581-3267.271l2.009,16.46-28.761,34.289s-10.542,2.419-13.034-1.67-28.223-43.684-28.223-43.684l12.14-9,20.9,36.929s1.478-2.761,2.836-2.77,2.449,1.78,2.449,1.78a1.923,1.923,0,0,1,1.664-1.968C3491.357-3237.316,3517.581-3267.271,3517.581-3267.271Z" transform="translate(-3449.571 3270.876)" fill="#f1efed" fill-rule="evenodd"/>
        <path id="Path_175234" data-name="Path 175234" d="M3482.408-3226.544s-.029-6.568,1.7-6.466,3.453,5.483,3.453,5.483-.61-7.513,1.116-6.5a26.986,26.986,0,0,1,3.554,2.64l24.865-26.5.923,4.369-28.834,34.319s-8.325,1.218-9.747-.2-28.024-41.832-28.024-41.832l9.342-7.108,4.054,6.671-3.834,4.158Z" transform="translate(-3449.088 3271.541)" fill="#dcd6d1" fill-rule="evenodd"/>
      </g>
      <g id="Group_114982" data-name="Group 114982" transform="translate(38.362 34.338)">
        <path id="Path_175235" data-name="Path 175235" d="M3470.847-3309.589h0a3.688,3.688,0,0,0-.839,5.4l7.85,9.98a4.4,4.4,0,0,0,5.812.918h0a3.689,3.689,0,0,0,.838-5.4l-7.851-9.98A4.4,4.4,0,0,0,3470.847-3309.589Z" transform="translate(-3451.069 3358.908)" fill="#dc6c59" fill-rule="evenodd"/>
        <path id="Path_175236" data-name="Path 175236" d="M3472.082-3308.688h0a2.569,2.569,0,0,0-.583,3.777l5.982,7.567a3.1,3.1,0,0,0,4.08.644h0a2.571,2.571,0,0,0,.585-3.778l-5.983-7.567A3.1,3.1,0,0,0,3472.082-3308.688Z" transform="translate(-3450.615 3359.201)" fill="#bd4242" fill-rule="evenodd"/>
        <path id="Path_175237" data-name="Path 175237" d="M3470.06-3308.814a.7.7,0,0,1,.922.054.57.57,0,0,1-.145.837.7.7,0,0,1-.922-.054A.57.57,0,0,1,3470.06-3308.814Z" transform="translate(-3450.911 3359.26)" fill="#faa57b" fill-rule="evenodd"/>
        <path id="Path_175238" data-name="Path 175238" d="M3462.159-3330.8l-5.526-1.188a18.385,18.385,0,0,1,11.3-6.508c7.055-.9,11.032-1.283,14.109-3.463s6.8-4.36,9.62-3.463a22.174,22.174,0,0,1,4.49,1.924s1.233-5.429,5.723-5.3,10.126,8.152,10.126,8.152l-38.041,14.72Z" transform="translate(-3454.365 3348.802)" fill="#23302e" fill-rule="evenodd"/>
        <path id="Path_175239" data-name="Path 175239" d="M3520.684-3302.833l8.716,22.708-17.464,6.7-7.56-13.886S3521.886-3302.2,3520.684-3302.833Z" transform="translate(-3441.832 3360.869)" fill="#dc6c59" fill-rule="evenodd"/>
        <path id="Path_175240" data-name="Path 175240" d="M3463.105-3316.373c5.4,10.448,32.363,43.222,40.27,46.437s14.532.952,19.977-3.357,10.8-14.887,9.368-19.437-10.031-19.725-10.031-19.725,3.672-2.386.694-8.049-7.73-2.97-7.73-2.97l-11.133-15.4S3467.624-3340.675,3463.105-3316.373Z" transform="translate(-3452.666 3351.4)" fill="#e6976f" fill-rule="evenodd"/>
        <path id="Path_175241" data-name="Path 175241" d="M3490.024-3335.254s2.659,5.425,5.738,10.229l-4.531,1.535-5.417,3.238,8.646,6.205,6.109-2.252c11.813-3.146,11.051,2.683,8.6,10.906-1.419,4.762,16.107,16.334,5.142,22.81-.849.5-.838,3.342-2.334,4.313-.173.112-.354.226-.537.349-1.313.894-3.236-.1-4.424.541-5.848,3.135-9.282,5.16-9.306,5.141s10.393,4.37,18.228-1.124,10.948-17.155,9.616-19.711l-24.425-46.931Z" transform="translate(-3446.704 3351.111)" fill="#dc6c59" fill-rule="evenodd"/>
        <path id="Path_175242" data-name="Path 175242" d="M3478.1-3317.631l-6.972,7.455,7,5.023,7.237-3.044-2.866-13.494Z" transform="translate(-3450.559 3355.918)" fill="#dc6c59" fill-rule="evenodd"/>
        <path id="Path_175243" data-name="Path 175243" d="M3478.2-3320.845l-7.54,8.9a1.97,1.97,0,0,0,.131,2.643h0a1.67,1.67,0,0,0,2.468-.116l7.541-8.9a1.972,1.972,0,0,0-.131-2.643h0A1.672,1.672,0,0,0,3478.2-3320.845Z" transform="translate(-3450.799 3355.982)" fill="#26261d" fill-rule="evenodd"/>
        <path id="Path_175244" data-name="Path 175244" d="M3478.65-3310.831c-1.251.9-1.33,2.935-.173,4.532s3.107,2.161,4.358,1.256,1.33-2.934.173-4.532S3479.9-3311.735,3478.65-3310.831Z" transform="translate(-3448.845 3358.656)" fill="#2b0e1e" fill-rule="evenodd"/>
        <path id="Path_175245" data-name="Path 175245" d="M3476.619-3306.45l7.407-3.849s-3.035-4.7-6.136-3.028-.929,5.266-.929,5.266Z" transform="translate(-3449.222 3358.02)" fill="#e6976f" fill-rule="evenodd"/>
        <path id="Path_175246" data-name="Path 175246" d="M3486.013-3311.651l-8.739,3.057-2.247,2.84S3484.718-3310.714,3486.013-3311.651Z" transform="translate(-3449.536 3358.554)" fill="#912222" fill-rule="evenodd"/>
        <path id="Path_175247" data-name="Path 175247" d="M3484.708-3307.783a4.4,4.4,0,0,1-1.3,3.113c-1.385,1.334-3.692.474-3.692.474s2.579,5.11,6.215,4.064S3484.708-3307.783,3484.708-3307.783Z" transform="translate(-3448.305 3359.569)" fill="#faa57b" fill-rule="evenodd"/>
        <path id="Path_175248" data-name="Path 175248" d="M3477.853-3312.93l1.827,3.194,2.521-.755S3479.908-3314.14,3477.853-3312.93Z" transform="translate(-3448.794 3358.154)" fill="#faa57b" fill-rule="evenodd"/>
        <path id="Path_175249" data-name="Path 175249" d="M3481.916-3309.525c-.63.456-.989,1.037-.8,1.3s.851.1,1.482-.355.988-1.037.8-1.3S3482.547-3309.981,3481.916-3309.525Z" transform="translate(-3447.95 3358.986)" fill="#ffd8d4" fill-rule="evenodd"/>
        <path id="Path_175250" data-name="Path 175250" d="M3499.117-3331.447l-13.207,5.563a1.83,1.83,0,0,0-.972,2.389h0a1.828,1.828,0,0,0,2.388.974l13.207-5.562a1.829,1.829,0,0,0,.972-2.389h0A1.828,1.828,0,0,0,3499.117-3331.447Z" transform="translate(-3446.972 3353.321)" fill="#26261d" fill-rule="evenodd"/>
        <path id="Path_175251" data-name="Path 175251" d="M3494.642-3321.683c-1.252.905-1.33,2.934-.174,4.532s3.107,2.161,4.359,1.256,1.328-2.935.173-4.534S3495.893-3322.588,3494.642-3321.683Z" transform="translate(-3444.648 3355.807)" fill="#2b0e1e" fill-rule="evenodd"/>
        <path id="Path_175252" data-name="Path 175252" d="M3492.609-3317.3l7.409-3.85s-3.035-4.695-6.136-3.027-.93,5.266-.93,5.266Z" transform="translate(-3445.024 3355.171)" fill="#e6976f" fill-rule="evenodd"/>
        <path id="Path_175253" data-name="Path 175253" d="M3502.005-3322.5l-8.74,3.058-2.246,2.84S3500.71-3321.567,3502.005-3322.5Z" transform="translate(-3445.338 3355.705)" fill="#912222" fill-rule="evenodd"/>
        <path id="Path_175254" data-name="Path 175254" d="M3500.651-3318.49a4.4,4.4,0,0,1-1.3,3.113c-1.386,1.334-3.694.474-3.694.474s2.58,5.11,6.215,4.064S3500.651-3318.49,3500.651-3318.49Z" transform="translate(-3444.121 3356.759)" fill="#faa57b" fill-rule="evenodd"/>
        <path id="Path_175255" data-name="Path 175255" d="M3493.845-3323.782l1.826,3.193,2.521-.753S3495.9-3324.992,3493.845-3323.782Z" transform="translate(-3444.596 3355.305)" fill="#faa57b" fill-rule="evenodd"/>
        <path id="Path_175256" data-name="Path 175256" d="M3503.617-3297.312a.824.824,0,0,0-.3,1.112.823.823,0,0,0,1.15.064.823.823,0,0,0,.3-1.111A.823.823,0,0,0,3503.617-3297.312Z" transform="translate(-3442.141 3362.266)" fill="#ffd8d4" fill-rule="evenodd"/>
        <path id="Path_175257" data-name="Path 175257" d="M3497.908-3320.377c-.63.456-.989,1.036-.8,1.3s.852.1,1.482-.354.99-1.036.8-1.3S3498.538-3320.833,3497.908-3320.377Z" transform="translate(-3443.753 3356.137)" fill="#ffd8d4" fill-rule="evenodd"/>
        <path id="Path_175258" data-name="Path 175258" d="M3490.919-3334.682a2.852,2.852,0,0,0-1.46,3.76,2.852,2.852,0,0,0,3.761,1.462,2.853,2.853,0,0,0,1.461-3.761A2.853,2.853,0,0,0,3490.919-3334.682Z" transform="translate(-3445.811 3352.445)" fill="#faa57b" fill-rule="evenodd"/>
        <path id="Path_175259" data-name="Path 175259" d="M3509.264-3338.324s-3.974-9.241-6.892-7.97-3.4,8.235-3.4,8.235-8.674-7.415-16.258-1.115c-3.759,3.124-21.716.726-25.612,6.557-6.142,9.2,1.419,17.46,8.051,18.049Z" transform="translate(-3454.836 3349.428)" fill="#26261d" fill-rule="evenodd"/>
        <path id="Path_175260" data-name="Path 175260" d="M3495.824-3292.817a6.148,6.148,0,0,1,2.592-5.252c2.306-1.771,3.867-.563,4.433.042l.014-.013s.067.085.171.23c.035.044.052.071.052.071h0c.529.746,1.767,2.706,1.036,3.793a3.3,3.3,0,0,0,2.753,4.917c3.3.414,4.41-3.591,4.41-3.591-.249,5.885-5.668,6-7.6,3.891a5.166,5.166,0,0,1-1.229-5.715,1.83,1.83,0,0,0-.787-2.338Z" transform="translate(-3444.08 3361.876)" fill="#bd4242" fill-rule="evenodd"/>
        <path id="Path_175261" data-name="Path 175261" d="M3496.674-3297.526c.12.251-.522.842-1.437,1.321s-1.752.661-1.873.41.523-.842,1.438-1.321S3496.554-3297.777,3496.674-3297.526Z" transform="translate(-3444.726 3362.232)" fill="#ffc1a6" fill-rule="evenodd"/>
        <path id="Path_175262" data-name="Path 175262" d="M3499.521-3303.252l-5.474-8.657a5.8,5.8,0,0,1-2.615,4.28,58.788,58.788,0,0,0-5.925,4.247c3.878.862,3.712.212,7.414-1.41-.86,2.408-2.095,3.7-2.434,5.11l3.26.424s.071-1.921,1.2-2.64A19.947,19.947,0,0,1,3499.521-3303.252Z" transform="translate(-3446.785 3358.486)" fill="#d14636" fill-rule="evenodd"/>
        <path id="Path_175263" data-name="Path 175263" d="M3485.6-3320.507l9.216,10.86s1.464,2.742-.467,3.953-8.122,4.569-8.122,4.569-3.995-1.367-3.431-3.232,4.06-6.789,4.06-6.789S3484.169-3316.824,3485.6-3320.507Z" transform="translate(-3447.51 3356.229)" fill="#e64f47" fill-rule="evenodd"/>
        <path id="Path_175264" data-name="Path 175264" d="M3491.784-3312.369c1.327.384,3.343,5.386,3.343,5.386l-4.142,2.644,5.148-2.021s-2-4.645-3.265-5.894a1.576,1.576,0,0,0-2.345-.077A6.643,6.643,0,0,1,3491.784-3312.369Z" transform="translate(-3445.468 3358.248)" fill="#b0341e" fill-rule="evenodd"/>
        <path id="Path_175265" data-name="Path 175265" d="M3493.753-3308.232a2.036,2.036,0,0,0-2.164-.292c-1.2.577-3.149,3.454-3.149,3.454Z" transform="translate(-3446.015 3359.323)" fill="#8f1a14" fill-rule="evenodd"/>
        <path id="Path_175266" data-name="Path 175266" d="M3483.78-3305.378a8.733,8.733,0,0,0,2.979-1.185,6.828,6.828,0,0,0,1.608-2.141,7.466,7.466,0,0,0,3.845-.561c1.553-.848,1.422-2.229.5-2.26s-3.256,1.384-3.256,1.384,2.058-2.107,1.65-3.1-3.721.287-3.721.287S3480.941-3305.184,3483.78-3305.378Z" transform="translate(-3447.428 3358.039)" fill="#f7554d" fill-rule="evenodd"/>
        <path id="Path_175267" data-name="Path 175267" d="M3487.158-3308.987c.17.143.074.513-.214.827s-.66.455-.831.312-.073-.513.215-.827S3486.988-3309.128,3487.158-3308.987Z" transform="translate(-3446.647 3359.239)" fill="#ffd2b8" fill-rule="evenodd"/>
        <path id="Path_175268" data-name="Path 175268" d="M3488.979-3295.875l17.316-10.39,2.309,1.411-2.822.257-15.392,9.235Z" transform="translate(-3445.873 3359.968)" fill="#bd4242" fill-rule="evenodd"/>
        <path id="Path_175269" data-name="Path 175269" d="M3493.247-3336.87s3.206,6.123,5.386,6.636,5.069-.374,5.551.551l2.971,5.71,2.131-3.544s-3.131-15.935-12.679-18.6S3493.247-3336.87,3493.247-3336.87Z" transform="translate(-3445.271 3349.406)" fill="#26261d" fill-rule="evenodd"/>
        <path id="Path_175270" data-name="Path 175270" d="M3505.986-3331.345h0a4.054,4.054,0,0,1,5.641,1.569l5.375,9.907a4.409,4.409,0,0,1-1.622,5.843h0a4.053,4.053,0,0,1-5.641-1.569l-5.375-9.907A4.408,4.408,0,0,1,3505.986-3331.345Z" transform="translate(-3441.971 3353.235)" fill="#dc6c59" fill-rule="evenodd"/>
        <path id="Path_175271" data-name="Path 175271" d="M3506.125-3329.849h0a2.822,2.822,0,0,1,3.942,1.1l4.085,7.579a3.106,3.106,0,0,1-1.14,4.1h0a2.822,2.822,0,0,1-3.941-1.1l-4.086-7.581A3.105,3.105,0,0,1,3506.125-3329.849Z" transform="translate(-3441.766 3353.672)" fill="#bd4242" fill-rule="evenodd"/>
        <path id="Path_175272" data-name="Path 175272" d="M3506.692-3331.561a.682.682,0,0,0-.372.838.6.6,0,0,0,.852.175.682.682,0,0,0,.373-.838A.6.6,0,0,0,3506.692-3331.561Z" transform="translate(-3441.334 3353.302)" fill="#faa57b" fill-rule="evenodd"/>
      </g>
      <path id="Path_175273" data-name="Path 175273" d="M3550.326-3102.948,3541.133-3376h-1.46l8.369,273.446-5.961,1.027.01,1.463,12.376-1.066-.132-2.507Z" transform="translate(-3394.204 3376)" fill="#5000a1" fill-rule="evenodd"/>
      <path id="Path_175274" data-name="Path 175274" d="M3567.769-3376l7.225,106.955,2.293-.162L3569.448-3376Z" transform="translate(-3386.829 3376)" fill="#5000a1" fill-rule="evenodd"/>
      <path id="Path_175275" data-name="Path 175275" d="M3583.8-3224.132,3623.934-3376h-1.607l-40.857,151.989-10.288.535,1.1,1.828,8.714-.587-.032.117,2.36-.208.018-.066,3.145-.212-.046-1.663Z" transform="translate(-3385.933 3376)" fill="#5000a1" fill-rule="evenodd"/>
      <path id="Path_175276" data-name="Path 175276" d="M3466.75-3232.235,3427.188-3376h-1.872l38.967,145.346-4.628,2.1,1.428,1.875,13.477-5.146-.965-2.052Z" transform="translate(-3424.222 3376)" fill="#5000a1" fill-rule="evenodd"/>
    </g>
  </g>
</svg>
