<svg xmlns="http://www.w3.org/2000/svg" width="190" height="200" viewBox="0 0 190 200">
  <g id="t1-n7" transform="translate(-705 -1153)">
    <rect id="Rectangle_36711" data-name="Rectangle 36711" width="190" height="200" rx="20" transform="translate(705 1153)" fill="#fff5d0"/>
    <path id="Rectangle_36711_-_Outline" data-name="Rectangle 36711 - Outline" d="M20,2A18,18,0,0,0,2,20V180a18,18,0,0,0,18,18H170a18,18,0,0,0,18-18V20A18,18,0,0,0,170,2H20m0-2H170a20,20,0,0,1,20,20V180a20,20,0,0,1-20,20H20A20,20,0,0,1,0,180V20A20,20,0,0,1,20,0Z" transform="translate(705 1153)" fill="#ffcf19"/>
    <path id="Path_181295" data-name="Path 181295" d="M47.76,7.428H43.492V19H40.064V7.428H35.875V4.781H47.76ZM53.365,19a3.716,3.716,0,0,1-.312-.947A3.06,3.06,0,0,1,50.514,19.2a3.749,3.749,0,0,1-2.539-.9,2.875,2.875,0,0,1-1.045-2.271,2.955,2.955,0,0,1,1.27-2.6,6.468,6.468,0,0,1,3.691-.879h1.016v-.559q0-1.462-1.26-1.462a1.03,1.03,0,0,0-1.172,1.158H47.184a2.95,2.95,0,0,1,1.3-2.487,5.479,5.479,0,0,1,3.325-.956,4.8,4.8,0,0,1,3.193.986,3.429,3.429,0,0,1,1.2,2.705v4.678a4.79,4.79,0,0,0,.449,2.227V19ZM51.3,16.852a1.836,1.836,0,0,0,1.021-.264,1.653,1.653,0,0,0,.581-.6V14.3h-.957q-1.719,0-1.719,1.543a.942.942,0,0,0,.3.728A1.1,1.1,0,0,0,51.3,16.852ZM67.838,13.8A6.44,6.44,0,0,1,66.764,17.8a3.6,3.6,0,0,1-3.027,1.4,3.122,3.122,0,0,1-2.6-1.279L61,19H58.053V4h3.291V9.283a3.013,3.013,0,0,1,2.373-1.045,3.6,3.6,0,0,1,3.047,1.416,6.473,6.473,0,0,1,1.074,3.984Zm-3.3-.21a4.3,4.3,0,0,0-.405-2.169,1.366,1.366,0,0,0-1.245-.648,1.576,1.576,0,0,0-1.543.848v4.192a1.585,1.585,0,0,0,1.563.838,1.4,1.4,0,0,0,1.475-1.131A8.121,8.121,0,0,0,64.537,13.595ZM72.76,19h-3.3V4h3.3Zm7.139.2a5.432,5.432,0,0,1-3.936-1.45,5.008,5.008,0,0,1-1.5-3.774V13.7a6.489,6.489,0,0,1,.6-2.861,4.395,4.395,0,0,1,1.753-1.919,5.292,5.292,0,0,1,2.734-.679A4.574,4.574,0,0,1,83.063,9.62a5.43,5.43,0,0,1,1.289,3.853v1.279H77.809a2.372,2.372,0,0,0,.771,1.4,2.3,2.3,0,0,0,1.543.508,2.958,2.958,0,0,0,2.441-1.094l1.5,1.777a4.2,4.2,0,0,1-1.743,1.353A5.891,5.891,0,0,1,79.9,19.2Zm-.371-8.418q-1.445,0-1.719,1.914h3.32v-.254a1.63,1.63,0,0,0-.4-1.226A1.593,1.593,0,0,0,79.527,10.777Zm9.98-4.971V8.434h1.738v2.285H89.508v4.834a1.234,1.234,0,0,0,.215.83,1.152,1.152,0,0,0,.85.234,4.828,4.828,0,0,0,.82-.059v2.354a6.074,6.074,0,0,1-1.855.283,3.448,3.448,0,0,1-2.51-.8,3.282,3.282,0,0,1-.811-2.432V10.719H84.869V8.434h1.348V5.807ZM98.492,19a3.716,3.716,0,0,1-.312-.947A3.06,3.06,0,0,1,95.641,19.2a3.749,3.749,0,0,1-2.539-.9,2.875,2.875,0,0,1-1.045-2.271,2.955,2.955,0,0,1,1.27-2.6,6.468,6.468,0,0,1,3.691-.879h1.016v-.559q0-1.462-1.26-1.462A1.03,1.03,0,0,0,95.6,11.681H92.311a2.95,2.95,0,0,1,1.3-2.487,5.479,5.479,0,0,1,3.325-.956,4.8,4.8,0,0,1,3.193.986,3.429,3.429,0,0,1,1.2,2.705v4.678a4.79,4.79,0,0,0,.449,2.227V19Zm-2.061-2.148a1.836,1.836,0,0,0,1.021-.264,1.653,1.653,0,0,0,.581-.6V14.3h-.957q-1.719,0-1.719,1.543a.942.942,0,0,0,.3.728A1.1,1.1,0,0,0,96.432,16.852Zm12.256-.82a.76.76,0,0,0-.439-.674,6.685,6.685,0,0,0-1.67-.527,7.615,7.615,0,0,1-2.031-.718,3.4,3.4,0,0,1-1.221-1.079,2.577,2.577,0,0,1-.42-1.455,2.92,2.92,0,0,1,1.2-2.4,4.948,4.948,0,0,1,3.145-.942,5.482,5.482,0,0,1,3.359.947,2.962,2.962,0,0,1,1.27,2.49h-3.3q0-1.27-1.338-1.27a1.326,1.326,0,0,0-.869.288.892.892,0,0,0-.352.718.819.819,0,0,0,.43.713,4.06,4.06,0,0,0,1.372.449,11.857,11.857,0,0,1,1.655.42,3.007,3.007,0,0,1,2.383,2.939,2.767,2.767,0,0,1-1.284,2.354,5.631,5.631,0,0,1-3.325.908,5.747,5.747,0,0,1-2.422-.488,4.05,4.05,0,0,1-1.66-1.328,3.007,3.007,0,0,1-.6-1.768h3.076a1.272,1.272,0,0,0,.488,1.069,2.009,2.009,0,0,0,1.2.337,1.58,1.58,0,0,0,1.011-.273A.875.875,0,0,0,108.688,16.031Z" transform="translate(726 1303)" fill="#12263f"/>
    <rect id="Rectangle_36712" data-name="Rectangle 36712" width="100" height="100" rx="50" transform="translate(750 1177)" fill="#fff"/>
    <g id="online-shopping" transform="translate(769 1196)">
      <g id="Group_112806" data-name="Group 112806" transform="translate(0.919 0.919)">
        <g id="Group_112792" data-name="Group 112792" transform="translate(50.068)">
          <path id="Path_171792" data-name="Path 171792" d="M421.366,10.377h-2.418l-2.631,44.864h5.049a5.751,5.751,0,0,0,5.751-5.751V16.128a5.751,5.751,0,0,0-5.751-5.751Z" transform="translate(-416.317 -10.377)" fill="#d2e1f1"/>
        </g>
        <g id="Group_112793" data-name="Group 112793" transform="translate(52.699 40.454)">
          <path id="Path_171793" data-name="Path 171793" d="M437.89,340.7l-.09,0v4.409h2.418a5.732,5.732,0,0,0,2.145-.415A4.7,4.7,0,0,0,437.89,340.7Z" transform="translate(-437.8 -340.698)" fill="#727997"/>
        </g>
        <g id="Group_112794" data-name="Group 112794">
          <path id="Path_171794" data-name="Path 171794" d="M13.251,10.377H60.2V55.241H13.251A5.751,5.751,0,0,1,7.5,49.49V16.128a5.751,5.751,0,0,1,5.751-5.751Z" transform="translate(-7.5 -10.377)" fill="#a1f3ff"/>
        </g>
        <g id="Group_112795" data-name="Group 112795" transform="translate(34.409 30.404)">
          <path id="Path_171795" data-name="Path 171795" d="M306.747,268.684h-.079a4.709,4.709,0,0,0-.878.082,4.66,4.66,0,0,0-3.457-1.714c-.056,0-.113,0-.169,0a4.69,4.69,0,0,0-1.121.135,4.689,4.689,0,0,0-3.184-1.435v-2.414a4.7,4.7,0,0,0-9.4,0v9.759h18.29Z" transform="translate(-288.457 -258.634)" fill="#4fe9ff"/>
        </g>
        <g id="Group_112796" data-name="Group 112796" transform="translate(0 0)">
          <path id="Path_171796" data-name="Path 171796" d="M10.318,49.49V16.128a5.751,5.751,0,0,1,5.751-5.751H13.251A5.751,5.751,0,0,0,7.5,16.128V49.49a5.751,5.751,0,0,0,5.751,5.751h2.818a5.751,5.751,0,0,1-5.751-5.751Z" transform="translate(-7.5 -10.377)" fill="#4fe9ff"/>
        </g>
        <g id="Group_112797" data-name="Group 112797" transform="translate(28.119 32.853)">
          <path id="Path_171797" data-name="Path 171797" d="M263.852,303.265V290.989a2.287,2.287,0,0,0-2.17-2.3,2.252,2.252,0,0,0-2.334,2.25v-1.581a2.287,2.287,0,0,0-2.17-2.3,2.252,2.252,0,0,0-2.334,2.25V288a2.252,2.252,0,1,0-4.5,0v-7.111a2.252,2.252,0,0,0-4.5,0v15.991a1.243,1.243,0,0,1-2.121.879l-2.493-2.493a2.416,2.416,0,0,0-3.417,3.417l5.919,5.919a4.593,4.593,0,0,0,3.247,1.345h14.2A2.679,2.679,0,0,0,263.852,303.265Z" transform="translate(-237.099 -278.634)" fill="#ffbe92"/>
        </g>
        <g id="Group_112798" data-name="Group 112798" transform="translate(28.119 48.779)">
          <path id="Path_171798" data-name="Path 171798" d="M239.678,411.76a2.415,2.415,0,0,1-.272-3.09,2.413,2.413,0,0,0-1.6,4.12l5.919,5.919a4.592,4.592,0,0,0,3.247,1.345h2.9a4.593,4.593,0,0,1-3.247-1.345Z" transform="translate(-237.098 -408.67)" fill="#f4a56e"/>
        </g>
        <g id="Group_112799" data-name="Group 112799" transform="translate(5.083 5.28)">
          <path id="Path_171799" data-name="Path 171799" d="M68.839,53.487H51.6a2.6,2.6,0,0,0-2.6,2.6v20.12a2.6,2.6,0,0,0,2.6,2.6H68.839a2.6,2.6,0,0,0,2.6-2.6V56.088A2.6,2.6,0,0,0,68.839,53.487Z" transform="translate(-49 -53.487)" fill="#f4f4f4"/>
        </g>
        <g id="Group_112800" data-name="Group 112800" transform="translate(10.559 13.177)">
          <path id="Path_171800" data-name="Path 171800" d="M103.3,131.209H95.627a1.906,1.906,0,0,1-1.906-1.906v-9.429a1.906,1.906,0,0,1,1.906-1.907H103.3a1.906,1.906,0,0,1,1.906,1.907V129.3A1.907,1.907,0,0,1,103.3,131.209Z" transform="translate(-93.721 -117.967)" fill="#ffcf19"/>
        </g>
        <g id="Group_112801" data-name="Group 112801" transform="translate(10.559 13.176)">
          <path id="Path_171801" data-name="Path 171801" d="M95.66,129.3v-9.429a1.906,1.906,0,0,1,1.906-1.907h-1.94a1.906,1.906,0,0,0-1.906,1.907V129.3a1.906,1.906,0,0,0,1.906,1.906h1.94A1.906,1.906,0,0,1,95.66,129.3Z" transform="translate(-93.72 -117.966)" fill="#ffe585"/>
        </g>
        <g id="Group_112802" data-name="Group 112802" transform="translate(32.065 5.28)">
          <path id="Path_171802" data-name="Path 171802" d="M282.777,58.344H271.039a1.719,1.719,0,0,1-1.719-1.719V55.206a1.72,1.72,0,0,1,1.719-1.719h11.737a1.719,1.719,0,0,1,1.719,1.719v1.418A1.719,1.719,0,0,1,282.777,58.344Z" transform="translate(-269.32 -53.487)" fill="#ffcf19"/>
        </g>
        <g id="Group_112803" data-name="Group 112803" transform="translate(5.083 34.74)">
          <path id="Path_171803" data-name="Path 171803" d="M52.619,294.038H50.355A1.355,1.355,0,0,0,49,295.393v2.135a1.355,1.355,0,0,0,1.355,1.355h2.264a1.355,1.355,0,0,0,1.355-1.355v-2.135A1.355,1.355,0,0,0,52.619,294.038Z" transform="translate(-49 -294.038)" fill="#5000a1"/>
        </g>
        <g id="Group_112804" data-name="Group 112804" transform="translate(13.816 34.74)">
          <path id="Path_171804" data-name="Path 171804" d="M123.927,294.038h-2.264a1.355,1.355,0,0,0-1.355,1.355v2.135a1.355,1.355,0,0,0,1.355,1.355h2.264a1.355,1.355,0,0,0,1.355-1.355v-2.135A1.355,1.355,0,0,0,123.927,294.038Z" transform="translate(-120.308 -294.038)" fill="#ffcf19"/>
        </g>
        <g id="Group_112805" data-name="Group 112805" transform="translate(22.549 34.74)">
          <path id="Path_171805" data-name="Path 171805" d="M195.235,294.038h-2.264a1.355,1.355,0,0,0-1.355,1.355v2.135a1.355,1.355,0,0,0,1.355,1.355h2.264a1.355,1.355,0,0,0,1.355-1.355v-2.135A1.355,1.355,0,0,0,195.235,294.038Z" transform="translate(-191.616 -294.038)" fill="#00ceeb"/>
        </g>
      </g>
      <g id="Group_112807" data-name="Group 112807" transform="translate(0 0)">
        <path id="Path_171806" data-name="Path 171806" d="M313.085,2.877H293.844a.919.919,0,1,0,0,1.837h15.906V43.38a.919.919,0,0,0,1.837,0V4.714h1.5a4.838,4.838,0,0,1,4.833,4.833V42.908a4.838,4.838,0,0,1-2.091,3.98.919.919,0,1,0,1.044,1.512,6.675,6.675,0,0,0,2.884-5.492V9.547a6.677,6.677,0,0,0-6.67-6.67Z" transform="translate(-257.05 -2.877)"/>
        <path id="Path_171807" data-name="Path 171807" d="M35.666,48.659a.918.918,0,0,0-.919-.919H6.67a4.838,4.838,0,0,1-4.833-4.833V9.547A4.838,4.838,0,0,1,6.67,4.714H32.7a.919.919,0,0,0,0-1.837H6.67A6.677,6.677,0,0,0,0,9.547V42.908a6.677,6.677,0,0,0,6.67,6.67H34.747A.918.918,0,0,0,35.666,48.659Z" transform="translate(0 -2.877)"/>
        <path id="Path_171808" data-name="Path 171808" d="M465.487,170.748a.919.919,0,0,0-1.837,0v3.971a.919.919,0,1,0,1.837,0Z" transform="translate(-406.867 -149.382)"/>
        <path id="Path_171809" data-name="Path 171809" d="M255.134,281.183a3.146,3.146,0,0,0-1.666.4,3.162,3.162,0,0,0-4.611-1.571,3.169,3.169,0,0,0-4.177-1.477V274.3a3.17,3.17,0,1,0-6.34,0v15.991a.324.324,0,0,1-.553.229l-2.493-2.493a3.335,3.335,0,0,0-4.716,4.716l5.919,5.919a5.475,5.475,0,0,0,3.9,1.614h14.2a3.6,3.6,0,0,0,3.6-3.6V284.405A3.186,3.186,0,0,0,255.134,281.183Zm1.218,15.5a1.762,1.762,0,0,1-1.76,1.76h-14.2a3.649,3.649,0,0,1-2.6-1.076l-5.919-5.919a1.5,1.5,0,0,1,2.118-2.118l2.493,2.493a2.161,2.161,0,0,0,3.689-1.528V274.3a1.333,1.333,0,1,1,2.666,0v11.972a.919.919,0,0,0,1.837,0v-4.861a1.333,1.333,0,1,1,2.666,0v4.861a.919.919,0,1,0,1.837,0v-3.557a1.333,1.333,0,0,1,1.383-1.332,1.373,1.373,0,0,1,1.284,1.386v3.5a.919.919,0,1,0,1.837,0v-1.923a1.333,1.333,0,0,1,1.383-1.332,1.372,1.372,0,0,1,1.284,1.386Z" transform="translate(-201.481 -238.279)"/>
        <path id="Path_171810" data-name="Path 171810" d="M92.882,80.14A3.362,3.362,0,0,0,89.523,83.5v.356h-.478a2.828,2.828,0,0,0-2.825,2.825v9.429a2.828,2.828,0,0,0,2.825,2.825h7.673a2.828,2.828,0,0,0,2.825-2.825V86.679a2.828,2.828,0,0,0-2.825-2.825H96.24V83.5A3.362,3.362,0,0,0,92.882,80.14ZM91.36,83.5a1.521,1.521,0,0,1,3.043,0v.356H91.36Zm5.358,2.193a.989.989,0,0,1,.988.988v9.429a.989.989,0,0,1-.988.988H89.045a.989.989,0,0,1-.988-.988V86.679a.989.989,0,0,1,.988-.988h.478v.8a.919.919,0,1,0,1.837,0v-.8H94.4v.8a.919.919,0,1,0,1.837,0v-.8Z" transform="translate(-75.661 -70.678)"/>
        <path id="Path_171811" data-name="Path 171811" d="M65.777,49.506a3.523,3.523,0,0,0-3.519-3.519H45.019A3.523,3.523,0,0,0,41.5,49.506v3.169a.919.919,0,1,0,1.837,0V49.506a1.684,1.684,0,0,1,1.682-1.682H62.257a1.684,1.684,0,0,1,1.682,1.682v20.12a1.684,1.684,0,0,1-1.682,1.682H45.019a1.684,1.684,0,0,1-1.682-1.682V56.518a.919.919,0,1,0-1.837,0V69.627a3.523,3.523,0,0,0,3.519,3.519H62.257a3.523,3.523,0,0,0,3.519-3.519Z" transform="translate(-36.417 -40.707)"/>
        <path id="Path_171812" data-name="Path 171812" d="M43.773,286.537A2.276,2.276,0,0,0,41.5,288.81v2.135a2.276,2.276,0,0,0,2.273,2.273h2.264a2.276,2.276,0,0,0,2.273-2.273V288.81a2.276,2.276,0,0,0-2.273-2.273Zm2.7,2.273v2.135a.437.437,0,0,1-.436.436H43.773a.437.437,0,0,1-.436-.436V288.81a.437.437,0,0,1,.436-.436h2.264A.437.437,0,0,1,46.474,288.81Z" transform="translate(-36.417 -251.797)"/>
        <path id="Path_171813" data-name="Path 171813" d="M115.081,286.537a2.276,2.276,0,0,0-2.273,2.273v2.135a2.276,2.276,0,0,0,2.273,2.273h2.264a2.276,2.276,0,0,0,2.273-2.273V288.81a2.276,2.276,0,0,0-2.273-2.273Zm2.7,2.273v2.135a.437.437,0,0,1-.436.436h-2.264a.437.437,0,0,1-.436-.436V288.81a.437.437,0,0,1,.436-.436h2.264A.437.437,0,0,1,117.782,288.81Z" transform="translate(-98.992 -251.797)"/>
        <path id="Path_171814" data-name="Path 171814" d="M186.389,286.537a2.276,2.276,0,0,0-2.273,2.273v2.135a2.276,2.276,0,0,0,2.273,2.273h2.264a2.276,2.276,0,0,0,2.273-2.273V288.81a2.276,2.276,0,0,0-2.273-2.273Zm2.7,2.273v2.135a.437.437,0,0,1-.436.436h-2.264a.437.437,0,0,1-.436-.436V288.81a.437.437,0,0,1,.436-.436h2.264A.437.437,0,0,1,189.09,288.81Z" transform="translate(-161.567 -251.797)"/>
        <path id="Path_171815" data-name="Path 171815" d="M278.833,48.624a2.641,2.641,0,0,0-2.638-2.638H264.458a2.641,2.641,0,0,0-2.638,2.638v1.418a2.641,2.641,0,0,0,2.638,2.638H276.2a2.641,2.641,0,0,0,2.638-2.638ZM277,50.042a.8.8,0,0,1-.8.8H264.458a.8.8,0,0,1-.8-.8V48.624a.8.8,0,0,1,.8-.8H276.2a.8.8,0,0,1,.8.8Z" transform="translate(-229.755 -40.706)"/>
        <path id="Path_171816" data-name="Path 171816" d="M277.915,122.7H262.739a.919.919,0,1,0,0,1.837h15.176a.919.919,0,1,0,0-1.837Z" transform="translate(-229.755 -108.028)"/>
        <path id="Path_171817" data-name="Path 171817" d="M277.915,159.76H262.739a.919.919,0,1,0,0,1.837h15.176a.919.919,0,1,0,0-1.837Z" transform="translate(-229.755 -140.547)"/>
        <path id="Path_171818" data-name="Path 171818" d="M277.915,196.816H262.739a.919.919,0,1,0,0,1.837h15.176a.919.919,0,1,0,0-1.837Z" transform="translate(-229.755 -173.064)"/>
      </g>
    </g>
  </g>
</svg>
