<svg xmlns="http://www.w3.org/2000/svg" width="190" height="200" viewBox="0 0 190 200">
  <g id="t1-n8" transform="translate(-915 -1153)">
    <rect id="Rectangle_36713" data-name="Rectangle 36713" width="190" height="200" rx="20" transform="translate(915 1153)" fill="#ddfff4"/>
    <path id="Rectangle_36713_-_Outline" data-name="Rectangle 36713 - Outline" d="M20,2A18,18,0,0,0,2,20V180a18,18,0,0,0,18,18H170a18,18,0,0,0,18-18V20A18,18,0,0,0,170,2H20m0-2H170a20,20,0,0,1,20,20V180a20,20,0,0,1-20,20H20A20,20,0,0,1,0,180V20A20,20,0,0,1,20,0Z" transform="translate(915 1153)" fill="#59ffcc"/>
    <path id="Path_181296" data-name="Path 181296" d="M44.039,4.781l3.174,9.893,3.164-9.893h4.512V19H51.451V15.68l.332-6.8L48.346,19H46.08L42.633,8.873l.332,6.807V19H39.537V4.781ZM56.5,13.619a6.236,6.236,0,0,1,.615-2.817,4.4,4.4,0,0,1,1.768-1.9,5.323,5.323,0,0,1,2.705-.664,4.858,4.858,0,0,1,3.74,1.47,5.64,5.64,0,0,1,1.367,4v.117a5.472,5.472,0,0,1-1.372,3.921,4.871,4.871,0,0,1-3.716,1.45,4.927,4.927,0,0,1-3.623-1.353,5.29,5.29,0,0,1-1.475-3.667Zm3.291.205a3.932,3.932,0,0,0,.459,2.148,1.529,1.529,0,0,0,1.357.684q1.758,0,1.8-2.705v-.332q0-2.842-1.816-2.842-1.65,0-1.787,2.451ZM62.037,4h3.477L62.8,7.066l-2.686,0ZM72.213,15.084l1.67-6.65H77.35L73.9,19H70.543L67.1,8.434h3.477ZM81.8,19H78.5V8.434h3.3Zm-3.5-13.3a1.482,1.482,0,0,1,.508-1.159,2.149,2.149,0,0,1,2.637,0A1.482,1.482,0,0,1,81.959,5.7a1.482,1.482,0,0,1-.508,1.159,2.149,2.149,0,0,1-2.637,0A1.482,1.482,0,0,1,78.307,5.7ZM87.3,19H84V4h3.3Zm7.139.2a5.432,5.432,0,0,1-3.936-1.45A5.008,5.008,0,0,1,89,13.971V13.7a6.489,6.489,0,0,1,.6-2.861,4.395,4.395,0,0,1,1.753-1.919,5.292,5.292,0,0,1,2.734-.679A4.574,4.574,0,0,1,97.6,9.62a5.43,5.43,0,0,1,1.289,3.853v1.279H92.35a2.372,2.372,0,0,0,.771,1.4,2.3,2.3,0,0,0,1.543.508,2.958,2.958,0,0,0,2.441-1.094l1.5,1.777a4.2,4.2,0,0,1-1.743,1.353A5.891,5.891,0,0,1,94.439,19.2Zm-.371-8.418q-1.445,0-1.719,1.914h3.32v-.254a1.63,1.63,0,0,0-.4-1.226A1.593,1.593,0,0,0,94.068,10.777Zm11.68,5.254a.76.76,0,0,0-.439-.674,6.685,6.685,0,0,0-1.67-.527,7.615,7.615,0,0,1-2.031-.718,3.4,3.4,0,0,1-1.221-1.079,2.577,2.577,0,0,1-.42-1.455,2.92,2.92,0,0,1,1.2-2.4,4.948,4.948,0,0,1,3.145-.942,5.482,5.482,0,0,1,3.359.947,2.962,2.962,0,0,1,1.27,2.49h-3.3q0-1.27-1.338-1.27a1.326,1.326,0,0,0-.869.288.892.892,0,0,0-.352.718.819.819,0,0,0,.43.713,4.06,4.06,0,0,0,1.372.449,11.857,11.857,0,0,1,1.655.42,3.007,3.007,0,0,1,2.383,2.939,2.767,2.767,0,0,1-1.284,2.354,5.631,5.631,0,0,1-3.325.908,5.747,5.747,0,0,1-2.422-.488,4.05,4.05,0,0,1-1.66-1.328,3.007,3.007,0,0,1-.6-1.768h3.076a1.272,1.272,0,0,0,.488,1.069,2.009,2.009,0,0,0,1.2.337,1.58,1.58,0,0,0,1.011-.273A.875.875,0,0,0,105.748,16.031Z" transform="translate(936 1303)" fill="#12263f"/>
    <rect id="Rectangle_36714" data-name="Rectangle 36714" width="100" height="100" rx="50" transform="translate(960 1177)" fill="#fff"/>
    <g id="smartphone" transform="translate(980 1195)">
      <path id="Path_171819" data-name="Path 171819" d="M236.975,195.915l-1.744-4a2.315,2.315,0,0,0-3.038-1.193l-.083.036a3.118,3.118,0,0,0,1.607-4.092l-4.888-11.211a3.118,3.118,0,0,0-4.092-1.607l-9.622,4.2-6.067-13.916a3.508,3.508,0,0,0-4.321-1.957,3.471,3.471,0,0,0-2.054,4.66l6.41,14.7c.028.065.06.129.092.191s.049.132.077.2a.916.916,0,0,1-1.079,1.251l-2.2-.593a3.439,3.439,0,0,0-4.224,2.314,3.5,3.5,0,0,0,2.422,4.3l9,2.564a.916.916,0,0,1,.589.515l1.132,2.6a3.118,3.118,0,0,0,4.092,1.607l-.477.208a2.315,2.315,0,0,0-1.193,3.038l1.744,4a1.951,1.951,0,0,0,2.568,1.009l14.335-6.25A1.951,1.951,0,0,0,236.975,195.915Z" transform="translate(-178.874 -141.423)" fill="#ffc477"/>
      <path id="Path_171820" data-name="Path 171820" d="M62.517,67.5a3.679,3.679,0,0,1-3.679,3.679H33.722A3.679,3.679,0,0,1,30.043,67.5V11.809A3.679,3.679,0,0,1,33.722,8.13H58.838a3.679,3.679,0,0,1,3.679,3.679Z" transform="translate(-29.086 -7.098)" fill="#00ceeb"/>
      <path id="Path_171821" data-name="Path 171821" d="M62.517,106.175a3.679,3.679,0,0,1-3.679,3.679H33.722a3.679,3.679,0,0,1-3.679-3.679V61.3a3.679,3.679,0,0,1,3.679-3.679H58.838A3.679,3.679,0,0,1,62.517,61.3Z" transform="translate(-29.086 -50.308)" fill="#f6f6f6"/>
      <path id="Path_171822" data-name="Path 171822" d="M37.637,109.85H33.716a3.679,3.679,0,0,1-3.679-3.679V61.3a3.68,3.68,0,0,1,3.679-3.679h3.921A3.68,3.68,0,0,0,33.958,61.3v44.872A3.679,3.679,0,0,0,37.637,109.85Z" transform="translate(-29.08 -50.305)" fill="#e8e8e8"/>
      <g id="Group_112808" data-name="Group 112808" transform="translate(6.089 11.861)">
        <path id="Path_171823" data-name="Path 171823" d="M73.367,97.259H70.939a.481.481,0,0,1-.479-.479V93.905a.481.481,0,0,1,.479-.479h2.427a.481.481,0,0,1,.479.479V96.78A.481.481,0,0,1,73.367,97.259Z" transform="translate(-70.46 -93.426)" fill="#ffcf19"/>
        <path id="Path_171824" data-name="Path 171824" d="M73.367,178.437H70.939a.481.481,0,0,1-.479-.479v-2.875a.481.481,0,0,1,.479-.479h2.427a.481.481,0,0,1,.479.479v2.875A.481.481,0,0,1,73.367,178.437Z" transform="translate(-70.46 -164.298)" fill="#ffcf19"/>
        <path id="Path_171825" data-name="Path 171825" d="M73.367,259.616H70.939a.481.481,0,0,1-.479-.479v-2.875a.481.481,0,0,1,.479-.479h2.427a.481.481,0,0,1,.479.479v2.875A.481.481,0,0,1,73.367,259.616Z" transform="translate(-70.46 -235.171)" fill="#ffcf19"/>
        <path id="Path_171826" data-name="Path 171826" d="M73.367,340.795H70.939a.481.481,0,0,1-.479-.479v-2.875a.481.481,0,0,1,.479-.479h2.427a.481.481,0,0,1,.479.479v2.875A.481.481,0,0,1,73.367,340.795Z" transform="translate(-70.46 -306.044)" fill="#ffcf19"/>
        <path id="Path_171827" data-name="Path 171827" d="M73.367,421.973H70.939a.481.481,0,0,1-.479-.479v-2.875a.481.481,0,0,1,.479-.479h2.427a.481.481,0,0,1,.479.479v2.875A.48.48,0,0,1,73.367,421.973Z" transform="translate(-70.46 -376.917)" fill="#ffcf19"/>
      </g>
      <path id="Path_171828" data-name="Path 171828" d="M232.107,190.757l-13.118,5.721a3.12,3.12,0,0,1-4.092-1.607l-1.132-2.6a.921.921,0,0,0-.589-.515l-9-2.564a3.5,3.5,0,0,1-2.421-4.3,3.439,3.439,0,0,1,4.224-2.312l2.2.593a.914.914,0,0,0,1.08-1.251c-.028-.066-.054-.132-.078-.2s-.063-.125-.092-.192l-6.41-14.7a3.476,3.476,0,0,1,1.312-4.3,3.441,3.441,0,0,1,.742-.358,3.507,3.507,0,0,1,4.321,1.956l6.067,13.917,9.623-4.194a3.116,3.116,0,0,1,4.091,1.606l4.464,10.239.424.973A3.116,3.116,0,0,1,232.107,190.757Z" transform="translate(-178.873 -141.421)" fill="#ffc477"/>
      <path id="Path_171829" data-name="Path 171829" d="M342.662,394.773l-14.335,6.25a1.951,1.951,0,0,1-2.568-1.008l-1.744-4a2.316,2.316,0,0,1,1.195-3.038l1.93-.842,11.749-5.122a2.315,2.315,0,0,1,3.038,1.193l1.121,2.569.623,1.43A1.951,1.951,0,0,1,342.662,394.773Z" transform="translate(-285.571 -337.714)" fill="#00ceeb"/>
      <path id="Path_171830" data-name="Path 171830" d="M365.852,390.777l-12.076,5.265a1.951,1.951,0,0,1-2.568-1.008l-1.264-2.9,11.749-5.122a2.315,2.315,0,0,1,3.038,1.193Z" transform="translate(-308.375 -337.715)" fill="#4fe9ff"/>
      <path id="Path_171831" data-name="Path 171831" d="M232.107,194.478,218.989,200.2a3.12,3.12,0,0,1-4.092-1.607l-1.132-2.6a.92.92,0,0,0-.589-.515l-9-2.564a3.5,3.5,0,0,1-2.421-4.3,3.439,3.439,0,0,1,4.224-2.312l2.2.593a.914.914,0,0,0,1.08-1.251c-.028-.066-.054-.132-.078-.2s-.063-.125-.092-.192l-6.41-14.7a3.476,3.476,0,0,1,1.312-4.3L216.227,194.4a2.058,2.058,0,0,0,2.687,1.075l14.376-6.063.424.973A3.116,3.116,0,0,1,232.107,194.478Z" transform="translate(-178.873 -145.142)" fill="#ffb655"/>
      <path id="Path_171832" data-name="Path 171832" d="M81.538,54.083l-1.744-4A3.29,3.29,0,0,0,78.15,48.4a4.12,4.12,0,0,0,.13-3.566L73.392,33.625a4.138,4.138,0,0,0-3.793-2.48c-1.491,0-1.631.457-10.329,4.13l-2.358-5.408V4.639A4.643,4.643,0,0,0,52.272,0H27.14A4.644,4.644,0,0,0,22.5,4.639V60.361A4.644,4.644,0,0,0,27.14,65H52.273a4.644,4.644,0,0,0,4.639-4.639V52.3c.484.811.76,2.968,3.08,3.792a3.318,3.318,0,0,0,.018,2.614l1.744,4a2.975,2.975,0,0,0,3.913,1.537L80,58A2.971,2.971,0,0,0,81.538,54.083ZM55,60.361a2.726,2.726,0,0,1-2.723,2.722H27.14a2.726,2.726,0,0,1-2.723-2.722V59.58a4.606,4.606,0,0,0,2.723.885H52.273A4.606,4.606,0,0,0,55,59.58v.781Zm0-4.535a2.727,2.727,0,0,1-2.723,2.724H27.14a2.727,2.727,0,0,1-2.723-2.724v-44.9a2.73,2.73,0,0,1,1.8-2.562.958.958,0,0,0-.652-1.8,4.56,4.56,0,0,0-1.146.609V4.639A2.726,2.726,0,0,1,27.14,1.916H52.273A2.726,2.726,0,0,1,55,4.639V7.172a4.606,4.606,0,0,0-2.723-.885H29.7a.958.958,0,1,0,0,1.916H52.273A2.726,2.726,0,0,1,55,10.926V25.473L53.61,22.3a4.543,4.543,0,0,0-5.589-2.516,4.489,4.489,0,0,0-2.936,3.343H35.7a.958.958,0,0,0,0,1.916h9.406c.166.715.114.386,3.576,8.39H41.846a.958.958,0,0,0,0,1.916h7.672c2.4,5.507,2.269,5.216,2.343,5.358l-1.985-.535a4.462,4.462,0,0,0-5.6,3.567H35.7a.958.958,0,1,0,0,1.916h8.7a4.589,4.589,0,0,0,3.124,3.1l7.475,2.13v4.941Zm4.466-2.785c-1.014-1.968-1-3.293-2.378-3.687l-9-2.564a2.542,2.542,0,0,1-1.516-1.219,2.388,2.388,0,0,1,2.772-3.429l2.2.593a1.939,1.939,0,0,0,2.282-2.647l-.476-1.077c-.732-1.688-2.456-5.647-6.1-14.011a2.449,2.449,0,0,1,1.449-3.285,2.491,2.491,0,0,1,3.052,1.4L57.8,37.03a1.022,1.022,0,0,0,1.345.528l9.622-4.194a2.09,2.09,0,0,1,2.747,1.078l4.888,11.211A2.089,2.089,0,0,1,75.328,48.4l-13.12,5.72A2.09,2.09,0,0,1,59.462,53.04Zm20.216,2.57c-.262.668-.073.223-14.828,6.762a.93.93,0,0,1-1.223-.48l-1.744-4a1.286,1.286,0,0,1,.664-1.693c14.911-6.5,13.776-6.071,14.189-6.071a1.3,1.3,0,0,1,1.184.772C79.551,54.852,79.923,54.985,79.678,55.611Z" transform="translate(-22.501)"/>
      <path id="Path_171833" data-name="Path 171833" d="M95.266,27.724h9.556a.958.958,0,1,0,0-1.916H95.266a.958.958,0,0,0,0,1.916Z" transform="translate(-85.192 -22.532)"/>
      <ellipse id="Ellipse_4858" data-name="Ellipse 4858" cx="1.213" cy="1.213" rx="1.213" ry="1.213" transform="translate(21.909 3.022)"/>
      <path id="Path_171834" data-name="Path 171834" d="M66.78,85.882H64.352a1.438,1.438,0,0,0-1.437,1.437v2.875a1.439,1.439,0,0,0,1.437,1.437H66.78a1.439,1.439,0,0,0,1.437-1.437V87.319A1.439,1.439,0,0,0,66.78,85.882ZM66.3,89.715H64.831V87.8H66.3Z" transform="translate(-57.784 -74.979)"/>
      <path id="Path_171835" data-name="Path 171835" d="M66.78,167.054H64.352a1.439,1.439,0,0,0-1.437,1.437v2.875a1.438,1.438,0,0,0,1.437,1.437H66.78a1.439,1.439,0,0,0,1.437-1.437v-2.875A1.439,1.439,0,0,0,66.78,167.054Zm-.479,3.833H64.831V168.97H66.3Z" transform="translate(-57.784 -145.846)"/>
      <path id="Path_171836" data-name="Path 171836" d="M66.78,248.236H64.352a1.439,1.439,0,0,0-1.437,1.437v2.875a1.439,1.439,0,0,0,1.437,1.437H66.78a1.439,1.439,0,0,0,1.437-1.437v-2.875A1.439,1.439,0,0,0,66.78,248.236Zm-.479,3.833H64.831v-1.916H66.3Z" transform="translate(-57.784 -216.722)"/>
      <path id="Path_171837" data-name="Path 171837" d="M66.78,329.418H64.352a1.438,1.438,0,0,0-1.437,1.437v2.875a1.439,1.439,0,0,0,1.437,1.437H66.78a1.439,1.439,0,0,0,1.437-1.437v-2.874A1.439,1.439,0,0,0,66.78,329.418Zm-.479,3.833H64.831v-1.916H66.3Z" transform="translate(-57.784 -287.597)"/>
      <path id="Path_171838" data-name="Path 171838" d="M66.78,410.59H64.352a1.439,1.439,0,0,0-1.437,1.437V414.9a1.438,1.438,0,0,0,1.437,1.437H66.78a1.439,1.439,0,0,0,1.437-1.437v-2.875A1.439,1.439,0,0,0,66.78,410.59Zm-.479,3.833H64.831v-1.916H66.3Z" transform="translate(-57.784 -358.464)"/>
      <path id="Path_171839" data-name="Path 171839" d="M119.887,102.892h9.2a.958.958,0,0,0,0-1.916h-9.2a.958.958,0,1,0,0,1.916Z" transform="translate(-106.687 -88.157)"/>
      <path id="Path_171840" data-name="Path 171840" d="M222.534,102.892h2.312a.958.958,0,0,0,0-1.916h-2.312a.958.958,0,0,0,0,1.916Z" transform="translate(-196.303 -88.157)"/>
      <path id="Path_171841" data-name="Path 171841" d="M119.887,265.247H122.2a.958.958,0,1,0,0-1.916h-2.312a.958.958,0,1,0,0,1.916Z" transform="translate(-106.687 -229.9)"/>
      <path id="Path_171842" data-name="Path 171842" d="M118.932,426.646a.958.958,0,0,0,.958.958h15.343a.958.958,0,0,0,0-1.916H119.89A.958.958,0,0,0,118.932,426.646Z" transform="translate(-106.69 -371.646)"/>
    </g>
  </g>
</svg>
