<svg xmlns="http://www.w3.org/2000/svg" width="190" height="200" viewBox="0 0 190 200">
  <g id="t1-n5" transform="translate(-1125 -864)">
    <rect id="Rectangle_36707" data-name="Rectangle 36707" width="190" height="200" rx="20" transform="translate(1125 864)" fill="#ddfff4"/>
    <path id="Rectangle_36707_-_Outline" data-name="Rectangle 36707 - Outline" d="M20,2A18,18,0,0,0,2,20V180a18,18,0,0,0,18,18H170a18,18,0,0,0,18-18V20A18,18,0,0,0,170,2H20m0-2H170a20,20,0,0,1,20,20V180a20,20,0,0,1-20,20H20A20,20,0,0,1,0,180V20A20,20,0,0,1,20,0Z" transform="translate(1125 864)" fill="#59ffcc"/>
    <path id="Path_181293" data-name="Path 181293" d="M49.43,15.133,52.262,4.781H56.09L51.3,19h-3.75L42.809,4.781h3.8ZM60.445,19h-3.3V8.434h3.3Zm-3.5-13.3a1.482,1.482,0,0,1,.508-1.159,2.149,2.149,0,0,1,2.637,0A1.482,1.482,0,0,1,60.6,5.7a1.482,1.482,0,0,1-.508,1.159,2.149,2.149,0,0,1-2.637,0A1.482,1.482,0,0,1,56.949,5.7Zm5.107,7.939a6.455,6.455,0,0,1,1.084-3.955,3.568,3.568,0,0,1,3.027-1.445,3.035,3.035,0,0,1,2.383,1.113V4h3.3V19H68.893l-.166-1.133A3.116,3.116,0,0,1,66.148,19.2,3.562,3.562,0,0,1,63.16,17.75,6.659,6.659,0,0,1,62.057,13.639Zm3.291.205q0,2.813,1.641,2.813a1.62,1.62,0,0,0,1.563-.918V11.715a1.576,1.576,0,0,0-1.543-.937q-1.523,0-1.65,2.461ZM78.834,19.2a5.432,5.432,0,0,1-3.936-1.45,5.008,5.008,0,0,1-1.5-3.774V13.7a6.489,6.489,0,0,1,.6-2.861,4.395,4.395,0,0,1,1.753-1.919,5.292,5.292,0,0,1,2.734-.679A4.574,4.574,0,0,1,82,9.62a5.43,5.43,0,0,1,1.289,3.853v1.279H76.744a2.372,2.372,0,0,0,.771,1.4,2.3,2.3,0,0,0,1.543.508A2.958,2.958,0,0,0,81.5,15.563L83,17.34a4.2,4.2,0,0,1-1.743,1.353A5.891,5.891,0,0,1,78.834,19.2Zm-.371-8.418q-1.445,0-1.719,1.914h3.32v-.254a1.63,1.63,0,0,0-.4-1.226A1.593,1.593,0,0,0,78.463,10.777ZM84.2,13.619a6.236,6.236,0,0,1,.615-2.817,4.4,4.4,0,0,1,1.768-1.9,5.323,5.323,0,0,1,2.705-.664,4.858,4.858,0,0,1,3.74,1.47,5.64,5.64,0,0,1,1.367,4v.117a5.472,5.472,0,0,1-1.372,3.921A4.871,4.871,0,0,1,89.3,19.2a4.927,4.927,0,0,1-3.623-1.353,5.29,5.29,0,0,1-1.475-3.667Zm3.291.205a3.932,3.932,0,0,0,.459,2.148,1.529,1.529,0,0,0,1.357.684q1.758,0,1.8-2.705v-.332q0-2.842-1.816-2.842-1.65,0-1.787,2.451Zm13.887,2.207a.76.76,0,0,0-.439-.674,6.685,6.685,0,0,0-1.67-.527,7.615,7.615,0,0,1-2.031-.718,3.4,3.4,0,0,1-1.221-1.079,2.577,2.577,0,0,1-.42-1.455,2.92,2.92,0,0,1,1.2-2.4,4.948,4.948,0,0,1,3.145-.942,5.482,5.482,0,0,1,3.359.947,2.962,2.962,0,0,1,1.27,2.49h-3.3q0-1.27-1.338-1.27a1.326,1.326,0,0,0-.869.288.892.892,0,0,0-.352.718.819.819,0,0,0,.43.713,4.06,4.06,0,0,0,1.372.449,11.857,11.857,0,0,1,1.655.42,3.007,3.007,0,0,1,2.383,2.939,2.767,2.767,0,0,1-1.284,2.354,5.631,5.631,0,0,1-3.325.908,5.747,5.747,0,0,1-2.422-.488,4.05,4.05,0,0,1-1.66-1.328,3.007,3.007,0,0,1-.6-1.768h3.076a1.272,1.272,0,0,0,.488,1.069,2.009,2.009,0,0,0,1.2.337,1.58,1.58,0,0,0,1.011-.273A.875.875,0,0,0,101.373,16.031Z" transform="translate(1146 1014)" fill="#12263f"/>
    <rect id="Rectangle_36708" data-name="Rectangle 36708" width="100" height="100" rx="50" transform="translate(1170 888)" fill="#fff"/>
    <g id="video" transform="translate(1191 906)">
      <path id="Path_171759" data-name="Path 171759" d="M81.219,216.676V247.1a5.813,5.813,0,0,1-5.8,5.8H34.757a5.813,5.813,0,0,1-5.8-5.8V216.676Zm0,0" transform="translate(-25.285 -189.168)" fill="#dee4f0" fill-rule="evenodd"/>
      <path id="Path_171760" data-name="Path 171760" d="M10.244,28.723l2.177,7.516L62.615,21.7l-2.177-7.516a5.812,5.812,0,0,0-7.179-3.954L14.2,21.543a5.813,5.813,0,0,0-3.954,7.179Zm0,0" transform="translate(-8.745 -8.73)" fill="#00ceeb" fill-rule="evenodd"/>
      <path id="Path_171761" data-name="Path 171761" d="M28.961,216.676H81.218v11.881H28.961Zm0,0" transform="translate(-25.284 -189.168)" fill="#00ceeb" fill-rule="evenodd"/>
      <path id="Path_171762" data-name="Path 171762" d="M217.22,360.83l-5.577-3.219-5.577-3.22v12.879l5.577-3.22Zm0,0" transform="translate(-179.906 -309.399)" fill="#ffcf19" fill-rule="evenodd"/>
      <path id="Path_171763" data-name="Path 171763" d="M55.934,26.238H12.621l41.6-12.052a1.27,1.27,0,0,0,.866-1.573L52.913,5.1a7.107,7.107,0,0,0-6.8-5.1,7.034,7.034,0,0,0-1.955.278L5.1,11.594A7.082,7.082,0,0,0,.28,20.345l2.127,7.342V57.935A7.073,7.073,0,0,0,9.472,65H24.727a1.27,1.27,0,1,0,0-2.539H9.472a4.531,4.531,0,0,1-4.526-4.526V40.658H54.665V57.935a4.531,4.531,0,0,1-4.526,4.526H34.883a1.27,1.27,0,1,0,0,2.539H50.138A7.073,7.073,0,0,0,57.2,57.935V27.508a1.269,1.269,0,0,0-1.27-1.27ZM33.548,38.119l5.394-9.342h7.016l-5.394,9.342Zm-9.948,0,5.394-9.342H36.01l-5.394,9.342Zm-9.947,0,5.394-9.342h7.016l-5.394,9.342Zm4.72-16.435L9.34,13.009l6.768-1.96a1.259,1.259,0,0,0,.167.2l9.033,8.675L18.54,21.88a1.263,1.263,0,0,0-.167-.2ZM35.385,5.709l9.033,8.675-6.768,1.96a1.237,1.237,0,0,0-.167-.2L28.45,7.473l6.768-1.96A1.259,1.259,0,0,0,35.385,5.709ZM25.829,8.477l9.033,8.675-6.768,1.961a1.237,1.237,0,0,0-.167-.2L18.9,10.241l6.768-1.96A1.341,1.341,0,0,0,25.829,8.477Zm19.038-5.76a4.489,4.489,0,0,1,1.249-.178,4.555,4.555,0,0,1,4.358,3.266L52.3,12.1,47.2,13.576a1.29,1.29,0,0,0-.167-.2L38.005,4.705ZM3.108,16.2a4.493,4.493,0,0,1,2.7-2.167l.746-.216a1.291,1.291,0,0,0,.167.2l9.033,8.675L4.543,25.935l-1.824-6.3a4.494,4.494,0,0,1,.389-3.44ZM4.946,28.777H16.114l-5.394,9.342H4.946ZM43.5,38.119l5.394-9.342h5.775v9.342Zm0,0" transform="translate(0 0)" fill-rule="evenodd"/>
      <path id="Path_171764" data-name="Path 171764" d="M209.759,352.1a1.269,1.269,0,0,0-.635-1.1l-11.154-6.439a1.27,1.27,0,0,0-1.9,1.1v12.879a1.269,1.269,0,0,0,1.9,1.1l11.154-6.439A1.269,1.269,0,0,0,209.759,352.1Zm-11.154,4.241V347.86l7.345,4.241Zm0,0" transform="translate(-171.175 -300.67)" fill-rule="evenodd"/>
      <path id="Path_171765" data-name="Path 171765" d="M226.043,492a1.27,1.27,0,1,0,1.27,1.27A1.272,1.272,0,0,0,226.043,492Zm0,0" transform="translate(-196.238 -429.539)" fill-rule="evenodd"/>
    </g>
  </g>
</svg>
