<svg xmlns="http://www.w3.org/2000/svg" width="190" height="200" viewBox="0 0 190 200">
  <g id="t1-n3" transform="translate(-705 -864)">
    <rect id="Rectangle_36705" data-name="Rectangle 36705" width="190" height="200" rx="20" transform="translate(705 864)" fill="#ddfff4"/>
    <path id="Rectangle_36705_-_Outline" data-name="Rectangle 36705 - Outline" d="M20,2A18,18,0,0,0,2,20V180a18,18,0,0,0,18,18H170a18,18,0,0,0,18-18V20A18,18,0,0,0,170,2H20m0-2H170a20,20,0,0,1,20,20V180a20,20,0,0,1-20,20H20A20,20,0,0,1,0,180V20A20,20,0,0,1,20,0Z" transform="translate(705 864)" fill="#59ffcc"/>
    <path id="Path_181291" data-name="Path 181291" d="M34.386,19H30.968V4.781h3.418ZM39.728,8.434l.107,1.24a3.633,3.633,0,0,1,3.018-1.436A2.675,2.675,0,0,1,45.558,9.83a3.516,3.516,0,0,1,3.105-1.592q3.213,0,3.3,3.887V19h-3.3V12.33a2.014,2.014,0,0,0-.273-1.182,1.164,1.164,0,0,0-1-.371,1.559,1.559,0,0,0-1.455.869l.01.137V19h-3.3V12.35a2.117,2.117,0,0,0-.264-1.2,1.161,1.161,0,0,0-1.006-.371,1.578,1.578,0,0,0-1.445.869V19H36.642V8.434ZM59.8,19a3.716,3.716,0,0,1-.312-.947A3.06,3.06,0,0,1,56.944,19.2a3.749,3.749,0,0,1-2.539-.9,2.875,2.875,0,0,1-1.045-2.271,2.955,2.955,0,0,1,1.27-2.6,6.468,6.468,0,0,1,3.691-.879h1.016v-.559q0-1.462-1.26-1.462a1.03,1.03,0,0,0-1.172,1.158H53.614a2.95,2.95,0,0,1,1.3-2.487,5.479,5.479,0,0,1,3.325-.956,4.8,4.8,0,0,1,3.193.986,3.429,3.429,0,0,1,1.2,2.705v4.678a4.79,4.79,0,0,0,.449,2.227V19Zm-2.061-2.148a1.836,1.836,0,0,0,1.021-.264,1.653,1.653,0,0,0,.581-.6V14.3H58.38q-1.719,0-1.719,1.543a.942.942,0,0,0,.3.728A1.1,1.1,0,0,0,57.735,16.852ZM58.556,4h3.477L59.317,7.066l-2.686,0Zm5.518,9.639a7.134,7.134,0,0,1,.527-2.832,4.245,4.245,0,0,1,1.514-1.9,3.99,3.99,0,0,1,2.295-.669,3.173,3.173,0,0,1,2.578,1.113l.117-.918h2.988V18.6a4.455,4.455,0,0,1-.649,2.427,4.167,4.167,0,0,1-1.88,1.582,6.91,6.91,0,0,1-2.852.552,5.961,5.961,0,0,1-2.251-.439A4.063,4.063,0,0,1,64.8,21.578l1.377-1.934a3.018,3.018,0,0,0,2.422,1.084,1.96,1.96,0,0,0,2.188-2.246V18.15A3.09,3.09,0,0,1,68.39,19.2a3.819,3.819,0,0,1-3.125-1.479,6.13,6.13,0,0,1-1.191-3.96Zm3.3.205a3.759,3.759,0,0,0,.488,2.056,1.541,1.541,0,0,0,1.367.757,1.748,1.748,0,0,0,1.553-.713V11.5a1.7,1.7,0,0,0-1.533-.723,1.551,1.551,0,0,0-1.377.786A4.287,4.287,0,0,0,67.374,13.844Zm13.7,5.352a5.432,5.432,0,0,1-3.936-1.45,5.008,5.008,0,0,1-1.5-3.774V13.7a6.489,6.489,0,0,1,.6-2.861,4.395,4.395,0,0,1,1.753-1.919,5.292,5.292,0,0,1,2.734-.679A4.574,4.574,0,0,1,84.239,9.62a5.43,5.43,0,0,1,1.289,3.853v1.279H78.985a2.372,2.372,0,0,0,.771,1.4,2.3,2.3,0,0,0,1.543.508,2.958,2.958,0,0,0,2.441-1.094l1.5,1.777A4.2,4.2,0,0,1,83.5,18.692,5.891,5.891,0,0,1,81.075,19.2ZM80.7,10.777q-1.445,0-1.719,1.914h3.32v-.254a1.63,1.63,0,0,0-.4-1.226A1.593,1.593,0,0,0,80.7,10.777Zm9.17-2.344.107,1.24A3.583,3.583,0,0,1,93,8.238a3.015,3.015,0,0,1,2.466.986,4.7,4.7,0,0,1,.845,2.969V19h-3.3V12.33a1.783,1.783,0,0,0-.322-1.177,1.491,1.491,0,0,0-1.172-.376,1.569,1.569,0,0,0-1.436.762V19H86.788V8.434ZM103.243,19.2a5.432,5.432,0,0,1-3.936-1.45,5.008,5.008,0,0,1-1.5-3.774V13.7a6.489,6.489,0,0,1,.6-2.861,4.395,4.395,0,0,1,1.753-1.919,5.292,5.292,0,0,1,2.734-.679,4.574,4.574,0,0,1,3.516,1.382,5.43,5.43,0,0,1,1.289,3.853v1.279h-6.543a2.372,2.372,0,0,0,.771,1.4,2.3,2.3,0,0,0,1.543.508,2.958,2.958,0,0,0,2.441-1.094l1.5,1.777a4.2,4.2,0,0,1-1.743,1.353A5.891,5.891,0,0,1,103.243,19.2Zm-.371-8.418q-1.445,0-1.719,1.914h3.32v-.254a1.63,1.63,0,0,0-.4-1.226A1.593,1.593,0,0,0,102.872,10.777Zm11.68,5.254a.76.76,0,0,0-.439-.674,6.685,6.685,0,0,0-1.67-.527,7.615,7.615,0,0,1-2.031-.718,3.4,3.4,0,0,1-1.221-1.079,2.577,2.577,0,0,1-.42-1.455,2.92,2.92,0,0,1,1.2-2.4,4.948,4.948,0,0,1,3.145-.942,5.482,5.482,0,0,1,3.359.947,2.962,2.962,0,0,1,1.27,2.49h-3.3q0-1.27-1.338-1.27a1.326,1.326,0,0,0-.869.288.892.892,0,0,0-.352.718.819.819,0,0,0,.43.713,4.06,4.06,0,0,0,1.372.449,11.857,11.857,0,0,1,1.655.42,3.007,3.007,0,0,1,2.383,2.939,2.767,2.767,0,0,1-1.284,2.354,5.631,5.631,0,0,1-3.325.908,5.747,5.747,0,0,1-2.422-.488,4.05,4.05,0,0,1-1.66-1.328,3.007,3.007,0,0,1-.6-1.768h3.076A1.272,1.272,0,0,0,112,16.681a2.009,2.009,0,0,0,1.2.337,1.58,1.58,0,0,0,1.011-.273A.875.875,0,0,0,114.552,16.031Z" transform="translate(726 1014)" fill="#12263f"/>
    <rect id="Rectangle_36706" data-name="Rectangle 36706" width="100" height="100" rx="50" transform="translate(750 888)" fill="#fff"/>
    <g id="image" transform="translate(769 881)">
      <path id="Path_171706" data-name="Path 171706" d="M120.451,112H85.894A3.894,3.894,0,0,0,82,115.894V143.15a3.894,3.894,0,0,0,3.894,3.894h34.558a3.894,3.894,0,0,0,3.894-3.894V115.894A3.894,3.894,0,0,0,120.451,112Z" transform="translate(-72.022 -72.022)" fill="#d4fff2"/>
      <path id="Path_171707" data-name="Path 171707" d="M97.017,274.007a3.216,3.216,0,0,0-5.322-.074l-8.107,11.451a3.9,3.9,0,0,0,3.7,2.682h18.8Z" transform="translate(-73.417 -213.044)" fill="#8cffdc"/>
      <path id="Path_171708" data-name="Path 171708" d="M251.937,240.662v-2.217l-10.648-13.663a4.482,4.482,0,0,0-7.443.48l-6.578,11.394,3.533,7.9h17.242A3.894,3.894,0,0,0,251.937,240.662Z" transform="translate(-199.614 -169.534)" fill="#59ffcc"/>
      <g id="Group_112781" data-name="Group 112781" transform="translate(1.083 31.367)">
        <rect id="Rectangle_36860" data-name="Rectangle 36860" width="5.959" height="5.959" transform="translate(54.175 0)" fill="#00ceeb"/>
        <rect id="Rectangle_36861" data-name="Rectangle 36861" width="5.959" height="5.959" transform="translate(0 0)" fill="#00ceeb"/>
        <rect id="Rectangle_36862" data-name="Rectangle 36862" width="5.959" height="5.959" transform="translate(54.175 46.59)" fill="#00ceeb"/>
        <rect id="Rectangle_36863" data-name="Rectangle 36863" width="5.959" height="5.959" transform="translate(0 46.59)" fill="#00ceeb"/>
      </g>
      <circle id="Ellipse_4856" data-name="Ellipse 4856" cx="3.894" cy="3.894" r="3.894" transform="translate(21.274 46.59)" fill="#ffcf19"/>
      <path id="Path_171709" data-name="Path 171709" d="M205.854,38.274a1.217,1.217,0,0,0,1.217-1.217V31.217A1.217,1.217,0,0,0,205.854,30h-5.841a1.217,1.217,0,0,0-1.217,1.217v1.7H166.043a1.217,1.217,0,0,0,0,2.434H198.8v1.7a1.217,1.217,0,0,0,1.217,1.217h1.7V76.726h-1.7a1.217,1.217,0,0,0-1.217,1.217v5.841A1.217,1.217,0,0,0,200.013,85h5.841a1.217,1.217,0,0,0,1.217-1.217V77.942a1.217,1.217,0,0,0-1.217-1.217h-1.7V38.274Zm-1.217,44.292H201.23V79.159h3.407ZM201.23,32.434h3.407v3.407H201.23Z" transform="translate(-144.77)"/>
      <path id="Path_171710" data-name="Path 171710" d="M92.2,56.434h4.259a1.217,1.217,0,0,0,0-2.434H92.2a1.217,1.217,0,1,0,0,2.434Z" transform="translate(-79.916 -21.08)"/>
      <path id="Path_171711" data-name="Path 171711" d="M403.217,438a1.217,1.217,0,1,0,.86.357A1.226,1.226,0,0,0,403.217,438Z" transform="translate(-353.084 -358.354)"/>
      <path id="Path_171712" data-name="Path 171712" d="M45.387,79.646H8.274v-1.7a1.217,1.217,0,0,0-1.217-1.217h-1.7V38.274h1.7a1.217,1.217,0,0,0,1.217-1.217V31.217A1.217,1.217,0,0,0,7.058,30H1.217A1.217,1.217,0,0,0,0,31.217v5.841a1.217,1.217,0,0,0,1.217,1.217h1.7V76.726h-1.7A1.217,1.217,0,0,0,0,77.942v5.841A1.217,1.217,0,0,0,1.217,85H7.058a1.217,1.217,0,0,0,1.217-1.217v-1.7H45.387a1.217,1.217,0,0,0,0-2.434ZM2.434,32.434H5.841v3.407H2.434ZM5.841,82.566H2.434V79.159H5.841Z"/>
      <path id="Path_171713" data-name="Path 171713" d="M111.668,102h-11.8a1.217,1.217,0,1,0,0,2.434h11.8a2.68,2.68,0,0,1,2.677,2.677v21.713l-8.464-11.076a5.7,5.7,0,0,0-9.463.611l-5.592,9.686-2.97-4.512a4.432,4.432,0,0,0-7.336-.1l-6.086,8.711V107.111a2.68,2.68,0,0,1,2.677-2.677h13.06a1.217,1.217,0,0,0,0-2.434H77.111A5.116,5.116,0,0,0,72,107.111v27.257a5.116,5.116,0,0,0,5.111,5.111h34.558a5.116,5.116,0,0,0,5.111-5.111V107.111A5.116,5.116,0,0,0,111.668,102ZM74.849,135.8l7.666-10.972a2,2,0,0,1,3.308.046l8.013,12.174H77.111A2.677,2.677,0,0,1,74.849,135.8Zm36.819,1.248H96.749l-4.426-6.725,6.2-10.744a3.265,3.265,0,0,1,5.422-.35l10.4,13.607v1.535A2.68,2.68,0,0,1,111.668,137.044Z" transform="translate(-63.239 -63.239)"/>
      <path id="Path_171714" data-name="Path 171714" d="M251.577,104.077a1.216,1.216,0,1,0-.86.357A1.226,1.226,0,0,0,251.577,104.077Z" transform="translate(-219.14 -63.239)"/>
      <path id="Path_171715" data-name="Path 171715" d="M164.826,161.456a5.111,5.111,0,1,0,5.111-5.111A5.116,5.116,0,0,0,164.826,161.456Zm7.788,0a2.677,2.677,0,1,1-2.677-2.677A2.68,2.68,0,0,1,172.614,161.456Z" transform="translate(-144.77 -110.971)"/>
    </g>
  </g>
</svg>
