<svg xmlns="http://www.w3.org/2000/svg" width="190" height="200" viewBox="0 0 190 200">
  <g id="t1-n4" transform="translate(-915 -864)">
    <rect id="Rectangle_36703" data-name="Rectangle 36703" width="190" height="200" rx="20" transform="translate(915 864)" fill="#fff5d0"/>
    <path id="Rectangle_36703_-_Outline" data-name="Rectangle 36703 - Outline" d="M20,2A18,18,0,0,0,2,20V180a18,18,0,0,0,18,18H170a18,18,0,0,0,18-18V20A18,18,0,0,0,170,2H20m0-2H170a20,20,0,0,1,20,20V180a20,20,0,0,1-20,20H20A20,20,0,0,1,0,180V20A20,20,0,0,1,20,0Z" transform="translate(915 864)" fill="#ffcf19"/>
    <path id="Path_181292" data-name="Path 181292" d="M24.5,16.344H19.8L18.98,19H15.318L20.533,4.781h3.223L29.01,19H25.328ZM20.621,13.7h3.057L22.145,8.766ZM32.447,8.434l.107,1.24a3.583,3.583,0,0,1,3.018-1.436,3.015,3.015,0,0,1,2.466.986,4.7,4.7,0,0,1,.845,2.969V19h-3.3V12.33a1.783,1.783,0,0,0-.322-1.177,1.491,1.491,0,0,0-1.172-.376,1.569,1.569,0,0,0-1.436.762V19H29.361V8.434ZM44.176,19h-3.3V8.434h3.3ZM40.68,5.7a1.482,1.482,0,0,1,.508-1.159,2.149,2.149,0,0,1,2.637,0A1.482,1.482,0,0,1,44.332,5.7a1.482,1.482,0,0,1-.508,1.159,2.149,2.149,0,0,1-2.637,0A1.482,1.482,0,0,1,40.68,5.7Zm8.633,2.734.107,1.24a3.633,3.633,0,0,1,3.018-1.436A2.675,2.675,0,0,1,55.143,9.83a3.516,3.516,0,0,1,3.105-1.592q3.213,0,3.3,3.887V19h-3.3V12.33a2.014,2.014,0,0,0-.273-1.182,1.164,1.164,0,0,0-1-.371,1.559,1.559,0,0,0-1.455.869l.01.137V19h-3.3V12.35a2.117,2.117,0,0,0-.264-1.2,1.161,1.161,0,0,0-1.006-.371,1.578,1.578,0,0,0-1.445.869V19H46.227V8.434ZM69.381,19a3.716,3.716,0,0,1-.312-.947A3.06,3.06,0,0,1,66.529,19.2a3.749,3.749,0,0,1-2.539-.9,2.875,2.875,0,0,1-1.045-2.271,2.955,2.955,0,0,1,1.27-2.6,6.468,6.468,0,0,1,3.691-.879h1.016v-.559q0-1.462-1.26-1.462a1.03,1.03,0,0,0-1.172,1.158H63.2a2.95,2.95,0,0,1,1.3-2.487,5.479,5.479,0,0,1,3.325-.956,4.8,4.8,0,0,1,3.193.986,3.429,3.429,0,0,1,1.2,2.705v4.678a4.79,4.79,0,0,0,.449,2.227V19ZM67.32,16.852a1.836,1.836,0,0,0,1.021-.264,1.653,1.653,0,0,0,.581-.6V14.3h-.957q-1.719,0-1.719,1.543a.942.942,0,0,0,.3.728A1.1,1.1,0,0,0,67.32,16.852Zm11.191-.2a1.464,1.464,0,0,0,1.074-.376,1.379,1.379,0,0,0,.371-1.05h3.086A3.653,3.653,0,0,1,81.8,18.082,4.631,4.631,0,0,1,78.59,19.2a4.689,4.689,0,0,1-3.633-1.445,5.7,5.7,0,0,1-1.328-4v-.137a6.436,6.436,0,0,1,.591-2.827,4.3,4.3,0,0,1,1.7-1.885,5.081,5.081,0,0,1,2.637-.659,4.573,4.573,0,0,1,3.271,1.143,4.053,4.053,0,0,1,1.211,3.1H79.957a1.806,1.806,0,0,0-.4-1.26,1.382,1.382,0,0,0-1.074-.439q-1.279,0-1.494,1.631a11.508,11.508,0,0,0-.068,1.426,4.52,4.52,0,0,0,.381,2.207A1.319,1.319,0,0,0,78.512,16.656ZM87.906,19h-3.3V8.434h3.3ZM84.41,5.7a1.482,1.482,0,0,1,.508-1.159,2.149,2.149,0,0,1,2.637,0A1.482,1.482,0,0,1,88.063,5.7a1.482,1.482,0,0,1-.508,1.159,2.149,2.149,0,0,1-2.637,0A1.482,1.482,0,0,1,84.41,5.7Zm5.107,7.92a6.236,6.236,0,0,1,.615-2.817A4.4,4.4,0,0,1,91.9,8.9a5.323,5.323,0,0,1,2.705-.664,4.858,4.858,0,0,1,3.74,1.47,5.64,5.64,0,0,1,1.367,4v.117a5.472,5.472,0,0,1-1.372,3.921,4.871,4.871,0,0,1-3.716,1.45A4.927,4.927,0,0,1,91,17.843a5.29,5.29,0,0,1-1.475-3.667Zm3.291.205a3.932,3.932,0,0,0,.459,2.148,1.529,1.529,0,0,0,1.357.684q1.758,0,1.8-2.705v-.332q0-2.842-1.816-2.842-1.65,0-1.787,2.451Zm11.377-5.391.107,1.24a3.583,3.583,0,0,1,3.018-1.436,3.015,3.015,0,0,1,2.466.986,4.7,4.7,0,0,1,.845,2.969V19h-3.3V12.33A1.783,1.783,0,0,0,107,11.153a1.491,1.491,0,0,0-1.172-.376,1.569,1.569,0,0,0-1.436.762V19H101.1V8.434ZM117.555,19.2a5.432,5.432,0,0,1-3.936-1.45,5.008,5.008,0,0,1-1.5-3.774V13.7a6.489,6.489,0,0,1,.6-2.861,4.395,4.395,0,0,1,1.753-1.919,5.292,5.292,0,0,1,2.734-.679,4.574,4.574,0,0,1,3.516,1.382,5.43,5.43,0,0,1,1.289,3.853v1.279h-6.543a2.372,2.372,0,0,0,.771,1.4,2.3,2.3,0,0,0,1.543.508,2.958,2.958,0,0,0,2.441-1.094l1.5,1.777a4.2,4.2,0,0,1-1.743,1.353A5.891,5.891,0,0,1,117.555,19.2Zm-.371-8.418q-1.445,0-1.719,1.914h3.32v-.254a1.63,1.63,0,0,0-.4-1.226A1.593,1.593,0,0,0,117.184,10.777Zm11.68,5.254a.76.76,0,0,0-.439-.674,6.685,6.685,0,0,0-1.67-.527,7.615,7.615,0,0,1-2.031-.718,3.4,3.4,0,0,1-1.221-1.079,2.577,2.577,0,0,1-.42-1.455,2.92,2.92,0,0,1,1.2-2.4,4.948,4.948,0,0,1,3.145-.942,5.482,5.482,0,0,1,3.359.947,2.962,2.962,0,0,1,1.27,2.49h-3.3q0-1.27-1.338-1.27a1.326,1.326,0,0,0-.869.288.892.892,0,0,0-.352.718.819.819,0,0,0,.43.713,4.06,4.06,0,0,0,1.372.449,11.857,11.857,0,0,1,1.655.42,3.007,3.007,0,0,1,2.383,2.939,2.767,2.767,0,0,1-1.284,2.354,5.632,5.632,0,0,1-3.325.908,5.747,5.747,0,0,1-2.422-.488,4.05,4.05,0,0,1-1.66-1.328,3.007,3.007,0,0,1-.6-1.768h3.076a1.272,1.272,0,0,0,.488,1.069,2.009,2.009,0,0,0,1.2.337,1.58,1.58,0,0,0,1.011-.273A.875.875,0,0,0,128.863,16.031Z" transform="translate(936 1014)" fill="#12263f"/>
    <rect id="Rectangle_36704" data-name="Rectangle 36704" width="100" height="100" rx="50" transform="translate(960 888)" fill="#fff"/>
    <g id="motion-graphics_1_" data-name="motion-graphics (1)" transform="translate(943.262 906)">
      <g id="Group_112782" data-name="Group 112782" transform="translate(39.69 36.773)">
        <path id="Path_171716" data-name="Path 171716" d="M178.8,364.3v2.672a.934.934,0,0,0,.934.934h34.563a.934.934,0,0,0,.934-.934V364.3a.934.934,0,0,0-.934-.934H179.731A.934.934,0,0,0,178.8,364.3Z" transform="translate(-161.968 -354.012)" fill="#c5d3dd"/>
        <path id="Path_171717" data-name="Path 171717" d="M178.8,364.3v2.672a.934.934,0,0,0,.934.934h25.858a.934.934,0,0,0,.934-.934V364.3a.934.934,0,0,0-.934-.934H179.731A.934.934,0,0,0,178.8,364.3Z" transform="translate(-161.968 -354.012)" fill="#ffcf19"/>
        <path id="Path_171718" data-name="Path 171718" d="M46.239,364.259v2.763a.888.888,0,0,0,.888.888H56.58a.888.888,0,0,0,.888-.888v-2.763a.888.888,0,0,0-.888-.888H47.127A.888.888,0,0,0,46.239,364.259Z" transform="translate(-46.239 -354.013)" fill="#59ffcc"/>
        <path id="Path_171719" data-name="Path 171719" d="M178.8,435.518v2.672a.934.934,0,0,0,.934.934h34.563a.934.934,0,0,0,.934-.934v-2.672a.934.934,0,0,0-.934-.934H179.731A.934.934,0,0,0,178.8,435.518Z" transform="translate(-161.968 -416.185)" fill="#c5d3dd"/>
        <path id="Path_171720" data-name="Path 171720" d="M178.8,435.518v2.672a.934.934,0,0,0,.934.934h20.117a.934.934,0,0,0,.934-.934v-2.672a.934.934,0,0,0-.934-.934H179.731A.934.934,0,0,0,178.8,435.518Z" transform="translate(-161.968 -416.185)" fill="#ffcf19"/>
        <path id="Path_171721" data-name="Path 171721" d="M46.239,435.473v2.763a.888.888,0,0,0,.888.888H56.58a.888.888,0,0,0,.888-.888v-2.763a.888.888,0,0,0-.888-.888H47.127A.888.888,0,0,0,46.239,435.473Z" transform="translate(-46.239 -416.186)" fill="#9124ff"/>
        <path id="Path_171722" data-name="Path 171722" d="M259.026,294.527l-1.377,1.152a1.537,1.537,0,0,1-1.973,0l-1.377-1.152a.769.769,0,0,1-.276-.59v-3.508a.769.769,0,0,1,.769-.769h3.74a.769.769,0,0,1,.769.769v3.508A.769.769,0,0,1,259.026,294.527Z" transform="translate(-227.644 -289.659)" fill="#00ceeb"/>
      </g>
      <path id="Path_171723" data-name="Path 171723" d="M95.921,38.782h-46.1A3.578,3.578,0,0,1,46.239,35.2V11.078A3.578,3.578,0,0,1,49.817,7.5h46.1A3.578,3.578,0,0,1,99.5,11.078V35.2a3.578,3.578,0,0,1-3.578,3.578Z" transform="translate(-6.549 -6.548)" fill="#e8edf2"/>
      <path id="Path_171724" data-name="Path 171724" d="M416.627,7.5H413.58a3.578,3.578,0,0,1,3.578,3.578V35.2a3.578,3.578,0,0,1-3.578,3.578h3.047A3.578,3.578,0,0,0,420.2,35.2V11.078A3.578,3.578,0,0,0,416.627,7.5Z" transform="translate(-327.255 -6.548)" fill="#c5d3dd"/>
      <circle id="Ellipse_4857" data-name="Ellipse 4857" cx="4.402" cy="4.402" r="4.402" transform="translate(76.166 11.184)" fill="#00ceeb"/>
      <path id="Path_171725" data-name="Path 171725" d="M342.8,93.507a4.4,4.4,0,0,1-6.4,5.462,4.4,4.4,0,1,0,6.4-5.462Z" transform="translate(-259.875 -81.636)" fill="#00ceeb" style="mix-blend-mode: multiply;isolation: isolate"/>
      <g id="Group_112783" data-name="Group 112783" transform="translate(38.738)">
        <path id="Path_171726" data-name="Path 171726" d="M207.746,291.516H185.39V290.25a2.49,2.49,0,0,0,.646-.389l1.377-1.153a1.717,1.717,0,0,0,.617-1.32V283.88a1.723,1.723,0,0,0-1.722-1.722h-3.74a1.723,1.723,0,0,0-1.722,1.722v3.508a1.717,1.717,0,0,0,.617,1.32l1.377,1.153a2.486,2.486,0,0,0,.645.389v1.266h-10.3A1.888,1.888,0,0,0,171.3,293.4v2.672a1.888,1.888,0,0,0,1.886,1.886h10.3v2.6h-10.3a1.888,1.888,0,0,0-1.886,1.886v2.672A1.888,1.888,0,0,0,173.183,307h10.3v3.385a.952.952,0,0,0,1.9,0V307h22.356a1.888,1.888,0,0,0,1.886-1.886v-2.672a1.888,1.888,0,0,0-1.886-1.886H185.39v-2.6h22.356a1.888,1.888,0,0,0,1.886-1.886V293.4a1.888,1.888,0,0,0-1.886-1.886ZM182.751,287.3v-3.24h3.374v3.24l-1.312,1.1a.584.584,0,0,1-.372.136h-.008a.583.583,0,0,1-.371-.136ZM173.2,305.1v-2.635h10.285V305.1Zm34.527,0H195.186v-2.635h12.542Zm-14.446-2.635V305.1H185.39v-2.635Zm-20.08-6.406V293.42h10.285v2.635Zm12.189-2.635h13.632v2.635H185.39Zm22.338,2.635h-6.8V293.42h6.8Z" transform="translate(-154.468 -246.337)"/>
        <path id="Path_171727" data-name="Path 171727" d="M50.031,355.871H40.579a1.843,1.843,0,0,0-1.841,1.84v2.763a1.843,1.843,0,0,0,1.841,1.84h9.452a1.842,1.842,0,0,0,1.84-1.84v-2.763a1.842,1.842,0,0,0-1.84-1.84Zm-.064,4.539H40.642v-2.635h9.325Z" transform="translate(-38.738 -310.692)"/>
        <path id="Path_171728" data-name="Path 171728" d="M50.031,427.085H40.579a1.843,1.843,0,0,0-1.841,1.84v2.763a1.843,1.843,0,0,0,1.841,1.84h9.452a1.842,1.842,0,0,0,1.84-1.84v-2.763a1.842,1.842,0,0,0-1.84-1.84Zm-.064,4.539H40.642v-2.635h9.325Z" transform="translate(-38.738 -372.865)"/>
        <path id="Path_171729" data-name="Path 171729" d="M89.372,0h-46.1a4.535,4.535,0,0,0-4.53,4.53V28.656a4.535,4.535,0,0,0,4.53,4.53h6.44a.952.952,0,1,0,0-1.9h-6.44a2.629,2.629,0,0,1-2.626-2.626V4.53A2.629,2.629,0,0,1,43.268,1.9h46.1A2.629,2.629,0,0,1,92,4.53V28.656a2.629,2.629,0,0,1-2.626,2.626H53.517a.952.952,0,0,0,0,1.9H89.372a4.535,4.535,0,0,0,4.53-4.53V4.53A4.535,4.535,0,0,0,89.372,0Z" transform="translate(-38.738)"/>
        <path id="Path_171730" data-name="Path 171730" d="M336.765,85.949a5.354,5.354,0,1,0-5.354,5.354A5.36,5.36,0,0,0,336.765,85.949Zm-8.8,0a3.45,3.45,0,1,1,3.45,3.45A3.454,3.454,0,0,1,327.961,85.949Z" transform="translate(-289.581 -70.363)"/>
        <path id="Path_171731" data-name="Path 171731" d="M125.785,75.531a13,13,0,0,0-9.447,4.109,17.542,17.542,0,0,0-15.173-8.727.952.952,0,0,0,0,1.9,15.592,15.592,0,0,1,8.462,2.483,15.819,15.819,0,0,1,5.676,6.448.954.954,0,0,0,1.622.154,11.091,11.091,0,0,1,8.861-4.467.952.952,0,1,0,0-1.9Z" transform="translate(-92.409 -61.91)"/>
        <path id="Path_171732" data-name="Path 171732" d="M241.9,138.541a8.969,8.969,0,0,0-8.654,6.6.952.952,0,1,0,1.837.5,7.065,7.065,0,0,1,6.816-5.2.952.952,0,0,0,0-1.9Z" transform="translate(-208.525 -120.953)"/>
        <path id="Path_171733" data-name="Path 171733" d="M101.165,104.074a11.7,11.7,0,0,1,11.518,9.726.952.952,0,0,0,1.878-.318,13.608,13.608,0,0,0-13.4-11.312.952.952,0,1,0,0,1.9Z" transform="translate(-92.409 -89.199)"/>
      </g>
    </g>
  </g>
</svg>
