<svg xmlns="http://www.w3.org/2000/svg" width="190" height="200" viewBox="0 0 190 200">
  <g id="t1-n6" transform="translate(-495 -1153)">
    <rect id="Rectangle_36709" data-name="Rectangle 36709" width="190" height="200" rx="20" transform="translate(495 1153)" fill="#ddfff4"/>
    <path id="Rectangle_36709_-_Outline" data-name="Rectangle 36709 - Outline" d="M20,2A18,18,0,0,0,2,20V180a18,18,0,0,0,18,18H170a18,18,0,0,0,18-18V20A18,18,0,0,0,170,2H20m0-2H170a20,20,0,0,1,20,20V180a20,20,0,0,1-20,20H20A20,20,0,0,1,0,180V20A20,20,0,0,1,20,0Z" transform="translate(495 1153)" fill="#59ffcc"/>
    <path id="Path_181294" data-name="Path 181294" d="M20.274,14.186a5.193,5.193,0,0,1-.8,2.622,4.833,4.833,0,0,1-2.056,1.763A7,7,0,0,1,14.4,19.2a5.584,5.584,0,0,1-4.414-1.826A7.54,7.54,0,0,1,8.37,12.213v-.7A8.607,8.607,0,0,1,9.1,7.853a5.513,5.513,0,0,1,2.095-2.422,5.844,5.844,0,0,1,3.164-.854,6.129,6.129,0,0,1,4.16,1.362A5.383,5.383,0,0,1,20.3,9.693H16.886a2.547,2.547,0,0,0-.654-1.865,2.691,2.691,0,0,0-1.875-.566,2.048,2.048,0,0,0-1.875.957,6.151,6.151,0,0,0-.625,3.057v1.006a6.806,6.806,0,0,0,.571,3.252,2.091,2.091,0,0,0,1.968.977,2.632,2.632,0,0,0,1.807-.557,2.363,2.363,0,0,0,.664-1.768Zm1.055-.566a6.236,6.236,0,0,1,.615-2.817,4.4,4.4,0,0,1,1.768-1.9,5.323,5.323,0,0,1,2.705-.664,4.858,4.858,0,0,1,3.74,1.47,5.64,5.64,0,0,1,1.367,4v.117a5.472,5.472,0,0,1-1.372,3.921,4.871,4.871,0,0,1-3.716,1.45,4.927,4.927,0,0,1-3.623-1.353,5.29,5.29,0,0,1-1.475-3.667Zm3.291.205a3.932,3.932,0,0,0,.459,2.148,1.529,1.529,0,0,0,1.357.684q1.758,0,1.8-2.705v-.332q0-2.842-1.816-2.842-1.65,0-1.787,2.451ZM36.085,8.434l.107,1.24A3.633,3.633,0,0,1,39.21,8.238,2.675,2.675,0,0,1,41.915,9.83a3.516,3.516,0,0,1,3.105-1.592q3.213,0,3.3,3.887V19h-3.3V12.33a2.014,2.014,0,0,0-.273-1.182,1.164,1.164,0,0,0-1-.371,1.559,1.559,0,0,0-1.455.869l.01.137V19H39V12.35a2.117,2.117,0,0,0-.264-1.2,1.161,1.161,0,0,0-1.006-.371,1.578,1.578,0,0,0-1.445.869V19H33V8.434Zm23.926,5.361A6.372,6.372,0,0,1,58.9,17.726a3.554,3.554,0,0,1-2.993,1.47,3.046,3.046,0,0,1-2.393-1.064v4.932H50.226V8.434H53.3l.1.977a3.046,3.046,0,0,1,2.49-1.172,3.582,3.582,0,0,1,3.037,1.44,6.45,6.45,0,0,1,1.084,3.96ZM56.72,13.59q0-2.812-1.641-2.812a1.549,1.549,0,0,0-1.562.84v4.16a1.6,1.6,0,0,0,1.582.879q1.572,0,1.621-2.715Zm11.035,4.268A3.393,3.393,0,0,1,64.933,19.2,3.328,3.328,0,0,1,62.3,18.185a4.251,4.251,0,0,1-.894-2.905V8.434H64.7V15.3a1.183,1.183,0,0,0,1.318,1.357,1.72,1.72,0,0,0,1.611-.811V8.434h3.311V19H67.853ZM76.573,5.807V8.434h1.738v2.285H76.573v4.834a1.234,1.234,0,0,0,.215.83,1.152,1.152,0,0,0,.85.234,4.828,4.828,0,0,0,.82-.059v2.354A6.074,6.074,0,0,1,76.6,19.2a3.448,3.448,0,0,1-2.51-.8,3.282,3.282,0,0,1-.811-2.432V10.719H71.935V8.434h1.348V5.807ZM85.558,19a3.716,3.716,0,0,1-.312-.947A3.06,3.06,0,0,1,82.706,19.2a3.749,3.749,0,0,1-2.539-.9,2.875,2.875,0,0,1-1.045-2.271,2.955,2.955,0,0,1,1.27-2.6,6.468,6.468,0,0,1,3.691-.879H85.1v-.559q0-1.462-1.26-1.462a1.03,1.03,0,0,0-1.172,1.158H79.376a2.95,2.95,0,0,1,1.3-2.487A5.479,5.479,0,0,1,84,8.238a4.8,4.8,0,0,1,3.193.986,3.429,3.429,0,0,1,1.2,2.705v4.678a4.79,4.79,0,0,0,.449,2.227V19ZM83.5,16.852a1.836,1.836,0,0,0,1.021-.264,1.653,1.653,0,0,0,.581-.6V14.3h-.957q-1.719,0-1.719,1.543a.942.942,0,0,0,.3.728A1.1,1.1,0,0,0,83.5,16.852Zm6.309-3.213A6.455,6.455,0,0,1,90.89,9.684a3.568,3.568,0,0,1,3.027-1.445A3.035,3.035,0,0,1,96.3,9.352V4h3.3V19H96.642l-.166-1.133A3.116,3.116,0,0,1,93.9,19.2a3.562,3.562,0,0,1-2.988-1.445A6.659,6.659,0,0,1,89.806,13.639Zm3.291.205q0,2.813,1.641,2.813a1.62,1.62,0,0,0,1.563-.918V11.715a1.576,1.576,0,0,0-1.543-.937q-1.523,0-1.65,2.461Zm7.959-.225a6.236,6.236,0,0,1,.615-2.817,4.4,4.4,0,0,1,1.768-1.9,5.323,5.323,0,0,1,2.705-.664,4.858,4.858,0,0,1,3.74,1.47,5.64,5.64,0,0,1,1.367,4v.117a5.472,5.472,0,0,1-1.372,3.921,4.871,4.871,0,0,1-3.716,1.45,4.927,4.927,0,0,1-3.623-1.353,5.29,5.29,0,0,1-1.475-3.667Zm3.291.205a3.932,3.932,0,0,0,.459,2.148,1.529,1.529,0,0,0,1.357.684q1.758,0,1.8-2.705v-.332q0-2.842-1.816-2.842-1.65,0-1.787,2.451Zm14.746-2.412-1.084-.078a1.947,1.947,0,0,0-1.992.977V19h-3.291V8.434h3.086l.107,1.357a2.548,2.548,0,0,1,2.314-1.553,3.209,3.209,0,0,1,.918.117Zm6.113,7.783a5.432,5.432,0,0,1-3.936-1.45,5.008,5.008,0,0,1-1.5-3.774V13.7a6.489,6.489,0,0,1,.6-2.861,4.395,4.395,0,0,1,1.753-1.919,5.292,5.292,0,0,1,2.734-.679A4.574,4.574,0,0,1,128.37,9.62a5.43,5.43,0,0,1,1.289,3.853v1.279h-6.543a2.372,2.372,0,0,0,.771,1.4,2.3,2.3,0,0,0,1.543.508,2.958,2.958,0,0,0,2.441-1.094l1.5,1.777a4.2,4.2,0,0,1-1.743,1.353A5.891,5.891,0,0,1,125.206,19.2Zm-.371-8.418q-1.445,0-1.719,1.914h3.32v-.254a1.63,1.63,0,0,0-.4-1.226A1.593,1.593,0,0,0,124.835,10.777Zm11.68,5.254a.76.76,0,0,0-.439-.674,6.685,6.685,0,0,0-1.67-.527,7.615,7.615,0,0,1-2.031-.718,3.4,3.4,0,0,1-1.221-1.079,2.577,2.577,0,0,1-.42-1.455,2.92,2.92,0,0,1,1.2-2.4,4.948,4.948,0,0,1,3.145-.942,5.482,5.482,0,0,1,3.359.947,2.962,2.962,0,0,1,1.27,2.49h-3.3q0-1.27-1.338-1.27a1.326,1.326,0,0,0-.869.288.892.892,0,0,0-.352.718.819.819,0,0,0,.43.713,4.06,4.06,0,0,0,1.372.449,11.857,11.857,0,0,1,1.655.42,3.007,3.007,0,0,1,2.383,2.939,2.767,2.767,0,0,1-1.284,2.354,5.632,5.632,0,0,1-3.325.908,5.747,5.747,0,0,1-2.422-.488A4.05,4.05,0,0,1,131,17.379a3.007,3.007,0,0,1-.6-1.768h3.076a1.272,1.272,0,0,0,.488,1.069,2.009,2.009,0,0,0,1.2.337,1.58,1.58,0,0,0,1.011-.273A.875.875,0,0,0,136.515,16.031Z" transform="translate(516 1303)" fill="#12263f"/>
    <rect id="Rectangle_36710" data-name="Rectangle 36710" width="100" height="100" rx="50" transform="translate(543 1177)" fill="#fff"/>
    <g id="analytics" transform="translate(560 1199)">
      <g id="Group_112790" data-name="Group 112790" transform="translate(0.94 0.951)">
        <path id="Path_171772" data-name="Path 171772" d="M212.435,326.194H197.49v13.119l.891,2.644h12.9l1.16-2.644Z" transform="translate(-173.407 -290.127)" fill="#dce1ea"/>
        <g id="Group_112789" data-name="Group 112789">
          <g id="XMLID_248_">
            <g id="Group_112785" data-name="Group 112785">
              <path id="Path_171773" data-name="Path 171773" d="M204.894,334.943h7.547l-.006-8.749H197.49v13.119l.891,2.644h4.865l-.891-2.644v-1.831a2.539,2.539,0,0,1,2.539-2.539Z" transform="translate(-173.407 -290.127)" fill="#bac6d3"/>
              <path id="Path_171774" data-name="Path 171774" d="M67.574,41.544H10.389A2.957,2.957,0,0,0,7.432,44.5V78.667c-.013.022-.014.035,0,.035.257,0,6.064,2.879,6.064,2.879H68.241L70.531,78.7V44.5A2.957,2.957,0,0,0,67.574,41.544Z" transform="translate(-7.422 -41.544)" fill="#4fe9ff"/>
              <path id="Path_171775" data-name="Path 171775" d="M16.307,78.675v-37c0-.043,0-.086,0-.129H10.389A2.957,2.957,0,0,0,7.432,44.5V78.667c-.013.022-.014.035,0,.035.257,0,6.064,2.879,6.064,2.879h5.218A2.958,2.958,0,0,1,16.307,78.675Z" transform="translate(-7.422 -41.544)" fill="#a1f3ff"/>
              <path id="Path_171776" data-name="Path 171776" d="M70.6,334.8v2.8a2.957,2.957,0,0,1-2.957,2.957H10.457A2.957,2.957,0,0,1,7.5,337.6v-2.8H70.6Z" transform="translate(-7.49 -297.646)" fill="#dee4f0"/>
            </g>
          </g>
          <path id="Path_171777" data-name="Path 171777" d="M19.332,337.735a2.957,2.957,0,0,1-2.957-2.931H7.5v2.8a2.957,2.957,0,0,0,2.957,2.957H67.642a2.957,2.957,0,0,0,2.954-2.827Z" transform="translate(-7.49 -297.646)" fill="#b0c0d2"/>
          <g id="XMLID_250_" transform="translate(17.992 49.186)">
            <g id="Group_112786" data-name="Group 112786">
              <path id="Path_171778" data-name="Path 171778" d="M176.256,433.759a.693.693,0,0,1-.394,1.262H150.113a.693.693,0,0,1-.394-1.262l5.792-4.025h14.954Z" transform="translate(-149.419 -429.734)" fill="#dce1ea"/>
            </g>
          </g>
          <path id="Path_171779" data-name="Path 171779" d="M154.6,433.759l5.792-4.025H155.51l-5.792,4.025a.693.693,0,0,0,.394,1.262h4.878A.693.693,0,0,1,154.6,433.759Z" transform="translate(-131.428 -380.548)" fill="#bac6d3"/>
        </g>
      </g>
      <g id="Group_112791" data-name="Group 112791" transform="translate(0 0)">
        <path id="Path_171787" data-name="Path 171787" d="M61.093,34.04H3.907A3.912,3.912,0,0,0,0,37.947v37a3.912,3.912,0,0,0,3.907,3.907H24.072V83.68l-5.384,3.742a1.643,1.643,0,0,0,.938,2.992H45.374a1.643,1.643,0,0,0,.938-2.992L40.927,83.68V78.856H61.093A3.912,3.912,0,0,0,65,74.948v-37a3.912,3.912,0,0,0-3.907-3.907Zm-57.185,1.9H61.093A2.009,2.009,0,0,1,63.1,37.947V71.2H1.9V37.947a2.009,2.009,0,0,1,2.007-2.007ZM61.093,76.955H36.678a.95.95,0,1,0,0,1.9h2.348v5.321a.95.95,0,0,0,.408.78l5.117,3.556h-24.1l4.872-3.386h10.4a.95.95,0,1,0,0-1.9H25.973V78.856h6.655a.95.95,0,1,0,0-1.9H3.907A2.009,2.009,0,0,1,1.9,74.948V73.1H63.1v1.85a2.009,2.009,0,0,1-2.007,2.007Z" transform="translate(0 -34.04)"/>
      </g>
    </g>
  </g>
</svg>
