<svg xmlns="http://www.w3.org/2000/svg" width="190" height="200" viewBox="0 0 190 200">
  <g id="t1-n2" transform="translate(-495 -864)">
    <rect id="Rectangle_36695" data-name="Rectangle 36695" width="190" height="200" rx="20" transform="translate(495 864)" fill="#fff5d0"/>
    <path id="Rectangle_36695_-_Outline" data-name="Rectangle 36695 - Outline" d="M20,2A18,18,0,0,0,2,20V180a18,18,0,0,0,18,18H170a18,18,0,0,0,18-18V20A18,18,0,0,0,170,2H20m0-2H170a20,20,0,0,1,20,20V180a20,20,0,0,1-20,20H20A20,20,0,0,1,0,180V20A20,20,0,0,1,20,0Z" transform="translate(495 864)" fill="#ffcf19"/>
    <path id="Path_181290" data-name="Path 181290" d="M45.782,15.221a1.408,1.408,0,0,0-.532-1.172,6.615,6.615,0,0,0-1.87-.869,17.942,17.942,0,0,1-2.187-.869q-2.764-1.357-2.764-3.73A3.345,3.345,0,0,1,39.117,6.5a4.453,4.453,0,0,1,1.948-1.406,7.582,7.582,0,0,1,2.832-.5,6.632,6.632,0,0,1,2.749.547,4.352,4.352,0,0,1,1.89,1.558A4.068,4.068,0,0,1,49.21,9H45.792a1.719,1.719,0,0,0-.532-1.348,2.075,2.075,0,0,0-1.44-.479,2.339,2.339,0,0,0-1.45.405A1.193,1.193,0,0,0,42.423,9.6a7.389,7.389,0,0,0,2.061.918,12.623,12.623,0,0,1,2.422,1.021,4.07,4.07,0,0,1,2.3,3.662,3.472,3.472,0,0,1-1.406,2.93A6.255,6.255,0,0,1,43.946,19.2a7.653,7.653,0,0,1-3.13-.62,4.719,4.719,0,0,1-2.109-1.7A4.428,4.428,0,0,1,38,14.391h3.438a2.181,2.181,0,0,0,.591,1.685,2.793,2.793,0,0,0,1.919.542,2.206,2.206,0,0,0,1.343-.366A1.209,1.209,0,0,0,45.782,15.221Zm4.619-1.6a6.236,6.236,0,0,1,.615-2.817,4.4,4.4,0,0,1,1.768-1.9,5.323,5.323,0,0,1,2.705-.664,4.858,4.858,0,0,1,3.74,1.47,5.64,5.64,0,0,1,1.367,4v.117a5.472,5.472,0,0,1-1.372,3.921,4.871,4.871,0,0,1-3.716,1.45,4.927,4.927,0,0,1-3.623-1.353,5.29,5.29,0,0,1-1.475-3.667Zm3.291.205a3.932,3.932,0,0,0,.459,2.148,1.529,1.529,0,0,0,1.357.684q1.758,0,1.8-2.705v-.332q0-2.842-1.816-2.842-1.65,0-1.787,2.451ZM65.069,8.434l.107,1.24a3.583,3.583,0,0,1,3.018-1.436,3.015,3.015,0,0,1,2.466.986,4.7,4.7,0,0,1,.845,2.969V19H68.2V12.33a1.783,1.783,0,0,0-.322-1.177,1.491,1.491,0,0,0-1.172-.376,1.569,1.569,0,0,0-1.436.762V19H61.983V8.434ZM76.8,19H73.5V8.434h3.3ZM73.3,5.7A1.482,1.482,0,0,1,73.81,4.54a2.149,2.149,0,0,1,2.637,0A1.482,1.482,0,0,1,76.954,5.7a1.482,1.482,0,0,1-.508,1.159,2.149,2.149,0,0,1-2.637,0A1.482,1.482,0,0,1,73.3,5.7Zm5.107,7.939a6.455,6.455,0,0,1,1.084-3.955,3.568,3.568,0,0,1,3.027-1.445A3.035,3.035,0,0,1,84.9,9.352V4h3.3V19H85.245l-.166-1.133A3.116,3.116,0,0,1,82.5,19.2a3.562,3.562,0,0,1-2.988-1.445A6.659,6.659,0,0,1,78.409,13.639Zm3.291.205q0,2.813,1.641,2.813a1.62,1.62,0,0,0,1.563-.918V11.715a1.576,1.576,0,0,0-1.543-.937q-1.523,0-1.65,2.461Zm7.959-.225a6.236,6.236,0,0,1,.615-2.817,4.4,4.4,0,0,1,1.768-1.9,5.323,5.323,0,0,1,2.705-.664,4.858,4.858,0,0,1,3.74,1.47,5.64,5.64,0,0,1,1.367,4v.117a5.472,5.472,0,0,1-1.372,3.921,4.871,4.871,0,0,1-3.716,1.45,4.927,4.927,0,0,1-3.623-1.353,5.29,5.29,0,0,1-1.475-3.667Zm3.291.205a3.932,3.932,0,0,0,.459,2.148,1.529,1.529,0,0,0,1.357.684q1.758,0,1.8-2.705v-.332q0-2.842-1.816-2.842-1.65,0-1.787,2.451Zm13.887,2.207a.76.76,0,0,0-.439-.674,6.685,6.685,0,0,0-1.67-.527,7.615,7.615,0,0,1-2.031-.718,3.4,3.4,0,0,1-1.221-1.079,2.577,2.577,0,0,1-.42-1.455,2.92,2.92,0,0,1,1.2-2.4,4.948,4.948,0,0,1,3.145-.942,5.482,5.482,0,0,1,3.359.947,2.962,2.962,0,0,1,1.27,2.49h-3.3q0-1.27-1.338-1.27a1.326,1.326,0,0,0-.869.288.892.892,0,0,0-.352.718.819.819,0,0,0,.43.713,4.06,4.06,0,0,0,1.372.449,11.857,11.857,0,0,1,1.655.42,3.007,3.007,0,0,1,2.383,2.939,2.767,2.767,0,0,1-1.284,2.354,5.631,5.631,0,0,1-3.325.908,5.747,5.747,0,0,1-2.422-.488,4.05,4.05,0,0,1-1.66-1.328,3.007,3.007,0,0,1-.6-1.768H103.8a1.272,1.272,0,0,0,.488,1.069,2.009,2.009,0,0,0,1.2.337,1.58,1.58,0,0,0,1.011-.273A.875.875,0,0,0,106.837,16.031Z" transform="translate(516 1014)" fill="#12263f"/>
    <rect id="Rectangle_36702" data-name="Rectangle 36702" width="100" height="100" rx="50" transform="translate(540 888)" fill="#fff"/>
    <g id="headphones" transform="translate(558 906)">
      <path id="Path_171688" data-name="Path 171688" d="M16.125,346.281H10.031A2.031,2.031,0,0,1,8,344.25V330.031A2.031,2.031,0,0,1,10.031,328h6.094Z" transform="translate(-6.984 -286.359)" fill="#66ecff"/>
      <path id="Path_171689" data-name="Path 171689" d="M78.094,322.406H74.031A2.031,2.031,0,0,1,72,320.375V298.031A2.031,2.031,0,0,1,74.031,296h4.063a2.031,2.031,0,0,1,2.031,2.031v22.344A2.031,2.031,0,0,1,78.094,322.406Z" transform="translate(-62.859 -258.422)" fill="#727997"/>
      <path id="Path_171690" data-name="Path 171690" d="M76.938,38.679A2.836,2.836,0,0,1,74.1,41.516H73.68a2.836,2.836,0,0,1-2.836-2.836,24.636,24.636,0,0,0-7.156-17.315,24.307,24.307,0,0,0-41.594,17.1,3.047,3.047,0,0,1-6.094,0,30.469,30.469,0,1,1,60.938.211Z" transform="translate(-13.969 -6.984)" fill="#66ecff"/>
      <g id="Group_112780" data-name="Group 112780" transform="translate(3.555 1.016)">
        <path id="Path_171691" data-name="Path 171691" d="M55.419,56.04A24.4,24.4,0,0,0,32.57,80.367,3.049,3.049,0,0,1,28,83.005a3.044,3.044,0,0,0,1.523-2.638A24.4,24.4,0,0,1,55.419,56.04Z" transform="translate(-28 -49.899)" fill="#00ceeb"/>
        <path id="Path_171692" data-name="Path 171692" d="M276.018,38.685a2.836,2.836,0,0,1-2.836,2.836,3.208,3.208,0,0,1-1.734-.322,2.833,2.833,0,0,0,1.523-2.514A30.447,30.447,0,0,0,244.03,8.043,30.448,30.448,0,0,1,276.018,38.685Z" transform="translate(-216.604 -8.007)" fill="#00ceeb"/>
        <path id="Path_171693" data-name="Path 171693" d="M440,346.281h6.094a2.031,2.031,0,0,0,2.031-2.031V330.031A2.031,2.031,0,0,0,446.094,328H440Z" transform="translate(-387.695 -287.376)" fill="#00ceeb"/>
      </g>
      <path id="Path_171694" data-name="Path 171694" d="M378.031,322.406h4.063a2.031,2.031,0,0,0,2.031-2.031V298.031A2.031,2.031,0,0,0,382.094,296h-4.062A2.031,2.031,0,0,0,376,298.031v22.344A2.031,2.031,0,0,0,378.031,322.406Z" transform="translate(-328.266 -258.422)" fill="#727997"/>
      <path id="Path_171695" data-name="Path 171695" d="M95.84,298.031v22.344a2.031,2.031,0,0,1-2.031,2.031H90a2.031,2.031,0,0,0,2.031-2.031V298.031A2.031,2.031,0,0,0,90,296h3.809A2.031,2.031,0,0,1,95.84,298.031Z" transform="translate(-78.574 -258.422)" fill="#12263f"/>
      <path id="Path_171696" data-name="Path 171696" d="M399.84,298.031v22.344a2.031,2.031,0,0,1-2.031,2.031H394a2.031,2.031,0,0,0,2.031-2.031V298.031A2.031,2.031,0,0,0,394,296h3.809A2.031,2.031,0,0,1,399.84,298.031Z" transform="translate(-343.98 -258.422)" fill="#12263f"/>
      <path id="Path_171697" data-name="Path 171697" d="M120.924,72.211a13.015,13.015,0,0,1-8.911-4.629,18.283,18.283,0,0,0-28.046.1,12.745,12.745,0,0,1-8.907,4.537,24.324,24.324,0,0,1,45.864-.006Z" transform="translate(-65.531 -48.891)" fill="#727997"/>
      <circle id="Ellipse_4854" data-name="Ellipse 4854" cx="3.041" cy="3.041" r="3.041" transform="translate(22.427 34.591)" fill="#ffcf19"/>
      <circle id="Ellipse_4855" data-name="Ellipse 4855" cx="3.041" cy="3.041" r="3.041" transform="translate(34.591 31.55)" fill="#ffcf19"/>
      <path id="Path_171698" data-name="Path 171698" d="M236.187,152v5.078L224,160.125v-5.078Z" transform="translate(-195.562 -132.703)" fill="#ffcf19"/>
      <path id="Path_171699" data-name="Path 171699" d="M61.953,40.625H60.938V35.462A3.858,3.858,0,0,0,63.984,31.7a31.485,31.485,0,1,0-62.969-.211,4.07,4.07,0,0,0,3.047,3.934v5.207H3.047A3.05,3.05,0,0,0,0,43.672V57.891a3.05,3.05,0,0,0,3.047,3.047H8.125v1.016A3.05,3.05,0,0,0,11.172,65h4.063a3.05,3.05,0,0,0,3.047-3.047V39.609a3.05,3.05,0,0,0-3.047-3.047H11.172a3.05,3.05,0,0,0-3.047,3.047v1.016H6.094V35.418a4.07,4.07,0,0,0,3.047-3.934,23.345,23.345,0,0,1,1.134-7.209,13.815,13.815,0,0,0,8.943-4.837,17.265,17.265,0,0,1,26.489-.092,13.954,13.954,0,0,0,8.963,4.92,23.664,23.664,0,0,1,1.19,7.429,3.858,3.858,0,0,0,3.047,3.766v5.163H56.875V39.609a3.05,3.05,0,0,0-3.047-3.047H49.766a3.05,3.05,0,0,0-3.047,3.047V61.953A3.05,3.05,0,0,0,49.766,65h4.063a3.05,3.05,0,0,0,3.047-3.047V60.938h5.078A3.05,3.05,0,0,0,65,57.891V43.672A3.05,3.05,0,0,0,61.953,40.625Zm-51.8-1.016a1.017,1.017,0,0,1,1.016-1.016h4.063a1.017,1.017,0,0,1,1.016,1.016V61.953a1.017,1.017,0,0,1-1.016,1.016H11.172a1.017,1.017,0,0,1-1.016-1.016Zm-2.031,19.3H3.047a1.017,1.017,0,0,1-1.016-1.016V43.672a1.017,1.017,0,0,1,1.016-1.016H8.125ZM47.258,18.035a19.3,19.3,0,0,0-29.6.1,11.748,11.748,0,0,1-6.543,3.937,23.32,23.32,0,0,1,42.7-.019,11.994,11.994,0,0,1-6.558-4.022ZM57.891,31.7a25.391,25.391,0,1,0-50.781-.211,2.031,2.031,0,1,1-4.062,0,29.453,29.453,0,0,1,50.28-20.827A29.267,29.267,0,0,1,61.953,31.7a1.823,1.823,0,0,1-1.82,1.821h-.422A1.823,1.823,0,0,1,57.891,31.7ZM54.844,61.953a1.017,1.017,0,0,1-1.016,1.016H49.766a1.017,1.017,0,0,1-1.016-1.016V39.609a1.017,1.017,0,0,1,1.016-1.016h4.062a1.017,1.017,0,0,1,1.016,1.016Zm8.125-4.063a1.017,1.017,0,0,1-1.016,1.016H56.875V42.656h5.078a1.017,1.017,0,0,1,1.016,1.016Z" transform="translate(0 0)"/>
      <path id="Path_171700" data-name="Path 171700" d="M169.016,376A1.016,1.016,0,0,0,168,377.016v4.063a1.016,1.016,0,0,0,2.031,0v-4.062A1.016,1.016,0,0,0,169.016,376Z" transform="translate(-146.672 -328.266)"/>
      <path id="Path_171701" data-name="Path 171701" d="M209.016,360A1.016,1.016,0,0,0,208,361.016v8.125a1.016,1.016,0,0,0,2.031,0v-8.125A1.016,1.016,0,0,0,209.016,360Z" transform="translate(-181.594 -314.297)"/>
      <path id="Path_171702" data-name="Path 171702" d="M329.016,376A1.016,1.016,0,0,0,328,377.016v4.063a1.016,1.016,0,0,0,2.031,0v-4.062A1.016,1.016,0,0,0,329.016,376Z" transform="translate(-286.359 -328.266)"/>
      <path id="Path_171703" data-name="Path 171703" d="M289.016,360A1.016,1.016,0,0,0,288,361.016v8.125a1.016,1.016,0,0,0,2.031,0v-8.125A1.016,1.016,0,0,0,289.016,360Z" transform="translate(-251.438 -314.297)"/>
      <path id="Path_171704" data-name="Path 171704" d="M250.016,344A1.016,1.016,0,0,0,249,345.016V357.2a1.016,1.016,0,0,0,2.031,0V345.016A1.016,1.016,0,0,0,250.016,344Z" transform="translate(-217.389 -300.328)"/>
      <path id="Path_171705" data-name="Path 171705" d="M188.313,145.014a1.017,1.017,0,0,0-1.262-.985c-13.154,3.288-12.282,3.045-12.491,3.179a1.015,1.015,0,0,0-.439.625c-.041.175-.027-.591-.027,11.947a4.061,4.061,0,1,0,2.031,3.516v-9.363l10.156-2.539v5.34a4.061,4.061,0,1,0,2.031,3.516V145.014Zm-16.25,20.313a2.031,2.031,0,1,1,2.031-2.031A2.034,2.034,0,0,1,172.063,165.326Zm4.063-13.488v-2.984l10.156-2.539V149.3Zm8.125,10.441a2.031,2.031,0,1,1,2.031-2.031A2.034,2.034,0,0,1,184.251,162.28Z" transform="translate(-146.673 -125.717)"/>
    </g>
  </g>
</svg>
