<svg xmlns="http://www.w3.org/2000/svg" width="190" height="200" viewBox="0 0 190 200">
  <g id="t1-n1" transform="translate(-285 -864)">
    <rect id="Rectangle_36694" data-name="Rectangle 36694" width="190" height="200" rx="20" transform="translate(285 864)" fill="#ddfff4"/>
    <path id="Rectangle_36694_-_Outline" data-name="Rectangle 36694 - Outline" d="M20,2A18,18,0,0,0,2,20V180a18,18,0,0,0,18,18H170a18,18,0,0,0,18-18V20A18,18,0,0,0,170,2H20m0-2H170a20,20,0,0,1,20,20V180a20,20,0,0,1-20,20H20A20,20,0,0,1,0,180V20A20,20,0,0,1,20,0Z" transform="translate(285 864)" fill="#59ffcc"/>
    <path id="Path_181289" data-name="Path 181289" d="M55.753,7.428H51.485V19H48.058V7.428H43.868V4.781H55.753ZM61.29,19.2a5.432,5.432,0,0,1-3.936-1.45,5.008,5.008,0,0,1-1.5-3.774V13.7a6.489,6.489,0,0,1,.6-2.861A4.395,4.395,0,0,1,58.2,8.917a5.292,5.292,0,0,1,2.734-.679A4.574,4.574,0,0,1,64.454,9.62a5.43,5.43,0,0,1,1.289,3.853v1.279H59.2a2.372,2.372,0,0,0,.771,1.4,2.3,2.3,0,0,0,1.543.508,2.958,2.958,0,0,0,2.441-1.094l1.5,1.777a4.2,4.2,0,0,1-1.743,1.353A5.891,5.891,0,0,1,61.29,19.2Zm-.371-8.418q-1.445,0-1.719,1.914h3.32v-.254a1.63,1.63,0,0,0-.4-1.226A1.593,1.593,0,0,0,60.919,10.777Zm10.43.566,1.533-2.91H76.3L73.517,13.58,76.437,19H73l-1.66-3.125L69.708,19H66.251l2.93-5.42L66.407,8.434h3.457Zm9.844-5.537V8.434h1.738v2.285H81.192v4.834a1.234,1.234,0,0,0,.215.83,1.152,1.152,0,0,0,.85.234,4.828,4.828,0,0,0,.82-.059v2.354a6.074,6.074,0,0,1-1.855.283,3.448,3.448,0,0,1-2.51-.8,3.282,3.282,0,0,1-.811-2.432V10.719H76.554V8.434H77.9V5.807Zm2.324,7.813a6.236,6.236,0,0,1,.615-2.817A4.4,4.4,0,0,1,85.9,8.9,5.323,5.323,0,0,1,88.6,8.238a4.858,4.858,0,0,1,3.74,1.47,5.64,5.64,0,0,1,1.367,4v.117a5.472,5.472,0,0,1-1.372,3.921,4.871,4.871,0,0,1-3.716,1.45A4.927,4.927,0,0,1,85,17.843a5.29,5.29,0,0,1-1.475-3.667Zm3.291.205a3.932,3.932,0,0,0,.459,2.148,1.529,1.529,0,0,0,1.357.684q1.758,0,1.8-2.705v-.332q0-2.842-1.816-2.842-1.65,0-1.787,2.451Zm13.887,2.207a.76.76,0,0,0-.439-.674,6.685,6.685,0,0,0-1.67-.527,7.615,7.615,0,0,1-2.031-.718,3.4,3.4,0,0,1-1.221-1.079,2.577,2.577,0,0,1-.42-1.455,2.92,2.92,0,0,1,1.2-2.4,4.948,4.948,0,0,1,3.145-.942,5.482,5.482,0,0,1,3.359.947,2.962,2.962,0,0,1,1.27,2.49h-3.3q0-1.27-1.338-1.27a1.326,1.326,0,0,0-.869.288.892.892,0,0,0-.352.718.819.819,0,0,0,.43.713,4.06,4.06,0,0,0,1.372.449,11.857,11.857,0,0,1,1.655.42,3.007,3.007,0,0,1,2.383,2.939,2.767,2.767,0,0,1-1.284,2.354,5.631,5.631,0,0,1-3.325.908,5.747,5.747,0,0,1-2.422-.488,4.05,4.05,0,0,1-1.66-1.328,3.007,3.007,0,0,1-.6-1.768h3.076a1.272,1.272,0,0,0,.488,1.069,2.009,2.009,0,0,0,1.2.337,1.58,1.58,0,0,0,1.011-.273A.875.875,0,0,0,100.694,16.031Z" transform="translate(306 1014)" fill="#12263f"/>
    <rect id="Rectangle_36701" data-name="Rectangle 36701" width="100" height="100" rx="50" transform="translate(330 888)" fill="#fff"/>
    <g id="text-editor" transform="translate(348 906)">
      <g id="Group_112784" data-name="Group 112784" transform="translate(0.954 0.954)">
        <path id="Path_171766" data-name="Path 171766" d="M8.25,63.261h5.87a.742.742,0,0,1,.738.741v5.866a.742.742,0,0,1-.738.741H8.25a.742.742,0,0,1-.738-.741V64a.742.742,0,0,1,.738-.741Zm0-27.872h5.87a.739.739,0,0,1,.738.738v5.866a.742.742,0,0,1-.738.741H8.25a.742.742,0,0,1-.738-.741V36.127a.739.739,0,0,1,.738-.738Zm0-27.876h5.87a.739.739,0,0,1,.738.738V14.12a.739.739,0,0,1-.738.738H8.25a.739.739,0,0,1-.738-.738V8.251a.739.739,0,0,1,.738-.738Zm27.876,0h5.866a.742.742,0,0,1,.741.738V14.12a.742.742,0,0,1-.741.738H36.125a.739.739,0,0,1-.738-.738V8.251a.739.739,0,0,1,.738-.738ZM64,7.513h5.866a.742.742,0,0,1,.741.738V14.12a.742.742,0,0,1-.741.738H64a.742.742,0,0,1-.741-.738V8.251A.742.742,0,0,1,64,7.513Zm0,27.876h5.866a.742.742,0,0,1,.741.738v5.866a.745.745,0,0,1-.741.741H64a.745.745,0,0,1-.741-.741V36.127A.742.742,0,0,1,64,35.389Zm0,27.872h5.866a.745.745,0,0,1,.741.741v5.866a.745.745,0,0,1-.741.741H64a.745.745,0,0,1-.741-.741V64A.745.745,0,0,1,64,63.261Zm-27.876,0h5.866a.745.745,0,0,1,.741.741v5.866a.745.745,0,0,1-.741.741H36.125a.742.742,0,0,1-.738-.741V64A.742.742,0,0,1,36.125,63.261Z" transform="translate(-7.512 -7.513)" fill="#59ffcc" fill-rule="evenodd"/>
        <path id="Path_171767" data-name="Path 171767" d="M135.956,109.787h27.012a.745.745,0,0,1,.741.741v5.866a.745.745,0,0,1-.741.741h-9.094a.663.663,0,0,0-.738.738V145.08a.742.742,0,0,1-.741.738h-5.866a.742.742,0,0,1-.741-.738V117.873c0-.569-.234-.738-.738-.738h-9.094a.745.745,0,0,1-.741-.741v-5.866A.745.745,0,0,1,135.956,109.787Z" transform="translate(-119.003 -96.803)" fill="#66ecff" fill-rule="evenodd"/>
        <path id="Path_171768" data-name="Path 171768" d="M252,109.787h3.7a.745.745,0,0,1,.741.741v5.866a.745.745,0,0,1-.741.741H252a.742.742,0,0,0,.738-.741v-5.866A.742.742,0,0,0,252,109.787Zm-5.4,7.349a.663.663,0,0,0-.738.738V145.08a.742.742,0,0,1-.741.738h-3.7a.739.739,0,0,0,.738-.738V117.873a.664.664,0,0,1,.741-.738Z" transform="translate(-211.733 -96.803)" fill="#00ceeb" fill-rule="evenodd"/>
        <path id="Path_171769" data-name="Path 171769" d="M247.159,207.669h19.624a.742.742,0,0,1,.741.738v3.962a.745.745,0,0,1-.741.741h-6.352a.651.651,0,0,0-.738.738v16.687a.742.742,0,0,1-.741.738H254.99a.739.739,0,0,1-.738-.738V213.848a.675.675,0,0,0-.741-.738h-6.352a.745.745,0,0,1-.741-.741v-3.962A.742.742,0,0,1,247.159,207.669Z" transform="translate(-216.088 -182.259)" fill="#ffdd5e" fill-rule="evenodd"/>
        <path id="Path_171770" data-name="Path 171770" d="M323.869,207.669h3.7a.742.742,0,0,1,.741.738v3.962a.745.745,0,0,1-.741.741h-3.7a.745.745,0,0,0,.741-.741v-3.962A.742.742,0,0,0,323.869,207.669Zm-2.656,5.441a.651.651,0,0,0-.738.738v16.687a.742.742,0,0,1-.741.738h-3.7a.739.739,0,0,0,.738-.738V213.848a.654.654,0,0,1,.741-.738Z" transform="translate(-276.87 -182.259)" fill="#ffcf19" fill-rule="evenodd"/>
      </g>
      <path id="Path_171771" data-name="Path 171771" d="M56.7,55.751h2.724V37.124H56.7a.949.949,0,0,1-.95-.95V28.829a.95.95,0,0,1,.95-.954h2.724V9.252H56.7a.952.952,0,0,1-.95-.954V5.578H37.124V8.3a.952.952,0,0,1-.95.954H28.829a.953.953,0,0,1-.954-.954V5.578H9.252V8.3a.955.955,0,0,1-.954.954H5.578V27.876H8.3a.953.953,0,0,1,.954.954v7.345a.952.952,0,0,1-.954.95H5.578V55.751H8.3a.952.952,0,0,1,.954.95v2.724H27.876V56.7a.95.95,0,0,1,.954-.95h7.345a.949.949,0,0,1,.95.95v2.724H55.752V56.7a.949.949,0,0,1,.95-.95Zm-44.426-23a.952.952,0,1,1,0-1.9H23.766a.952.952,0,0,1,0,1.9Zm0,9.083a.952.952,0,1,1,0-1.9H23.766a.952.952,0,0,1,0,1.9Zm0,9.083a.952.952,0,1,1,0-1.9H23.766a.952.952,0,0,1,0,1.9Zm0-13.625a.952.952,0,1,1,0-1.9H23.766a.952.952,0,0,1,0,1.9Zm0,9.083a.952.952,0,1,1,0-1.9H23.766a.952.952,0,0,1,0,1.9Zm27.4-20.97a.952.952,0,1,1,0,1.9H32.237v3.538h6.881a.95.95,0,0,1,.95.954V49.018h3.537V31.805a.951.951,0,0,1,.954-.954h6.877V27.314H43.994a.952.952,0,1,1,0-1.9h8.4a.952.952,0,0,1,.95.954v5.441a.949.949,0,0,1-.95.95H45.509V49.968a.952.952,0,0,1-.95.954H39.118a.955.955,0,0,1-.954-.954V32.756H36.038V49.968a.952.952,0,0,1-.95.954H27.739a.952.952,0,0,1-.95-.954V22.237H17.166a.952.952,0,0,1-.954-.95V13.938a.952.952,0,0,1,.954-.95H29.258a.952.952,0,0,1,0,1.9H18.12v5.441h9.619a.953.953,0,0,1,.954.954V49.018h5.441V32.756h-2.85a.949.949,0,0,1-.95-.95V26.364a.952.952,0,0,1,.95-.954h2.85V21.287a.951.951,0,0,1,.954-.954h9.619V14.892H33.569a.952.952,0,0,1,0-1.9H45.661a.949.949,0,0,1,.95.95v7.349a.949.949,0,0,1-.95.95H36.038v3.174H39.68Zm21.65,30.341H64.05a.949.949,0,0,1,.95.95V64.05a.949.949,0,0,1-.95.95H56.7a.949.949,0,0,1-.95-.95V61.329H37.124V64.05a.949.949,0,0,1-.95.95H28.829a.95.95,0,0,1-.954-.95V61.329H9.252V64.05A.952.952,0,0,1,8.3,65H.954A.952.952,0,0,1,0,64.05V56.7a.952.952,0,0,1,.954-.95H3.674V37.124H.954A.952.952,0,0,1,0,36.174V28.829a.953.953,0,0,1,.954-.954H3.674V9.252H.954A.955.955,0,0,1,0,8.3V.954A.955.955,0,0,1,.954,0H8.3a.955.955,0,0,1,.954.954V3.674H27.876V.954A.953.953,0,0,1,28.829,0h7.345a.952.952,0,0,1,.95.954V3.674H55.752V.954A.952.952,0,0,1,56.7,0H64.05A.952.952,0,0,1,65,.954V8.3a.952.952,0,0,1-.95.954H61.329V27.876H64.05a.95.95,0,0,1,.95.954v7.345a.949.949,0,0,1-.95.95H61.329V55.751Zm1.767,1.9H57.655V63.1H63.1ZM7.345,1.9H1.9V7.345H7.345Zm27.876,0H29.779V7.345h5.441ZM63.1,1.9H57.655V7.345H63.1Zm0,27.876H57.655v5.441H63.1Zm-55.751,0H1.9v5.441H7.345Zm0,27.876H1.9V63.1H7.345Zm27.876,0H29.779V63.1h5.441Z" transform="translate(0 0)"/>
    </g>
  </g>
</svg>
