<svg xmlns="http://www.w3.org/2000/svg" xmlns:xlink="http://www.w3.org/1999/xlink" width="505" height="347" viewBox="0 0 505 347">
  <defs>
    <clipPath id="clip-path">
      <rect id="Rectangle_36922" data-name="Rectangle 36922" width="505" height="347" transform="translate(180 1851.188)" fill="#fff" stroke="#707070" stroke-width="1"/>
    </clipPath>
  </defs>
  <g id="t2-i3" transform="translate(-180 -1851.188)" clip-path="url(#clip-path)">
    <g id="Group_113941" data-name="Group 113941" transform="translate(167.375 1853.525)">
      <g id="freepik--background-complete--inject-81" transform="translate(28.305)">
        <rect id="Rectangle_36905" data-name="Rectangle 36905" width="85.125" height="88.734" transform="translate(368.838 109.188)" fill="#e0e0e0"/>
        <rect id="Rectangle_36906" data-name="Rectangle 36906" width="85.113" height="88.734" transform="translate(363.077 109.188)" fill="#fafafa"/>
        <path id="Path_172875" data-name="Path 172875" d="M2910.51-2299.767h-85.171v-88.779h85.171Zm-85.125-.057h85.066V-2388.5h-85.066Z" transform="translate(-2462.285 2497.711)" fill="#e0e0e0"/>
        <rect id="Rectangle_36907" data-name="Rectangle 36907" width="62.233" height="64.87" transform="translate(374.517 121.114)" fill="#fff"/>
        <path id="Path_172876" data-name="Path 172876" d="M2836.749-2321.756a10.759,10.759,0,0,1-1.538,1.781c-.995,1.053-2.383,2.476-3.956,4.014s-3.008,2.915-4.061,3.886a10.041,10.041,0,0,1-1.8,1.5,10.125,10.125,0,0,1,1.527-1.781c1-1.053,2.395-2.476,3.968-4.014s3.008-2.927,4.072-3.9A9.548,9.548,0,0,1,2836.749-2321.756Z" transform="translate(-2462.277 2508.18)" fill="#e0e0e0"/>
        <path id="Path_172877" data-name="Path 172877" d="M2889.049-2321.9a10.431,10.431,0,0,1,1.793,1.539c1.041.994,2.464,2.382,4,3.956s2.915,3.008,3.9,4.061a9.591,9.591,0,0,1,1.492,1.8,10.169,10.169,0,0,1-1.782-1.527c-1.041-1-2.464-2.395-4.014-3.967s-2.927-3.008-3.9-4.072A10.2,10.2,0,0,1,2889.049-2321.9Z" transform="translate(-2452.299 2508.158)" fill="#e0e0e0"/>
        <path id="Path_172878" data-name="Path 172878" d="M2888.9-2376.521a10.093,10.093,0,0,1,1.539-1.781c.995-1.053,2.395-2.475,3.956-4.014s3.008-2.915,4.072-3.887a9.078,9.078,0,0,1,1.793-1.5,9.672,9.672,0,0,1-1.527,1.781c-.994,1.041-2.394,2.476-3.968,4.014s-3.007,2.927-4.072,3.9A9.222,9.222,0,0,1,2888.9-2376.521Z" transform="translate(-2452.322 2497.844)" fill="#e0e0e0"/>
        <path id="Path_172879" data-name="Path 172879" d="M2836.615-2376.387a10.6,10.6,0,0,1-1.781-1.539c-1.053-.994-2.464-2.395-4.014-3.956s-2.916-3.008-3.887-4.06a9.982,9.982,0,0,1-1.5-1.8,10.164,10.164,0,0,1,1.782,1.527c1.053,1,2.475,2.394,4.014,3.968s2.927,3.007,3.9,4.071A9.61,9.61,0,0,1,2836.615-2376.387Z" transform="translate(-2462.271 2497.837)" fill="#e0e0e0"/>
        <path id="Path_172880" data-name="Path 172880" d="M2897.346-2313.307v-4.685c0-3.065,0-7.542-.069-13.221,0-11.359-.07-27.542-.116-46.929l.231.242h-62.047l.278-.278v64.87l-.231-.231,44.939.115,12.62.07h.1l-12.7.162-45.113.115h-.231v-65.391h62.579v.243c0,19.445-.092,35.686-.116,47.08,0,5.656-.058,10.11-.069,13.175v4.349C2897.4-2313.4,2897.358-2313.3,2897.346-2313.307Z" transform="translate(-2460.769 2499.292)" fill="#e0e0e0"/>
        <rect id="Rectangle_36908" data-name="Rectangle 36908" width="20.764" height="20.763" transform="translate(395.246 143.173)" fill="#ebebeb"/>
        <rect id="Rectangle_36909" data-name="Rectangle 36909" width="79.063" height="82.418" transform="translate(290.098 10.692)" fill="#e0e0e0"/>
        <rect id="Rectangle_36910" data-name="Rectangle 36910" width="79.063" height="82.418" transform="translate(284.743 10.692)" fill="#fafafa"/>
        <path id="Path_172881" data-name="Path 172881" d="M2836.729-2391.233h-79.11V-2473.7h79.11Zm-79.063,0h79.017v-82.417h-79.017Z" transform="translate(-2472.899 2484.365)" fill="#e0e0e0"/>
        <rect id="Rectangle_36911" data-name="Rectangle 36911" width="57.814" height="60.266" transform="translate(295.373 21.773)" fill="#fff"/>
        <path id="Path_172882" data-name="Path 172882" d="M2768.259-2411.656a10.187,10.187,0,0,1-1.434,1.654c-.926.983-2.221,2.313-3.667,3.725s-2.8,2.718-3.782,3.62a9.071,9.071,0,0,1-1.665,1.388,8.8,8.8,0,0,1,1.411-1.654c.926-.971,2.233-2.313,3.69-3.724s2.8-2.719,3.782-3.621A8.376,8.376,0,0,1,2768.259-2411.656Z" transform="translate(-2472.885 2494.09)" fill="#e0e0e0"/>
        <path id="Path_172883" data-name="Path 172883" d="M2816.8-2411.786a9.4,9.4,0,0,1,1.654,1.434c.983.914,2.313,2.221,3.736,3.667s2.707,2.8,3.609,3.782a9.027,9.027,0,0,1,1.388,1.666,9.668,9.668,0,0,1-1.643-1.422c-.983-.914-2.313-2.221-3.736-3.679s-2.718-2.8-3.62-3.782A8.443,8.443,0,0,1,2816.8-2411.786Z" transform="translate(-2463.623 2494.069)" fill="#e0e0e0"/>
        <path id="Path_172884" data-name="Path 172884" d="M2816.659-2462.549a9.624,9.624,0,0,1,1.434-1.666c.925-.971,2.221-2.313,3.667-3.724s2.8-2.707,3.782-3.609a8.367,8.367,0,0,1,1.666-1.388,9.333,9.333,0,0,1-1.411,1.643c-.925.972-2.232,2.313-3.69,3.736s-2.8,2.718-3.782,3.62A9.723,9.723,0,0,1,2816.659-2462.549Z" transform="translate(-2463.646 2484.484)" fill="#e0e0e0"/>
        <path id="Path_172885" data-name="Path 172885" d="M2768.1-2462.4a10.486,10.486,0,0,1-1.712-1.4c-.972-.925-2.313-2.221-3.725-3.667s-2.706-2.8-3.608-3.783a8.96,8.96,0,0,1-1.389-1.665,8.653,8.653,0,0,1,1.643,1.411c.983.925,2.314,2.232,3.736,3.689s2.719,2.8,3.621,3.783A9.021,9.021,0,0,1,2768.1-2462.4Z" transform="translate(-2472.891 2484.488)" fill="#e0e0e0"/>
        <path id="Path_172886" data-name="Path 172886" d="M2824.489-2403.838v-4.384c0-2.857,0-7.01-.058-12.285,0-10.55-.069-25.587-.115-43.586l.219.219h-57.64l.255-.255v60.255l-.22-.22,41.736.116h.139l-41.874.1h-.22v-60.475h58.138v.22c0,18.057-.093,33.141-.116,43.737,0,5.252,0,9.381-.058,12.227v4.025A.351.351,0,0,1,2824.489-2403.838Z" transform="translate(-2471.474 2485.831)" fill="#e0e0e0"/>
        <rect id="Rectangle_36912" data-name="Rectangle 36912" width="19.294" height="19.294" transform="translate(314.621 42.259)" fill="#ebebeb"/>
        <path id="Path_172887" data-name="Path 172887" d="M2533.052-2048.748c-1.908-1.631-6.154-6.8-2.88-12.828,1.157-2.21,3.748-3.3,6.061-4.269a24.444,24.444,0,0,0,6.651-3.47c3.6-3.066,4.627-8.155,6.94-12.25,2.753-4.7,7.877-8.213,13.291-7.97,6.211.278,11.382,5.344,13.719,11.128s2.429,12.192,2.475,18.427c0,3.47-.116,7.334-2.649,9.67-2.313,2.14-5.853,2.175-9.022,2.071l-33.893-1.041" transform="translate(-2508.738 2544.578)" fill="#f5f5f5"/>
        <path id="Path_172888" data-name="Path 172888" d="M2600.629-2134.856h-89.15l16.055,95.8a10.69,10.69,0,0,0,7.611,8.525l.313.081c.266.07.521.162.8.208a10.5,10.5,0,0,0,1.8.208v.093l.428-.069h39.769a11.369,11.369,0,0,0,2.186-.22,10.747,10.747,0,0,0,9.022-9.358l7.739-65.934.347-2.626h0l3.065-26.131Zm-16.819,61.1h-9.149l.925-27.762h10.6Zm3.262-27.762h8.756l-3.262,27.762H2584.7Zm-26.166,58.554-.555-24.153h13.2l-.8,24.153Zm-14.216-24.153H2559.5l.555,24.153h-11.486Zm.983,24.153h-10.723c-1.029-6.524-2.313-15.038-3.783-24.153H2545.8Zm-1.5-30.792-2.163-27.762H2558.7l.636,27.762Zm14.054,0-.636-27.762h15.106l-.925,27.762Zm-.8-34.448-.59-25.7h16.935l-.856,25.738Zm-.879,0h-14.991l-2.059-25.7h16.46Zm-15.939,0h-15.929c-.555-3.563-1.1-6.94-1.573-9.948-1.666-10.411-2.313-14.32-2.638-15.789h18.137Zm.521,6.663,2.163,27.762h-13.175c-.44-2.811-.891-5.668-1.342-8.525-1.029-6.559-2.059-13.118-3.03-19.26Zm-11.9,27.785h-8.606l-4.627-27.762h8.884C2528.206-2092.982,2529.675-2083.416,2531.225-2073.757Zm1.042,6.663c1.319,8.363,2.6,16.6,3.782,24.152h-8.259l-4.048-24.152Zm41.365,24.129.81-24.153h8.8l-2.071,24.153Zm2.175-65.263.856-25.738h12.285l-2.2,25.738Zm-54.228-25.68c.359,1.862,1.989,11.984,4.165,25.738h-8.907l-4.315-25.738Zm67.333,91h-6.94l2.059-24.153h7.669Zm7.658-65.263h-8.976l2.232-25.738h9.8Z" transform="translate(-2511.479 2537.475)" fill="#e0e0e0"/>
        <path id="Path_172889" data-name="Path 172889" d="M2892.491-2139.82c-5.958-3.065-12.956-3.47-19.561-2.371-3.551.578-7.253,1.643-9.67,4.314s-2.869,7.357-.093,9.647c1.643,1.354,3.945,1.562,6.084,1.539,5.17-.058,10.909-.972,15.038,2.14,2.313,1.781,3.933,4.731,6.744,5.6s5.876-.775,7.334-3.262a11.4,11.4,0,0,0,.833-8.4A12.829,12.829,0,0,0,2892.491-2139.82Z" transform="translate(-2456.654 2536.238)" fill="#ebebeb"/>
        <path id="Path_172890" data-name="Path 172890" d="M2903.332-2155.662c-3.645,5.205-10.712,3.47-13.985.312s-4.627-7.773-5.922-12.157c-2.892-10.006-5.784-20.521-3.656-30.712a17.021,17.021,0,0,1,3.934-8.352,8.926,8.926,0,0,1,8.444-2.822c3.563.949,5.784,4.442,7.38,7.762a73.215,73.215,0,0,1,7.241,31.429c0,5.055-.578,10.411-3.47,14.54" transform="translate(-2453.868 2525.765)" fill="#ebebeb"/>
        <path id="Path_172891" data-name="Path 172891" d="M2909.2-2150.471c-3.956-4.626-4.708-11.567-2.95-17.351s5.726-10.874,10.306-14.945a55.341,55.341,0,0,1,18.45-10.885,19.382,19.382,0,0,1,8.305-1.411,8.7,8.7,0,0,1,6.94,4.21c1.944,3.7.081,8.19-1.931,11.857a142.417,142.417,0,0,1-12.123,18.508c-3.633,4.685-7.8,9.254-13.338,11.417s-11.278,1.862-14.216-1.967" transform="translate(-2449.743 2528.035)" fill="#ebebeb"/>
        <path id="Path_172892" data-name="Path 172892" d="M2903.888-2088.738a11.16,11.16,0,0,1-.324-2.314c-.173-1.711-.382-3.875-.624-6.442a94.416,94.416,0,0,0-1.457-9.451,72.429,72.429,0,0,0-3.471-11.151,41.38,41.38,0,0,0-5.691-10.1,21.364,21.364,0,0,0-7.206-5.98,20.291,20.291,0,0,0-6.061-1.9,11.031,11.031,0,0,1-2.313-.335,10.668,10.668,0,0,1,2.394,0,18.327,18.327,0,0,1,6.362,1.6,21.227,21.227,0,0,1,7.6,6.038,40.1,40.1,0,0,1,5.9,10.3,68.157,68.157,0,0,1,3.471,11.336,80.751,80.751,0,0,1,1.261,9.578c.208,2.73.278,4.951.313,6.478A10.98,10.98,0,0,1,2903.888-2088.738Z" transform="translate(-2454.229 2537.222)" fill="#e0e0e0"/>
        <path id="Path_172893" data-name="Path 172893" d="M2901.515-2085.054a4.631,4.631,0,0,1-.069-1.1v-3.134c0-2.719,0-6.652-.139-11.51-.243-9.717-1.075-20.174-2.7-34.922-1.526-13.881-3.585-29.995-5.783-40.486-.463-2.383-.937-4.535-1.377-6.408s-.774-3.47-1.156-4.824-.544-2.244-.728-3.042a4.376,4.376,0,0,1-.2-1.087,4.909,4.909,0,0,1,.381,1.029c.243.787.544,1.782.914,3.008s.81,2.915,1.284,4.789,1.007,4.014,1.515,6.4a354.091,354.091,0,0,1,6.131,37.571c1.619,14.771,2.313,28.224,2.418,37.964.058,4.87,0,8.814-.174,11.567-.08,1.272-.138,2.314-.2,3.135A4.437,4.437,0,0,1,2901.515-2085.054Z" transform="translate(-2452.249 2528.586)" fill="#e0e0e0"/>
        <path id="Path_172894" data-name="Path 172894" d="M2899.818-2112.074a20.023,20.023,0,0,1,0-3.274c.127-2.105.417-5.147,1.006-8.872a115.913,115.913,0,0,1,2.927-12.909,105.835,105.835,0,0,1,5.4-15.292,81.382,81.382,0,0,1,15.859-24.7,39.033,39.033,0,0,1,3.736-3.47c.578-.486,1.075-.972,1.6-1.354l1.446-.995a23.566,23.566,0,0,1,2.753-1.77c.162.219-3.9,2.6-9.022,8.1a85.561,85.561,0,0,0-15.477,24.615,120.9,120.9,0,0,0-5.425,15.142,131.166,131.166,0,0,0-3.077,12.793c-.671,3.679-1.064,6.686-1.3,8.768A20.985,20.985,0,0,1,2899.818-2112.074Z" transform="translate(-2450.621 2529.661)" fill="#e0e0e0"/>
        <path id="Path_172895" data-name="Path 172895" d="M2928.393-2082.356l-2.6,35.616h-45.749l-2.6-35.616Z" transform="translate(-2454.118 2545.704)" fill="#e0e0e0"/>
        <rect id="Rectangle_36913" data-name="Rectangle 36913" width="60.833" height="14.043" transform="translate(417.86 449.316)" fill="#e0e0e0"/>
        <path id="Path_172896" data-name="Path 172896" d="M2933.416-2052.737v3.886h-59.827v-3.886Z" transform="translate(-2454.722 2550.346)" fill="#ebebeb"/>
        <path id="Path_172897" data-name="Path 172897" d="M2927.464-2042.528l2.8-6.848h-54.795l3.274,6.848Z" transform="translate(-2454.428 2550.874)" fill="#e0e0e0"/>
        <path id="Path_172898" data-name="Path 172898" d="M2878.209-2071.609s.07.116.22.324l.682.9,2.661,3.413.127.15.115-.15c1.666-2.313,3.91-5.414,6.547-9.057h-.381c1.955,2.753,4.118,5.784,6.443,9.127l.208.289.231-.277,7.646-9.092h-.451l.428.532,6.837,8.571.231.29.208-.3,6.443-9.126h-.37l7.947,9.057.139.162.1-.185,2.487-4.176c.266-.451.475-.822.636-1.157a1.355,1.355,0,0,0,.2-.405,2.089,2.089,0,0,0-.266.359l-.705,1.075-2.6,4.095h.243l-7.831-9.138-.2-.231-.174.254c-1.978,2.764-4.164,5.783-6.512,9.08h.439l-6.825-8.583-.417-.521-.22-.277-.22.266-7.623,9.115h.428l-6.512-9.092-.2-.266-.185.266-6.49,9.173h.231l-2.776-3.32-.74-.856A3.273,3.273,0,0,0,2878.209-2071.609Z" transform="translate(-2453.998 2546.605)" fill="#f5f5f5"/>
        <path id="Path_172899" data-name="Path 172899" d="M2876.889-2082.517c0,.162,11.464.289,25.6.289s25.61-.127,25.61-.289-11.463-.289-25.61-.289S2876.889-2082.679,2876.889-2082.517Z" transform="translate(-2454.205 2545.634)" fill="#f5f5f5"/>
        <path id="Path_172900" data-name="Path 172900" d="M2874.889-2049c0,.162,12.458.289,27.832.289s27.831-.127,27.831-.289-12.458-.278-27.831-.278S2874.889-2049.16,2874.889-2049Z" transform="translate(-2454.518 2550.889)" fill="#f5f5f5"/>
        <path id="Path_172901" data-name="Path 172901" d="M2668.47-2446.068a6.2,6.2,0,0,1-7.069,5.188,6.2,6.2,0,0,1-5.188-7.069,6.2,6.2,0,0,1,7.067-5.188h.008A6.2,6.2,0,0,1,2668.47-2446.068Z" transform="translate(-2488.805 2487.576)" fill="#e0e0e0"/>
        <path id="Path_172902" data-name="Path 172902" d="M2667.728-2445.305c-.52.289-3.9-5.356-6.512-12.909s-4.453-13.65-3.944-13.881,3.389,5.656,5.969,13.152S2668.248-2445.583,2667.728-2445.305Z" transform="translate(-2488.641 2484.615)" fill="#e0e0e0"/>
        <path id="Path_172903" data-name="Path 172903" d="M2677.128-2474.567c.358.358-3.251,4.072-9.347,5.506a14.477,14.477,0,0,1-7.877-.15c-1.99-.671-2.845-1.77-2.672-1.967s1.238.278,3.031.486a19.431,19.431,0,0,0,7.033-.463C2672.779-2472.416,2676.747-2475.1,2677.128-2474.567Z" transform="translate(-2488.638 2484.218)" fill="#e0e0e0"/>
        <path id="Path_172904" data-name="Path 172904" d="M2685.641-2448.569a6.2,6.2,0,0,1-7.069,5.188,6.2,6.2,0,0,1-5.188-7.069,6.2,6.2,0,0,1,7.068-5.188h.006a6.188,6.188,0,0,1,5.185,7.051Z" transform="translate(-2486.114 2487.185)" fill="#e0e0e0"/>
        <path id="Path_172905" data-name="Path 172905" d="M2684.9-2447.783c-.521.289-3.9-5.356-6.513-12.921s-4.454-13.638-3.944-13.881,3.389,5.645,5.969,13.14S2685.43-2448.061,2684.9-2447.783Z" transform="translate(-2485.95 2484.225)" fill="#e0e0e0"/>
        <path id="Path_172906" data-name="Path 172906" d="M2678.311-2471.179c.439.358-2.776,4.13-8.444,5.68s-10.353,0-10.156-.486,4.511-.115,9.578-1.584S2677.894-2471.653,2678.311-2471.179Z" transform="translate(-2488.246 2484.751)" fill="#e0e0e0"/>
        <path id="Path_172907" data-name="Path 172907" d="M2517.7-2385.022a3.124,3.124,0,0,1-4.337-.833,3.122,3.122,0,0,1,.832-4.338,3.123,3.123,0,0,1,4.338.833,3.11,3.11,0,0,1-.815,4.323Z" transform="translate(-2511.269 2497.369)" fill="#e0e0e0"/>
        <path id="Path_172908" data-name="Path 172908" d="M2517.577-2384.855c-.289-.093.636-3.285,2.533-6.848s3.47-6.327,3.771-6.223-.925,3.192-2.811,6.721S2517.854-2384.762,2517.577-2384.855Z" transform="translate(-2510.532 2496.241)" fill="#e0e0e0"/>
        <path id="Path_172909" data-name="Path 172909" d="M2530.941-2391.6c0,.254-2.614.2-5.241-1.562a7.283,7.283,0,0,1-2.66-2.961c-.428-.96-.312-1.654-.185-1.654s.324.543.856,1.284a10.045,10.045,0,0,0,2.591,2.441C2528.651-2392.467,2531.021-2391.923,2530.941-2391.6Z" transform="translate(-2509.715 2496.265)" fill="#e0e0e0"/>
        <path id="Path_172910" data-name="Path 172910" d="M2524.521-2379.533a3.124,3.124,0,0,1-4.34-.82,3.122,3.122,0,0,1,.819-4.34,3.123,3.123,0,0,1,4.34.82l0,0A3.124,3.124,0,0,1,2524.521-2379.533Z" transform="translate(-2510.201 2498.23)" fill="#e0e0e0"/>
        <path id="Path_172911" data-name="Path 172911" d="M2524.386-2379.365c-.289-.093.636-3.285,2.534-6.848s3.47-6.327,3.771-6.223-.914,3.193-2.811,6.721S2524.675-2379.249,2524.386-2379.365Z" transform="translate(-2509.464 2497.102)" fill="#e0e0e0"/>
        <path id="Path_172912" data-name="Path 172912" d="M2530.17-2390.078c0,.289-2.476.394-5-1.157s-3.563-3.817-3.308-3.921,1.562,1.619,3.875,2.985S2530.2-2390.39,2530.17-2390.078Z" transform="translate(-2509.858 2496.675)" fill="#e0e0e0"/>
        <path id="Path_172913" data-name="Path 172913" d="M2594-2431.441l-29.358-3.586a3.7,3.7,0,0,1-3.17-4.072l4.974-40.567a3.7,3.7,0,0,1,4.118-3.227l18.588,2.314,12.574,16.6-3.609,29.4A3.68,3.68,0,0,1,2594-2431.441Z" transform="translate(-2503.647 2482.92)" fill="#ebebeb"/>
        <path id="Path_172914" data-name="Path 172914" d="M2585.589-2480.967l-1.377,11.417a3.472,3.472,0,0,0,3,3.829l10.978,1.353Z" transform="translate(-2500.083 2483.226)" fill="#f5f5f5"/>
        <path id="Path_172915" data-name="Path 172915" d="M2584.212-2470.206a3.818,3.818,0,0,0,2.556,4.049l.359.115c1.4.44,10.63,3.274,10.653,3.054s.382-3.065.382-3.065l-10.978-1.353S2584.456-2467.835,2584.212-2470.206Z" transform="translate(-2500.083 2484.912)" fill="#e0e0e0"/>
        <path id="Path_172916" data-name="Path 172916" d="M2583.946-2471.531a43.027,43.027,0,0,1-6.813-.567,43.731,43.731,0,0,1-6.744-1.1,46.354,46.354,0,0,1,6.813.567A43.175,43.175,0,0,1,2583.946-2471.531Z" transform="translate(-2502.246 2484.444)" fill="#fafafa"/>
        <path id="Path_172917" data-name="Path 172917" d="M2592.023-2464.872c0,.151-5.032-.346-11.186-1.1s-11.151-1.493-11.128-1.643a108.035,108.035,0,0,1,11.186,1.157C2587.06-2465.646,2592.046-2465.021,2592.023-2464.872Z" transform="translate(-2502.352 2485.314)" fill="#fafafa"/>
        <path id="Path_172918" data-name="Path 172918" d="M2593.505-2459.97c0,.15-5.483-.394-12.2-1.226s-12.146-1.608-12.123-1.747,5.471.393,12.192,1.157A110.568,110.568,0,0,1,2593.505-2459.97Z" transform="translate(-2502.436 2486.047)" fill="#fafafa"/>
        <path id="Path_172919" data-name="Path 172919" d="M2592.926-2455.568c0,.15-5.483-.4-12.192-1.226s-12.157-1.608-12.134-1.758,5.471.4,12.191,1.226S2592.949-2455.719,2592.926-2455.568Z" transform="translate(-2502.526 2486.735)" fill="#fafafa"/>
        <path id="Path_172920" data-name="Path 172920" d="M2592.386-2451.169c0,.138-5.483-.405-12.192-1.227s-12.157-1.619-12.134-1.758,5.472.4,12.192,1.226S2592.408-2451.319,2592.386-2451.169Z" transform="translate(-2502.611 2487.425)" fill="#fafafa"/>
        <path id="Path_172921" data-name="Path 172921" d="M2591.846-2446.789c0,.151-5.471-.393-12.192-1.156a119.243,119.243,0,0,1-12.134-1.758c.023-.139,5.483.393,12.192,1.226S2591.868-2446.927,2591.846-2446.789Z" transform="translate(-2502.695 2488.122)" fill="#fafafa"/>
        <circle id="Ellipse_4870" data-name="Ellipse 4870" cx="4.835" cy="4.835" r="4.835" transform="translate(133.999 128.389)" fill="#e0e0e0"/>
        <path id="Path_172922" data-name="Path 172922" d="M2636.6-2366.509c-.231.174-3.377-3.817-6.292-9.323s-5.194-9.925-4.974-10.063,3.019,4.083,5.9,9.555S2636.83-2366.694,2636.6-2366.509Z" transform="translate(-2493.636 2498.127)" fill="#e0e0e0"/>
        <path id="Path_172923" data-name="Path 172923" d="M2634.22-2390.525c.266.093-.752,2.614-3.47,4.361s-5.413,1.666-5.391,1.388,2.383-.683,4.813-2.313S2633.954-2390.676,2634.22-2390.525Z" transform="translate(-2493.63 2497.401)" fill="#e0e0e0"/>
        <path id="Path_172924" data-name="Path 172924" d="M2636.03-2386.585c.278.058-.636,2.614-3.413,4.118s-5.4.96-5.3.694,2.313-.255,4.788-1.619S2635.752-2386.747,2636.03-2386.585Z" transform="translate(-2493.323 2498.017)" fill="#e0e0e0"/>
      </g>
      <g id="freepik--Character--inject-81" transform="translate(175.851 104.303)">
        <path id="Path_172925" data-name="Path 172925" d="M2694.829-2322.933l7.079-2.151,30.746-.9,6.94,1.885-.9,16.912-15.7,10.006-15.223-.3-9.566-8.721-2.117-8.641Z" transform="translate(-2630.287 2403.215)" fill="#ffbe9d"/>
        <path id="Path_172926" data-name="Path 172926" d="M2790.818-2296.311a103.352,103.352,0,0,0-6.235-11.22,27.869,27.869,0,0,0-16.055-11.683l-25.09-6.8s-1.3,25.067-18.508,25.067-20.613-23.494-20.613-23.494l-29.034,11.567c-1,.382-7.739,2.719-15.57,19.514-7.461,16-10.723,24.187-10.723,24.187l29.913,8.629,1.862,26.906-1.053,34.841h91.383l-1.214-36.935.856-27.229,1.157,1.828,30.2-12.111S2798.163-2281.181,2790.818-2296.311Z" transform="translate(-2637.471 2403.21)" fill="#ffcf19"/>
        <path id="Path_172927" data-name="Path 172927" d="M2676.314-2226.106a105.458,105.458,0,0,1-3.343,10.966,4.269,4.269,0,0,0,0,2.313c.359.752,1.863.474,2.684.313,7.542-1.469,15.882-.255,23.25,1.943,7.657,2.313,15.037,6.547,22.984,6.408,5.378-.092,10.492-2.186,15.662-3.7a75.356,75.356,0,0,1,29.578-2.556,2.988,2.988,0,0,0,1.989-.243c.879-.6.81-1.885.636-2.938-.381-2.488-3.007-9.324-3.644-11.788" transform="translate(-2633.737 2418.87)" fill="#ffcf19"/>
        <path id="Path_172928" data-name="Path 172928" d="M2671.432-2300.806c.174,0,1.157,8.282,2.141,18.508s1.7,18.6,1.538,18.612-1.157-8.283-2.14-18.508S2671.27-2300.795,2671.432-2300.806Z" transform="translate(-2633.957 2407.162)" fill="#263238"/>
        <path id="Path_172929" data-name="Path 172929" d="M2755.79-2297.606c.162,0-.092,7.738-.578,17.258s-1.018,17.236-1.157,17.224.092-7.739.579-17.259S2755.628-2297.618,2755.79-2297.606Z" transform="translate(-2621.01 2407.663)" fill="#263238"/>
        <path id="Path_172930" data-name="Path 172930" d="M2741.325-2324.906a3.269,3.269,0,0,1-.116.8c-.1.578-.255,1.33-.439,2.313a74.047,74.047,0,0,1-2.175,8.248,31.566,31.566,0,0,1-6.119,11.047,21.108,21.108,0,0,1-5.876,4.627,16.641,16.641,0,0,1-7.831,1.92,21.884,21.884,0,0,1-14.24-5.68,29.532,29.532,0,0,1-7.241-10.33,43.328,43.328,0,0,1-2.58-8.1c-.208-.983-.347-1.747-.417-2.313a3.669,3.669,0,0,1-.092-.8,3.886,3.886,0,0,1,.208.775l.532,2.256a47.747,47.747,0,0,0,2.73,8,29.572,29.572,0,0,0,7.229,10.086,21.541,21.541,0,0,0,13.881,5.495,16.209,16.209,0,0,0,7.554-1.839,20.732,20.732,0,0,0,5.784-4.523,31.725,31.725,0,0,0,6.131-10.827c1.157-3.366,1.851-6.2,2.313-8.1l.555-2.244A5.909,5.909,0,0,1,2741.325-2324.906Z" transform="translate(-2630.385 2403.384)" fill="#263238"/>
        <path id="Path_172931" data-name="Path 172931" d="M2704.106-2309.323c.1.139-.509.729-1.353,1.33s-1.619.96-1.712.821.509-.729,1.365-1.319S2704.013-2309.45,2704.106-2309.323Z" transform="translate(-2629.314 2405.823)" fill="#263238"/>
        <path id="Path_172932" data-name="Path 172932" d="M2712.61-2299.542a5.033,5.033,0,0,1,0-2.44,5.216,5.216,0,0,1,.59-2.313c.173,0,.173,1.156,0,2.44A5.191,5.191,0,0,1,2712.61-2299.542Z" transform="translate(-2627.523 2406.615)" fill="#263238"/>
        <path id="Path_172933" data-name="Path 172933" d="M2726.274-2303.407c-.116.116-1.076-.6-2.14-1.619s-1.828-1.921-1.724-2.048,1.076.6,2.14,1.619S2726.39-2303.558,2726.274-2303.407Z" transform="translate(-2625.965 2406.177)" fill="#263238"/>
        <path id="Path_172934" data-name="Path 172934" d="M2731.739-2312.435c-.093.14-.96-.266-2.013-.751s-1.943-.868-1.9-1.042,1.041,0,2.14.5S2731.832-2312.573,2731.739-2312.435Z" transform="translate(-2625.114 2405.048)" fill="#263238"/>
        <path id="Path_172935" data-name="Path 172935" d="M2698.608-2318.417c.058.15-.555.521-1.365.821s-1.515.428-1.573.266.555-.52,1.365-.822S2698.608-2318.567,2698.608-2318.417Z" transform="translate(-2630.155 2404.391)" fill="#263238"/>
        <g id="Group_113931" data-name="Group 113931" transform="translate(133.241 114.66)" opacity="0.3">
          <path id="Path_172936" data-name="Path 172936" d="M2755.526-2293.626l3.03,26.177-3.2,1.284-1.134-1.828Z" transform="translate(-2754.219 2293.626)"/>
        </g>
        <path id="Path_172937" data-name="Path 172937" d="M2666.959-2299.4a6.836,6.836,0,0,1-3.054-1.365c-1.562-1.018-2.591-2.14-2.475-2.313q2.842,1.688,5.529,3.621Z" transform="translate(-2635.523 2406.806)" fill="#b58f00"/>
        <path id="Path_172938" data-name="Path 172938" d="M2688.713-2296.5a21.473,21.473,0,0,1-5.02-.185,20.964,20.964,0,0,1-4.974-.774,21.538,21.538,0,0,1,5.032.185A20.1,20.1,0,0,1,2688.713-2296.5Z" transform="translate(-2632.811 2407.675)" fill="#b58f00"/>
        <path id="Path_172939" data-name="Path 172939" d="M2711.619-2292.25a27.067,27.067,0,0,1-5-.44,29.187,29.187,0,0,1-4.963-.729,16.956,16.956,0,0,1,5.032.127A17.245,17.245,0,0,1,2711.619-2292.25Z" transform="translate(-2629.216 2408.299)" fill="#b58f00"/>
        <path id="Path_172940" data-name="Path 172940" d="M2740.948-2295.4a29.209,29.209,0,0,1-5.784,1.261,29.62,29.62,0,0,1-5.864.671,58.32,58.32,0,0,1,11.636-1.932Z" transform="translate(-2624.883 2408.01)" fill="#b58f00"/>
        <path id="Path_172941" data-name="Path 172941" d="M2758.039-2302.166a6.267,6.267,0,0,1-2.776,2.035,6.15,6.15,0,0,1-3.343.822,25.025,25.025,0,0,1,3.089-1.365A24.318,24.318,0,0,1,2758.039-2302.166Z" transform="translate(-2621.338 2406.948)" fill="#b58f00"/>
        <path id="Path_172942" data-name="Path 172942" d="M2768.61-2304.806a10.756,10.756,0,0,1-3.69,1.909,10.446,10.446,0,0,1-4.06.937,23.793,23.793,0,0,1,3.875-1.492A20.688,20.688,0,0,1,2768.61-2304.806Z" transform="translate(-2619.936 2406.534)" fill="#b58f00"/>
        <path id="Path_172943" data-name="Path 172943" d="M2747.83-2306.2a48.362,48.362,0,0,1-10.411,2.452,23.34,23.34,0,0,1,5.125-1.515A23.555,23.555,0,0,1,2747.83-2306.2Z" transform="translate(-2623.61 2406.317)" fill="#b58f00"/>
        <path id="Path_172944" data-name="Path 172944" d="M2762.072-2312.656a19.694,19.694,0,0,1-4.187,2.418,20.064,20.064,0,0,1-4.465,1.874,38.983,38.983,0,0,1,8.652-4.291Z" transform="translate(-2621.103 2405.304)" fill="#b58f00"/>
        <path id="Path_172945" data-name="Path 172945" d="M2746.177-2314.516a22.347,22.347,0,0,1-7.137,1.608,11.154,11.154,0,0,1,3.47-1.1A11.481,11.481,0,0,1,2746.177-2314.516Z" transform="translate(-2623.356 2405.012)" fill="#b58f00"/>
        <path id="Path_172946" data-name="Path 172946" d="M2755.33-2317.51c.07.162-.659.6-1.619,1s-1.782.578-1.851.428.671-.6,1.631-.983S2755.272-2317.66,2755.33-2317.51Z" transform="translate(-2621.348 2404.536)" fill="#b58f00"/>
        <path id="Path_172947" data-name="Path 172947" d="M2718.53-2296.9a14.684,14.684,0,0,1-5.159.139,14.5,14.5,0,0,1-5.031-1.156,44.532,44.532,0,0,1,5.09.509A45.237,45.237,0,0,1,2718.53-2296.9Z" transform="translate(-2628.169 2407.615)" fill="#b58f00"/>
        <path id="Path_172948" data-name="Path 172948" d="M2732.386-2301.1a5,5,0,0,1-2.163.9c-1.238.335-2.314.474-2.314.313a5.157,5.157,0,0,1,2.164-.9C2731.31-2301.132,2732.34-2301.259,2732.386-2301.1Z" transform="translate(-2625.101 2407.105)" fill="#b58f00"/>
        <path id="Path_172949" data-name="Path 172949" d="M2698.524-2301.192a14.048,14.048,0,0,1-4.106-.1,13.9,13.9,0,0,1-4.049-.717,14.2,14.2,0,0,1,4.106.116A14.635,14.635,0,0,1,2698.524-2301.192Z" transform="translate(-2630.985 2406.957)" fill="#b58f00"/>
        <path id="Path_172950" data-name="Path 172950" d="M2682.909-2304.858a16.878,16.878,0,0,1-4.454-.6,16.6,16.6,0,0,1-4.327-1.157,16.894,16.894,0,0,1,4.454.6A17.1,17.1,0,0,1,2682.909-2304.858Z" transform="translate(-2633.531 2406.251)" fill="#b58f00"/>
        <path id="Path_172951" data-name="Path 172951" d="M2683.7-2313.723a9.854,9.854,0,0,1-3.39,0,9.612,9.612,0,0,1-3.343-.614,9.893,9.893,0,0,1,3.4,0A9.546,9.546,0,0,1,2683.7-2313.723Z" transform="translate(-2633.085 2405.018)" fill="#b58f00"/>
        <path id="Path_172952" data-name="Path 172952" d="M2694.162-2309.976a5,5,0,0,1-3.077.2,4.829,4.829,0,0,1-2.846-1.156,25.311,25.311,0,0,1,2.95.578A20.732,20.732,0,0,1,2694.162-2309.976Z" transform="translate(-2631.319 2405.573)" fill="#b58f00"/>
        <path id="Path_172953" data-name="Path 172953" d="M2692.9-2317.267a7.586,7.586,0,0,1-2.938-.532,7.678,7.678,0,0,1-2.777-1.157,7.45,7.45,0,0,1,2.938.52A7.581,7.581,0,0,1,2692.9-2317.267Z" transform="translate(-2631.483 2404.316)" fill="#b58f00"/>
        <path id="Path_172954" data-name="Path 172954" d="M2742.3-2321.028c0,.162-.694.521-1.642.81s-1.77.381-1.816.22.682-.521,1.642-.8A3.383,3.383,0,0,1,2742.3-2321.028Z" transform="translate(-2623.388 2403.983)" fill="#b58f00"/>
        <path id="Path_172955" data-name="Path 172955" d="M2667.676-2289.839a22.7,22.7,0,0,1-6.616-3.077A21.937,21.937,0,0,1,2667.676-2289.839Z" transform="translate(-2635.579 2408.398)" fill="#b58f00"/>
        <path id="Path_172956" data-name="Path 172956" d="M2659.137-2281.324a10.558,10.558,0,0,1-3.471-.335,10.655,10.655,0,0,1-3.377-.937,20.067,20.067,0,0,1,6.871,1.272Z" transform="translate(-2636.954 2410.016)" fill="#b58f00"/>
        <path id="Path_172957" data-name="Path 172957" d="M2671.228-2276.971a30.251,30.251,0,0,1-4.2-1.261,31.364,31.364,0,0,1-4.2-1.284,16.537,16.537,0,0,1,8.4,2.545Z" transform="translate(-2635.301 2410.499)" fill="#b58f00"/>
        <path id="Path_172958" data-name="Path 172958" d="M2683.209-2287a22.848,22.848,0,0,1-7.38,0A22.752,22.752,0,0,1,2683.209-2287Z" transform="translate(-2633.264 2409.279)" fill="#b58f00"/>
        <path id="Path_172959" data-name="Path 172959" d="M2688.485-2273.482a46.229,46.229,0,0,1-4.7-1.157,47.841,47.841,0,0,1-4.719-1.157A18.5,18.5,0,0,1,2688.485-2273.482Z" transform="translate(-2632.757 2411.081)" fill="#b58f00"/>
        <path id="Path_172960" data-name="Path 172960" d="M2712.856-2279.119a8.375,8.375,0,0,1-2.4,0,53.523,53.523,0,0,1-5.783-.706,55.187,55.187,0,0,1-5.633-1.3,8.433,8.433,0,0,1-2.256-.833c0-.174,3.574.764,7.994,1.539S2712.868-2279.293,2712.856-2279.119Z" transform="translate(-2629.979 2410.114)" fill="#b58f00"/>
        <path id="Path_172961" data-name="Path 172961" d="M2712.213-2270.867a23.242,23.242,0,0,1-5.24,0,21.764,21.764,0,0,1-5.194-.59,23.755,23.755,0,0,1,5.229,0A23.543,23.543,0,0,1,2712.213-2270.867Z" transform="translate(-2629.196 2411.74)" fill="#b58f00"/>
        <path id="Path_172962" data-name="Path 172962" d="M2726.919-2285.621a43.3,43.3,0,0,1-10.179.254A43.139,43.139,0,0,1,2726.919-2285.621Z" transform="translate(-2626.852 2409.512)" fill="#b58f00"/>
        <path id="Path_172963" data-name="Path 172963" d="M2740.079-2274.646a44.288,44.288,0,0,1-7.345,1.087,47.514,47.514,0,0,1-7.415.486,47.066,47.066,0,0,1,7.345-1.087A47.173,47.173,0,0,1,2740.079-2274.646Z" transform="translate(-2625.507 2411.261)" fill="#b58f00"/>
        <path id="Path_172964" data-name="Path 172964" d="M2750.071-2286.966a42.389,42.389,0,0,1-6.8,1.943,41.308,41.308,0,0,1-6.94,1.376,41.313,41.313,0,0,1,6.8-1.955A41.885,41.885,0,0,1,2750.071-2286.966Z" transform="translate(-2623.781 2409.331)" fill="#b58f00"/>
        <path id="Path_172965" data-name="Path 172965" d="M2750.035-2278.876a5.178,5.178,0,0,1-2.591,1.5,5.276,5.276,0,0,1-2.985.382,14.876,14.876,0,0,1,2.788-.949A14.091,14.091,0,0,1,2750.035-2278.876Z" transform="translate(-2622.507 2410.599)" fill="#b58f00"/>
        <path id="Path_172966" data-name="Path 172966" d="M2765.026-2295.146a12.217,12.217,0,0,1-3.6,1.342,12.053,12.053,0,0,1-3.76.763,12.541,12.541,0,0,1,3.6-1.342A12.889,12.889,0,0,1,2765.026-2295.146Z" transform="translate(-2620.436 2408.049)" fill="#b58f00"/>
        <path id="Path_172967" data-name="Path 172967" d="M2773.181-2285.846a66.861,66.861,0,0,1-12.192,3.146,32.7,32.7,0,0,1,6.015-1.863A32.175,32.175,0,0,1,2773.181-2285.846Z" transform="translate(-2619.916 2409.506)" fill="#b58f00"/>
        <path id="Path_172968" data-name="Path 172968" d="M2775.322-2293.6a18.334,18.334,0,0,1-4.21,2.059,18.543,18.543,0,0,1-4.442,1.5A37,37,0,0,1,2775.322-2293.6Z" transform="translate(-2619.026 2408.292)" fill="#b58f00"/>
        <path id="Path_172969" data-name="Path 172969" d="M2767.38-2277.756a25.146,25.146,0,0,1-6.871,3.563A25.05,25.05,0,0,1,2767.38-2277.756Z" transform="translate(-2619.991 2410.774)" fill="#b58f00"/>
        <path id="Path_172970" data-name="Path 172970" d="M2691.86-2257.118a20.188,20.188,0,0,1-4.858-.081,19.906,19.906,0,0,1-4.813-.683,20.173,20.173,0,0,1,4.859.081A19.814,19.814,0,0,1,2691.86-2257.118Z" transform="translate(-2632.267 2413.873)" fill="#b58f00"/>
        <path id="Path_172971" data-name="Path 172971" d="M2698.99-2262.433a47.651,47.651,0,0,1-10.41-2.314,23.441,23.441,0,0,1,5.286.845A23.492,23.492,0,0,1,2698.99-2262.433Z" transform="translate(-2631.266 2412.814)" fill="#b58f00"/>
        <path id="Path_172972" data-name="Path 172972" d="M2724.282-2262.755a31.237,31.237,0,0,1-8.652,0A31.218,31.218,0,0,1,2724.282-2262.755Z" transform="translate(-2627.026 2413.079)" fill="#b58f00"/>
        <path id="Path_172973" data-name="Path 172973" d="M2721.015-2253.6a7.571,7.571,0,0,1-2.313.278,38.219,38.219,0,0,1-5.506-.2,36.453,36.453,0,0,1-5.425-.994,7.59,7.59,0,0,1-2.151-.752c0-.173,3.4.705,7.646,1.157S2721-2253.782,2721.015-2253.6Z" transform="translate(-2628.595 2414.296)" fill="#b58f00"/>
        <path id="Path_172974" data-name="Path 172974" d="M2748.7-2260.158a25.2,25.2,0,0,1-6.732.764,25.529,25.529,0,0,1-6.755-.463c0-.173,3.031-.058,6.744-.138S2748.674-2260.332,2748.7-2260.158Z" transform="translate(-2623.957 2413.523)" fill="#b58f00"/>
        <path id="Path_172975" data-name="Path 172975" d="M2747.671-2268.3a35.39,35.39,0,0,1-9.162,1.527A35.569,35.569,0,0,1,2747.671-2268.3Z" transform="translate(-2623.439 2412.257)" fill="#b58f00"/>
        <path id="Path_172976" data-name="Path 172976" d="M2688.883-2220.005a50.81,50.81,0,0,1-5.217-.174,51.151,51.151,0,0,1-5.217-.081,15.119,15.119,0,0,1,5.24-.521A14.865,14.865,0,0,1,2688.883-2220.005Z" transform="translate(-2632.854 2419.698)" fill="#b58f00"/>
        <path id="Path_172977" data-name="Path 172977" d="M2705.474-2215.1a33.154,33.154,0,0,1-6.385-.324,34.953,34.953,0,0,1-6.339-.926,33.137,33.137,0,0,1,6.4.324A34.356,34.356,0,0,1,2705.474-2215.1Z" transform="translate(-2630.612 2420.393)" fill="#b58f00"/>
        <path id="Path_172978" data-name="Path 172978" d="M2721.314-2211.531a22.036,22.036,0,0,1-6.3,1.157,22.289,22.289,0,0,1-6.42-.116c0-.174,2.869-.2,6.374-.474S2721.279-2211.7,2721.314-2211.531Z" transform="translate(-2628.129 2421.149)" fill="#b58f00"/>
        <path id="Path_172979" data-name="Path 172979" d="M2719.439-2218.925a22.945,22.945,0,0,1-5.078.555,22.086,22.086,0,0,1-5.1,0,21.029,21.029,0,0,1,5.067-.555A20.757,20.757,0,0,1,2719.439-2218.925Z" transform="translate(-2628.024 2419.971)" fill="#b58f00"/>
        <path id="Path_172980" data-name="Path 172980" d="M2706.74-2223.343a41.19,41.19,0,0,1-6.94.428,41.834,41.834,0,0,1-7.01-.173,41.341,41.341,0,0,1,7-.428A41.384,41.384,0,0,1,2706.74-2223.343Z" transform="translate(-2630.605 2419.265)" fill="#b58f00"/>
        <path id="Path_172981" data-name="Path 172981" d="M2737.477-2223.658a38.421,38.421,0,0,1-6.72.81,37.783,37.783,0,0,1-6.767.208,39.548,39.548,0,0,1,6.72-.81A39.016,39.016,0,0,1,2737.477-2223.658Z" transform="translate(-2625.716 2419.244)" fill="#b58f00"/>
        <path id="Path_172982" data-name="Path 172982" d="M2738.514-2217.67c0,.185-3,.417-6.581,1.3s-6.374,2.036-6.443,1.874a18.829,18.829,0,0,1,6.3-2.464A19.439,19.439,0,0,1,2738.514-2217.67Z" transform="translate(-2625.48 2420.185)" fill="#b58f00"/>
        <path id="Path_172983" data-name="Path 172983" d="M2752.758-2221.023a8.286,8.286,0,0,1-3.031.636,7.94,7.94,0,0,1-3.088,0,15.808,15.808,0,0,1,6.119-.671Z" transform="translate(-2622.166 2419.652)" fill="#b58f00"/>
        <path id="Path_172984" data-name="Path 172984" d="M2734.354-2320.463c-.069.15-1.006-.185-2.163-.578s-2.1-.671-2.082-.845a3.662,3.662,0,0,1,2.314.278C2733.591-2321.2,2734.436-2320.6,2734.354-2320.463Z" transform="translate(-2624.756 2403.845)" fill="#263238"/>
        <path id="Path_172985" data-name="Path 172985" d="M2694.015-2244.235a33.272,33.272,0,0,1-6.327-.359,33.86,33.86,0,0,1-6.258-.948,31.858,31.858,0,0,1,6.316.358A34.032,34.032,0,0,1,2694.015-2244.235Z" transform="translate(-2632.386 2415.82)" fill="#b58f00"/>
        <path id="Path_172986" data-name="Path 172986" d="M2710.3-2246.624a18.52,18.52,0,0,1-4.8,0,19.885,19.885,0,0,1-4.754-.6,18.543,18.543,0,0,1,4.8,0A19.863,19.863,0,0,1,2710.3-2246.624Z" transform="translate(-2629.358 2415.535)" fill="#b58f00"/>
        <path id="Path_172987" data-name="Path 172987" d="M2737.107-2248.545c0,.174-2.742.15-6.085.451s-6.038.775-6.073.6a19.531,19.531,0,0,1,6.015-1.157A19.233,19.233,0,0,1,2737.107-2248.545Z" transform="translate(-2625.565 2415.306)" fill="#b58f00"/>
        <path id="Path_172988" data-name="Path 172988" d="M2749.752-2239.127a59.713,59.713,0,0,1-8.468.185,60.556,60.556,0,0,1-8.456-.429,57.531,57.531,0,0,1,8.467-.185A60.2,60.2,0,0,1,2749.752-2239.127Z" transform="translate(-2624.33 2416.75)" fill="#b58f00"/>
        <path id="Path_172989" data-name="Path 172989" d="M2749.252-2251.227a9.708,9.708,0,0,1-6.292,1.087,14.419,14.419,0,0,1,3.135-.6A14.788,14.788,0,0,1,2749.252-2251.227Z" transform="translate(-2622.742 2414.933)" fill="#b58f00"/>
        <path id="Path_172990" data-name="Path 172990" d="M2720.641-2239.433a11.116,11.116,0,0,1-4.928.717,11.317,11.317,0,0,1-4.9-.925c0-.174,2.209.278,4.916.324S2720.607-2239.606,2720.641-2239.433Z" transform="translate(-2627.781 2416.743)" fill="#b58f00"/>
        <path id="Path_172991" data-name="Path 172991" d="M2705.232-2237.675a38.058,38.058,0,0,1-9.543,0A37.966,37.966,0,0,1,2705.232-2237.675Z" transform="translate(-2630.152 2417.009)" fill="#b58f00"/>
        <path id="Path_172992" data-name="Path 172992" d="M2693.9-2231.83a24.632,24.632,0,0,1-7.588-.22,11.955,11.955,0,0,1,3.806-.2A11.7,11.7,0,0,1,2693.9-2231.83Z" transform="translate(-2631.621 2417.897)" fill="#b58f00"/>
        <path id="Path_172993" data-name="Path 172993" d="M2718.156-2229.723a30.275,30.275,0,0,1-6.084.092,31.68,31.68,0,0,1-6.073-.509,31.279,31.279,0,0,1,6.1-.092A31.428,31.428,0,0,1,2718.156-2229.723Z" transform="translate(-2628.535 2418.207)" fill="#b58f00"/>
        <path id="Path_172994" data-name="Path 172994" d="M2738.58-2232.719a45.543,45.543,0,0,1-5.309-.128,46.678,46.678,0,0,1-5.321-.162,15.951,15.951,0,0,1,5.333-.44A16.264,16.264,0,0,1,2738.58-2232.719Z" transform="translate(-2625.095 2417.71)" fill="#b58f00"/>
        <path id="Path_172995" data-name="Path 172995" d="M2753.429-2228.486a45.925,45.925,0,0,1-5.413.347,45,45,0,0,1-5.437.3A25.785,25.785,0,0,1,2753.429-2228.486Z" transform="translate(-2622.802 2418.45)" fill="#b58f00"/>
        <path id="Path_172996" data-name="Path 172996" d="M2681.767-2237.317c0,.162-.868.439-2.012.613s-2.083.2-2.105,0,.879-.439,2.013-.625S2681.767-2237.491,2681.767-2237.317Z" transform="translate(-2632.979 2417.091)" fill="#b58f00"/>
        <path id="Path_172997" data-name="Path 172997" d="M2683.6-2267.53a5.3,5.3,0,0,1-2.463.521,5.437,5.437,0,0,1-2.522-.081,10.51,10.51,0,0,1,4.985-.44Z" transform="translate(-2632.827 2412.358)" fill="#b58f00"/>
        <path id="Path_172998" data-name="Path 172998" d="M2697.495-2289.42a5.55,5.55,0,0,1-2.533,0c-1.376-.186-2.475-.463-2.452-.637a5.548,5.548,0,0,1,2.533,0C2696.419-2289.871,2697.518-2289.594,2697.495-2289.42Z" transform="translate(-2630.65 2408.823)" fill="#b58f00"/>
        <path id="Path_172999" data-name="Path 172999" d="M2750.5-2291.706a27.818,27.818,0,0,1-5.6,1.261,27.366,27.366,0,0,1-5.691.671,28.1,28.1,0,0,1,5.6-1.272A26.656,26.656,0,0,1,2750.5-2291.706Z" transform="translate(-2623.33 2408.588)" fill="#b58f00"/>
        <g id="Group_113932" data-name="Group 113932" transform="translate(41.952 193.284)">
          <path id="Path_173000" data-name="Path 173000" d="M2675.3-2225.645c1.688,2.811,5.217,3.968,8.5,4.153s6.582-.382,9.844,0c5.113.625,9.67,3.539,14.679,4.8,11.394,2.846,23.135-3.228,34.841-3.273,3.991,0,7.958.671,11.949.833s8.155-.243,11.567-2.244l-.289-4.28Z" transform="translate(-2675.299 2225.656)" fill="#e8b700"/>
        </g>
        <rect id="Rectangle_36914" data-name="Rectangle 36914" width="67.692" height="16.275" transform="translate(55.775 253.654)" fill="#27456e"/>
        <path id="Path_173001" data-name="Path 173001" d="M2696.488-2159.4l-34.459,133.673h7.426l37.791-133.673Z" transform="translate(-2635.427 2429.326)" fill="#27456e"/>
        <path id="Path_173002" data-name="Path 173002" d="M2741.087-2159.4l34.714,133.673h-7.427L2730.329-2159.4Z" transform="translate(-2624.722 2429.326)" fill="#27456e"/>
        <path id="Path_173003" data-name="Path 173003" d="M2736.536-2159.036c.1.127-9.89,9.1-22.337,20.046s-22.625,19.723-22.73,19.595,9.89-9.092,22.336-20.046S2736.42-2159.152,2736.536-2159.036Z" transform="translate(-2630.813 2429.383)" fill="#263238"/>
        <path id="Path_173004" data-name="Path 173004" d="M2752.021-2118.874c-.1.139-11.822-8.872-26.177-20.1s-25.9-20.439-25.795-20.578,11.81,8.872,26.165,20.1S2752.114-2119,2752.021-2118.874Z" transform="translate(-2629.468 2429.301)" fill="#263238"/>
        <path id="Path_173005" data-name="Path 173005" d="M2754.437-2159.344c0,.162-14.784.3-33.014.3s-33.013-.139-33.013-.3,14.783-.312,33.013-.312S2754.437-2159.517,2754.437-2159.344Z" transform="translate(-2631.292 2429.285)" fill="#263238"/>
        <path id="Path_173006" data-name="Path 173006" d="M2722.45-2085.036l-13.881,22.2,42.267,26.605c2.313-4.187-14.459-26.073-14.459-26.073l6.709-9.855Z" transform="translate(-2628.133 2440.981)" fill="#ff725e"/>
        <g id="Group_113933" data-name="Group 113933" transform="translate(80.402 355.945)" opacity="0.3">
          <path id="Path_173007" data-name="Path 173007" d="M2722.362-2085.036l-13.823,22.2,42.278,26.605c2.314-4.187-14.471-26.073-14.471-26.073l6.709-9.855Z" transform="translate(-2708.54 2085.036)"/>
        </g>
        <path id="Path_173008" data-name="Path 173008" d="M2722.616-2074.027a2.035,2.035,0,0,0-2.395,1.157,1.966,1.966,0,0,0,1.157,2.429,2.165,2.165,0,0,0,2.568-1.307,2.025,2.025,0,0,0-1.527-2.279" transform="translate(-2626.321 2442.696)" fill="#b58f00"/>
        <path id="Path_173009" data-name="Path 173009" d="M2708.609-2065.476l2.128-3.47,39.676,27.16s1.353,2.013.3,3.193Z" transform="translate(-2628.126 2443.503)" fill="#b58f00"/>
        <path id="Path_173010" data-name="Path 173010" d="M2734.012-2065c-.139.2-1.226-.359-2.661-.335s-2.522.555-2.661.347.926-1.156,2.661-1.156S2734.174-2065.163,2734.012-2065Z" transform="translate(-2624.98 2443.942)" fill="#263238"/>
        <path id="Path_173011" data-name="Path 173011" d="M2736.769-2061.083c-.081.22-1.157,0-2.452.44s-2.036,1.237-2.233,1.1.4-1.4,1.967-1.9S2736.862-2061.291,2736.769-2061.083Z" transform="translate(-2624.452 2444.651)" fill="#263238"/>
        <path id="Path_173012" data-name="Path 173012" d="M2735.417-2054.844c-.208-.07.151-1.284,1.388-2.083s2.5-.636,2.475-.4-.995.451-2.013,1.157S2735.636-2054.728,2735.417-2054.844Z" transform="translate(-2623.933 2445.295)" fill="#263238"/>
        <path id="Path_173013" data-name="Path 173013" d="M2736.289-2069.3c-.208.127-.972-.752-2.187-1.411s-2.313-.856-2.313-1.1,1.342-.44,2.765.358S2736.5-2069.4,2736.289-2069.3Z" transform="translate(-2624.493 2443.022)" fill="#263238"/>
        <path id="Path_173014" data-name="Path 173014" d="M2727.19-2084.8l13.777,21.446-41.9,27.219c-2.313-4.164,14.1-26.281,14.1-26.281l-6.478-9.254Z" transform="translate(-2629.657 2441.019)" fill="#ff725e"/>
        <g id="Group_113934" data-name="Group 113934" transform="translate(93.948 368.294)">
          <path id="Path_173015" data-name="Path 173015" d="M2721.591-2074.274a2.023,2.023,0,0,1,2.452,1.156,1.967,1.967,0,0,1-1.156,2.441,2.151,2.151,0,0,1-2.591-1.272,2.045,2.045,0,0,1,1.481-2.406" transform="translate(-2720.25 2074.361)" fill="#b58f00"/>
        </g>
        <g id="Group_113935" data-name="Group 113935" transform="translate(69.079 374.06)">
          <path id="Path_173016" data-name="Path 173016" d="M2740.924-2065.906l-2.174-3.47-39.33,27.762s-1.318,2.036-.254,3.2Z" transform="translate(-2698.751 2069.376)" fill="#b58f00"/>
        </g>
        <path id="Path_173017" data-name="Path 173017" d="M2710.521-2065.082c.138.2,1.226-.37,2.661-.37s2.521.521,2.66.313-.937-1.157-2.672-1.157S2710.359-2065.243,2710.521-2065.082Z" transform="translate(-2627.829 2443.919)" fill="#263238"/>
        <path id="Path_173018" data-name="Path 173018" d="M2707.74-2061.13c.081.231,1.157,0,2.452.417s2.06,1.157,2.256,1.053-.428-1.377-2-1.862S2707.625-2061.327,2707.74-2061.13Z" transform="translate(-2628.263 2444.64)" fill="#263238"/>
        <path id="Path_173019" data-name="Path 173019" d="M2709.067-2054.9c.22-.081-.162-1.284-1.422-2.07s-2.5-.6-2.476-.37,1.007.439,2.024,1.1S2708.848-2054.794,2709.067-2054.9Z" transform="translate(-2628.665 2445.292)" fill="#263238"/>
        <path id="Path_173020" data-name="Path 173020" d="M2708.075-2069.347c.209.139.96-.763,2.163-1.434s2.313-.891,2.313-1.157-1.342-.416-2.753.405S2707.867-2069.439,2708.075-2069.347Z" transform="translate(-2628.217 2443.001)" fill="#263238"/>
        <path id="Path_173021" data-name="Path 173021" d="M2679.049-2216.316s-36.738,36.287-29.057,62.255c6.118,20.521,59.306,106.582,59.306,106.582l31.938-20.891-41.561-77.409a62.893,62.893,0,0,0-2.314-11.174l2.314-3.088s13.776-6.524,25.344-5.784l1.03-50.133Z" transform="translate(-2637.479 2420.404)" fill="#12263f"/>
        <path id="Path_173022" data-name="Path 173022" d="M2714.891-2165.847s21.515,5.333,26.027,5.333c2.846,0,1.284,8.514,2.822,11.984v.752l-30.19,79.989,31.151,18.38s23.54-59.26,28.56-69.277,13.083-33.326,16.194-40.255-1.156-18.912-6.547-29.323-22.36-27.762-22.36-27.762h-44.627Z" transform="translate(-2627.352 2420.45)" fill="#12263f"/>
        <path id="Path_173023" data-name="Path 173023" d="M2772.933-2183.968a39.68,39.68,0,0,0-5.783-1.423,23.849,23.849,0,0,0-24.13,11.475,40.294,40.294,0,0,0-2.51,5.333,6.342,6.342,0,0,1,.382-1.55,20.677,20.677,0,0,1,1.77-4,23.421,23.421,0,0,1,24.558-11.671,20.887,20.887,0,0,1,4.211,1.157A7.114,7.114,0,0,1,2772.933-2183.968Z" transform="translate(-2623.126 2425.13)" fill="#254e82"/>
        <path id="Path_173024" data-name="Path 173024" d="M2755.282-2168.036a21.864,21.864,0,0,1-2.626,1.55,51.368,51.368,0,0,0-6.05,4.083,50.462,50.462,0,0,0-5.391,4.916,24.279,24.279,0,0,1-2.116,2.186,11.5,11.5,0,0,1,1.8-2.475,37.728,37.728,0,0,1,5.333-5.1,36.927,36.927,0,0,1,6.212-3.979A12.123,12.123,0,0,1,2755.282-2168.036Z" transform="translate(-2623.347 2427.972)" fill="#254e82"/>
        <path id="Path_173025" data-name="Path 173025" d="M2696.91-2165.833c-.1.07-1.157-1.584-3.25-3.817a30.077,30.077,0,0,0-4.1-3.562,30.8,30.8,0,0,0-12.065-5.286,32.441,32.441,0,0,0-5.391-.648c-3.088-.1-5.008.186-5.02.069a5.03,5.03,0,0,1,1.33-.266,12.753,12.753,0,0,1,1.584-.162c.625,0,1.331-.1,2.117-.069a30.036,30.036,0,0,1,5.483.521,32.445,32.445,0,0,1,6.455,2,31.71,31.71,0,0,1,5.784,3.389,28.638,28.638,0,0,1,4.072,3.713c.544.566.949,1.157,1.342,1.643a12.044,12.044,0,0,1,.925,1.3A6.112,6.112,0,0,1,2696.91-2165.833Z" transform="translate(-2634.634 2426.162)" fill="#254e82"/>
        <path id="Path_173026" data-name="Path 173026" d="M2693.941-2165.408a25.489,25.489,0,0,1-.636-2.695,33.192,33.192,0,0,0-2.314-6.212,64.746,64.746,0,0,0-4.962-7.981,9.933,9.933,0,0,1,1.92,2.013,30.092,30.092,0,0,1,3.586,5.7,25.8,25.8,0,0,1,2.14,6.4A8.3,8.3,0,0,1,2693.941-2165.408Z" transform="translate(-2631.666 2425.737)" fill="#254e82"/>
        <path id="Path_173027" data-name="Path 173027" d="M2704.047-2054.217l.139-.115.416-.3,1.677-1.156,6.4-4.268,22.892-15.1-.081.336-17.629-33.349c-9.185-17.49-17.536-33.418-23.76-45.252v-.058q-1.158-5.656-2.14-10.076h0a16.3,16.3,0,0,0-6.246-8.039,19,19,0,0,0-2.417-1.342l-.648-.278c-.138-.069-.22-.1-.208-.116a12.851,12.851,0,0,1,3.366,1.585,16.194,16.194,0,0,1,6.478,8.1h0l2.221,10.052v-.058l23.9,45.171,17.559,33.4.1.208-.2.127-23.019,14.922-6.478,4.153-1.712,1.076-.439.266Z" transform="translate(-2632.228 2427.143)" fill="#254e82"/>
        <path id="Path_173028" data-name="Path 173028" d="M2717.931-2183.729c0,.116-1.666,0-4.338.151a50.953,50.953,0,0,0-10.295,1.7,43.02,43.02,0,0,0-9.682,3.852c-2.314,1.307-3.6,2.394-3.667,2.314a4.655,4.655,0,0,1,.844-.81,9.6,9.6,0,0,1,1.087-.856,15.739,15.739,0,0,1,1.527-1.007,36.937,36.937,0,0,1,9.728-4.06,43.886,43.886,0,0,1,10.411-1.55,24.715,24.715,0,0,1,3.2.1A4.4,4.4,0,0,1,2717.931-2183.729Z" transform="translate(-2631.051 2425.469)" fill="#254e82"/>
        <path id="Path_173029" data-name="Path 173029" d="M2716.6-2186.448a4.185,4.185,0,0,1-.6-1.088l-1.446-3.042a46.911,46.911,0,0,0-5.68-9.439,21.292,21.292,0,0,0-8.71-6.478,25.142,25.142,0,0,0-4.431-1.076,4.106,4.106,0,0,1,1.249,0,13.629,13.629,0,0,1,3.331.694,20.491,20.491,0,0,1,9.023,6.5,40.749,40.749,0,0,1,5.61,9.647c.567,1.307,1,2.383,1.272,3.123A5.668,5.668,0,0,1,2716.6-2186.448Z" transform="translate(-2630.145 2421.768)" fill="#254e82"/>
        <path id="Path_173030" data-name="Path 173030" d="M2740.281-2204.792c0,.127-1.689.208-4.314.914a27.964,27.964,0,0,0-4.454,1.654,27.564,27.564,0,0,0-9.161,7.033,27.121,27.121,0,0,0-2.742,3.864c-1.365,2.313-1.885,3.968-2,3.933a4.8,4.8,0,0,1,.324-1.156,8.619,8.619,0,0,1,.5-1.307c.231-.5.462-1.076.81-1.677a24.746,24.746,0,0,1,2.7-4.014,25.656,25.656,0,0,1,9.346-7.172,24.061,24.061,0,0,1,4.627-1.561,16.808,16.808,0,0,1,1.828-.347,8.508,8.508,0,0,1,1.388-.15A5.008,5.008,0,0,1,2740.281-2204.792Z" transform="translate(-2626.716 2422.206)" fill="#254e82"/>
        <path id="Path_173031" data-name="Path 173031" d="M2745.383-2173.835c-.092.081-1.226-1.157-3.47-2.649a41.841,41.841,0,0,0-9.589-4.43,49.7,49.7,0,0,0-10.33-2.313l-1.816-.127h-1.412a4.981,4.981,0,0,1-1.157,0,4.1,4.1,0,0,1,1.157-.278c.382,0,.856-.069,1.4-.1h1.851a43.661,43.661,0,0,1,10.492,2.175,37.46,37.46,0,0,1,9.636,4.627,14.215,14.215,0,0,1,1.469,1.157,8.456,8.456,0,0,1,1.018.948A5.149,5.149,0,0,1,2745.383-2173.835Z" transform="translate(-2626.716 2425.511)" fill="#254e82"/>
        <path id="Path_173032" data-name="Path 173032" d="M2742.634-2166.075c0,.058-.416-.162-.833-.694a4.984,4.984,0,0,1-.532-5.02c.3-.614.613-.891.671-.857a10.133,10.133,0,0,0-.486,3.378A9.838,9.838,0,0,0,2742.634-2166.075Z" transform="translate(-2623.077 2427.249)" fill="#455a64"/>
        <path id="Path_173033" data-name="Path 173033" d="M2741.207-2160.506c-.07,0-.324-.255-.566-.833a5.1,5.1,0,0,1,.6-4.627c.371-.5.706-.717.752-.659a13.775,13.775,0,0,0-1.03,2.984A13.55,13.55,0,0,0,2741.207-2160.506Z" transform="translate(-2623.153 2428.192)" fill="#455a64"/>
        <path id="Path_173034" data-name="Path 173034" d="M2715-2189.756a80.95,80.95,0,0,1,.174,9.936,81.779,81.779,0,0,1-.44,9.925,81.989,81.989,0,0,1-.162-9.937A82.616,82.616,0,0,1,2715-2189.756Z" transform="translate(-2627.204 2424.568)" fill="#455a64"/>
        <path id="Path_173035" data-name="Path 173035" d="M2752.342-2347.146c-1.435.8-3.354-.244-4-1.747a7.04,7.04,0,0,1,.139-4.812,20.149,20.149,0,0,0,1.284-4.731,6.941,6.941,0,0,0-4.685-6.859,6.538,6.538,0,0,0,.616-9.223c-.054-.061-.11-.123-.165-.181a25.73,25.73,0,0,0-4.176-2.684,14.361,14.361,0,0,1-2.21-1.8,8.941,8.941,0,0,0,3.794.127,6.14,6.14,0,0,0,4.453-3.909,5.566,5.566,0,0,0-1.342-5.7,5.087,5.087,0,0,0-5.784-.844c-1.793.949-2.787,2.9-3.655,4.743-.278.567-.544,1.156-.81,1.7-2.533-3.354-4.916-6.813-8.826-7.993-3.54-1.076-7.345.116-11.036-.15-2.683-.2-5.263-1.157-7.946-1.458s-5.784.278-7.3,2.465c-.937,1.272-1.227,2.938-2.163,4.21-1.944,2.625-6.12,2.984-7.716,5.783-1.3,2.314-.3,5.24-.856,7.843-.6,2.823-2.927,4.882-4.835,7.045s-3.563,5.147-2.5,7.831c.937,2.314,3.69,3.632,4.627,6,.647,1.735.173,3.667.139,5.518s.717,4.048,2.521,4.465l20.532,5.425c7.079,2.881,14.379,5.784,21.978,5.784s15.778-3.667,18.8-10.688a4.385,4.385,0,0,1-2.949-1.319A7.386,7.386,0,0,0,2752.342-2347.146Z" transform="translate(-2632.251 2392.75)" fill="#12263f"/>
        <path id="Path_173036" data-name="Path 173036" d="M2728.751-2342.609a94.841,94.841,0,0,0,4.141-15.882,33.206,33.206,0,0,0-1.307-16.194c-.289-.775-2.753-5.991-3.574-5.911-.59.058.926,4.928.625,5.437-2.845,4.893-3.62,10.781-3.169,16.437a74.659,74.659,0,0,0,3.285,16.137" transform="translate(-2625.503 2394.655)" fill="#12263f"/>
        <path id="Path_173037" data-name="Path 173037" d="M2716.279-2295.938c8.49-.185,18.126-18.739,18.126-18.739l.555-47.692c.451-13.73-7.172-25.448-20.914-25.506l-1.272.07a24.567,24.567,0,0,0-23.239,23.863c-.324,11.9-.52,25.066-.1,31.417.867,13.151,14.147,14.494,14.147,14.494s.069,3.054.116,6.94c.093,8.687,9.184,15.454,12.585,15.165Z" transform="translate(-2631.169 2393.515)" fill="#ffbe9d"/>
        <path id="Path_173038" data-name="Path 173038" d="M2701.629-2326.686a31.815,31.815,0,0,0,16.866-5.98s-3.667,9.8-16.866,9.254Z" transform="translate(-2629.22 2402.168)" fill="#eb996e"/>
        <path id="Path_173039" data-name="Path 173039" d="M2694.4-2358.013a1.9,1.9,0,0,0,1.92,1.8,1.8,1.8,0,0,0,1.838-1.77v-.034a1.862,1.862,0,0,0-1.908-1.793,1.8,1.8,0,0,0-1.851,1.757Z" transform="translate(-2630.354 2397.914)" fill="#12263f"/>
        <path id="Path_173040" data-name="Path 173040" d="M2692.217-2362.3c.243.243,1.608-.891,3.632-.995s3.563.833,3.771.566-.162-.543-.833-.983a5.145,5.145,0,0,0-3.031-.752,4.9,4.9,0,0,0-2.88,1.157C2692.217-2362.81,2692.056-2362.406,2692.217-2362.3Z" transform="translate(-2630.705 2397.182)" fill="#12263f"/>
        <path id="Path_173041" data-name="Path 173041" d="M2710.209-2358.433a1.873,1.873,0,0,0,1.908,1.8,1.805,1.805,0,0,0,1.85-1.758v-.046a1.885,1.885,0,0,0-1.908-1.793,1.793,1.793,0,0,0-1.851,1.734Z" transform="translate(-2627.875 2397.848)" fill="#12263f"/>
        <path id="Path_173042" data-name="Path 173042" d="M2709.346-2362.511c.254.231,1.619-.891,3.644-.995s3.563.821,3.771.566-.162-.544-.833-.983a5.146,5.146,0,0,0-3.031-.752,4.9,4.9,0,0,0-2.88,1.1C2709.415-2363.067,2709.2-2362.615,2709.346-2362.511Z" transform="translate(-2628.018 2397.149)" fill="#12263f"/>
        <path id="Path_173043" data-name="Path 173043" d="M2704.5-2346.745a13.35,13.35,0,0,0-3.32-.417c-.509,0-1.006-.1-1.157-.451a2.524,2.524,0,0,1,.255-1.55c.428-1.273.855-2.614,1.319-4.014,1.827-5.715,3.111-10.411,2.88-10.48s-1.9,4.511-3.713,10.226q-.66,2.1-1.25,4.025a3.04,3.04,0,0,0-.162,2.048,1.281,1.281,0,0,0,.89.705,3.1,3.1,0,0,0,.879.081A13.243,13.243,0,0,0,2704.5-2346.745Z" transform="translate(-2629.593 2397.31)" fill="#12263f"/>
        <path id="Path_173044" data-name="Path 173044" d="M2709.833-2348.1c-.324,0-.208,2.2-2.013,3.852s-4.141,1.55-4.141,1.851.543.4,1.527.382a5.556,5.556,0,0,0,3.47-1.423,4.758,4.758,0,0,0,1.55-3.227C2710.261-2347.587,2709.983-2348.119,2709.833-2348.1Z" transform="translate(-2628.899 2399.749)" fill="#12263f"/>
        <path id="Path_173045" data-name="Path 173045" d="M2709.062-2369.67c.231.544,2.232.174,4.627.335s4.338.694,4.627.185c.127-.243-.231-.74-1.03-1.226a7.622,7.622,0,0,0-3.47-1.018,7.722,7.722,0,0,0-3.574.613C2709.374-2370.376,2708.957-2369.925,2709.062-2369.67Z" transform="translate(-2628.058 2396.095)" fill="#12263f"/>
        <path id="Path_173046" data-name="Path 173046" d="M2692.6-2368.137c.382.44,1.746-.1,3.47-.22s3.111.139,3.412-.358c.127-.243-.115-.682-.763-1.087a4.984,4.984,0,0,0-5.506.463C2692.6-2368.819,2692.425-2368.345,2692.6-2368.137Z" transform="translate(-2630.646 2396.25)" fill="#12263f"/>
        <path id="Path_173047" data-name="Path 173047" d="M2728.279-2357.267c.22-.116,8.907-3.158,9.1,5.853s-8.9,7.345-8.918,7.091S2728.279-2357.267,2728.279-2357.267Z" transform="translate(-2625.043 2398.22)" fill="#ffbe9d"/>
        <path id="Path_173048" data-name="Path 173048" d="M2730.75-2348.2a3.256,3.256,0,0,0,.428.22,1.575,1.575,0,0,0,1.157,0c.949-.37,1.712-1.9,1.724-3.47a5.282,5.282,0,0,0-.486-2.233,1.84,1.84,0,0,0-1.214-1.156.808.808,0,0,0-.914.451c-.116.255-.058.44-.1.451s-.2-.139-.127-.52a.969.969,0,0,1,.335-.567,1.149,1.149,0,0,1,.867-.255,2.21,2.21,0,0,1,1.666,1.365,5.2,5.2,0,0,1,.67,2.383c0,1.815-.914,3.539-2.209,3.944a1.644,1.644,0,0,1-1.434-.208C2730.773-2347.976,2730.727-2348.184,2730.75-2348.2Z" transform="translate(-2624.657 2398.623)" fill="#eb996e"/>
        <path id="Path_173049" data-name="Path 173049" d="M2694.409-2378.741c-1.469-.786,2.846-5.564,6.408-7.241,5.391-2.521,13.65-4.141,18.67-2.787,6.038,1.631,11.07,4.557,14.159,9.994a35.394,35.394,0,0,1,4.21,18.057,10.706,10.706,0,0,1-1.157,5.518c-1.237,2.013-3.643,3.3-3.47,6.049a3.786,3.786,0,0,1-.9,2.765c-1.631,1.77-3.667.15-4.627-1.492-2.024-3.47-2.313-7.715-2.533-11.764a26.336,26.336,0,0,1,.462-8.583c.417-1.5,1.157-2.938,1.446-4.465a5.349,5.349,0,0,0-.694-4.488,4.87,4.87,0,0,0-.74-.729,9.4,9.4,0,0,0-9.346-1.666c-5.055,1.862-13.7,4.627-15.986,2.961-3.285-2.429-4.083-4.037-4.083-4.037Z" transform="translate(-2630.398 2393.297)" fill="#12263f"/>
        <path id="Path_173050" data-name="Path 173050" d="M2718.436-2389.754a19.776,19.776,0,0,0-15.211,1.041,10.3,10.3,0,0,0-5.367,6.049c-.717,2.684.462,5.958,3.053,6.941l.174.116c3.864,1.238,6.362.694,10.179-.683,3.216-1.157,6.05-3.193,9.254-4.326a18.2,18.2,0,0,1,10.711-.451A29.8,29.8,0,0,0,2718.436-2389.754Z" transform="translate(-2629.844 2393.055)" fill="#12263f"/>
        <path id="Path_173051" data-name="Path 173051" d="M2732.773-2381.581c-.082.069-.81-.8-2.313-1.8a13.158,13.158,0,0,0-2.742-1.469,8.416,8.416,0,0,0-3.667-.613,12.287,12.287,0,0,0-6.281,2.591c-1.4,1.156-2.047,2.036-2.129,1.966s.093-.277.394-.694a9.617,9.617,0,0,1,1.458-1.6,11.67,11.67,0,0,1,6.559-2.834,8.546,8.546,0,0,1,3.921.694,12.249,12.249,0,0,1,2.788,1.62A6.946,6.946,0,0,1,2732.773-2381.581Z" transform="translate(-2627.027 2393.8)" fill="#254e82"/>
        <path id="Path_173052" data-name="Path 173052" d="M2732.777-2379.426a7.293,7.293,0,0,1-.683,2.579,18.681,18.681,0,0,1-8.409,9.474,7.7,7.7,0,0,1-2.476,1A23.255,23.255,0,0,0,2732.777-2379.426Z" transform="translate(-2626.151 2394.838)" fill="#254e82"/>
        <path id="Path_173053" data-name="Path 173053" d="M2736.543-2378.156a3.326,3.326,0,0,1,0,1.018,17.505,17.505,0,0,1-.393,2.776,18.849,18.849,0,0,1-11.718,13.442,16.972,16.972,0,0,1-2.7.763,3.226,3.226,0,0,1-1.018.1c0-.1,1.411-.358,3.551-1.272a19.821,19.821,0,0,0,11.463-13.141C2736.382-2376.71,2736.428-2378.168,2736.543-2378.156Z" transform="translate(-2626.228 2395.038)" fill="#254e82"/>
        <path id="Path_173054" data-name="Path 173054" d="M2708.458-2390.606a22.461,22.461,0,0,1-2.394.9,20.083,20.083,0,0,0-5.217,3.088,19.667,19.667,0,0,0-4.026,4.534c-.856,1.319-1.249,2.21-1.342,2.175a6.736,6.736,0,0,1,.972-2.395,16.918,16.918,0,0,1,4.014-4.777,16.739,16.739,0,0,1,5.46-3.019A7.156,7.156,0,0,1,2708.458-2390.606Z" transform="translate(-2630.184 2393.086)" fill="#254e82"/>
        <path id="Path_173055" data-name="Path 173055" d="M2737.769-2389.626a8.623,8.623,0,0,1-2.313,5.02,8.7,8.7,0,0,1-4.546,3.123,25.771,25.771,0,0,0,4.1-3.47A24.81,24.81,0,0,0,2737.769-2389.626Z" transform="translate(-2624.631 2393.24)" fill="#254e82"/>
        <path id="Path_173056" data-name="Path 173056" d="M2653.118-2276.187l-12.216,24.465a17.83,17.83,0,0,0-1.85,8.8h0a17.8,17.8,0,0,0,17.779,16.935l34.876-2.024,1.527-15.917-26.536-6.4,10.052-19.017Z" transform="translate(-2639.032 2411.021)" fill="#ffbe9d"/>
        <path id="Path_173057" data-name="Path 173057" d="M2680.484-2247.659h6.825s15.408-5.564,18.577-5.032c2.857.475,13.3,7.415,15.35,8.792a1.361,1.361,0,0,1,.5.636h0a2.245,2.245,0,0,1-1.249,2.845l-.22.081.092.312a3.774,3.774,0,0,1,.162,1.249,1.5,1.5,0,0,1-1.609,1.39,1.5,1.5,0,0,1-1.19-.742l.393.706a1.761,1.761,0,0,1,.22.937v.636a1.713,1.713,0,0,1-1.156,1.527h0a1.7,1.7,0,0,1-1.793-.463c-1.33-1.458-4.187-4.384-6.131-4.708a46.114,46.114,0,0,0-6.316-.312,2.115,2.115,0,0,0-1.99,1.365h0c1.157.081,9.15,4.257,11.984,5.784a3,3,0,0,1,1.643,2.313c.1.879-.336,1.816-2.094,1.4a78.011,78.011,0,0,1-10.538-3.991s-3.47-.995-5.783.6c-3.181,2.243-4.627,3.065-7.381,2.163a23.5,23.5,0,0,1-4.742-2.21l-5.39-.532S2673.521-2245.7,2680.484-2247.659Z" transform="translate(-2633.107 2414.698)" fill="#ffbe9d"/>
        <path id="Path_173058" data-name="Path 173058" d="M2697.579-2246.007a28.827,28.827,0,0,1,2.892-.4,14.969,14.969,0,0,1,12.458,5.321c1.157,1.376,1.654,2.395,1.712,2.372a4.421,4.421,0,0,0-.347-.718,12.332,12.332,0,0,0-1.156-1.781,14.447,14.447,0,0,0-12.62-5.39,11.76,11.76,0,0,0-2.128.358A3.413,3.413,0,0,0,2697.579-2246.007Z" transform="translate(-2629.855 2415.647)" fill="#eb996e"/>
        <path id="Path_173059" data-name="Path 173059" d="M2698.99-2249.225a12.05,12.05,0,0,1,3.007-.532,13.1,13.1,0,0,1,7.01,1.99,28.261,28.261,0,0,1,5.645,4.777l1.55,1.643a3.6,3.6,0,0,0,.59.578,4.912,4.912,0,0,0-.509-.659c-.335-.405-.833-1-1.48-1.7a25.867,25.867,0,0,0-5.645-4.893,12.907,12.907,0,0,0-7.172-1.943,8.566,8.566,0,0,0-2.233.417c-.255.069-.439.173-.579.219S2698.978-2249.237,2698.99-2249.225Z" transform="translate(-2629.634 2415.13)" fill="#eb996e"/>
        <path id="Path_173060" data-name="Path 173060" d="M2665.581-2253.8c0,.1-1.215-.093-3.135-.081a24.245,24.245,0,0,0-7.357,1.307,22.086,22.086,0,0,0-6.594,3.47c-1.5,1.157-2.221,2.163-2.313,2.1s.127-.289.439-.74a11.022,11.022,0,0,1,1.6-1.689,19.766,19.766,0,0,1,6.663-3.748,21.089,21.089,0,0,1,7.554-1.157,14.746,14.746,0,0,1,2.313.266A2.861,2.861,0,0,1,2665.581-2253.8Z" transform="translate(-2637.914 2414.444)" fill="#eb996e"/>
        <path id="Path_173061" data-name="Path 173061" d="M2785.489-2279.826s7.623,21.978,15.848,42.325a9.8,9.8,0,0,1,.393,1.272,8.93,8.93,0,0,1-7.011,10.5,8.952,8.952,0,0,1-1.838.172h-48.05v-15.465l29.589-6.281-10.712-23.782Z" transform="translate(-2622.449 2410.45)" fill="#ffbe9d"/>
        <path id="Path_173062" data-name="Path 173062" d="M2759.087-2247.24h-6.825s-15.407-5.564-18.577-5.032c-2.857.474-13.3,7.415-15.35,8.791a1.249,1.249,0,0,0-.5.624h0a2.243,2.243,0,0,0,1.249,2.846l.22.093-.1.313a3.686,3.686,0,0,0-.15,1.249,1.5,1.5,0,0,0,1.608,1.391,1.5,1.5,0,0,0,1.191-.743l-.394.695a1.657,1.657,0,0,0-.22.937v.636a1.714,1.714,0,0,0,1.157,1.538h0a1.713,1.713,0,0,0,1.793-.474c1.33-1.458,4.187-4.373,6.119-4.7a44.434,44.434,0,0,1,6.327-.312,2.139,2.139,0,0,1,1.99,1.365h0c-1.156.081-9.15,4.257-11.984,5.784a3.025,3.025,0,0,0-1.654,2.313c-.1.891.347,1.816,2.105,1.411a78.072,78.072,0,0,0,10.538-3.99s3.47-1.006,5.783.59c3.193,2.256,4.627,3.077,7.38,2.163a23.109,23.109,0,0,0,4.754-2.2l5.391-.544S2766.051-2245.285,2759.087-2247.24Z" transform="translate(-2626.701 2414.763)" fill="#ffbe9d"/>
        <path id="Path_173063" data-name="Path 173063" d="M2738.2-2245.579a28.586,28.586,0,0,0-2.892-.4,14.934,14.934,0,0,0-12.458,5.321c-1.157,1.377-1.654,2.395-1.712,2.314a3.413,3.413,0,0,1,.347-.706,12.487,12.487,0,0,1,1.157-1.793,14.56,14.56,0,0,1,12.631-5.391,12.808,12.808,0,0,1,2.128.37A2.982,2.982,0,0,1,2738.2-2245.579Z" transform="translate(-2626.162 2415.706)" fill="#eb996e"/>
        <path id="Path_173064" data-name="Path 173064" d="M2736.892-2248.817a12.721,12.721,0,0,0-3.02-.521,13.169,13.169,0,0,0-7,1.978,28.282,28.282,0,0,0-5.656,4.778l-1.539,1.654a6.138,6.138,0,0,1-.59.579,3.954,3.954,0,0,1,.5-.66c.347-.405.844-.995,1.48-1.712a25.936,25.936,0,0,1,5.656-4.881,12.79,12.79,0,0,1,7.16-1.943,8.166,8.166,0,0,1,2.244.417,3.483,3.483,0,0,1,.567.219Z" transform="translate(-2626.483 2415.195)" fill="#eb996e"/>
        <path id="Path_173065" data-name="Path 173065" d="M2789.377-2247.043c-.058.08-.995-.66-2.638-1.6a24.581,24.581,0,0,0-14.193-3.216c-1.9.139-3.053.4-3.077.3a2.374,2.374,0,0,1,.787-.289,15.843,15.843,0,0,1,2.244-.439,21.786,21.786,0,0,1,14.459,3.273,15.425,15.425,0,0,1,1.839,1.365C2789.192-2247.286,2789.411-2247.078,2789.377-2247.043Z" transform="translate(-2618.587 2414.74)" fill="#eb996e"/>
      </g>
      <g id="freepik--Desk--inject-81" transform="translate(60.913 232.786)">
        <rect id="Rectangle_36915" data-name="Rectangle 36915" width="408.075" height="7.785" transform="translate(0 57.016)" fill="#27456e"/>
        <path id="Path_173066" data-name="Path 173066" d="M2554.756-2015.163h-5.587v-210.943h11.949Z" transform="translate(-2538.18 2290.386)" fill="#27456e"/>
        <path id="Path_173067" data-name="Path 173067" d="M2616.885-2015.288h-5.575v-210.688h11.949Z" transform="translate(-2528.44 2290.406)" fill="#12263f"/>
        <path id="Path_173068" data-name="Path 173068" d="M2819.306-2015.523h-5.587v-210.434h11.949Z" transform="translate(-2496.714 2290.41)" fill="#12263f"/>
        <path id="Path_173069" data-name="Path 173069" d="M2871.316-2015.278h-5.587v-210.758h11.949Z" transform="translate(-2488.562 2290.397)" fill="#27456e"/>
        <path id="Path_173070" data-name="Path 173070" d="M2755.607-2224.741h-71.66a3.818,3.818,0,0,1-3.806-3.632l-2.151-49.335a3.8,3.8,0,0,1,3.64-3.964c.055,0,.11,0,.166,0h75.824a3.817,3.817,0,0,1,3.808,3.825c0,.044,0,.087,0,.13l-2.013,49.335A3.8,3.8,0,0,1,2755.607-2224.741Z" transform="translate(-2517.989 2281.676)" fill="#e0e0e0"/>
        <path id="Path_173071" data-name="Path 173071" d="M2718.5-2255.785a3.922,3.922,0,0,1-3.921,3.921,3.921,3.921,0,0,1-3.922-3.921,3.92,3.92,0,0,1,3.922-3.921A3.932,3.932,0,0,1,2718.5-2255.785Z" transform="translate(-2512.868 2285.119)" fill="#fff"/>
      </g>
      <g id="freepik--Lamp--inject-81" transform="translate(317.779 129.061)">
        <path id="Path_173072" data-name="Path 173072" d="M2864.255-2307.472a2.973,2.973,0,0,1,3.314-2.588,2.974,2.974,0,0,1,2.587,3.314c-.007.056-.015.11-.024.164l-13.025,79.526h-5.958Z" transform="translate(-2747.713 2380.949)" fill="#263238"/>
        <path id="Path_173073" data-name="Path 173073" d="M2874.185-2298.983l-53.719-58.994-.393.648-2.6,4.315,52.308,58.045a2.973,2.973,0,0,0,4.2.181,2.973,2.973,0,0,0,.207-4.172Z" transform="translate(-2752.992 2373.442)" fill="#263238"/>
        <path id="Path_173074" data-name="Path 173074" d="M2863.1-2305.43a.568.568,0,0,1-.069-.37,1.345,1.345,0,0,1,.486-.914,1.6,1.6,0,0,1,1.562-.3,1.665,1.665,0,0,1,1.048,2.109,1.666,1.666,0,0,1-1.048,1.049,1.635,1.635,0,0,1-1.562-.289,1.35,1.35,0,0,1-.486-.914c0-.243,0-.37.069-.37a2.1,2.1,0,0,0,.682.949,1.16,1.16,0,0,0,1.1.1,1.157,1.157,0,0,0,.717-1.053,1.156,1.156,0,0,0-.717-1.064,1.153,1.153,0,0,0-1.1.115C2863.238-2305.985,2863.238-2305.406,2863.1-2305.43Z" transform="translate(-2745.851 2381.417)" fill="#455a64"/>
        <path id="Path_173075" data-name="Path 173075" d="M2864.083-2309.947a7.77,7.77,0,0,1,1.619,1.481,22.121,22.121,0,0,1,1.62,1.781,3.716,3.716,0,0,1,.845,2.927,3,3,0,0,1-2.187,2.151,3.229,3.229,0,0,1-2.475-.347,3.8,3.8,0,0,1-1.585-1.55c.069-.093.636.578,1.793,1.157a2.813,2.813,0,0,0,2.1.2,2.487,2.487,0,0,0,1.758-1.747,3.324,3.324,0,0,0-.706-2.475c-.5-.695-1.064-1.3-1.481-1.816A8.016,8.016,0,0,1,2864.083-2309.947Z" transform="translate(-2746.025 2380.971)" fill="#455a64"/>
        <path id="Path_173076" data-name="Path 173076" d="M2830.769-2231.181h48.907s-6.247-7.785-22.522-7.785C2841.99-2238.966,2832.955-2234.513,2830.769-2231.181Z" transform="translate(-2750.907 2392.096)" fill="#263238"/>
        <path id="Path_173077" data-name="Path 173077" d="M2820.766-2365.251l2.487-3.736-3.077-2.36-2.637,3.759Z" transform="translate(-2752.981 2371.347)" fill="#263238"/>
        <path id="Path_173078" data-name="Path 173078" d="M2830.2-2363.084l-10.711-7.762-10.272,12.365c-17.825,2.869-25.009,14.078-25.009,14.078l31.9,24.43c10.92-12.065,5.784-29.312,5.784-29.312Z" transform="translate(-2758.205 2371.425)" fill="#00ceeb"/>
        <path id="Path_173079" data-name="Path 173079" d="M2818.473-2350.96a51.356,51.356,0,0,1-6.5-4.349,52.483,52.483,0,0,1-6.142-4.847,51.2,51.2,0,0,1,6.5,4.349A49.882,49.882,0,0,1,2818.473-2350.96Z" transform="translate(-2754.816 2373.101)" fill="#263238"/>
        <path id="Path_173080" data-name="Path 173080" d="M2786.368-2340.635c.07.15-5.39,2.834-12.192,5.992s-12.377,5.587-12.447,5.437,5.39-2.834,12.192-5.992S2786.3-2340.786,2786.368-2340.635Z" transform="translate(-2761.729 2376.159)" fill="#263238"/>
        <path id="Path_173081" data-name="Path 173081" d="M2796.271-2331.436c.127.116-4.083,4.627-9.381,10.075s-9.706,9.774-9.821,9.659,4.083-4.627,9.381-10.075S2796.156-2331.552,2796.271-2331.436Z" transform="translate(-2759.324 2377.602)" fill="#263238"/>
        <path id="Path_173082" data-name="Path 173082" d="M2800.695-2300.534c-.162,0,.174-5.483.764-12.215s1.157-12.18,1.365-12.157a121.082,121.082,0,0,1-.763,12.215C2801.47-2305.959,2800.857-2300.522,2800.695-2300.534Z" transform="translate(-2755.628 2378.625)" fill="#263238"/>
      </g>
      <g id="freepik--Floor--inject-81" transform="translate(0 507.605)">
        <path id="Path_173083" data-name="Path 173083" d="M3017.259-2043.8c0,.174-118.7.3-265.113.3s-265.137-.127-265.137-.3,118.682-.3,265.137-.3S3017.259-2043.958,3017.259-2043.8Z" transform="translate(-2487.009 2044.096)" fill="#12263f"/>
      </g>
      <g id="freepik--Files--inject-81" transform="translate(50.228 35.123)">
        <rect id="Rectangle_36916" data-name="Rectangle 36916" width="31.07" height="24.835" transform="translate(97.728 0.943) rotate(-1.69)" fill="#ebebeb"/>
        <path id="Path_173084" data-name="Path 173084" d="M2645.994-2452.533h-.59l-1.689.069-6.35.208-22.429.694.081-.081c.22,7.392.474,15.859.752,24.824h0l-.092-.081,31.047-.9-.069.081c-.208-7.484-.382-13.684-.5-18.011,0-2.175-.092-3.875-.127-5.032v-.034c0,1.157.093,2.857.162,5.02.139,4.338.336,10.55.578,18.045v.069h-.081l-31.046.925h-.093v-.092h0c-.266-8.965-.509-17.444-.729-24.824v-.081h.081l22.476-.613,6.339-.174h2.244Z" transform="translate(-2517.204 2452.556)" fill="#263238"/>
        <rect id="Rectangle_36917" data-name="Rectangle 36917" width="28.884" height="21.712" transform="translate(98.849 2.484) rotate(-1.69)" fill="#00ceeb"/>
        <g id="Group_113936" data-name="Group 113936" transform="translate(99.488 10.387)" opacity="0.3">
          <path id="Path_173085" data-name="Path 173085" d="M2616.438-2429.788l9.694-13.789,6.489,8.259,4.106-4.638,8.583,9.312Z" transform="translate(-2616.438 2443.577)"/>
        </g>
        <g id="Group_113937" data-name="Group 113937" transform="translate(113.404 6.156)" opacity="0.3">
          <path id="Path_173086" data-name="Path 173086" d="M2633.1-2444.923a2.314,2.314,0,0,1-2.209,2.313,2.314,2.314,0,0,1-2.416-2.207,2.312,2.312,0,0,1,2.207-2.415,2.313,2.313,0,0,1,2.415,2.207C2633.095-2444.991,2633.1-2444.958,2633.1-2444.923Z" transform="translate(-2628.469 2447.234)"/>
        </g>
        <rect id="Rectangle_36918" data-name="Rectangle 36918" width="46.941" height="37.525" transform="matrix(0.985, -0.172, 0.172, 0.985, 68.492, 24.644)" fill="#ebebeb"/>
        <path id="Path_173087" data-name="Path 173087" d="M2635.9-2438.246h-.22l-.648.116-2.51.45-9.462,1.689-33.384,5.911.1-.139c1.932,11,4.141,23.609,6.489,36.958h0l-.162-.116,46.27-8.1-.093.128c-1.92-11.14-3.471-20.359-4.627-26.825-.556-3.227-.983-5.784-1.284-7.5-.15-.856-.254-1.527-.335-1.978l-.1-.682a2.673,2.673,0,0,0,.128.659c.127.44.2,1.157.358,1.956.3,1.724.752,4.245,1.33,7.461l4.766,26.871v.1h-.116l-46.269,8.1h-.127v-.127h0c-2.313-13.349-4.546-25.957-6.466-36.958v-.128h.127l33.476-5.784,9.439-1.619,2.5-.428.636-.1Z" transform="translate(-2521.167 2454.787)" fill="#263238"/>
        <rect id="Rectangle_36919" data-name="Rectangle 36919" width="43.644" height="32.805" transform="matrix(0.985, -0.172, 0.172, 0.985, 70.485, 26.7)" fill="#00ceeb"/>
        <g id="Group_113938" data-name="Group 113938" transform="translate(76.157 36.275)" opacity="0.4">
          <path id="Path_173088" data-name="Path 173088" d="M2596.269-2398.479l11.5-22.718,11.5,10.943,5.136-7.819,14.852,12.064Z" transform="translate(-2596.269 2421.197)"/>
        </g>
        <g id="Group_113939" data-name="Group 113939" transform="translate(93.589 28.663)" opacity="0.4">
          <path id="Path_173089" data-name="Path 173089" d="M2618.222-2424.942a3.47,3.47,0,0,1-2.776,4.046,3.47,3.47,0,0,1-4.048-2.775,3.471,3.471,0,0,1,2.777-4.047l.068-.012A3.47,3.47,0,0,1,2618.222-2424.942Z" transform="translate(-2611.339 2427.777)"/>
        </g>
        <path id="Path_173090" data-name="Path 173090" d="M2546.778-2380.265l7.218,27.681a1.921,1.921,0,0,0,2.232,1.411l50.446-9.878a1.92,1.92,0,0,0,1.515-2.253v0l-4.222-21.827a1.945,1.945,0,0,0-2.29-1.521l-.023.006-30.978,6.27a1.932,1.932,0,0,1-1.446-.278l-6.431-4.257a1.96,1.96,0,0,0-1.435-.289l-13.082,2.568a1.921,1.921,0,0,0-1.534,2.242C2546.757-2380.352,2546.767-2380.308,2546.778-2380.265Z" transform="translate(-2527.879 2462.879)" fill="#00ceeb"/>
        <rect id="Rectangle_36920" data-name="Rectangle 36920" width="56.16" height="33.557" transform="translate(19.918 83.321) rotate(-11.08)" fill="#f5f5f5"/>
        <path id="Path_173091" data-name="Path 173091" d="M2544.357-2375.39l10.932,33.546a1.26,1.26,0,0,0,1.422.833l53.708-10.515a1.24,1.24,0,0,0,1-1.365l-4.014-34.876a1.239,1.239,0,0,0-1.37-1.092c-.033,0-.067.009-.1.016L2545.352-2377a1.251,1.251,0,0,0-1.038,1.431A1.387,1.387,0,0,0,2544.357-2375.39Z" transform="translate(-2528.258 2462.538)" fill="#00ceeb"/>
        <g id="Group_113940" data-name="Group 113940" transform="translate(16.041 73.672)" opacity="0.3">
          <path id="Path_173092" data-name="Path 173092" d="M2544.357-2375.39l10.932,33.546a1.26,1.26,0,0,0,1.422.833l53.708-10.515a1.24,1.24,0,0,0,1-1.365l-4.014-34.876a1.239,1.239,0,0,0-1.37-1.092c-.033,0-.067.009-.1.016L2545.352-2377a1.251,1.251,0,0,0-1.038,1.431A1.387,1.387,0,0,0,2544.357-2375.39Z" transform="translate(-2544.298 2388.867)"/>
        </g>
        <path id="Path_173093" data-name="Path 173093" d="M2568.134-2398.068l-36.009-13.176a2.706,2.706,0,0,1-1.307-3.47l8.941-23.389a2.67,2.67,0,0,1,3.169-1.793l36.056,13.5c1.261.475,1.4,1.828.925,3.089l-9.37,24.141a1.864,1.864,0,0,1-2.391,1.1Z" transform="translate(-2530.404 2454.529)" fill="#fafafa"/>
        <path id="Path_173094" data-name="Path 173094" d="M2567.8-2398.177a2.733,2.733,0,0,0,1.411,0,2.578,2.578,0,0,0,1.365-.983,4.208,4.208,0,0,0,.451-.995c.15-.37.29-.775.451-1.157,1.284-3.4,3.124-8.271,5.379-14.285.579-1.515,1.157-3.089,1.793-4.731l.96-2.521a8.351,8.351,0,0,0,.429-1.273,2.326,2.326,0,0,0-.174-1.261,2.113,2.113,0,0,0-.856-.972,10.791,10.791,0,0,0-1.318-.52l-2.8-1.018-5.853-2.14-26.039-9.52a2.314,2.314,0,0,0-2.776,1.157l-1.3,3.355-2.533,6.616c-1.6,4.361-3.262,8.537-4.789,12.516-.2.5-.382.995-.567,1.481a2.306,2.306,0,0,0-.162,1.411,2.124,2.124,0,0,0,.694,1.156,3.653,3.653,0,0,0,1.3.625l5.506,2.036,9.891,3.644,14.3,5.368,3.887,1.469.994.394a2.079,2.079,0,0,1,.347.15,1.307,1.307,0,0,1-.358-.1l-1.018-.347-3.852-1.388-14.355-5.171-9.937-3.6-5.518-2a4.092,4.092,0,0,1-1.423-.706,2.568,2.568,0,0,1-.833-1.422,2.777,2.777,0,0,1,.139-1.655c.185-.5.37-1,.567-1.492l4.754-12.5c.822-2.163,1.666-4.373,2.521-6.606.428-1.156.868-2.313,1.308-3.389a2.727,2.727,0,0,1,3.377-1.457l26.027,9.543,5.784,2.152,2.8,1.03a10.54,10.54,0,0,1,1.389.566,2.558,2.558,0,0,1,1.006,1.157,2.784,2.784,0,0,1,.2,1.492,8.445,8.445,0,0,1-.451,1.342c-.336.856-.66,1.689-.972,2.51-.636,1.643-1.237,3.216-1.828,4.72l-5.518,14.228c-.162.428-.324.821-.463,1.157a4.435,4.435,0,0,1-.5,1.018,2.7,2.7,0,0,1-1.458.995,2.4,2.4,0,0,1-1.087,0A1.047,1.047,0,0,1,2567.8-2398.177Z" transform="translate(-2530.431 2454.498)" fill="#00ceeb"/>
        <path id="Path_173095" data-name="Path 173095" d="M2555.243-2422.84l3.748,4.7-5.992,1.087-5.98,1.087,2.232-5.784,2.233-5.784Z" transform="translate(-2527.832 2456.478)" fill="#00ceeb"/>
      </g>
      <g id="freepik--Cloud--inject-81" transform="translate(54.008 147.234)">
        <ellipse id="Ellipse_4871" data-name="Ellipse 4871" cx="0.301" cy="1.446" rx="0.301" ry="1.446" transform="translate(52.134 102.059)" fill="#263238"/>
        <path id="Path_173096" data-name="Path 173096" d="M2579.07-2252.742a17.825,17.825,0,0,1,0-6.524A17.868,17.868,0,0,1,2579.07-2252.742Z" transform="translate(-2526.635 2370.741)" fill="#263238"/>
        <path id="Path_173097" data-name="Path 173097" d="M2581.962-2245.088a7.3,7.3,0,0,1-2.892.3l-.3-.3h0v-2.093c.058-.521.139-.844.22-.844s.151.324.208.844a4.524,4.524,0,0,0,.07.925v1.087h0l-.3-.3A7.063,7.063,0,0,1,2581.962-2245.088Z" transform="translate(-2526.634 2372.503)" fill="#263238"/>
        <path id="Path_173098" data-name="Path 173098" d="M2592.356-2245.44a7.368,7.368,0,0,1-2.9.3,7.36,7.36,0,0,1-2.9-.3,7.1,7.1,0,0,1,2.9-.3A7.106,7.106,0,0,1,2592.356-2245.44Z" transform="translate(-2525.415 2372.855)" fill="#263238"/>
        <path id="Path_173099" data-name="Path 173099" d="M2602.4-2245.446a14.21,14.21,0,0,1-5.784,0A14.159,14.159,0,0,1,2602.4-2245.446Z" transform="translate(-2523.837 2372.861)" fill="#263238"/>
        <path id="Path_173100" data-name="Path 173100" d="M2612.443-2245.446a14.21,14.21,0,0,1-5.784,0A14.159,14.159,0,0,1,2612.443-2245.446Z" transform="translate(-2522.263 2372.861)" fill="#263238"/>
        <path id="Path_173101" data-name="Path 173101" d="M2622.493-2245.446a14.21,14.21,0,0,1-5.784,0A14.159,14.159,0,0,1,2622.493-2245.446Z" transform="translate(-2520.688 2372.861)" fill="#263238"/>
        <path id="Path_173102" data-name="Path 173102" d="M2632.543-2245.446a14.237,14.237,0,0,1-5.784,0A14.2,14.2,0,0,1,2632.543-2245.446Z" transform="translate(-2519.112 2372.861)" fill="#263238"/>
        <path id="Path_173103" data-name="Path 173103" d="M2642.583-2245.446a14.211,14.211,0,0,1-5.784,0A14.16,14.16,0,0,1,2642.583-2245.446Z" transform="translate(-2517.539 2372.861)" fill="#263238"/>
        <path id="Path_173104" data-name="Path 173104" d="M2652.633-2245.446a14.211,14.211,0,0,1-5.784,0A14.16,14.16,0,0,1,2652.633-2245.446Z" transform="translate(-2515.963 2372.861)" fill="#263238"/>
        <path id="Path_173105" data-name="Path 173105" d="M2662.673-2245.446a14.209,14.209,0,0,1-5.783,0A14.158,14.158,0,0,1,2662.673-2245.446Z" transform="translate(-2514.39 2372.861)" fill="#263238"/>
        <path id="Path_173106" data-name="Path 173106" d="M2672.723-2245.446a14.209,14.209,0,0,1-5.783,0A14.158,14.158,0,0,1,2672.723-2245.446Z" transform="translate(-2512.815 2372.861)" fill="#263238"/>
        <path id="Path_173107" data-name="Path 173107" d="M2679.851-2245.446c0,.162-.648.3-1.446.3s-1.446-.138-1.446-.3.648-.3,1.446-.3S2679.851-2245.619,2679.851-2245.446Z" transform="translate(-2511.244 2372.861)" fill="#263238"/>
        <rect id="Rectangle_36921" data-name="Rectangle 36921" width="98.335" height="98.335" rx="6.79" fill="#00ceeb"/>
        <path id="Path_173108" data-name="Path 173108" d="M2598.148-2290.244a10.6,10.6,0,0,0,7.38-13.048,10.6,10.6,0,0,0-13.048-7.38h0c.844-8.2-6.616-16.264-14.865-16.044s-15.28,8.664-13.985,16.819a9.7,9.7,0,0,0-10.046,9.352,9.7,9.7,0,0,0,9.352,10.046Z" transform="translate(-2530.583 2360.169)" fill="#fff"/>
      </g>
    </g>
  </g>
</svg>
