<svg xmlns="http://www.w3.org/2000/svg" width="190" height="101" viewBox="0 0 190 101">
  <g id="t2-ic1" transform="translate(-180 -404)">
    <rect id="Rectangle_36715" data-name="Rectangle 36715" width="190" height="100" transform="translate(180 404)" fill="none"/>
    <g id="Group_110590" data-name="Group 110590" transform="translate(180.001 404)">
      <path id="Path_169529" data-name="Path 169529" d="M623.13-2336.808l-3.5,39.242L587.464-2320.4Z" transform="translate(-587.464 2336.969)" fill="#e8b700"/>
      <path id="Path_169530" data-name="Path 169530" d="M623.224-2337.345l-15.359,18.463-20.267-1.9Z" transform="translate(-587.599 2337.345)" fill="#ffe47a"/>
      <path id="Path_169531" data-name="Path 169531" d="M602.958-2337.345l-3.459,39.4-11.9-20.94Z" transform="translate(-567.332 2337.345)" fill="#ffcf19"/>
    </g>
    <g id="Group_110591" data-name="Group 110591" transform="translate(338.25 468.924)">
      <path id="Path_169532" data-name="Path 169532" d="M755.214-2296.124l-28.635,20.33-3.115-34.933Z" transform="translate(-723.464 2310.87)" fill="#22f0b0"/>
      <path id="Path_169533" data-name="Path 169533" d="M755.178-2296.412l-18.041,1.69-13.673-16.436Z" transform="translate(-723.428 2311.158)" fill="#a6ffe3"/>
      <path id="Path_169534" data-name="Path 169534" d="M791.423-2294.722l-10.594,18.64-3.079-35.076Z" transform="translate(-777.715 2311.158)" fill="#59ffcc"/>
    </g>
    <g id="digital_1_" data-name="digital (1)" transform="translate(225 404)">
      <path id="Path_172852" data-name="Path 172852" d="M378.62,30.953a11.3,11.3,0,0,1-3.34,1.254l-.619,1.857H371.4l-.619-1.857a11.523,11.523,0,0,1-4.073-1.678l-1.744.863-2.3-2.3.863-1.744a11.522,11.522,0,0,1-1.678-4.073L360,22.662V19.4l1.857-.619a11.294,11.294,0,0,1,1.254-3.34,4.721,4.721,0,0,1,.423-.733l-.863-1.744,2.3-2.3,1.744.863a11.523,11.523,0,0,1,4.073-1.678L371.4,8h3.258l.619,1.857a11.522,11.522,0,0,1,4.073,1.678l1.744-.863,2.3,2.3-.863,1.744a11.521,11.521,0,0,1,1.678,4.073l1.857.619v3.258l-1.857.619a11.521,11.521,0,0,1-1.678,4.073l.863,1.744-2.3,2.3-1.744-.863a4.719,4.719,0,0,1-.733.423Zm-.7-9.921a4.887,4.887,0,1,0-4.887,4.887A4.88,4.88,0,0,0,377.919,21.033Zm0,0" transform="translate(-286.694 -6.371)" fill="#e8e8e8"/>
      <path id="Path_172853" data-name="Path 172853" d="M388.007,331.971A11.376,11.376,0,0,1,386.1,348.6a4.665,4.665,0,0,0-1.841,3.812v1.645h-9.774v-1.645a4.857,4.857,0,0,0-.619-2.4,4.116,4.116,0,0,0-1.254-1.45,11.452,11.452,0,0,1-3.079-3.421,11.3,11.3,0,0,1-1.564-6.173A11.566,11.566,0,0,1,379.178,328a11.38,11.38,0,0,1,3.356.456,11.247,11.247,0,0,1,5.473,3.519Zm0,0" transform="translate(-293.035 -261.206)" fill="#ffcf19"/>
      <path id="Path_172854" data-name="Path 172854" d="M409.774,456v1.629a4.887,4.887,0,1,1-9.774,0V456Zm0,0" transform="translate(-318.549 -363.145)" fill="#b0c0d2"/>
      <path id="Path_172855" data-name="Path 172855" d="M409.774,52.887A4.887,4.887,0,1,1,404.887,48,4.887,4.887,0,0,1,409.774,52.887Zm0,0" transform="translate(-318.549 -38.226)" fill="#f5f7fa"/>
      <path id="Path_172856" data-name="Path 172856" d="M195.839,336v9.774a3.267,3.267,0,0,1-3.258,3.258H163.258A3.267,3.267,0,0,1,160,345.774V336Zm0,0" transform="translate(-127.42 -267.581)" fill="#00ceeb"/>
      <path id="Path_172857" data-name="Path 172857" d="M195.839,160v35.839H160V160Zm-22.806,24.436,9.774-6.516-9.774-6.516Zm0,0" transform="translate(-127.42 -127.419)" fill="#f5f7fa"/>
      <path id="Path_172858" data-name="Path 172858" d="M195.839,115.258v6.516H160v-6.516A3.267,3.267,0,0,1,163.258,112h29.323A3.267,3.267,0,0,1,195.839,115.258Zm0,0" transform="translate(-127.42 -89.194)" fill="#00ceeb"/>
      <path id="Path_172859" data-name="Path 172859" d="M233.774,222.516,224,229.032V216Zm0,0" transform="translate(-178.388 -172.016)" fill="#ffcf19"/>
      <path id="Path_172860" data-name="Path 172860" d="M40.581,419.4a4.993,4.993,0,0,1-.391,1.923,4.89,4.89,0,0,1-4.5,2.965H12.887a4.887,4.887,0,1,1,0-9.774A6.514,6.514,0,0,1,19.4,408a5.214,5.214,0,0,1,1.026.1,6.386,6.386,0,0,1,3.861,2.15A6.462,6.462,0,0,1,29.177,408c.228,0,.44.016.668.033a6.491,6.491,0,0,1,5.212,3.714,6.344,6.344,0,0,1,.636,2.77,4.88,4.88,0,0,1,4.887,4.887Zm0,0" transform="translate(-6.371 -324.919)" fill="#00ceeb"/>
      <path id="Path_172861" data-name="Path 172861" d="M37.323,19.289v5a3.267,3.267,0,0,1-3.258,3.258H25.919l-3.258,6.516-.636-1.27L19.4,27.548H11.258A3.267,3.267,0,0,1,8,24.29V11.258A3.267,3.267,0,0,1,11.258,8H34.065a3.267,3.267,0,0,1,3.258,3.258Zm0,0" transform="translate(-6.371 -6.371)" fill="#ffcf19"/>
      <path id="Path_172862" data-name="Path 172862" d="M140.9,415.121a42.4,42.4,0,0,0,47.8-2.883,11.452,11.452,0,0,0,3.079,3.421,4.116,4.116,0,0,1,1.254,1.45A48.914,48.914,0,0,1,146.4,424.88l-.391-.179a4.993,4.993,0,0,0,.391-1.923,4.88,4.88,0,0,0-4.887-4.887,6.344,6.344,0,0,0-.636-2.77Zm0,0" transform="translate(-112.193 -328.294)" fill="#59ffcc"/>
      <path id="Path_172863" data-name="Path 172863" d="M436.46,146.637a48.41,48.41,0,0,1-4.4,20.265,11.248,11.248,0,0,0-5.473-3.519l.1-.423a42.427,42.427,0,0,0-3.4-39.129h1.775l.619-1.857a11.3,11.3,0,0,0,3.34-1.254,48.53,48.53,0,0,1,7.444,25.918Zm0,0" transform="translate(-337.089 -96.137)" fill="#59ffcc"/>
      <path id="Path_172864" data-name="Path 172864" d="M197.466,15.444a11.3,11.3,0,0,0-1.254,3.34l-1.857.619v1.775A42.388,42.388,0,0,0,152,19.289V12.072a48.887,48.887,0,0,1,45.467,3.372Zm0,0" transform="translate(-121.049 -6.371)" fill="#59ffcc"/>
      <path id="Path_172865" data-name="Path 172865" d="M29.845,165.936c-.228-.017-.44-.033-.668-.033a6.462,6.462,0,0,0-4.887,2.248A6.386,6.386,0,0,0,20.429,166l.017-.1A48.869,48.869,0,0,1,17.774,104H19.4l2.623,5.246a42.355,42.355,0,0,0,7.82,56.69Zm0,0" transform="translate(-6.371 -82.823)" fill="#59ffcc"/>
      <g id="Group_113929" data-name="Group 113929" transform="translate(-0.001 0)">
        <path id="Path_172866" data-name="Path 172866" d="M101,17.465V11.857l-2.108-.7a12.738,12.738,0,0,0-1.2-2.888l1-1.991L94.723,2.31l-1.989,1a12.836,12.836,0,0,0-2.888-1.2L89.142,0H83.534l-.7,2.109a12.851,12.851,0,0,0-2.888,1.2l-1.989-1L74.311,5.955A50.574,50.574,0,0,0,32.318,3.382,4.874,4.874,0,0,0,27.693,0H4.887A4.893,4.893,0,0,0,0,4.887V17.919a4.893,4.893,0,0,0,4.887,4.887H8.3a50.414,50.414,0,0,0,2.569,58.971,8.144,8.144,0,0,0-5.846,6.364A6.516,6.516,0,0,0,6.516,101H29.322a6.491,6.491,0,0,0,5.189-2.616A50.355,50.355,0,0,0,79.822,91.6v2.88a6.516,6.516,0,0,0,13.032,0V91.206a3.062,3.062,0,0,1,1.164-2.5A13.066,13.066,0,0,0,99.37,78.194a12.913,12.913,0,0,0-2.512-7.673,50.514,50.514,0,0,0-1.817-43.83l3.645-3.645-1-1.989a12.961,12.961,0,0,0,1.2-2.888ZM74.285,9.709a12.889,12.889,0,0,0-.5,1.447l-2.109.7v.091a44.038,44.038,0,0,0-39.1-1.627V6.79A47.14,47.14,0,0,1,74.285,9.709Zm3.668,17.3,1.989-1a12.836,12.836,0,0,0,2.888,1.2l.7,2.109h1.732a40.645,40.645,0,0,1,3.164,36,12.868,12.868,0,0,0-2.314-.161,13.182,13.182,0,0,0-12.8,12.552,13,13,0,0,0,1.111,5.7A40.255,40.255,0,0,1,50.5,91.226a40.677,40.677,0,0,1-20.6-5.6,8.152,8.152,0,0,0-5.713-4.051,40.7,40.7,0,0,1-8.711-51.86l.81,1.619,4.265-8.529h7.138a4.893,4.893,0,0,0,4.887-4.887V13.938a40.635,40.635,0,0,1,39.1,1.791v1.734l2.108.7a12.783,12.783,0,0,0,1.2,2.888l-1,1.989Zm-74.7-9.092V4.887A1.631,1.631,0,0,1,4.887,3.258H27.693a1.631,1.631,0,0,1,1.629,1.629V17.919a1.631,1.631,0,0,1-1.629,1.629H18.541l-2.251,4.5-2.251-4.5H4.887a1.631,1.631,0,0,1-1.629-1.629ZM12.12,23l1.663,3.325a43.9,43.9,0,0,0,6.081,55.716,8.1,8.1,0,0,0-1.945,1.074,8.121,8.121,0,0,0-2.844-1.365A47.169,47.169,0,0,1,12.12,23Zm17.2,74.745H6.516a3.258,3.258,0,1,1,0-6.516H8.145V89.6a4.893,4.893,0,0,1,4.887-4.887A4.815,4.815,0,0,1,16.692,86.4l1.227,1.4,1.227-1.4a4.815,4.815,0,0,1,3.661-1.691A4.893,4.893,0,0,1,27.693,89.6v1.629h1.629a3.258,3.258,0,1,1,0,6.516ZM35.75,95.36a5.71,5.71,0,0,0-.55-3.636,44.036,44.036,0,0,0,15.3,2.759,43.5,43.5,0,0,0,25.6-8.26,13,13,0,0,0,2.347,2.316,46.987,46.987,0,0,1-42.7,6.821Zm50.588,2.382a3.261,3.261,0,0,1-3.258-3.258H89.6A3.261,3.261,0,0,1,86.339,97.742ZM92.1,86.076a6.324,6.324,0,0,0-2.5,5.13v.02H87.968V83.081H84.709v8.145H83.08V91.2a6.4,6.4,0,0,0-2.541-5.154,9.774,9.774,0,0,1-3.968-8.215,9.881,9.881,0,0,1,9.6-9.411c.056,0,.111,0,.166,0A9.765,9.765,0,0,1,92.1,86.076Zm2.3-18.12a12.933,12.933,0,0,0-2.833-1.709,44,44,0,0,0-2.514-36.925h.09l.7-2.109a12.672,12.672,0,0,0,1.447-.5A47.166,47.166,0,0,1,94.4,67.957Zm3.341-52.841-1.635.544-.186.927a9.676,9.676,0,0,1-1.444,3.484l-.525.786.772,1.544-.644.645-1.542-.774-.787.525a9.664,9.664,0,0,1-3.484,1.444l-.927.185-.546,1.639h-.908l-.546-1.637-.927-.185A9.648,9.648,0,0,1,80.927,22.8l-.787-.525-1.542.774-.644-.645.772-1.544-.525-.786a9.636,9.636,0,0,1-1.444-3.484l-.186-.927-1.635-.546v-.908l1.635-.544.186-.927A9.653,9.653,0,0,1,78.2,9.252l.525-.786L77.954,6.92l.644-.644,1.542.774.787-.525a9.664,9.664,0,0,1,3.484-1.444l.927-.185.546-1.639h.908L87.338,4.9l.927.185A9.648,9.648,0,0,1,91.75,6.524l.787.525,1.542-.774.644.644-.772,1.546.525.786a9.613,9.613,0,0,1,1.444,3.484l.186.927,1.635.546Zm0,0" transform="translate(0.001 0)" fill="#232323"/>
        <path id="Path_172867" data-name="Path 172867" d="M398.516,40a6.516,6.516,0,1,0,6.516,6.516A6.523,6.523,0,0,0,398.516,40Zm0,9.774a3.258,3.258,0,1,1,3.258-3.258A3.261,3.261,0,0,1,398.516,49.774Zm0,0" transform="translate(-312.177 -31.855)" fill="#232323"/>
        <path id="Path_172868" data-name="Path 172868" d="M416,376h3.258v3.258H416Zm0,0" transform="translate(-331.29 -299.435)" fill="#232323"/>
        <path id="Path_172869" data-name="Path 172869" d="M32,32H51.548v3.258H32Zm0,0" transform="translate(-25.484 -25.484)" fill="#232323"/>
        <path id="Path_172870" data-name="Path 172870" d="M112,64h3.258v3.258H112Zm0,0" transform="translate(-89.193 -50.968)" fill="#232323"/>
        <path id="Path_172871" data-name="Path 172871" d="M32,64H45.032v3.258H32Zm0,0" transform="translate(-25.484 -50.968)" fill="#232323"/>
        <path id="Path_172872" data-name="Path 172872" d="M186.21,104H156.887A4.893,4.893,0,0,0,152,108.887v52.129a4.893,4.893,0,0,0,4.887,4.887H186.21a4.893,4.893,0,0,0,4.887-4.887V108.887A4.893,4.893,0,0,0,186.21,104Zm-29.323,3.258H186.21a1.631,1.631,0,0,1,1.629,1.629v4.887H155.258v-4.887A1.631,1.631,0,0,1,156.887,107.258Zm30.952,9.774v32.581H155.258V117.032Zm-1.629,45.613H156.887a1.631,1.631,0,0,1-1.629-1.629v-8.145h32.581v8.145A1.631,1.631,0,0,1,186.21,162.645Zm0,0" transform="translate(-121.048 -82.823)" fill="#232323"/>
        <path id="Path_172873" data-name="Path 172873" d="M216,360h13.032v3.258H216Zm0,0" transform="translate(-172.016 -286.693)" fill="#232323"/>
        <path id="Path_172874" data-name="Path 172874" d="M230.341,210.614,216,201.055v19.119Zm-11.083-3.473,5.208,3.473-5.208,3.473Zm0,0" transform="translate(-172.016 -160.114)" fill="#232323"/>
      </g>
    </g>
  </g>
</svg>
