<svg xmlns="http://www.w3.org/2000/svg" width="253" height="253.922" viewBox="0 0 253 253.922">
  <g id="t2-i1" transform="translate(-2533.037 2582.157)">
    <g id="Group_112811" data-name="Group 112811" transform="translate(2575.462 -2562.825)">
      <path id="Path_171843" data-name="Path 171843" d="M2627.079-2509.195h0a19.5,19.5,0,0,1-19.5-19.5h0a19.5,19.5,0,0,1,19.5-19.5h0a19.5,19.5,0,0,1,19.5,19.5h0A19.5,19.5,0,0,1,2627.079-2509.195Z" transform="translate(-2607.581 2548.19)" fill="#f5f5f5"/>
      <g id="Group_112810" data-name="Group 112810" transform="translate(10.268 8.633)">
        <g id="Group_112809" data-name="Group 112809">
          <rect id="Rectangle_36864" data-name="Rectangle 36864" width="4.035" height="13.036" transform="translate(0.388 6.518)" fill="#b2f5e0"/>
          <path id="Path_171844" data-name="Path 171844" d="M2628.009-2528.209a2.4,2.4,0,0,0,2.386-2.406,2.4,2.4,0,0,0-2.386-2.405,2.4,2.4,0,0,0-2.386,2.405A2.4,2.4,0,0,0,2628.009-2528.209Z" transform="translate(-2625.623 2533.021)" fill="#b2f5e0"/>
        </g>
        <path id="Path_171845" data-name="Path 171845" d="M2641.8-2515.676c0-1.833.843-2.925,2.458-2.925,1.484,0,2.2,1.048,2.2,2.925v6.843h4.016v-8.254c0-3.491-1.979-5.18-4.743-5.18a4.545,4.545,0,0,0-3.928,2.154v-1.756h-3.871v13.036h3.871Z" transform="translate(-2630.925 2528.387)" fill="#b2f5e0"/>
      </g>
    </g>
    <path id="Path_171846" data-name="Path 171846" d="M2682.036-2582.157l2.67,4.882,4.882,2.67-4.882,2.67-2.67,4.882-2.67-4.882-4.882-2.67,4.882-2.67Z" transform="translate(-60.946)" fill="#f5f5f5"/>
    <path id="Path_171847" data-name="Path 171847" d="M2879.115-2349.77l2,3.661,3.661,2-3.661,2-2,3.661-2-3.661-3.662-2,3.662-2Z" transform="translate(-146.676 -100.129)" fill="#ececec"/>
    <path id="Path_171848" data-name="Path 171848" d="M2891.421-2381.534l.9,1.652,1.652.9-1.652.9-.9,1.652-.9-1.652-1.652-.9,1.652-.9Z" transform="translate(-153.317 -86.443)" fill="#a6ffe3"/>
    <path id="Path_171849" data-name="Path 171849" d="M2652.312-2578.93l.9,1.652,1.652.9-1.652.9-.9,1.652-.9-1.652-1.652-.9,1.652-.9Z" transform="translate(-50.292 -1.39)" fill="#a6ffe3"/>
    <g id="Group_112813" data-name="Group 112813" transform="translate(2544.702 -2438.222)">
      <g id="Group_112812" data-name="Group 112812" transform="translate(0)">
        <path id="Path_171850" data-name="Path 171850" d="M2565.561-2317.888a5.9,5.9,0,0,0,3.446-5.506,5.732,5.732,0,0,0-5.588-5.857,5.725,5.725,0,0,0-5.483,5.949,5.893,5.893,0,0,0,3.6,5.466c-8.5,1.393-8,10.646-8,10.646l20.144-.168S2574.022-2316.722,2565.561-2317.888Z" transform="translate(-2553.534 2329.251)" fill="#a6ffe3"/>
      </g>
    </g>
    <g id="Group_112814" data-name="Group 112814" transform="translate(2737.526 -2368.391)">
      <path id="Path_171851" data-name="Path 171851" d="M2904.763-2204.021a3.242,3.242,0,0,0-3.19-2.529,3.242,3.242,0,0,0-2.993,2.714,3.243,3.243,0,0,0-3.017-2.687,3.241,3.241,0,0,0-3.168,2.558,4.232,4.232,0,0,0,.76,3.053,12.507,12.507,0,0,0,2.211,2.337c1.125,1,2.165,1.944,3.291,2.946,1.117-1.012,2.067-1.962,3.184-2.974a12.6,12.6,0,0,0,2.19-2.356A4.236,4.236,0,0,0,2904.763-2204.021Z" transform="translate(-2892.34 2206.552)" fill="#ececec"/>
    </g>
    <g id="Group_112817" data-name="Group 112817" transform="translate(2756.655 -2498.106)">
      <g id="Group_112815" data-name="Group 112815" transform="translate(6.414 0)">
        <path id="Path_171852" data-name="Path 171852" d="M2937.221-2422.191l2.159-.428,3.409-7.5-.854-4.309s3.3-.866,4.022,4.853.866,4.2.866,4.2,7.09-1.378,7.8-.879c.517.363,2.106,7.361,2.937,11.163a4.212,4.212,0,0,1-2.1,4.742,3.141,3.141,0,0,1-.742.254c-1.767.351-11.079.7-11.079.7l-3.729.74Z" transform="translate(-2937.221 2434.474)" fill="#a6ffe3"/>
      </g>
      <g id="Group_112816" data-name="Group 112816" transform="translate(0 11.626)">
        <path id="Path_171853" data-name="Path 171853" d="M2925.952-2413.347l4.255,14.5,3.7-.733-2.869-14.466Z" transform="translate(-2925.952 2414.046)" fill="#a6ffe3"/>
      </g>
    </g>
    <g id="Group_112818" data-name="Group 112818" transform="translate(2533.037 -2328.795)">
      <path id="Path_171854" data-name="Path 171854" d="M2785.14-2136.832c0,.082-56.44.148-126.046.148-69.63,0-126.057-.066-126.057-.148s56.428-.148,126.057-.148C2728.7-2136.98,2785.14-2136.914,2785.14-2136.832Z" transform="translate(-2533.037 2136.98)" fill="#12263f"/>
    </g>
    <g id="Group_112819" data-name="Group 112819" transform="translate(2708.054 -2535.439)">
      <path id="Path_171855" data-name="Path 171855" d="M2873.8-2456.147h0a23.123,23.123,0,0,1-30.908-10.68h0a23.124,23.124,0,0,1,10.681-30.909h0a23.123,23.123,0,0,1,30.908,10.681h0A23.123,23.123,0,0,1,2873.8-2456.147Z" transform="translate(-2840.556 2500.07)" fill="#5000a1"/>
      <path id="Path_171856" data-name="Path 171856" d="M2866.292-2464.692a.543.543,0,0,0,.538-.7c-.056-.281-.207-.985-.265-1.28-.077-.4-.175-.509-.589-.691a4.551,4.551,0,0,1-2.289-2.328,7.471,7.471,0,0,1,3.68-10.191c3.809-1.852,7.035-.542,8.547,2.567,1.99,4.09,1.858,8.422-.829,9.729a2.442,2.442,0,0,1-3.568-1.643c-.447-2.006-.565-4.346-1.2-5.644a2.112,2.112,0,0,0-2.948-1.2c-1.518.739-1.973,2.9-.951,5a6.058,6.058,0,0,0,1.544,2.024l1.936,8.618a17.675,17.675,0,0,0,2.579,5.412.21.21,0,0,0,.377-.083,16.81,16.81,0,0,0,.3-5.888c-.132-.715-.9-4.385-.9-4.385a4.517,4.517,0,0,0,4.324.083c4.561-2.218,5.633-7.88,2.926-13.445-2.046-4.208-7.516-6.393-12.933-3.758-6.74,3.278-7.789,9.763-5.829,13.793C2861.938-2466.257,2863.918-2464.536,2866.292-2464.692Z" transform="translate(-2848.878 2492.989)" fill="#fff"/>
    </g>
    <g id="Group_112821" data-name="Group 112821" transform="translate(2754.132 -2457.141)">
      <path id="Path_171857" data-name="Path 171857" d="M2931.778-2331.645h0a15.947,15.947,0,0,1-9.205-20.59h0a15.947,15.947,0,0,1,20.59-9.205h0a15.948,15.948,0,0,1,9.206,20.591h0A15.948,15.948,0,0,1,2931.778-2331.645Z" transform="translate(-2921.518 2362.495)" fill="#5000a1"/>
      <g id="Group_112820" data-name="Group 112820" transform="translate(4.658 7.264)">
        <path id="Path_171858" data-name="Path 171858" d="M2949.323-2338.334a8.556,8.556,0,0,0-5.054-10.824,8.563,8.563,0,0,0-10.924,4.551c-.048.115-.1.23-.141.346a8.46,8.46,0,0,0-.422,4.552l-3.078,3.719,4.983.285a8.6,8.6,0,0,0,3.5,2.473,8.556,8.556,0,0,0,11.065-4.9C2949.275-2338.2,2949.3-2338.265,2949.323-2338.334Zm-10.654,3.832a7.193,7.193,0,0,1-3.287-2.526l-2.908-.164,1.792-2.165a7.093,7.093,0,0,1,.215-4.416,6.618,6.618,0,0,1,.282-.637,7.209,7.209,0,0,1,9.021-3.479,7.207,7.207,0,0,1,4.365,8.741c-.051.178-.109.354-.176.53A7.2,7.2,0,0,1,2938.668-2334.5Z" transform="translate(-2929.703 2349.731)" fill="#fff" fill-rule="evenodd"/>
        <path id="Path_171859" data-name="Path 171859" d="M2950.435-2335.29c-.162-.174-.946-1.016-1.1-1.148s-.275-.217-.481-.072-.753.439-.914.524-.285.059-.447-.115a5.67,5.67,0,0,1-1.211-1.573,6.246,6.246,0,0,1-.578-1.766c-.038-.239.1-.3.239-.365s.283-.155.427-.228l.107-.067a2.307,2.307,0,0,0,.213-.186.377.377,0,0,0,.115-.347c-.012-.116-.038-1.229-.055-1.683s-.2-.448-.32-.492-.237-.112-.368-.162a.779.779,0,0,0-.619.042,2.347,2.347,0,0,0-1.31,1.368,2.641,2.641,0,0,0-.153.7,4.746,4.746,0,0,0,.186,1.62A8.646,8.646,0,0,0,2946.4-2335c1.7,1.542,1.8,1.283,2.177,1.387a2.1,2.1,0,0,0,1.68-.421,1.734,1.734,0,0,0,.471-.884C2950.706-2335.018,2950.594-2335.117,2950.435-2335.29Z" transform="translate(-2935.849 2346.837)" fill="#fff" fill-rule="evenodd"/>
      </g>
    </g>
    <g id="Group_112822" data-name="Group 112822" transform="translate(2544.852 -2524.323)">
      <path id="Path_171860" data-name="Path 171860" d="M2565.958-2456.216h0a12.161,12.161,0,0,1-12.162-12.162h0a12.162,12.162,0,0,1,12.162-12.161h0a12.161,12.161,0,0,1,12.161,12.161h0A12.161,12.161,0,0,1,2565.958-2456.216Z" transform="translate(-2553.796 2480.539)" fill="#5000a1"/>
      <path id="Path_171861" data-name="Path 171861" d="M2563.779-2459.086a7.522,7.522,0,0,0,4.075,1.195,7.52,7.52,0,0,0,7.557-7.909,5.4,5.4,0,0,0,1.327-1.376,5.327,5.327,0,0,1-1.527.418,2.658,2.658,0,0,0,1.168-1.471,5.325,5.325,0,0,1-1.688.645,2.656,2.656,0,0,0-1.941-.839,2.661,2.661,0,0,0-2.59,3.264,7.547,7.547,0,0,1-5.48-2.778,2.661,2.661,0,0,0,.823,3.549,2.639,2.639,0,0,1-1.2-.333,2.662,2.662,0,0,0,2.132,2.641,2.667,2.667,0,0,1-1.2.045,2.661,2.661,0,0,0,2.484,1.847A5.344,5.344,0,0,1,2563.779-2459.086Z" transform="translate(-2558.097 2475.319)" fill="#ececec"/>
    </g>
    <g id="Group_112824" data-name="Group 112824" transform="translate(2553.063 -2405.094)">
      <path id="Path_171862" data-name="Path 171862" d="M2594.029-2229.717h0a20.945,20.945,0,0,1-25.229-15.522h0a20.946,20.946,0,0,1,15.521-25.23h0a20.946,20.946,0,0,1,25.23,15.522h0A20.946,20.946,0,0,1,2594.029-2229.717Z" transform="translate(-2568.225 2271.043)" fill="#27456e"/>
      <g id="Group_112823" data-name="Group 112823" transform="translate(8.554 8.555)">
        <path id="Path_171863" data-name="Path 171863" d="M2593.469-2252.775c2.983-.711,3.34-.784,4.53-1.01a6.356,6.356,0,0,1,2.166-.11,3.561,3.561,0,0,1,1.484.53,3.558,3.558,0,0,1,1.142,1.085,6.344,6.344,0,0,1,.879,1.984c.335,1.165.43,1.516,1.141,4.5s.783,3.34,1.01,4.53a6.371,6.371,0,0,1,.109,2.166,3.564,3.564,0,0,1-.53,1.484,3.56,3.56,0,0,1-1.085,1.141,6.349,6.349,0,0,1-1.983.879c-1.165.334-1.516.429-4.5,1.14s-3.339.784-4.53,1.011a6.358,6.358,0,0,1-2.166.109,3.553,3.553,0,0,1-1.484-.53,3.549,3.549,0,0,1-1.141-1.085,6.349,6.349,0,0,1-.879-1.983c-.334-1.165-.43-1.516-1.14-4.5s-.783-3.339-1.01-4.53a6.371,6.371,0,0,1-.11-2.167,3.56,3.56,0,0,1,.53-1.483,3.561,3.561,0,0,1,1.086-1.142,6.348,6.348,0,0,1,1.983-.879c1.165-.335,1.515-.43,4.5-1.141m-.479-2.013c-3.034.723-3.411.826-4.59,1.165a8.451,8.451,0,0,0-2.588,1.165,5.636,5.636,0,0,0-1.672,1.76,5.635,5.635,0,0,0-.817,2.286,8.421,8.421,0,0,0,.127,2.835c.229,1.2.307,1.588,1.03,4.623s.827,3.411,1.165,4.59a8.415,8.415,0,0,0,1.165,2.588,5.627,5.627,0,0,0,1.76,1.672,5.62,5.62,0,0,0,2.285.817,8.415,8.415,0,0,0,2.835-.127c1.205-.229,1.589-.308,4.623-1.03s3.411-.827,4.59-1.165a8.443,8.443,0,0,0,2.588-1.165,5.634,5.634,0,0,0,1.672-1.76,5.63,5.63,0,0,0,.817-2.285,8.429,8.429,0,0,0-.126-2.836c-.23-1.2-.308-1.588-1.031-4.622s-.826-3.411-1.165-4.591a8.437,8.437,0,0,0-1.165-2.588,5.636,5.636,0,0,0-1.76-1.672,5.63,5.63,0,0,0-2.286-.817,8.423,8.423,0,0,0-2.836.126c-1.2.229-1.588.307-4.622,1.03" transform="translate(-2583.255 2256.012)" fill="#fff"/>
        <path id="Path_171864" data-name="Path 171864" d="M2599.2-2244.434a5.9,5.9,0,0,0-4.37,7.1,5.9,5.9,0,0,0,7.1,4.37,5.9,5.9,0,0,0,4.37-7.1,5.9,5.9,0,0,0-7.1-4.37m2.254,9.461a3.828,3.828,0,0,1-4.611-2.837,3.828,3.828,0,0,1,2.837-4.611,3.828,3.828,0,0,1,4.611,2.837,3.828,3.828,0,0,1-2.837,4.611" transform="translate(-2588.174 2251.093)" fill="#fff"/>
        <path id="Path_171865" data-name="Path 171865" d="M2613.315-2248.569a1.378,1.378,0,0,1-1.021,1.66,1.378,1.378,0,0,1-1.66-1.021,1.378,1.378,0,0,1,1.021-1.66,1.378,1.378,0,0,1,1.659,1.021" transform="translate(-2595.036 2253.261)" fill="#fff"/>
      </g>
    </g>
    <g id="Group_112825" data-name="Group 112825" transform="translate(2727.758 -2401.739)">
      <path id="Path_171866" data-name="Path 171866" d="M2884.945-2245.611h0a9.768,9.768,0,0,1-9.768-9.768h0a9.769,9.769,0,0,1,9.768-9.769h0a9.769,9.769,0,0,1,9.768,9.769h0A9.768,9.768,0,0,1,2884.945-2245.611Z" transform="translate(-2875.177 2265.148)" fill="#27456e"/>
      <path id="Path_171867" data-name="Path 171867" d="M2888.789-2246.55h2.378v-5.955h1.659l.176-1.994h-1.835v-1.135c0-.47.094-.656.548-.656H2893v-2.069h-1.646c-1.769,0-2.567.78-2.567,2.271v1.59h-1.237v2.019h1.237Z" transform="translate(-2880.509 2262.223)" fill="#fff"/>
    </g>
    <g id="Group_112891" data-name="Group 112891" transform="translate(2608.652 -2559.208)">
      <g id="Group_112890" data-name="Group 112890" transform="translate(0 0)">
        <g id="Group_112885" data-name="Group 112885">
          <g id="Group_112833" data-name="Group 112833">
            <g id="Group_112832" data-name="Group 112832">
              <g id="Group_112828" data-name="Group 112828">
                <g id="Group_112827" data-name="Group 112827">
                  <g id="Group_112826" data-name="Group 112826">
                    <path id="Path_171868" data-name="Path 171868" d="M2761.458-2310.862l-78.475-.047a17.094,17.094,0,0,1-17.084-17.1l.038-196.739a17.094,17.094,0,0,1,17.1-17.091l78.475.046a17.094,17.094,0,0,1,17.084,17.1l-.039,196.739A17.093,17.093,0,0,1,2761.458-2310.862Z" transform="translate(-2665.899 2541.835)" fill="#12263f"/>
                  </g>
                </g>
              </g>
              <g id="Group_112831" data-name="Group 112831" transform="translate(5.2 6.959)">
                <g id="Group_112830" data-name="Group 112830">
                  <g id="Group_112829" data-name="Group 112829">
                    <path id="Path_171869" data-name="Path 171869" d="M2765.37-2529.562l-15.215-.009a3.779,3.779,0,0,0-3.7,3.859v2.76a3.778,3.778,0,0,1-3.695,3.86l-29.657-.017a3.784,3.784,0,0,1-3.694-3.865v-2.76a3.784,3.784,0,0,0-3.694-3.864l-5.351,0-13.317-.007a11.971,11.971,0,0,0-11.979,11.969l-.038,192.031A11.973,11.973,0,0,0,2687-2313.633l78.318.045a11.972,11.972,0,0,0,11.979-11.969l.038-192.031A11.973,11.973,0,0,0,2765.37-2529.562Z" transform="translate(-2675.035 2529.608)" fill="#fff"/>
                  </g>
                </g>
              </g>
            </g>
          </g>
          <g id="Group_112843" data-name="Group 112843" transform="translate(87.841 22.541)">
            <g id="Group_112836" data-name="Group 112836">
              <g id="Group_112835" data-name="Group 112835">
                <g id="Group_112834" data-name="Group 112834">
                  <path id="Path_171870" data-name="Path 171870" d="M2829.082-2502.164c0,.051-1.978.11-4.419.13s-4.42-.005-4.421-.057,1.978-.109,4.419-.13S2829.081-2502.216,2829.082-2502.164Z" transform="translate(-2820.242 2502.228)" fill="#12263f"/>
                </g>
              </g>
            </g>
            <g id="Group_112839" data-name="Group 112839" transform="translate(0.019 2.262)">
              <g id="Group_112838" data-name="Group 112838">
                <g id="Group_112837" data-name="Group 112837">
                  <path id="Path_171871" data-name="Path 171871" d="M2829.115-2498.19c0,.051-1.978.109-4.419.13s-4.42-.005-4.421-.057,1.978-.109,4.419-.13S2829.114-2498.242,2829.115-2498.19Z" transform="translate(-2820.275 2498.254)" fill="#12263f"/>
                </g>
              </g>
            </g>
            <g id="Group_112842" data-name="Group 112842" transform="translate(0.038 4.523)">
              <g id="Group_112841" data-name="Group 112841">
                <g id="Group_112840" data-name="Group 112840">
                  <path id="Path_171872" data-name="Path 171872" d="M2829.147-2494.216c0,.051-1.978.109-4.419.13s-4.42-.006-4.42-.057,1.978-.109,4.419-.13S2829.147-2494.268,2829.147-2494.216Z" transform="translate(-2820.308 2494.28)" fill="#12263f"/>
                </g>
              </g>
            </g>
          </g>
          <g id="Group_112846" data-name="Group 112846" transform="translate(13.343 20.009)">
            <g id="Group_112845" data-name="Group 112845">
              <g id="Group_112844" data-name="Group 112844">
                <path id="Path_171873" data-name="Path 171873" d="M2689.463-2497.352a1.914,1.914,0,0,1,.232-.015l.644-.021,2.378-.057-.066.067q-.013-.792-.028-1.725c0-.321-.027-.623,0-.992a.914.914,0,0,1,.8-.734c.384-.007.721-.024,1.137-.006a.923.923,0,0,1,.78.918c.009.8.019,1.645.029,2.515l-.11-.108,3-.031-.114.116c-.011-1.208-.022-2.458-.033-3.739q0-.479-.009-.952a.97.97,0,0,0-.422-.709l-1.312-1.293-1.265-1.249-.613-.605c-.211-.2-.377-.413-.621-.463a.807.807,0,0,0-.688.131c-.182.154-.376.371-.559.549l-1.076,1.087c-.677.7-1.383,1.346-1.9,1.953a2.123,2.123,0,0,0-.151,1.12c0,.372,0,.725,0,1.057q-.005.972-.01,1.7c0,.435-.009.794-.012,1.088a3.748,3.748,0,0,1-.014.393,2.775,2.775,0,0,1-.021-.361c-.008-.29-.018-.644-.03-1.072q-.017-.736-.039-1.717-.009-.509-.02-1.078,0-.288-.009-.59a1.246,1.246,0,0,1,.166-.628c.555-.68,1.218-1.282,1.9-2.006l1.068-1.095c.192-.189.35-.377.579-.574a1.02,1.02,0,0,1,.87-.171,1.607,1.607,0,0,1,.72.516l.616.6,1.27,1.245,1.314,1.29a2.51,2.51,0,0,1,.335.363.984.984,0,0,1,.157.506q0,.476.009.957c.01,1.28.019,2.53.028,3.739v.115h-.115l-3,.019h-.11v-.109c0-.871-.009-1.712-.013-2.516a.723.723,0,0,0-.607-.728c-.345-.019-.752-.007-1.088,0a.735.735,0,0,0-.647.583c-.028.3-.007.653-.012.958,0,.621,0,1.2,0,1.725v.068h-.066l-2.418-.017-.63-.011A1.088,1.088,0,0,1,2689.463-2497.352Z" transform="translate(-2689.344 2506.677)" fill="#12263f"/>
              </g>
            </g>
          </g>
          <g id="Group_112865" data-name="Group 112865" transform="translate(11.445 172.417)">
            <g id="Group_112851" data-name="Group 112851" transform="translate(32.86 6.823)">
              <g id="Group_112850" data-name="Group 112850">
                <g id="Group_112847" data-name="Group 112847">
                  <path id="Path_171874" data-name="Path 171874" d="M2764.671-2226.749a4.378,4.378,0,0,1-.823.058l-2.242.047c-1.893.027-4.509.043-7.4.043s-5.506-.017-7.4-.043l-2.242-.047a4.368,4.368,0,0,1-.822-.058,4.335,4.335,0,0,1,.822-.058l2.242-.047c1.893-.027,4.509-.044,7.4-.044s5.5.017,7.4.044l2.242.047A4.345,4.345,0,0,1,2764.671-2226.749Z" transform="translate(-2743.745 2226.897)" fill="#27456e"/>
                </g>
                <g id="Group_112848" data-name="Group 112848" transform="translate(0 5.148)">
                  <path id="Path_171875" data-name="Path 171875" d="M2797.562-2217.7c0,.082-12.048.148-26.907.148s-26.909-.066-26.909-.148,12.045-.148,26.909-.148S2797.562-2217.785,2797.562-2217.7Z" transform="translate(-2743.745 2217.851)" fill="#27456e"/>
                </g>
                <g id="Group_112849" data-name="Group 112849" transform="translate(0 9.991)">
                  <path id="Path_171876" data-name="Path 171876" d="M2780.744-2209.194c0,.082-8.284.148-18.5.148s-18.5-.066-18.5-.148,8.281-.148,18.5-.148S2780.744-2209.275,2780.744-2209.194Z" transform="translate(-2743.745 2209.342)" fill="#27456e"/>
                </g>
              </g>
            </g>
            <g id="Group_112852" data-name="Group 112852" transform="translate(84.475 21.499)">
              <path id="Path_171877" data-name="Path 171877" d="M2837.7-2196.219l-1.671-1.677-1.593,1.588.007-4.8,3.264,0Zm-1.671-1.886.052.052,1.472,1.477.007-4.381-2.969,0-.006,4.3Z" transform="translate(-2834.438 2201.109)" fill="#12263f"/>
            </g>
            <g id="Group_112853" data-name="Group 112853" transform="translate(40.21 22.457)">
              <path id="Path_171878" data-name="Path 171878" d="M2759.666-2196.119l-.59-.263a1.652,1.652,0,0,1-.764.232,1.641,1.641,0,0,1-1.653-1.625,1.641,1.641,0,0,1,1.626-1.652,1.641,1.641,0,0,1,1.652,1.626,1.629,1.629,0,0,1-.408,1.093Zm-1.379-3.2a1.528,1.528,0,0,0-1.514,1.539,1.528,1.528,0,0,0,1.539,1.514,1.58,1.58,0,0,0,.735-.232l.024-.014.435.194-.1-.427.02-.021a1.524,1.524,0,0,0,.4-1.039A1.529,1.529,0,0,0,2758.287-2199.315Z" transform="translate(-2756.66 2199.427)" fill="#12263f"/>
            </g>
            <g id="Group_112854" data-name="Group 112854" transform="translate(45.064 22.681)">
              <path id="Path_171879" data-name="Path 171879" d="M2767.135-2196.2l-.676-1.65-1.269-1.156,3.076-.025Zm-1.657-2.7,1.08.991.576,1.406.966-2.418Z" transform="translate(-2765.19 2199.033)" fill="#12263f"/>
            </g>
            <g id="Group_112855" data-name="Group 112855" transform="translate(46.402 22.681)">
              <rect id="Rectangle_36865" data-name="Rectangle 36865" width="2.001" height="0.112" transform="translate(0 1.091) rotate(-33.054)" fill="#12263f"/>
            </g>
            <g id="Group_112856" data-name="Group 112856" transform="translate(34.607 22.286)">
              <path id="Path_171880" data-name="Path 171880" d="M2750.583-2198.963a.984.984,0,0,0-.971-.764.984.984,0,0,0-.906.827.983.983,0,0,0-.918-.812.983.983,0,0,0-.958.779,1.283,1.283,0,0,0,.233.926,3.819,3.819,0,0,0,.674.706c.343.3.659.588,1,.891.338-.308.625-.6.963-.906a3.81,3.81,0,0,0,.662-.718A1.28,1.28,0,0,0,2750.583-2198.963Z" transform="translate(-2746.815 2199.727)" fill="#ffcf19"/>
            </g>
            <g id="Group_112857" data-name="Group 112857">
              <path id="Path_171881" data-name="Path 171881" d="M2777.175-2208.249s-.006-.184-.01-.536-.006-.876-.011-1.557c-.005-1.373-.013-3.393-.024-6.009-.012-5.231-.03-12.841-.053-22.386l.1.1-91.012.051h-.006l.148-.148c0,10.594,0,20.873,0,30.487l-.143-.143,65.126.066,19.012.041,5.1.018,1.323.009c.3,0,.455.009.455.009s-.145.006-.437.009l-1.3.009-5.072.018-18.979.041-65.225.066h-.144v-.143c0-9.614,0-19.893-.005-30.487v-.149h.154l91.012.051h.1v.1c-.023,9.57-.041,17.2-.053,22.445-.011,2.606-.019,4.619-.024,5.987q-.007,1.011-.01,1.54C2777.181-2208.42,2777.175-2208.249,2777.175-2208.249Z" transform="translate(-2686.008 2238.885)" fill="#12263f"/>
            </g>
            <g id="Group_112864" data-name="Group 112864" transform="translate(3.668 5.109)">
              <g id="Group_112861" data-name="Group 112861">
                <g id="Group_112860" data-name="Group 112860">
                  <g id="Group_112859" data-name="Group 112859">
                    <rect id="Rectangle_36866" data-name="Rectangle 36866" width="20.156" height="25.212" transform="matrix(0.006, -1, 1, 0.006, 0.151, 20.29)" fill="#ececec"/>
                    <g id="Group_112858" data-name="Group 112858">
                      <path id="Path_171882" data-name="Path 171882" d="M2717.93-2229.632a.925.925,0,0,1-.126.007l-.358.006-1.376.008-5.169.006-18.183-.037.133-.132c-.029,6-.063,12.877-.1,20.154.031.036-.277-.281-.143-.147h.43l.436,0,.869.005,1.726.01,3.4.021,6.541.042,11.807.085-.124.123c.061-6.053.111-11.073.147-14.6.023-1.753.042-3.134.055-4.093.009-.463.015-.823.02-1.083s.016-.381.016-.381.008.116.012.354c0,.255,0,.608.008,1.061,0,.953,0,2.323.009,4.065,0,3.544-.011,8.592-.02,14.677v.123h-.123l-11.808-.048-6.542-.032-3.4-.018-1.726-.009-.869-.005-.436,0h-.43c.129.133-.185-.18-.152-.151.047-7.277.091-14.153.13-20.154v-.133h.133l18.268.17,5.139.064,1.35.024.344.009A.557.557,0,0,1,2717.93-2229.632Z" transform="translate(-2692.454 2229.909)" fill="#12263f"/>
                    </g>
                  </g>
                </g>
              </g>
              <rect id="Rectangle_36867" data-name="Rectangle 36867" width="17.619" height="23.441" transform="matrix(0.006, -1, 1, 0.006, 1.027, 19.026)" fill="#a6ffe3"/>
              <path id="Path_171883" data-name="Path 171883" d="M2694.258-2204.735l8.249-10.9,5.033,6.881,3.46-3.644,6.7,7.8Z" transform="translate(-2693.231 2223.76)" fill="#f5f5f5"/>
              <g id="Group_112863" data-name="Group 112863" transform="translate(12.817 4.964)">
                <g id="Group_112862" data-name="Group 112862">
                  <path id="Path_171884" data-name="Path 171884" d="M2718.666-2219.33a1.846,1.846,0,0,1-1.856,1.835,1.846,1.846,0,0,1-1.835-1.856,1.846,1.846,0,0,1,1.856-1.835A1.846,1.846,0,0,1,2718.666-2219.33Z" transform="translate(-2714.974 2221.186)" fill="#f5f5f5"/>
                </g>
              </g>
            </g>
          </g>
          <g id="Group_112880" data-name="Group 112880" transform="translate(15.1 42.94)">
            <g id="Group_112875" data-name="Group 112875">
              <g id="Group_112868" data-name="Group 112868" transform="translate(16.294 3.959)">
                <g id="Group_112867" data-name="Group 112867">
                  <g id="Group_112866" data-name="Group 112866">
                    <path id="Path_171885" data-name="Path 171885" d="M2747.56-2459.282a.964.964,0,0,1-.269.03l-.772.028-2.839.047c-2.4.027-5.71.043-9.368.043s-6.972-.017-9.37-.043l-2.839-.047-.772-.028a.964.964,0,0,1-.269-.03.931.931,0,0,1,.269-.03l.772-.028,2.839-.048c2.4-.027,5.71-.043,9.37-.043s6.97.016,9.368.043l2.839.048.772.028A.931.931,0,0,1,2747.56-2459.282Z" transform="translate(-2721.061 2459.431)" fill="#12263f"/>
                  </g>
                </g>
              </g>
              <g id="Group_112874" data-name="Group 112874" transform="translate(0 107.932)">
                <g id="Group_112869" data-name="Group 112869" transform="translate(75.188 0.332)">
                  <path id="Path_171886" data-name="Path 171886" d="M2829.394-2268.891l-2.485-2.492-2.366,2.359.011-7.134,4.85.008Zm-2.484-2.8.078.077,2.187,2.2.01-6.51-4.412-.007-.01,6.385Z" transform="translate(-2824.543 2276.158)" fill="#12263f"/>
                </g>
                <g id="Group_112870" data-name="Group 112870" transform="translate(11.029 0.336)">
                  <path id="Path_171887" data-name="Path 171887" d="M2717.727-2269.638l-1.161-.519a3.253,3.253,0,0,1-1.5.458,3.231,3.231,0,0,1-3.252-3.2,3.23,3.23,0,0,1,3.2-3.252,3.23,3.23,0,0,1,3.251,3.2,3.215,3.215,0,0,1-.8,2.151Zm-2.715-6.292a3.009,3.009,0,0,0-2.981,3.03,3.008,3.008,0,0,0,3.029,2.98,3.1,3.1,0,0,0,1.448-.456l.048-.027.856.382-.194-.842.04-.043a3,3,0,0,0,.784-2.044A3.009,3.009,0,0,0,2715.012-2275.93Z" transform="translate(-2711.81 2276.151)" fill="#12263f"/>
                </g>
                <g id="Group_112871" data-name="Group 112871" transform="translate(20.586 0.778)">
                  <path id="Path_171888" data-name="Path 171888" d="M2732.429-2269.8l-1.331-3.249-2.5-2.275,6.054-.048Zm-3.262-5.307,2.126,1.952,1.134,2.767,1.9-4.76Z" transform="translate(-2728.602 2275.375)" fill="#12263f"/>
                </g>
                <g id="Group_112872" data-name="Group 112872" transform="translate(23.218 0.778)">
                  <rect id="Rectangle_36868" data-name="Rectangle 36868" width="3.939" height="0.221" transform="matrix(0.838, -0.545, 0.545, 0.838, 0, 2.148)" fill="#12263f"/>
                </g>
                <g id="Group_112873" data-name="Group 112873">
                  <path id="Path_171889" data-name="Path 171889" d="M2699.85-2275.237a1.937,1.937,0,0,0-1.911-1.5,1.936,1.936,0,0,0-1.782,1.627,1.937,1.937,0,0,0-1.808-1.6,1.937,1.937,0,0,0-1.887,1.534,2.526,2.526,0,0,0,.46,1.822,7.536,7.536,0,0,0,1.325,1.392c.675.6,1.3,1.156,1.973,1.751.665-.607,1.23-1.176,1.894-1.783a7.494,7.494,0,0,0,1.3-1.412A2.529,2.529,0,0,0,2699.85-2275.237Z" transform="translate(-2692.431 2276.742)" fill="#ffcf19"/>
                </g>
              </g>
              <circle id="Ellipse_4859" data-name="Ellipse 4859" cx="4.107" cy="4.107" r="4.107" transform="translate(2.76)" fill="#ececec"/>
            </g>
            <g id="Group_112879" data-name="Group 112879" transform="translate(1.562 85.416)">
              <g id="Group_112876" data-name="Group 112876" transform="translate(0 6.406)">
                <path id="Path_171890" data-name="Path 171890" d="M2772.1-2304.9c0,.082-17.222.148-38.46.148s-38.465-.066-38.465-.148,17.218-.148,38.465-.148S2772.1-2304.982,2772.1-2304.9Z" transform="translate(-2695.176 2305.048)" fill="#27456e"/>
              </g>
              <g id="Group_112877" data-name="Group 112877">
                <path id="Path_171891" data-name="Path 171891" d="M2772.1-2316.156c0,.082-17.222.148-38.46.148s-38.465-.066-38.465-.148,17.218-.148,38.465-.148S2772.1-2316.238,2772.1-2316.156Z" transform="translate(-2695.176 2316.304)" fill="#27456e"/>
              </g>
              <g id="Group_112878" data-name="Group 112878" transform="translate(0 12.897)">
                <path id="Path_171892" data-name="Path 171892" d="M2737.047-2293.495c0,.082-9.374.148-20.934.148s-20.937-.066-20.937-.148,9.372-.148,20.937-.148S2737.047-2293.576,2737.047-2293.495Z" transform="translate(-2695.176 2293.643)" fill="#27456e"/>
              </g>
            </g>
          </g>
          <g id="Group_112884" data-name="Group 112884" transform="translate(50.098 209.526)">
            <g id="Group_112881" data-name="Group 112881">
              <path id="Path_171893" data-name="Path 171893" d="M2757.194-2172.014a1.647,1.647,0,0,1-1.641,1.65,1.648,1.648,0,0,1-1.628-1.666,1.646,1.646,0,0,1,1.642-1.65A1.648,1.648,0,0,1,2757.194-2172.014Z" transform="translate(-2753.925 2173.68)" fill="#12263f"/>
            </g>
            <g id="Group_112882" data-name="Group 112882" transform="translate(5.065 0.023)">
              <path id="Path_171894" data-name="Path 171894" d="M2766.092-2171.973a1.646,1.646,0,0,1-1.641,1.651,1.647,1.647,0,0,1-1.627-1.666,1.646,1.646,0,0,1,1.642-1.65A1.647,1.647,0,0,1,2766.092-2171.973Z" transform="translate(-2762.824 2173.639)" fill="#12263f"/>
            </g>
            <g id="Group_112883" data-name="Group 112883" transform="translate(10.128 0.047)">
              <path id="Path_171895" data-name="Path 171895" d="M2774.99-2171.932a1.646,1.646,0,0,1-1.641,1.65,1.648,1.648,0,0,1-1.628-1.666,1.646,1.646,0,0,1,1.641-1.65A1.647,1.647,0,0,1,2774.99-2171.932Z" transform="translate(-2771.721 2173.598)" fill="#12263f"/>
            </g>
          </g>
        </g>
        <g id="Group_112888" data-name="Group 112888" transform="translate(12.138 55.174)">
          <rect id="Rectangle_36869" data-name="Rectangle 36869" width="91.019" height="55.663" fill="#a6ffe3"/>
          <path id="Path_171896" data-name="Path 171896" d="M2701.99-2373.5l26.082-34.909,16.169,21.831,10.959-11.677,21.494,24.733Z" transform="translate(-2693.588 2429.169)" fill="#f5f5f5"/>
          <g id="Group_112887" data-name="Group 112887" transform="translate(45.743 10.601)">
            <g id="Group_112886" data-name="Group 112886">
              <path id="Path_171897" data-name="Path 171897" d="M2779.365-2420.382a5.882,5.882,0,0,1-5.88,5.884,5.882,5.882,0,0,1-5.884-5.881,5.882,5.882,0,0,1,5.88-5.884A5.882,5.882,0,0,1,2779.365-2420.382Z" transform="translate(-2767.601 2426.262)" fill="#f5f5f5"/>
            </g>
          </g>
        </g>
        <g id="Group_112889" data-name="Group 112889" transform="translate(11.745 36.507)">
          <path id="Path_171898" data-name="Path 171898" d="M2777.7-2351.628c0-1.191-.055-51.475-.134-125.913l.134.134-91.008.014h-.01l.148-.148c-.01,47.088-.02,90.667-.027,125.913l-.121-.12,91.018.121-91.018.12h-.121v-.121c-.008-35.245-.017-78.824-.027-125.913v-.149h.159l91.008.014h.135v.135c-.027,37.255-.051,68.748-.067,90.93-.016,11.075-.028,19.825-.036,25.811-.007,2.984-.012,5.279-.016,6.832,0,.77-.006,1.355-.008,1.752S2777.7-2351.628,2777.7-2351.628Z" transform="translate(-2686.536 2477.69)" fill="#12263f"/>
        </g>
      </g>
    </g>
    <g id="Group_112927" data-name="Group 112927" transform="translate(2571.455 -2525.717)">
      <g id="Group_112921" data-name="Group 112921" transform="translate(0 0)">
        <g id="Group_112919" data-name="Group 112919">
          <g id="Group_112892" data-name="Group 112892" transform="translate(60.467 113.798)">
            <path id="Path_171899" data-name="Path 171899" d="M2743.66-2252.137l2.013-6.766c.352-1.467.818-3.2,1.446-5.173a13.944,13.944,0,0,1,3.333-4.983c2.055-2.089,3.033-2.1,4.414-3.214.126-.081.266-.2.385-.26a2.174,2.174,0,0,0,.672-.582c1.19-1.288.047-3.281-2.371-3.091-1.82.143-4.789.664-9.616,5.644-.061.076-.124.139-.183.216-2.533,3.293-4.913-6.107-5.342-9.607a3.666,3.666,0,0,0-4.956-2.844l-11.759,5.5a5.487,5.487,0,0,0-3.433.117,3.494,3.494,0,0,0-2.24,4.147l4.769,19.038-14.007,46.607h30.191Z" transform="translate(-2706.786 2283.034)" fill="#ffc19d"/>
          </g>
          <g id="Group_112917" data-name="Group 112917">
            <g id="Group_112904" data-name="Group 112904">
              <g id="Group_112895" data-name="Group 112895" transform="translate(67.548 95.309)">
                <g id="Group_112894" data-name="Group 112894">
                  <g id="Group_112893" data-name="Group 112893">
                    <path id="Path_171900" data-name="Path 171900" d="M2772.214-2308.94l-9.333,18.287-4.666-1.3-23.457,19.081a4.753,4.753,0,0,1-6.6-.587l-8.931-10.378s18.008-7.757,21.339-14.179-.519-7.878-.519-7.878l8.475-9.631Z" transform="translate(-2719.227 2315.521)" fill="#00ceeb"/>
                  </g>
                </g>
              </g>
              <g id="Group_112897" data-name="Group 112897">
                <g id="Group_112896" data-name="Group 112896">
                  <path id="Path_171901" data-name="Path 171901" d="M2708.97-2418.455s-13.661-3.021-32.886-21.508-28.257-43.036-30.61-42.917-12.628-4.65-32.169,37.858-11.844,52.38-7.955,52.3,30.292-7.438,46.785-5.564,37.691,10.47,37.691,10.47Z" transform="translate(-2600.54 2482.987)" fill="#00ceeb"/>
                </g>
              </g>
              <g id="Group_112899" data-name="Group 112899" transform="translate(86.346 56.521)">
                <g id="Group_112898" data-name="Group 112898">
                  <path id="Path_171902" data-name="Path 171902" d="M2803.363-2352.494l-4.661,8.861-2.088,3.97a11.564,11.564,0,0,1-15.075,5.121l-29.281-10.2,17.052-38.93,29.255,15.59A11.567,11.567,0,0,1,2803.363-2352.494Z" transform="translate(-2752.258 2383.675)" fill="#00ceeb"/>
                </g>
              </g>
              <g id="Group_112900" data-name="Group 112900" transform="translate(86.346 56.521)" opacity="0.4">
                <path id="Path_171903" data-name="Path 171903" d="M2803.363-2352.494l-4.661,8.861-2.088,3.97a11.564,11.564,0,0,1-15.075,5.121l-29.281-10.2,17.052-38.93,29.255,15.59A11.567,11.567,0,0,1,2803.363-2352.494Z" transform="translate(-2752.258 2383.675)"/>
              </g>
              <g id="Group_112902" data-name="Group 112902" transform="translate(2.559 0.975)">
                <g id="Group_112901" data-name="Group 112901">
                  <path id="Path_171904" data-name="Path 171904" d="M2616.821-2443.51c-10.4,23.027-14.729,43.547-9.669,45.832s17.592-14.53,27.992-37.557,14.729-43.547,9.669-45.832S2627.221-2466.537,2616.821-2443.51Z" transform="translate(-2605.036 2481.274)" fill="#00ceeb"/>
                </g>
              </g>
              <g id="Group_112903" data-name="Group 112903" transform="translate(2.559 0.975)" opacity="0.5">
                <path id="Path_171905" data-name="Path 171905" d="M2616.821-2443.51c-10.4,23.027-14.729,43.547-9.669,45.832s17.592-14.53,27.992-37.557,14.729-43.547,9.669-45.832S2627.221-2466.537,2616.821-2443.51Z" transform="translate(-2605.036 2481.274)"/>
              </g>
            </g>
            <g id="Group_112906" data-name="Group 112906" transform="translate(132.028 88.675)">
              <g id="Group_112905" data-name="Group 112905">
                <path id="Path_171906" data-name="Path 171906" d="M2840.46-2315.347l-7.937-2.492,4.912-9.338,5.952,3.7Z" transform="translate(-2832.524 2327.178)" fill="#00ceeb"/>
              </g>
            </g>
            <g id="Group_112907" data-name="Group 112907" transform="translate(132.028 88.675)" opacity="0.6">
              <path id="Path_171907" data-name="Path 171907" d="M2837.436-2327.178l-4.912,9.338,1.631.513,3.993-9.408Z" transform="translate(-2832.524 2327.178)"/>
            </g>
            <g id="Group_112909" data-name="Group 112909" transform="translate(114.195 82.994)">
              <g id="Group_112908" data-name="Group 112908">
                <path id="Path_171908" data-name="Path 171908" d="M2818.466-2329.324c-.116.257-4.077-1.283-8.846-3.439s-8.544-4.111-8.427-4.368,4.075,1.283,8.847,3.439S2818.581-2329.581,2818.466-2329.324Z" transform="translate(-2801.189 2337.159)" fill="#00ceeb"/>
              </g>
            </g>
            <g id="Group_112911" data-name="Group 112911" transform="translate(118.347 77.577)">
              <g id="Group_112910" data-name="Group 112910">
                <path id="Path_171909" data-name="Path 171909" d="M2824.05-2338.987c-.125.253-3.709-1.258-8.006-3.374s-7.681-4.037-7.556-4.29,3.707,1.258,8.006,3.375S2824.174-2339.24,2824.05-2338.987Z" transform="translate(-2808.485 2346.678)" fill="#00ceeb"/>
              </g>
            </g>
            <g id="Group_112913" data-name="Group 112913" transform="translate(112.643 89.633)">
              <g id="Group_112912" data-name="Group 112912">
                <path id="Path_171910" data-name="Path 171910" d="M2814.212-2318.465c-.042.135-.985-.082-2.489-.547-.75-.232-1.641-.526-2.626-.867s-1.994-.868-3.082-1.361c-4.342-2.015-7.657-3.989-7.549-4.223.129-.276,3.672,1.3,7.974,3.3,1.079.488,2.08,1.027,3.023,1.421s1.8.74,2.506,1.055C2813.388-2319.059,2814.253-2318.6,2814.212-2318.465Z" transform="translate(-2798.463 2325.494)" fill="#00ceeb"/>
              </g>
            </g>
            <g id="Group_112915" data-name="Group 112915" transform="translate(15.304 31.932)">
              <g id="Group_112914" data-name="Group 112914">
                <path id="Path_171911" data-name="Path 171911" d="M2647.673-2425.194s-11.874-7.363-18.37,8.679,6,18.68,6,18.68A106.885,106.885,0,0,0,2647.673-2425.194Z" transform="translate(-2627.43 2426.88)" fill="#00ceeb"/>
              </g>
            </g>
            <g id="Group_112916" data-name="Group 112916" transform="translate(14.154 14.5)" opacity="0.5">
              <path id="Path_171912" data-name="Path 171912" d="M2659.431-2457.509a17.9,17.9,0,0,1-.465,3.065c-.375,1.96-.907,4.806-1.668,8.3-.5,1.72-1.051,3.6-1.638,5.614q-.447,1.514-.923,3.126-.239.807-.485,1.635c-.178.548-.409,1.085-.615,1.639l-2.682,6.922-.707,1.815c-.231.613-.557,1.189-.834,1.793l-1.765,3.639-1.771,3.637c-.3.592-.555,1.2-.893,1.766s-.663,1.125-.991,1.678c-1.311,2.215-2.577,4.352-3.783,6.389-.308.5-.588,1.019-.908,1.5l-.988,1.395-1.891,2.663-3.4,4.764c-2.271,2.751-4.174,4.921-5.482,6.427a18.062,18.062,0,0,1-2.123,2.262,18.1,18.1,0,0,1,1.818-2.514l5.23-6.633,3.276-4.8,1.832-2.667.959-1.392c.312-.479.585-.994.885-1.5l3.707-6.376.975-1.671c.334-.558.582-1.168.882-1.756l1.752-3.615,1.757-3.61c.277-.6.6-1.171.836-1.779l.71-1.8,2.719-6.854c.211-.549.448-1.08.631-1.622s.338-1.086.5-1.617q.5-1.593.965-3.092c.628-1.991,1.213-3.848,1.75-5.549.825-3.423,1.5-6.209,1.975-8.194A18.2,18.2,0,0,1,2659.431-2457.509Z" transform="translate(-2625.411 2457.509)"/>
            </g>
          </g>
          <g id="Group_112918" data-name="Group 112918" transform="translate(70.393 109.459)" opacity="0.4">
            <path id="Path_171913" data-name="Path 171913" d="M2724.226-2274.4a23.137,23.137,0,0,0,3.792,5.535,7.808,7.808,0,0,0,6.038,2.459,4.777,4.777,0,0,0,4.374-4.325,2.8,2.8,0,0,0,3.6-.636,6.3,6.3,0,0,0,1.283-3.738,3.526,3.526,0,0,0,4.453-1.205,5.755,5.755,0,0,0,.561-4.869,17.036,17.036,0,0,0-2.337-4.477,6.192,6.192,0,0,0,3.312-.34,2.134,2.134,0,0,0,1.095-2.8,2.781,2.781,0,0,0-1.632-1.041,10.524,10.524,0,0,0-4.819-.778c-.424,0,.732,4.824-10.747,11.416A96.451,96.451,0,0,1,2724.226-2274.4Z" transform="translate(-2724.226 2290.659)"/>
          </g>
        </g>
        <g id="Group_112920" data-name="Group 112920" transform="translate(84.582 132.415)">
          <path id="Path_171914" data-name="Path 171914" d="M2760.818-2250.052c-.008.053-.772-.094-2.01-.061a11.627,11.627,0,0,0-4.653,1.114,11.62,11.62,0,0,0-3.783,2.931c-.8.945-1.166,1.632-1.212,1.605a1.78,1.78,0,0,1,.225-.5,9.2,9.2,0,0,1,.825-1.239,10.849,10.849,0,0,1,3.817-3.066,10.861,10.861,0,0,1,4.779-1.056,9.1,9.1,0,0,1,1.483.134A1.733,1.733,0,0,1,2760.818-2250.052Z" transform="translate(-2749.157 2250.323)" fill="#ff9c6a"/>
        </g>
        <path id="Path_171915" data-name="Path 171915" d="M2725.541-2275.1c1.849,1.776,3.114,3.737,5.053,5.526.881.813,2.25,2.353,3.432,2.557s1.938.048,2.406-1.056c.378-.894-.3-2.116-.771-2.853-1.235-1.938-2.417-3.454-3.343-4.96-.433-.706.128-.852.333-.525.891.923,2.218,1.722,3.015,2.727,1.092,1.376,1.29,3.2,4.146,2.621a2.56,2.56,0,0,0,1.06-.44,2.856,2.856,0,0,0,.668-3.4,9.309,9.309,0,0,0-1.59-2.406c1.216,1.373,2.543,2.818,4.476,2.975a2.662,2.662,0,0,0,2.707-1.465c.572-1.3-.248-2.554-1.071-3.57a37.148,37.148,0,0,0-4.854-4.958,3.7,3.7,0,0,0-2.359-.875,3.441,3.441,0,0,0-2.87,1.051,3.881,3.881,0,0,0-.776,2.975s-2.507-1.271-4.521.059a6.389,6.389,0,0,0-2.514,3.615Z" transform="translate(-2654.4 2397.768)" fill="#ffc19d"/>
        <path id="Path_171916" data-name="Path 171916" d="M2748.447-2290.275a3,3,0,0,1-.355-3.391c.426-.836.965-1.648,1.51-1.832,2.386-.805,12.807,1,12.712,3.311-.1,2.375-.857,3.42-6.512,2.6-.995-.144-2.556-.34-2.556-.34l-1.365,2.049Z" transform="translate(-2663.962 2402.287)" fill="#ffc19d"/>
      </g>
      <g id="Group_112922" data-name="Group 112922" transform="translate(80.607 116.485)">
        <path id="Path_171917" data-name="Path 171917" d="M2747.917-2273.1a18.757,18.757,0,0,0-2.5-3.018,18.788,18.788,0,0,0-3.248-2.188,3.332,3.332,0,0,1,1.1.388,9.87,9.87,0,0,1,2.344,1.58,9.852,9.852,0,0,1,1.8,2.177A3.34,3.34,0,0,1,2747.917-2273.1Z" transform="translate(-2742.174 2278.314)" fill="#ff9c6a"/>
      </g>
      <g id="Group_112923" data-name="Group 112923" transform="translate(84.669 112.556)">
        <path id="Path_171918" data-name="Path 171918" d="M2752.746-2283.184c-.052.048-.74-.513-1.678-1.087a11.661,11.661,0,0,0-1.223-.674c-.322-.151-.536-.193-.534-.237s.245-.069.606.04a5.627,5.627,0,0,1,1.307.619A4.035,4.035,0,0,1,2752.746-2283.184Z" transform="translate(-2749.31 2285.217)" fill="#ff9c6a"/>
      </g>
      <g id="Group_112924" data-name="Group 112924" transform="translate(86.181 111.066)">
        <path id="Path_171919" data-name="Path 171919" d="M2755.64-2286.462a4.492,4.492,0,0,1-2.007-.226,3.686,3.686,0,0,1-1.285-.673c-.286-.244-.405-.447-.377-.472a8.367,8.367,0,0,0,1.749.861A14.937,14.937,0,0,1,2755.64-2286.462Z" transform="translate(-2751.968 2287.835)" fill="#ff9c6a"/>
      </g>
      <g id="Group_112925" data-name="Group 112925" transform="translate(71.445 119.368)">
        <path id="Path_171920" data-name="Path 171920" d="M2734.356-2268.055a7.218,7.218,0,0,1-.95-1.235,11.213,11.213,0,0,0-2.433-2.765,4.905,4.905,0,0,0-3.446-.913,6.272,6.272,0,0,0-1.452.462c-.01-.013.1-.119.332-.263a3.251,3.251,0,0,1,1.085-.405,4.839,4.839,0,0,1,3.652.879,9.882,9.882,0,0,1,2.435,2.89A9.255,9.255,0,0,1,2734.356-2268.055Z" transform="translate(-2726.075 2273.247)" fill="#ff9c6a"/>
      </g>
      <g id="Group_112926" data-name="Group 112926" transform="translate(79.147 147.587)">
        <path id="Path_171921" data-name="Path 171921" d="M2748.159-2223.642a31.331,31.331,0,0,1-4.259.612,31.345,31.345,0,0,1-4.292.318,31.407,31.407,0,0,1,4.26-.612A31.327,31.327,0,0,1,2748.159-2223.642Z" transform="translate(-2739.608 2223.665)" fill="#ff9c6a"/>
      </g>
    </g>
    <g id="Group_112928" data-name="Group 112928" transform="translate(2545.106 -2567.384)">
      <path id="Path_171922" data-name="Path 171922" d="M2910.789-2556.2l.643,1.175,1.175.642-1.175.643-.643,1.174-.642-1.174-1.175-.643,1.175-.642Z" transform="translate(-2707.087 2556.199)" fill="#ffcf19"/>
      <path id="Path_171923" data-name="Path 171923" d="M2934.394-2505.029l.642,1.175,1.175.642-1.175.643-.642,1.175-.642-1.175-1.175-.643,1.175-.642Z" transform="translate(-2717.258 2534.151)" fill="#ffcf19"/>
      <path id="Path_171924" data-name="Path 171924" d="M2556.061-2368.509l.643,1.175,1.175.643-1.175.642-.643,1.175-.642-1.175-1.175-.642,1.175-.643Z" transform="translate(-2554.244 2475.328)" fill="#ffcf19"/>
      <path id="Path_171925" data-name="Path 171925" d="M2878.018-2543.481l1.484,2.713,2.713,1.484-2.713,1.483-1.484,2.713-1.483-2.713-2.713-1.483,2.713-1.484Z" transform="translate(-2691.942 2550.719)" fill="#ffcf19"/>
      <path id="Path_171926" data-name="Path 171926" d="M2575.425-2400.946l1.48,2.707,2.707,1.48-2.707,1.48-1.48,2.707-1.48-2.707-2.707-1.48,2.707-1.48Z" transform="translate(-2561.566 2489.304)" fill="#ffcf19"/>
      <path id="Path_171927" data-name="Path 171927" d="M2939.021-2287.477l1.48,2.707,2.707,1.48-2.707,1.48-1.48,2.707-1.48-2.707-2.707-1.48,2.707-1.48Z" transform="translate(-2718.23 2440.414)" fill="#ffcf19"/>
    </g>
  </g>
</svg>
