<svg xmlns="http://www.w3.org/2000/svg" width="190" height="115" viewBox="0 0 190 115">
  <g id="t2-ic2" transform="translate(-180 -2826)">
    <rect id="Rectangle_36715" data-name="Rectangle 36715" width="190" height="115" transform="translate(180 2826)" fill="none"/>
    <g id="Group_110590" data-name="Group 110590" transform="translate(334.333 2826)">
      <path id="Path_169529" data-name="Path 169529" d="M587.464-2336.808l3.5,39.242L623.13-2320.4Z" transform="translate(-587.464 2336.969)" fill="#e8b700"/>
      <path id="Path_169530" data-name="Path 169530" d="M587.6-2337.345l15.359,18.463,20.267-1.9Z" transform="translate(-587.558 2337.345)" fill="#ffe47a"/>
      <path id="Path_169531" data-name="Path 169531" d="M587.6-2337.345l3.459,39.4,11.9-20.94Z" transform="translate(-587.558 2337.345)" fill="#ffcf19"/>
    </g>
    <g id="Group_110591" data-name="Group 110591" transform="translate(180 2905.924)">
      <path id="Path_169532" data-name="Path 169532" d="M723.464-2296.124l28.635,20.33,3.115-34.933Z" transform="translate(-723.464 2310.87)" fill="#22f0b0"/>
      <path id="Path_169533" data-name="Path 169533" d="M723.464-2296.412l18.041,1.69,13.673-16.436Z" transform="translate(-723.464 2311.158)" fill="#a6ffe3"/>
      <path id="Path_169534" data-name="Path 169534" d="M777.751-2294.722l10.594,18.64,3.079-35.076Z" transform="translate(-759.71 2311.158)" fill="#59ffcc"/>
    </g>
    <g id="chat" transform="translate(230 2839)">
      <g id="Group_113986" data-name="Group 113986" transform="translate(1.319 1.318)">
        <path id="Path_173315" data-name="Path 173315" d="M160.806,173.847h50.641a4.395,4.395,0,0,1,4.395,4.395v38.213a4.395,4.395,0,0,1-4.395,4.395H200.978a1.758,1.758,0,0,0-1.758,1.758v8.336a.879.879,0,0,1-1.5.622l-10.2-10.2a1.758,1.758,0,0,0-1.243-.515H160.805a4.395,4.395,0,0,1-4.395-4.395V178.242a4.395,4.395,0,0,1,4.395-4.395Z" transform="translate(-130.235 -144.753)" fill="#77e7f7"/>
        <g id="Group_113984" data-name="Group 113984" transform="translate(77.695 29.094)">
          <path id="Path_173316" data-name="Path 173316" d="M454.773,173.847H449.5a4.395,4.395,0,0,1,4.395,4.395v38.213a4.395,4.395,0,0,1-4.395,4.395h5.273a4.395,4.395,0,0,0,4.395-4.395V178.242A4.395,4.395,0,0,0,454.773,173.847Z" transform="translate(-449.5 -173.847)" fill="#00ceeb"/>
        </g>
        <path id="Path_173317" data-name="Path 173317" d="M62.535,8.332H11.895A4.395,4.395,0,0,0,7.5,12.727V50.94a4.395,4.395,0,0,0,4.395,4.395H24.121a1.758,1.758,0,0,1,1.758,1.758v8.336a.879.879,0,0,0,1.5.622l10.2-10.2a1.758,1.758,0,0,1,1.243-.515H62.535A4.395,4.395,0,0,0,66.93,50.94V12.727a4.394,4.394,0,0,0-4.394-4.395Z" transform="translate(-7.5 -8.332)" fill="#ffcf19"/>
        <g id="Group_113985" data-name="Group 113985" transform="translate(51.52)">
          <path id="Path_173318" data-name="Path 173318" d="M305.862,8.332h-5.273a4.395,4.395,0,0,1,4.395,4.395V50.94a4.395,4.395,0,0,1-4.395,4.395h5.273a4.395,4.395,0,0,0,4.395-4.395V12.727a4.395,4.395,0,0,0-4.395-4.395Z" transform="translate(-300.589 -8.332)" fill="#e8b700"/>
        </g>
        <path id="Path_173319" data-name="Path 173319" d="M46.753,415.541a3.682,3.682,0,0,0,2.625,3.527,3.763,3.763,0,0,0,1.055-.022,3.5,3.5,0,1,0,0-7.009,3.763,3.763,0,0,0-1.055-.022A3.682,3.682,0,0,0,46.753,415.541Z" transform="translate(-39.853 -341.022)" fill="#77e7f7"/>
        <path id="Path_173320" data-name="Path 173320" d="M62.744,411.324a3.678,3.678,0,0,0-1.055.155,3.679,3.679,0,0,1,0,7.05,3.68,3.68,0,1,0,1.055-7.205Z" transform="translate(-52.164 -340.486)" fill="#00ceeb"/>
        <path id="Path_173321" data-name="Path 173321" d="M423.374,63.02A3.682,3.682,0,0,0,426,66.546a3.762,3.762,0,0,0,1.055-.022,3.5,3.5,0,0,0,0-7.009A3.762,3.762,0,0,0,426,59.493,3.682,3.682,0,0,0,423.374,63.02Z" transform="translate(-350.271 -50.467)" fill="#77e7f7"/>
        <path id="Path_173322" data-name="Path 173322" d="M439.365,58.8a3.678,3.678,0,0,0-1.055.155,3.679,3.679,0,0,1,0,7.05,3.68,3.68,0,1,0,1.055-7.205Z" transform="translate(-362.582 -49.931)" fill="#00ceeb"/>
      </g>
      <g id="Group_113987" data-name="Group 113987" transform="translate(0 0)">
        <path id="Path_173323" data-name="Path 173323" d="M257.612,300.044H221.47a1.318,1.318,0,0,0,0,2.637h36.142a1.318,1.318,0,1,0,0-2.637Z" transform="translate(-181.453 -247.449)"/>
        <path id="Path_173324" data-name="Path 173324" d="M257.612,361.932H221.47a1.318,1.318,0,1,0,0,2.637h36.142a1.318,1.318,0,1,0,0-2.637Z" transform="translate(-181.453 -298.458)"/>
        <path id="Path_173325" data-name="Path 173325" d="M84.072,135.847a1.318,1.318,0,1,0-1.318,1.318A1.318,1.318,0,0,0,84.072,135.847Z" transform="translate(-67.12 -111.028)"/>
        <path id="Path_173326" data-name="Path 173326" d="M176.681,135.847a1.318,1.318,0,1,0-1.318,1.318A1.318,1.318,0,0,0,176.681,135.847Z" transform="translate(-143.45 -111.028)"/>
        <path id="Path_173327" data-name="Path 173327" d="M269.291,135.847a1.318,1.318,0,1,0-1.318,1.318A1.318,1.318,0,0,0,269.291,135.847Z" transform="translate(-219.781 -111.028)"/>
        <path id="Path_173328" data-name="Path 173328" d="M44.252,403.826a5,5,0,1,0,5,5A5,5,0,0,0,44.252,403.826Zm0,7.36a2.362,2.362,0,1,1,2.362-2.362A2.364,2.364,0,0,1,44.252,411.186Z" transform="translate(-32.353 -332.988)"/>
        <path id="Path_173329" data-name="Path 173329" d="M420.873,61.3a5,5,0,1,0-5-5A5,5,0,0,0,420.873,61.3Zm0-7.36a2.362,2.362,0,1,1-2.362,2.362A2.365,2.365,0,0,1,420.873,53.943Z" transform="translate(-342.771 -42.434)"/>
        <path id="Path_173330" data-name="Path 173330" d="M40.461,76.931H31.889a3.08,3.08,0,0,1-3.076-3.076V54.136c0-.005,0-.011,0-.016L32.329,50.6a.437.437,0,0,1,.311-.129H58.111a5.719,5.719,0,0,0,5.7-5.285H76.159a1.318,1.318,0,1,0,0-2.637H63.824V32.565H69.3a1.318,1.318,0,1,0,0-2.637H63.824V6.547A5.719,5.719,0,0,0,58.111.834H5.713A5.719,5.719,0,0,0,0,6.547V13a1.318,1.318,0,0,0,2.637,0V6.547A3.08,3.08,0,0,1,5.713,3.471h52.4a3.08,3.08,0,0,1,3.076,3.076V44.76a3.08,3.08,0,0,1-3.076,3.076H32.64a3.056,3.056,0,0,0-2.175.9l-9.45,9.45V50.912a3.08,3.08,0,0,0-3.076-3.076H5.713A3.08,3.08,0,0,1,2.637,44.76V18.75A1.318,1.318,0,0,0,0,18.75V44.76a5.719,5.719,0,0,0,5.713,5.713H17.939a.44.44,0,0,1,.439.439v8.336A2.2,2.2,0,0,0,22.129,60.8l4.046-4.046v17.1a5.719,5.719,0,0,0,5.713,5.713h8.572a1.318,1.318,0,1,0,0-2.637Z" transform="translate(0 -0.834)"/>
        <path id="Path_173331" data-name="Path 173331" d="M294.761,166.349h-9.245a1.318,1.318,0,0,0,0,2.637h9.245a3.08,3.08,0,0,1,3.076,3.076v38.213a3.08,3.08,0,0,1-3.076,3.076H282.535a3.08,3.08,0,0,0-3.076,3.076V223.7l-9.45-9.45a3.055,3.055,0,0,0-2.175-.9H256.68a1.318,1.318,0,0,0,0,2.637h11.154a.437.437,0,0,1,.311.129l10.2,10.2a2.2,2.2,0,0,0,3.751-1.554v-8.336a.44.44,0,0,1,.439-.439h12.226a5.719,5.719,0,0,0,5.713-5.713V172.062A5.719,5.719,0,0,0,294.761,166.349Z" transform="translate(-210.474 -137.255)"/>
      </g>
    </g>
  </g>
</svg>
