<svg xmlns="http://www.w3.org/2000/svg" width="408" height="272.814" viewBox="0 0 408 272.814">
  <g id="t2-t3" transform="translate(-2403.051 2509.299)">
    <g id="freepik--background-complete--inject-16" transform="translate(2428.887 -2409.891)">
      <path id="Path_172659" data-name="Path 172659" d="M2771.293-2233.923l6.249,3.754-6.343,3.76-6.344,3.767.095-7.514.1-7.515Z" transform="translate(-2521.784 2340.148)" fill="#e0e0e0"/>
      <path id="Path_172660" data-name="Path 172660" d="M2442.889-2182.3v29.223h89.872V-2182.3Z" transform="translate(-2439.115 2325.93)" fill="#f5f5f5"/>
      <path id="Path_172661" data-name="Path 172661" d="M2437.812-2193.293v8.173H2534.6v-8.173h-96.785Z" transform="translate(-2437.812 2328.753)" fill="#e0e0e0"/>
      <path id="Path_172662" data-name="Path 172662" d="M2502.271-2155.9h45.252v-29.223h3.14v-8.173h-50.279v7.414Z" transform="translate(-2453.878 2328.753)" fill="#e0e0e0"/>
      <rect id="Rectangle_36891" data-name="Rectangle 36891" width="18.226" height="4.4" transform="translate(16.34 148.343)" fill="#e0e0e0"/>
      <rect id="Rectangle_36892" data-name="Rectangle 36892" width="23.405" height="9.287" transform="translate(13.997 158.244)" fill="#fff"/>
      <path id="Path_172663" data-name="Path 172663" d="M2461.492-2232.561v29.223h89.872v-29.223Z" transform="translate(-2443.892 2338.835)" fill="#f5f5f5"/>
      <path id="Path_172664" data-name="Path 172664" d="M2456.415-2243.557v8.173H2553.2v-8.173h-96.785Z" transform="translate(-2442.589 2341.659)" fill="#e0e0e0"/>
      <path id="Path_172665" data-name="Path 172665" d="M2520.874-2206.161h45.252v-29.223h3.14v-8.173h-50.279v7.42Z" transform="translate(-2458.655 2341.659)" fill="#e0e0e0"/>
      <rect id="Rectangle_36893" data-name="Rectangle 36893" width="18.226" height="4.4" transform="translate(30.166 110.985)" fill="#e0e0e0"/>
      <rect id="Rectangle_36894" data-name="Rectangle 36894" width="23.405" height="9.287" transform="translate(27.824 120.886)" fill="#fff"/>
      <rect id="Rectangle_36895" data-name="Rectangle 36895" width="115.796" height="71.766" rx="6.704" transform="translate(252.06 0)" fill="#e0e0e0"/>
      <circle id="Ellipse_4865" data-name="Ellipse 4865" cx="8.819" cy="8.819" r="8.819" transform="translate(301.136 28.039)" fill="#ebebeb"/>
      <path id="Path_172666" data-name="Path 172666" d="M2851.992-2324.4v-5.2a.329.329,0,0,1,.329-.329.323.323,0,0,1,.164.044l4.647,2.621a.33.33,0,0,1,.129.448.341.341,0,0,1-.129.129l-4.653,2.583a.329.329,0,0,1-.446-.13A.319.319,0,0,1,2851.992-2324.4Z" transform="translate(-2544.158 2363.838)" fill="#fff"/>
      <path id="Path_172667" data-name="Path 172667" d="M2785.543-2290.434v.184h-.874v-.145l.468-.45a.315.315,0,0,0,.133-.247c0-.108-.069-.165-.215-.165a.335.335,0,0,0-.279.12l-.153-.12a.553.553,0,0,1,.45-.2c.253,0,.418.133.418.342a.469.469,0,0,1-.2.374l-.317.3Z" transform="translate(-2526.86 2353.957)" fill="#fff"/>
      <path id="Path_172668" data-name="Path 172668" d="M2786.013-2290.922a.139.139,0,0,1,.139-.139.14.14,0,0,1,.14.139.14.14,0,0,1-.14.14.14.14,0,0,1-.139-.14Zm0,.633a.139.139,0,0,1,.139-.139.14.14,0,0,1,.14.139.139.139,0,0,1-.14.139A.139.139,0,0,1,2786.013-2290.289Z" transform="translate(-2527.217 2353.856)" fill="#fff"/>
      <path id="Path_172669" data-name="Path 172669" d="M2786.967-2291.427v1.183h-.221v-1h-.248v-.184Z" transform="translate(-2527.341 2353.95)" fill="#fff"/>
      <path id="Path_172670" data-name="Path 172670" d="M2788.5-2290.509h-.209v.272h-.2v-.272h-.633v-.133l.583-.76h.234l-.544.728h.36v-.241h.2v.241h.209Z" transform="translate(-2527.586 2353.944)" fill="#fff"/>
      <rect id="Rectangle_36896" data-name="Rectangle 36896" width="89.682" height="0.475" transform="translate(262.842 62.934)" fill="#fff"/>
      <rect id="Rectangle_36897" data-name="Rectangle 36897" width="28.026" height="1.266" transform="translate(262.778 62.434)" fill="#ebebeb"/>
      <path id="Path_172671" data-name="Path 172671" d="M2829.344-2291.029a1.369,1.369,0,0,1-1.362,1.375,1.368,1.368,0,0,1-1.374-1.362,1.367,1.367,0,0,1,1.361-1.373h.013A1.368,1.368,0,0,1,2829.344-2291.029Z" transform="translate(-2537.64 2354.197)" fill="#ebebeb"/>
      <path id="Path_172672" data-name="Path 172672" d="M2914.833-2290.865a.391.391,0,0,1-.4.388h-.034c-.323,0-.513-.209-.513-.589a.563.563,0,0,1,.489-.629.579.579,0,0,1,.087,0,.578.578,0,0,1,.311.076l-.077.171a.4.4,0,0,0-.228-.057c-.222,0-.361.132-.361.405h0a.4.4,0,0,1,.317-.121.368.368,0,0,1,.4.327C2914.832-2290.887,2914.833-2290.876,2914.833-2290.865Zm-.214,0c0-.126-.089-.2-.234-.2s-.241.083-.241.2.088.2.247.2a.2.2,0,0,0,.228-.175v-.021Z" transform="translate(-2560.05 2354.02)" fill="#fff"/>
      <path id="Path_172673" data-name="Path 172673" d="M2915.3-2291.169a.133.133,0,0,1,.127-.139h.012a.139.139,0,0,1,.14.139.14.14,0,0,1-.14.14.134.134,0,0,1-.139-.126Zm0,.633a.126.126,0,0,1,.113-.139.077.077,0,0,1,.026,0,.126.126,0,0,1,.134.119.181.181,0,0,1,0,.02.139.139,0,0,1-.106.166.139.139,0,0,1-.166-.106A.144.144,0,0,1,2915.3-2290.536Z" transform="translate(-2560.413 2353.92)" fill="#fff"/>
      <path id="Path_172674" data-name="Path 172674" d="M2915.867-2291.093c0-.393.209-.633.495-.633s.494.222.494.633-.215.633-.494.633S2915.867-2290.726,2915.867-2291.093Zm.767,0c0-.292-.114-.418-.272-.418s-.273.126-.273.418.108.412.273.412.292-.126.292-.412Z" transform="translate(-2560.558 2354.027)" fill="#fff"/>
      <path id="Path_172675" data-name="Path 172675" d="M2917.392-2291.093c0-.393.215-.633.493-.633s.495.222.495.633-.209.633-.495.633S2917.392-2290.726,2917.392-2291.093Zm.766,0c0-.292-.107-.418-.273-.418s-.272.126-.272.418.114.412.272.412S2918.158-2290.807,2918.158-2291.093Z" transform="translate(-2560.95 2354.027)" fill="#fff"/>
      <path id="Path_172676" data-name="Path 172676" d="M2921.172-2291.394h-.475v-1.209h1.209v.475h-.735Z" transform="translate(-2561.799 2354.252)" fill="#fff"/>
      <path id="Path_172677" data-name="Path 172677" d="M2921.906-2289.281H2920.7v-1.209h.475v.734h.735Z" transform="translate(-2561.799 2353.71)" fill="#fff"/>
      <path id="Path_172678" data-name="Path 172678" d="M2924.479-2289.281h-1.209v-.475H2924v-.734h.475Z" transform="translate(-2562.459 2353.71)" fill="#fff"/>
      <path id="Path_172679" data-name="Path 172679" d="M2924.479-2291.394H2924v-.734h-.734v-.475h1.209Z" transform="translate(-2562.459 2354.252)" fill="#fff"/>
      <path id="Path_172680" data-name="Path 172680" d="M2904.265-2366.235a17.457,17.457,0,0,1,2.437-.133h.133v3.627l-.285-.285c-.1-.1-.216-.209-.323-.323-.285-.285-.557-.563-.829-.83h.221l-1.266,1.139-.24.216v-.323c0-.956.051-1.753.076-2.292a3.689,3.689,0,0,1,.07-.8,5.382,5.382,0,0,1,.069.9c.032.544.063,1.3.076,2.2l-.24-.108,1.266-1.165.115-.1.107.108.836.823.323.329-.279.114c0-1.127,0-2.171.032-3.1l.126.133A15.993,15.993,0,0,1,2904.265-2366.235Z" transform="translate(-2557.54 2373.193)" fill="#fff"/>
      <path id="Path_172681" data-name="Path 172681" d="M2915.038-2365.706s-.19.253-.589.753-1,1.234-1.735,2.064l-.272.3v-2.095l.051.114-1.083-1.051-.279-.272h.386c1.076,0,1.994.069,2.608.107a6.948,6.948,0,0,1,.918.07s-.43,0-1.063.057-1.481.076-2.463.076l.108-.266,1.095,1.038.051.045v1.76l-.279-.108c.684-.747,1.3-1.361,1.772-1.83S2915.006-2365.694,2915.038-2365.706Z" transform="translate(-2559.342 2373.069)" fill="#fff"/>
      <path id="Path_172682" data-name="Path 172682" d="M2915.549-2365.65c.038.082-.481.38-1.159.664a2.891,2.891,0,0,1-1.266.361c-.039-.089.481-.386,1.152-.633S2915.511-2365.739,2915.549-2365.65Z" transform="translate(-2559.854 2373.013)" fill="#fff"/>
      <path id="Path_172683" data-name="Path 172683" d="M2921.629-2366.2a.863.863,0,0,1,.437,0,1.747,1.747,0,0,1,1.026.633,1.837,1.837,0,0,1,.3,1.76,1.9,1.9,0,0,1-2.469,1.058,1.9,1.9,0,0,1-1.058-1.058,1.837,1.837,0,0,1,.323-1.76,1.744,1.744,0,0,1,1.031-.633,1.112,1.112,0,0,1,.437,0,4.037,4.037,0,0,1-.405.114,1.728,1.728,0,0,0-.88.633,1.62,1.62,0,0,0-.2,1.507,1.582,1.582,0,0,0,2.061.872,1.582,1.582,0,0,0,.872-2.061,1.552,1.552,0,0,0-.173-.317,1.745,1.745,0,0,0-.873-.633A3.567,3.567,0,0,1,2921.629-2366.2Z" transform="translate(-2561.559 2373.155)" fill="#fff"/>
      <path id="Path_172684" data-name="Path 172684" d="M2922.752-2363.472c-.07.063-.449-.216-.854-.633l-.051-.051v-.07h0c0-.583.076-1.051.165-1.051s.165.468.165,1.051h0l-.045-.114C2922.537-2363.922,2922.815-2363.536,2922.752-2363.472Z" transform="translate(-2562.094 2372.912)" fill="#fff"/>
      <path id="Path_172685" data-name="Path 172685" d="M2847.445-2363.06c0,.088-11.9.165-26.589.165s-26.589-.077-26.589-.165,11.9-.164,26.589-.164S2847.445-2363.155,2847.445-2363.06Z" transform="translate(-2529.336 2372.385)" fill="#fff"/>
      <path id="Path_172686" data-name="Path 172686" d="M2789.493-2363.727a2.1,2.1,0,0,1-2.1,2.109,2.1,2.1,0,0,1-2.108-2.1,2.1,2.1,0,0,1,2.095-2.108h.013A2.1,2.1,0,0,1,2789.493-2363.727Z" transform="translate(-2527.031 2373.052)" fill="#fff"/>
    </g>
    <g id="freepik--Plant--inject-16" transform="translate(2706.358 -2328.145)">
      <path id="Path_172687" data-name="Path 172687" d="M2858.754-2220.1c-.057.07-.551-.228-1.1-.633s-.956-.861-.893-.937.551.221,1.108.665S2858.817-2220.2,2858.754-2220.1Z" transform="translate(-2822.852 2254.296)" fill="#27456e"/>
      <path id="Path_172688" data-name="Path 172688" d="M2874.1-2253.481a17.278,17.278,0,0,0-.513-6.254,6.158,6.158,0,0,0-4.26-4.254c-2.349-.488-4.761.994-6.078,3a17.323,17.323,0,0,0-2.158,6.812,240.843,240.843,0,0,0-2.95,49.45l9.623,1.348C2872.017-2220.636,2873.334-2235.729,2874.1-2253.481Z" transform="translate(-2823.15 2265.183)" fill="#27456e"/>
      <path id="Path_172689" data-name="Path 172689" d="M2869.041-2264.06a.437.437,0,0,1-.044.153l-.158.437c-.158.405-.367.962-.633,1.658-.133.367-.317.76-.456,1.2s-.3.937-.469,1.456-.348,1.082-.538,1.677-.322,1.266-.5,1.9a84.775,84.775,0,0,0-1.855,9.5c-.52,3.615-.861,7.6-1.133,11.832-.488,8.426-.563,16.08-.785,21.613-.1,2.766-.2,5-.3,6.546-.051.754-.088,1.349-.12,1.779a1.645,1.645,0,0,1-.038.462.635.635,0,0,1,0,.158.779.779,0,0,1,0-.158v-.462q0-.633.057-1.785c.07-1.545.126-3.8.2-6.546.152-5.533.189-13.187.684-21.626.272-4.216.633-8.23,1.159-11.857a81.055,81.055,0,0,1,1.937-9.54l.526-1.9.563-1.672c.177-.52.342-1.006.5-1.456s.336-.836.481-1.19l.7-1.64.189-.424A.259.259,0,0,1,2869.041-2264.06Z" transform="translate(-2824.2 2265.177)" fill="#27456e"/>
      <path id="Path_172690" data-name="Path 172690" d="M2871.91-2264.051a6.793,6.793,0,0,1,1.171,1.988,14.691,14.691,0,0,1,.88,6.223c-.254,5.318-.734,12.661-1.361,20.727s-1.342,15.4-1.9,20.683c-.285,2.646-.531,4.78-.709,6.254-.094.716-.164,1.266-.222,1.7a2.439,2.439,0,0,1-.063.443.754.754,0,0,1,0,.152.613.613,0,0,1,0-.158v-.443c.038-.418.095-.988.158-1.7.146-1.512.349-3.64.633-6.267.506-5.287,1.171-12.6,1.8-20.683s1.153-15.41,1.469-20.708a15.139,15.139,0,0,0-.76-6.166A13.1,13.1,0,0,0,2871.91-2264.051Z" transform="translate(-2826.177 2265.174)" fill="#27456e"/>
      <path id="Path_172691" data-name="Path 172691" d="M2880.425-2231a5.28,5.28,0,0,1-1.823-.468,5.193,5.193,0,0,1-1.7-.8A10.452,10.452,0,0,1,2880.425-2231Z" transform="translate(-2828.024 2257.012)" fill="#27456e"/>
      <path id="Path_172692" data-name="Path 172692" d="M2881.946-2243.745a5.847,5.847,0,0,1-1.734.963,5.7,5.7,0,0,1-1.9.633,5.878,5.878,0,0,1,1.735-.969A5.821,5.821,0,0,1,2881.946-2243.745Z" transform="translate(-2828.387 2259.961)" fill="#27456e"/>
      <path id="Path_172693" data-name="Path 172693" d="M2881.41-2254.622a6.129,6.129,0,0,1-2.842-.2,3.161,3.161,0,0,1,1.437-.076A3.058,3.058,0,0,1,2881.41-2254.622Z" transform="translate(-2828.453 2262.836)" fill="#27456e"/>
      <path id="Path_172694" data-name="Path 172694" d="M2868.494-2262.293c-.076.051-.5-.475-.937-1.171a3.413,3.413,0,0,1-.633-1.355c.083-.05.5.475.943,1.172S2868.576-2262.337,2868.494-2262.293Z" transform="translate(-2825.463 2265.373)" fill="#27456e"/>
      <path id="Path_172695" data-name="Path 172695" d="M2863.683-2254.982a2.855,2.855,0,0,1-1.361.146,2.9,2.9,0,0,1-1.362-.2,2.868,2.868,0,0,1,1.368-.145C2863.082-2255.166,2863.69-2255.077,2863.683-2254.982Z" transform="translate(-2823.932 2262.905)" fill="#27456e"/>
      <path id="Path_172696" data-name="Path 172696" d="M2860.506-2242.262a3.365,3.365,0,0,1-1.437-.393,3.415,3.415,0,0,1-1.31-.716,3.278,3.278,0,0,1,1.437.4C2859.949-2242.667,2860.544-2242.35,2860.506-2242.262Z" transform="translate(-2823.109 2259.864)" fill="#27456e"/>
      <path id="Path_172697" data-name="Path 172697" d="M2860.261-2230.938a2.636,2.636,0,0,1-1.228.437,2.6,2.6,0,0,1-1.266.094c0-.094.525-.285,1.222-.43A2.58,2.58,0,0,1,2860.261-2230.938Z" transform="translate(-2823.112 2256.682)" fill="#27456e"/>
      <path id="Path_172698" data-name="Path 172698" d="M2858.706-2213.023a2.811,2.811,0,0,1-1.3.406c-.734.126-1.342.164-1.361.069s.569-.272,1.3-.405S2858.693-2213.117,2858.706-2213.023Z" transform="translate(-2822.67 2252.086)" fill="#27456e"/>
      <path id="Path_172699" data-name="Path 172699" d="M2857.822-2203.12c.045.082-.437.43-1.083.766s-1.2.551-1.266.469.437-.431,1.082-.773S2857.778-2203.2,2857.822-2203.12Z" transform="translate(-2822.521 2249.534)" fill="#27456e"/>
      <path id="Path_172700" data-name="Path 172700" d="M2866.167-2192.849c-.083.051-.5-.538-.943-1.3a3.89,3.89,0,0,1-.633-1.474c.083-.045.506.538.943,1.3A3.8,3.8,0,0,1,2866.167-2192.849Z" transform="translate(-2824.864 2247.606)" fill="#27456e"/>
      <path id="Path_172701" data-name="Path 172701" d="M2868.244-2210.544c.069.07-.405.633-1.051,1.267a4.5,4.5,0,0,1-1.267,1.025,4.63,4.63,0,0,1,1.051-1.266C2867.623-2210.152,2868.18-2210.614,2868.244-2210.544Z" transform="translate(-2825.206 2251.438)" fill="#27456e"/>
      <path id="Path_172702" data-name="Path 172702" d="M2867.936-2220.966c-.07.063-.506-.3-.975-.8s-.791-.968-.722-1.032.507.292.975.8S2868.005-2221.029,2867.936-2220.966Z" transform="translate(-2825.285 2254.585)" fill="#27456e"/>
      <path id="Path_172703" data-name="Path 172703" d="M2869.437-2232.844c.07.063-.323.633-.88,1.266s-1.063,1.07-1.133,1.006.323-.633.88-1.266S2869.392-2232.907,2869.437-2232.844Z" transform="translate(-2825.589 2257.163)" fill="#27456e"/>
      <path id="Path_172704" data-name="Path 172704" d="M2870.266-2242.666c-.063.063-.633-.367-1.222-.963s-1.044-1.139-.981-1.209.633.367,1.222.962S2870.336-2242.736,2870.266-2242.666Z" transform="translate(-2825.754 2260.243)" fill="#27456e"/>
      <path id="Path_172705" data-name="Path 172705" d="M2872.265-2254.188c.083.051-.19.633-.633,1.367s-.823,1.266-.905,1.19.19-.633.633-1.367S2872.189-2254.24,2872.265-2254.188Z" transform="translate(-2826.436 2262.643)" fill="#27456e"/>
      <path id="Path_172706" data-name="Path 172706" d="M2875.659-2265.56a3.238,3.238,0,0,1-.544,1.368c-.386.709-.76,1.267-.849,1.2a3.347,3.347,0,0,1,.545-1.367C2875.2-2265.066,2875.583-2265.6,2875.659-2265.56Z" transform="translate(-2827.348 2265.563)" fill="#27456e"/>
      <path id="Path_172707" data-name="Path 172707" d="M2879.276-2260.4c.038.082-.342.354-.861.632s-.969.374-1.007.292.342-.354.861-.6S2879.231-2260.486,2879.276-2260.4Z" transform="translate(-2828.154 2264.243)" fill="#27456e"/>
      <path id="Path_172708" data-name="Path 172708" d="M2878.8-2220.072a3.933,3.933,0,0,1-1.9-.456,3.877,3.877,0,0,1-1.627-1.045q1.776.706,3.514,1.5Z" transform="translate(-2827.606 2254.268)" fill="#27456e"/>
      <path id="Path_172709" data-name="Path 172709" d="M2877.558-2210.923a2.845,2.845,0,0,1-1.266.424,2.845,2.845,0,0,1-1.361.089c-.019-.095.563-.285,1.266-.424A2.92,2.92,0,0,1,2877.558-2210.923Z" transform="translate(-2827.519 2251.544)" fill="#27456e"/>
      <path id="Path_172710" data-name="Path 172710" d="M2875.743-2197.116a5.457,5.457,0,0,1-2.38-3,10.708,10.708,0,0,1,1.184,1.5A10.972,10.972,0,0,1,2875.743-2197.116Z" transform="translate(-2827.116 2248.758)" fill="#27456e"/>
      <path id="Path_172711" data-name="Path 172711" d="M2855.763-2189.875c-.063-.076.329-.513.867-.975s1.039-.785,1.1-.709-.329.507-.873.969S2855.82-2189.806,2855.763-2189.875Z" transform="translate(-2822.596 2246.564)" fill="#27456e"/>
      <path id="Path_172712" data-name="Path 172712" d="M2847.179-2223.132c-.633-1.956-1.8-4.235-3.848-4.267a3.4,3.4,0,0,0-2.888,1.931,7.071,7.071,0,0,0-.778,3.539,92.263,92.263,0,0,0,4.431,25.62h7.515A89.022,89.022,0,0,0,2847.179-2223.132Z" transform="translate(-2818.462 2255.763)" fill="#27456e"/>
      <path id="Path_172713" data-name="Path 172713" d="M2827.048-2240.523a8.347,8.347,0,0,0-7.819-6.679c-3.324.583-4.609,3.849-5,7.2s.633,6.679,1.671,9.889q4.938,15.459,9.882,30.919l9.344-1.019C2832.17-2214.023,2830.473-2226.824,2827.048-2240.523Z" transform="translate(-2811.911 2260.848)" fill="#27456e"/>
      <path id="Path_172714" data-name="Path 172714" d="M2844.142-2227.4a7.5,7.5,0,0,0-.633,1.063,7,7,0,0,0-.349,3.318c.146,1.431.3,3.165.545,5.032s.589,3.957,1.006,6.109c.849,4.317,1.811,8.192,2.412,11.009.311,1.412.545,2.533.69,3.349.063.367.114.671.158.919a1.115,1.115,0,0,1,0,.323,1.633,1.633,0,0,1-.1-.31c-.05-.21-.133-.538-.221-.9-.2-.835-.469-1.963-.792-3.324-.633-2.8-1.659-6.666-2.532-11-.424-2.165-.754-4.241-.982-6.141-.119-.949-.2-1.849-.278-2.7s-.158-1.627-.2-2.355a6.851,6.851,0,0,1,.475-3.393A2.951,2.951,0,0,1,2844.142-2227.4Z" transform="translate(-2819.274 2255.763)" fill="#27456e"/>
      <path id="Path_172715" data-name="Path 172715" d="M2820.2-2247.561a12.788,12.788,0,0,0-1.127,1.513,10.674,10.674,0,0,0-1.425,4.894,22.635,22.635,0,0,0,1.159,7.521c.817,2.779,1.722,5.831,2.665,9.034,1.861,6.407,3.552,12.2,4.78,16.46l1.412,4.989c.152.57.278,1.02.367,1.368a2.367,2.367,0,0,1,.107.481,2.923,2.923,0,0,1-.171-.461c-.107-.342-.253-.786-.43-1.349l-1.519-4.957c-1.267-4.236-2.976-10.022-4.875-16.409l-2.64-9.047a22.3,22.3,0,0,1-1.095-7.629,10.462,10.462,0,0,1,1.551-4.945A5.718,5.718,0,0,1,2820.2-2247.561Z" transform="translate(-2812.746 2260.94)" fill="#27456e"/>
      <path id="Path_172716" data-name="Path 172716" d="M2834.666-2201.242a2.794,2.794,0,0,1-.208-.443c-.121-.3-.324-.735-.532-1.317-.443-1.146-1.019-2.836-1.608-4.963s-1.178-4.679-1.741-7.534-1.14-6-1.772-9.294a93.525,93.525,0,0,0-2.21-9.179,51,51,0,0,0-2.728-7.2,37.589,37.589,0,0,0-2.532-4.539c-.317-.526-.633-.906-.785-1.178a2.473,2.473,0,0,1-.259-.418,3.2,3.2,0,0,1,.316.38c.189.259.5.633.841,1.14a33.337,33.337,0,0,1,2.627,4.508,48.328,48.328,0,0,1,2.83,7.211,90.93,90.93,0,0,1,2.248,9.192c.632,3.3,1.2,6.438,1.734,9.3s1.108,5.413,1.666,7.534,1.095,3.8,1.5,4.982c.19.583.368,1.025.469,1.335A2.476,2.476,0,0,1,2834.666-2201.242Z" transform="translate(-2813.489 2260.875)" fill="#27456e"/>
      <path id="Path_172717" data-name="Path 172717" d="M2815.917-2226.306c0,.094-.488.3-1.133.456s-1.2.209-1.215.114.481-.291,1.133-.45S2815.9-2226.4,2815.917-2226.306Z" transform="translate(-2811.763 2255.494)" fill="#27456e"/>
      <path id="Path_172718" data-name="Path 172718" d="M2814.305-2234.941a4.783,4.783,0,0,1-1.576.171,4.663,4.663,0,0,1-1.589-.051,3.355,3.355,0,0,1,1.576-.3A3.23,3.23,0,0,1,2814.305-2234.941Z" transform="translate(-2811.14 2257.753)" fill="#27456e"/>
      <path id="Path_172719" data-name="Path 172719" d="M2816.1-2243.282c-.063.07-.569-.26-1.133-.74s-.975-.925-.912-.994.57.253,1.134.734S2816.168-2243.378,2816.1-2243.282Z" transform="translate(-2811.888 2260.29)" fill="#27456e"/>
      <path id="Path_172720" data-name="Path 172720" d="M2820.573-2249.963c.095,0,.07.475.057,1.025s0,1.007-.115,1.02-.247-.444-.228-1.032S2820.465-2249.982,2820.573-2249.963Z" transform="translate(-2813.488 2261.557)" fill="#27456e"/>
      <path id="Path_172721" data-name="Path 172721" d="M2828.03-2246.549c.083.057-.146.52-.507,1.032s-.715.886-.791.829.152-.513.506-1.026S2827.954-2246.6,2828.03-2246.549Z" transform="translate(-2815.139 2260.682)" fill="#27456e"/>
      <path id="Path_172722" data-name="Path 172722" d="M2832.776-2237.715c.038.089-.443.367-1.076.633s-1.177.393-1.215.3.449-.367,1.082-.633S2832.744-2237.8,2832.776-2237.715Z" transform="translate(-2816.106 2258.419)" fill="#27456e"/>
      <path id="Path_172723" data-name="Path 172723" d="M2835.588-2228.617a4.334,4.334,0,0,1-3.1.7,6.191,6.191,0,0,1,1.545-.393A6.053,6.053,0,0,1,2835.588-2228.617Z" transform="translate(-2816.621 2256.076)" fill="#27456e"/>
      <path id="Path_172724" data-name="Path 172724" d="M2822.482-2231.883c-.1-.031,0-.494.146-1.044s.38-.969.474-.937,0,.494-.151,1.039S2822.57-2231.858,2822.482-2231.883Z" transform="translate(-2814.042 2257.424)" fill="#27456e"/>
      <path id="Path_172725" data-name="Path 172725" d="M2824.471-2220.708a3.218,3.218,0,0,1,.418-1.405c.323-.74.633-1.3.741-1.266a3.171,3.171,0,0,1-.425,1.4C2824.883-2221.264,2824.553-2220.669,2824.471-2220.708Z" transform="translate(-2814.563 2254.731)" fill="#27456e"/>
      <path id="Path_172726" data-name="Path 172726" d="M2818.68-2216.963a3.381,3.381,0,0,1-1.342-.292c-.716-.228-1.3-.43-1.267-.525s.633-.032,1.374.2S2818.718-2217.045,2818.68-2216.963Z" transform="translate(-2812.406 2253.305)" fill="#27456e"/>
      <path id="Path_172727" data-name="Path 172727" d="M2821.687-2207.361c.056.076-.349.456-.893.848s-1.038.633-1.1.57.342-.456.893-.849S2821.648-2207.437,2821.687-2207.361Z" transform="translate(-2813.336 2250.622)" fill="#27456e"/>
      <path id="Path_172728" data-name="Path 172728" d="M2823.866-2198.1c0,.094-.475.291-1.107.443s-1.165.209-1.184.114.468-.291,1.1-.443S2823.841-2198.191,2823.866-2198.1Z" transform="translate(-2813.819 2248.252)" fill="#27456e"/>
      <path id="Path_172729" data-name="Path 172729" d="M2836.159-2220.873c.045.077-.38.418-.994.633s-1.159.259-1.171.171.462-.272,1.051-.493S2836.121-2220.955,2836.159-2220.873Z" transform="translate(-2817.008 2254.093)" fill="#27456e"/>
      <path id="Path_172730" data-name="Path 172730" d="M2837.924-2206.779c-.038.089-.544-.064-1.127-.342s-1.019-.563-.981-.633a2.3,2.3,0,0,1,1.127.335C2837.526-2207.146,2837.969-2206.862,2837.924-2206.779Z" transform="translate(-2817.475 2250.724)" fill="#27456e"/>
      <path id="Path_172731" data-name="Path 172731" d="M2840.76-2196.491a3.633,3.633,0,0,1-1.488-.4c-.785-.31-1.4-.633-1.361-.722a3.664,3.664,0,0,1,1.488.4A3.6,3.6,0,0,1,2840.76-2196.491Z" transform="translate(-2818.013 2248.115)" fill="#27456e"/>
      <path id="Path_172732" data-name="Path 172732" d="M2825.151-2188.721c-.044-.089.563-.5,1.266-1.058s1.266-1.057,1.33-.988-.38.678-1.115,1.266A3.1,3.1,0,0,1,2825.151-2188.721Z" transform="translate(-2814.737 2246.359)" fill="#27456e"/>
      <path id="Path_172733" data-name="Path 172733" d="M2833.017-2194.05c-.1,0-.234-.507-.469-1.1s-.475-1.076-.4-1.134.475.361.722,1.006S2833.112-2194.05,2833.017-2194.05Z" transform="translate(-2816.531 2247.776)" fill="#27456e"/>
      <path id="Path_172734" data-name="Path 172734" d="M2830.613-2206.076c-.05.076-.443-.114-.874-.418s-.728-.633-.67-.7.443.108.874.417S2830.67-2206.152,2830.613-2206.076Z" transform="translate(-2815.741 2250.578)" fill="#27456e"/>
      <path id="Path_172735" data-name="Path 172735" d="M2849.526-2225.164c.057.083-.323.457-.848.849s-1,.633-1.058.563.323-.456.849-.842S2849.469-2225.239,2849.526-2225.164Z" transform="translate(-2820.505 2255.193)" fill="#27456e"/>
      <path id="Path_172736" data-name="Path 172736" d="M2852.143-2217.423c0,.095-.589.221-1.33.14a2.165,2.165,0,0,1-1.266-.418c0-.089.633,0,1.3.076S2852.143-2217.517,2852.143-2217.423Z" transform="translate(-2821.001 2253.283)" fill="#27456e"/>
      <path id="Path_172737" data-name="Path 172737" d="M2839.848-2215.57a2.194,2.194,0,0,1-1.266.335c-.734.051-1.266-.076-1.266-.171s.57-.126,1.266-.171S2839.829-2215.665,2839.848-2215.57Z" transform="translate(-2817.861 2252.74)" fill="#27456e"/>
      <path id="Path_172738" data-name="Path 172738" d="M2841.066-2223.3c0,.094-.57.107-1.178-.178s-.969-.716-.905-.779.488.216,1.045.469S2841.078-2223.392,2841.066-2223.3Z" transform="translate(-2818.287 2254.96)" fill="#27456e"/>
      <path id="Path_172739" data-name="Path 172739" d="M2853.3-2209.41c-.051.076-.633-.19-1.267-.6s-1.145-.817-1.095-.893.633.183,1.266.6S2853.346-2209.492,2853.3-2209.41Z" transform="translate(-2821.357 2251.532)" fill="#27456e"/>
      <rect id="Rectangle_36898" data-name="Rectangle 36898" width="48.899" height="8.667" transform="translate(5.407 58.48)" fill="#e8b700"/>
      <path id="Path_172740" data-name="Path 172740" d="M2823.33-2177.535l5.945,25.9h29.147l6.5-25.9Z" transform="translate(-2814.27 2242.96)" fill="#e8b700"/>
      <path id="Path_172741" data-name="Path 172741" d="M2867.15-2175.269c0,.1-11.028.178-24.633.178s-24.64-.083-24.64-.178,11.028-.171,24.64-.171S2867.15-2175.358,2867.15-2175.269Z" transform="translate(-2812.87 2242.422)" fill="#27456e"/>
      <path id="Path_172742" data-name="Path 172742" d="M2847.159-2215.961c-.083.051-.412-.342-.747-.873s-.532-1-.457-1.051.418.342.748.867S2847.241-2216.012,2847.159-2215.961Z" transform="translate(-2820.075 2253.322)" fill="#27456e"/>
      <path id="Path_172743" data-name="Path 172743" d="M2847.6-2206.788a2.769,2.769,0,0,1,.254-1.316c.234-.7.493-1.235.583-1.2a2.409,2.409,0,0,1-.253,1.31C2847.933-2207.319,2847.693-2206.756,2847.6-2206.788Z" transform="translate(-2820.501 2251.119)" fill="#27456e"/>
      <path id="Path_172744" data-name="Path 172744" d="M2850.359-2197.018c-.089.038-.449-.544-.816-1.31a3.563,3.563,0,0,1-.507-1.456c.089-.038.45.545.817,1.31A3.453,3.453,0,0,1,2850.359-2197.018Z" transform="translate(-2820.87 2248.674)" fill="#27456e"/>
      <path id="Path_172745" data-name="Path 172745" d="M2843.863-2188.791c-.07-.063.221-.519.633-1.012s.842-.849.911-.792-.221.519-.633,1.013S2843.938-2188.708,2843.863-2188.791Z" transform="translate(-2819.539 2246.315)" fill="#27456e"/>
      <path id="Path_172746" data-name="Path 172746" d="M2841.7-2202.671c0,.089-.487.089-1.05,0s-1.007-.252-.995-.348.488-.088,1.051,0S2841.722-2202.76,2841.7-2202.671Z" transform="translate(-2818.462 2249.521)" fill="#27456e"/>
    </g>
    <g id="freepik--Character--inject-16" transform="translate(2467.795 -2460.479)">
      <path id="Path_172747" data-name="Path 172747" d="M2684.764-2383.325l-33.553-12.029c2.2,26.172,4.33,53-2.627,78.319-.754,2.741-1.418,6.173.76,8,1.3,1.089,3.165,1.127,4.868,1.076q5.217-.158,10.414-.766c3.685-.425,7.6-1.146,10.237-3.767,2.2-2.2,3.083-5.356,3.8-8.376A219.6,219.6,0,0,0,2684.764-2383.325Z" transform="translate(-2530.654 2431.222)" fill="#27456e"/>
      <path id="Path_172748" data-name="Path 172748" d="M2623.6-2257.811l3.976-5.21,2.659-13.928,6.052-33.9s2.665-12.75,10.889-16.4l1.741,33.869-16.776,42.562Z" transform="translate(-2524.425 2413.737)" fill="#00ceeb"/>
      <path id="Path_172749" data-name="Path 172749" d="M2657.774-2340.935l-4.945,5.849-7.54,3.356s-16.6,31.7-17.017,32-3.109,9.338-1.627,17.042a132.29,132.29,0,0,1,2.367,25.038c-.164,7.256-9.654,31.122-10.237,36.6s-2.532,26.672-2.532,26.672l83.87-.633a153.684,153.684,0,0,0-3.115-15.826s-.3-21.044-3.406-25.045c0,0,2.367-5.482,2.076-8.591s12.446-19.708,14.966-25.487,12.446-18.993,12.592-28.451-1.336-17.485-6.078-24.006-13.333-10.965-16.891-13.333l-6.964-8.894Z" transform="translate(-2522.535 2418.2)" fill="#00ceeb"/>
      <path id="Path_172750" data-name="Path 172750" d="M2631.889-2175.893a1.293,1.293,0,0,1,0-.253v-.747c0-.671.07-1.627.12-2.855.108-2.494.253-6.078.437-10.5.076-2.216.158-4.647.189-7.255v-4.033a18.471,18.471,0,0,1,.425-4.292,67.562,67.562,0,0,1,2.741-8.8,42.536,42.536,0,0,0,1.45-4.622,20.023,20.023,0,0,0,.323-2.444l.247-2.532c.342-3.368.671-6.654.988-9.832.165-1.589.317-3.166.475-4.679s.348-3.02.392-4.482a115.109,115.109,0,0,1,2.108-15.4c.855-4.355,1.64-7.863,2.146-10.294.253-1.2.449-2.134.583-2.792l.158-.729a1.529,1.529,0,0,1,.063-.247,1.571,1.571,0,0,1-.032.253c-.031.184-.07.424-.121.734-.126.633-.3,1.6-.525,2.811-.468,2.437-1.215,5.944-2.045,10.306a118.239,118.239,0,0,0-2.039,15.421c-.038,1.469-.247,2.957-.386,4.489s-.3,3.09-.462,4.679l-.981,9.838-.247,2.532a20.624,20.624,0,0,1-.336,2.482,40.789,40.789,0,0,1-1.463,4.659,67.681,67.681,0,0,0-2.747,8.755,18.662,18.662,0,0,0-.437,4.216c.045,1.4.038,2.748,0,4.052-.045,2.609-.139,5.065-.228,7.256-.19,4.431-.393,8.021-.538,10.5-.082,1.229-.146,2.184-.189,2.855-.025.312-.044.559-.057.741A1.987,1.987,0,0,1,2631.889-2175.893Z" transform="translate(-2526.55 2399.722)" fill="#27456e"/>
      <path id="Path_172751" data-name="Path 172751" d="M2649.463-2292.116a73.674,73.674,0,0,1,9.192-21.771,52.434,52.434,0,0,0,7.6-17.986l.1-12.4.531,1.595,31.527-4.571.956,4.558-21.1,19.062s-9.75,1.9-10.129,2.165S2649.463-2292.116,2649.463-2292.116Z" transform="translate(-2531.064 2418.87)" fill="#efbda8"/>
      <path id="Path_172752" data-name="Path 172752" d="M2715.534-2332.654a2.778,2.778,0,0,1-.279.437c-.189.284-.475.7-.848,1.228-.747,1.058-1.861,2.564-3.273,4.4s-3.127,3.995-4.976,6.432c-.925,1.222-1.9,2.533-2.849,3.862a8.723,8.723,0,0,1-.792,1.013,1.962,1.962,0,0,1-1.209.633,2.434,2.434,0,0,1-1.323-.38c-.393-.228-.747-.468-1.12-.709l-4.344-2.786c-.7-.449-1.386-.905-2.063-1.317a3.359,3.359,0,0,0-2.115-.632,4.227,4.227,0,0,0-1.938.905c-.57.43-1.133.867-1.722,1.228a12.209,12.209,0,0,1-3.52,1.463,12.418,12.418,0,0,1-5.476.126,7.962,7.962,0,0,1-.842-.2c-.241-.07-.444-.127-.633-.19a2.429,2.429,0,0,1-.481-.2,4.05,4.05,0,0,1,.5.14c.165.051.367.1.633.158s.559.128.842.171a12.627,12.627,0,0,0,5.394-.222,12.2,12.2,0,0,0,3.432-1.475c.569-.355,1.114-.785,1.7-1.228a4.429,4.429,0,0,1,2.07-.975,3.7,3.7,0,0,1,2.317.633c.69.424,1.367.867,2.076,1.316l4.344,2.78c.74.449,1.456,1.076,2.241,1.038a1.6,1.6,0,0,0,1-.532,8.36,8.36,0,0,0,.766-.975c.969-1.348,1.938-2.64,2.868-3.855,1.861-2.431,3.6-4.571,5.064-6.388s2.57-3.3,3.349-4.336l.905-1.191A4.065,4.065,0,0,1,2715.534-2332.654Z" transform="translate(-2537.809 2415.123)" fill="#27456e"/>
      <path id="Path_172753" data-name="Path 172753" d="M2665.468-2291.06a5.111,5.111,0,0,1,.469-.9c.316-.563.8-1.374,1.418-2.361,1.266-1.976,3.025-4.654,5.172-7.49s4.229-5.286,5.8-7.008c.785-.861,1.431-1.544,1.9-2.007a5.952,5.952,0,0,1,.735-.7,5.712,5.712,0,0,1-.633.779c-.462.538-1.076,1.234-1.811,2.076-1.513,1.759-3.57,4.228-5.7,7.059s-3.957,5.476-5.236,7.413c-.633.937-1.12,1.709-1.507,2.3A6.219,6.219,0,0,1,2665.468-2291.06Z" transform="translate(-2535.174 2409.697)" fill="#27456e"/>
      <path id="Path_172754" data-name="Path 172754" d="M2667.085-2280.738h.12l.361.076,1.4.3c1.228.266,3.026.633,5.318,1.121,1.146.227,2.418.475,3.8.715.7.121,1.418.222,2.171.336a22.315,22.315,0,0,1,2.323.513c1.583.405,3.241.937,4.97,1.538.867.3,1.747.633,2.646.982.45.177.9.355,1.355.551l.677.3.342.165.177.094.088.058.045.038a.265.265,0,0,1,.082.146v.038l-6.609,21.107h0a13.025,13.025,0,0,1-1.267,1.931,8.872,8.872,0,0,1-1.67,1.7,2.845,2.845,0,0,1-.773.418l-.785.266-1.557.525-3.052,1.057-5.938,1.994-.088.032-.07-.063-6.21-5.755-1.469-1.368a18.4,18.4,0,0,1-1.418-1.393,3.585,3.585,0,0,1-.835-1.785,6.341,6.341,0,0,1,.038-1.9c.848-4.85,1.8-9.1,2.672-12.624s1.665-6.331,2.228-8.23l.671-2.184.184-.557a.861.861,0,0,1,.076-.19.665.665,0,0,1-.044.2c-.044.127-.094.329-.159.57l-.632,2.19c-.532,1.9-1.3,4.7-2.14,8.23s-1.773,7.781-2.589,12.611a6,6,0,0,0-.038,1.817,3.222,3.222,0,0,0,.785,1.639,17.737,17.737,0,0,0,1.386,1.361l1.476,1.418,6.217,5.742h-.158l5.932-2.007,3.076-1.038,1.558-.526.785-.266a2.513,2.513,0,0,0,.677-.374,8.743,8.743,0,0,0,1.608-1.64,13.086,13.086,0,0,0,1.209-1.9h0l6.653-21.095.12.045a83.451,83.451,0,0,0-10.281-3.646c-.785-.209-1.557-.386-2.3-.52s-1.481-.228-2.178-.354c-1.386-.247-2.659-.506-3.8-.747-2.291-.488-4.083-.905-5.305-1.2l-1.393-.342-.354-.094C2667.123-2280.719,2667.079-2280.732,2667.085-2280.738Z" transform="translate(-2534.068 2401.806)" fill="#27456e"/>
      <g id="Group_113923" data-name="Group 113923" transform="translate(98.774 171.847)">
        <path id="Path_172755" data-name="Path 172755" d="M2657.991-2190.064c-7.331-1.108-17.517-4.166-25.874-5.913-2.982-.633-5.565-1.342-8.547-1.962l-.513,1.652a99.764,99.764,0,0,1,24.374,8.692c4.634,2.374,9.23,5.147,14.383,5.9,5.768.848,11.561-.925,17.093-2.678,3.166-.995,6.426-2.077,8.661-4.483a18.318,18.318,0,0,0,3.3-6.071q3.274-8.59,5.73-17.473C2686.651-2201.219,2672.787-2187.823,2657.991-2190.064Z" transform="translate(-2623.058 2212.399)" fill="#27456e"/>
      </g>
      <path id="Path_172756" data-name="Path 172756" d="M2702.666-2279.426l-21.069,38.744a6.235,6.235,0,0,0-4.887,6.154,3.683,3.683,0,0,0-4.178.114c-1.589.943-6.065,2.2-8.541,3.527a2.944,2.944,0,0,0-1.456,3.387l6.54,23.759s7.945,0,8.648-1.969l10.9-3.412s7.033-1.843,9.756-6.54,18.942-28.855,18.942-28.855" transform="translate(-2534.393 2401.456)" fill="#00ceeb"/>
      <path id="Path_172757" data-name="Path 172757" d="M2717.271-2244.509s-.044.088-.146.247-.259.393-.449.7l-1.773,2.69-6.635,10.028c-1.412,2.153-2.969,4.52-4.646,7.09s-3.482,5.331-5.293,8.325a12.256,12.256,0,0,1-3.869,3.8,22.431,22.431,0,0,1-5.153,2.45l-11.579,3.634.1-.1a1.794,1.794,0,0,1-.83.848,5.484,5.484,0,0,1-1.063.431,13.86,13.86,0,0,1-2.241.475,36.55,36.55,0,0,1-4.666.328h-.126v-.12l-3.691-13.409q-1-3.616-1.969-7.16c-.317-1.19-.633-2.329-.95-3.532a3.121,3.121,0,0,1,1.551-3.2,64.573,64.573,0,0,1,6.509-2.621c.531-.209,1.057-.418,1.563-.633a12.824,12.824,0,0,1,1.539-.741,3.731,3.731,0,0,1,3.336.374l-.253.121a6.331,6.331,0,0,1,1.418-4.109,6.857,6.857,0,0,1,3.6-2.19l-.1.076c6.293-11.522,11.579-21.2,15.289-28l4.337-7.888c.506-.905.893-1.595,1.159-2.083l.3-.525a1.285,1.285,0,0,1,.108-.178.364.364,0,0,1-.089.184l-.285.545c-.253.488-.633,1.19-1.114,2.1-.994,1.842-2.438,4.526-4.261,7.926l-15.194,28.058v.057h-.069a6.6,6.6,0,0,0-3.432,2.1,5.99,5.99,0,0,0-1.335,3.912v.3l-.247-.178a3.413,3.413,0,0,0-3.039-.317,12.538,12.538,0,0,0-1.5.728c-.519.247-1.051.462-1.589.671a63.859,63.859,0,0,0-6.463,2.608,2.8,2.8,0,0,0-1.387,2.868c.273,1.133.633,2.323.943,3.494q.969,3.54,1.969,7.167c1.267,4.59,2.5,9.091,3.685,13.4l-.152-.12a35.725,35.725,0,0,0,4.622-.317,14.59,14.59,0,0,0,2.2-.462,5.106,5.106,0,0,0,.994-.405,1.5,1.5,0,0,0,.69-.677l.031-.07h.07l11.579-3.608a22.208,22.208,0,0,0,5.065-2.412,12.1,12.1,0,0,0,3.8-3.7c1.823-2.995,3.641-5.748,5.318-8.319l4.685-7.072,6.648-10.034,1.811-2.665.475-.684A1.331,1.331,0,0,1,2717.271-2244.509Z" transform="translate(-2534.349 2401.448)" fill="#27456e"/>
      <path id="Path_172758" data-name="Path 172758" d="M2717.479-2223.5a1.339,1.339,0,0,1-.12-.374c-.076-.279-.165-.633-.279-1.076-.247-.988-.576-2.336-.988-3.995-.83-3.362-2-8.008-3.38-13.117s-2.71-9.711-3.691-13.041l-1.159-3.944-.31-1.07a1.627,1.627,0,0,1-.083-.386,1.711,1.711,0,0,1,.146.367l.367,1.051c.31.924.74,2.26,1.266,3.913,1.038,3.311,2.4,7.913,3.8,13.022s2.532,9.775,3.292,13.155c.386,1.69.69,3.064.886,4.013l.215,1.1A2.894,2.894,0,0,1,2717.479-2223.5Z" transform="translate(-2545.958 2396.597)" fill="#fff"/>
      <path id="Path_172759" data-name="Path 172759" d="M2707.992-2208.6c-.088,0-1.848-9.16-3.925-20.492s-3.7-20.543-3.608-20.562,1.848,9.16,3.931,20.5S2708.081-2208.614,2707.992-2208.6Z" transform="translate(-2544.157 2393.813)" fill="#fff"/>
      <path id="Path_172760" data-name="Path 172760" d="M2659.115-2266.769c.05.076-3.039,2.266-6.895,4.894s-7.034,4.691-7.084,4.615,3.039-2.267,6.894-4.887S2659.064-2266.845,2659.115-2266.769Z" transform="translate(-2529.953 2398.207)" fill="#fff"/>
      <path id="Path_172761" data-name="Path 172761" d="M2656.655-2255.644a2.7,2.7,0,0,1-.456.481c-.311.3-.76.709-1.33,1.209-1.139,1.007-2.735,2.361-4.552,3.8s-3.495,2.7-4.729,3.577c-.633.443-1.121.791-1.475,1.025a3.341,3.341,0,0,1-.57.336,2.548,2.548,0,0,1,.494-.443l1.411-1.108c1.2-.925,2.856-2.2,4.666-3.646s3.431-2.76,4.6-3.723l1.4-1.127A2.524,2.524,0,0,1,2656.655-2255.644Z" transform="translate(-2529.544 2395.35)" fill="#fff"/>
      <path id="Path_172762" data-name="Path 172762" d="M2639.341-2258.962c-.076.057-2.279-2.836-4.918-6.451s-4.729-6.6-4.654-6.653,2.273,2.836,4.919,6.457S2639.424-2259.013,2639.341-2258.962Z" transform="translate(-2526.007 2399.567)" fill="#fff"/>
      <path id="Path_172763" data-name="Path 172763" d="M2638.927-2242.167a6.15,6.15,0,0,1-1.12-.975c-.633-.633-1.532-1.558-2.438-2.627s-1.665-2.083-2.184-2.843a5.993,5.993,0,0,1-.766-1.266,6.928,6.928,0,0,1,.956,1.126c.563.722,1.349,1.7,2.248,2.767s1.741,2.007,2.349,2.685A7.46,7.46,0,0,1,2638.927-2242.167Z" transform="translate(-2526.688 2393.869)" fill="#fff"/>
      <path id="Path_172764" data-name="Path 172764" d="M2715.113-2322.111a12.769,12.769,0,0,1-1.557-1.051l-3.646-2.659c-1.425-1.045-2.7-2.007-3.6-2.729a9.825,9.825,0,0,1-1.418-1.234,11.341,11.341,0,0,1,1.557,1.044l3.66,2.653c1.424,1.045,2.7,2.007,3.608,2.729A9.325,9.325,0,0,1,2715.113-2322.111Z" transform="translate(-2545.296 2414.386)" fill="#fff"/>
      <path id="Path_172765" data-name="Path 172765" d="M2719.441-2327.4a51.219,51.219,0,0,1-4.571-3.577,52.846,52.846,0,0,1-4.368-3.836,50.019,50.019,0,0,1,4.578,3.583A51.03,51.03,0,0,1,2719.441-2327.4Z" transform="translate(-2546.737 2415.679)" fill="#fff"/>
      <path id="Path_172766" data-name="Path 172766" d="M2679.74-2270.789c.088,0-1.038,6.331-2.532,14.048s-2.76,14-2.849,13.985,1.044-6.331,2.532-14.048S2679.652-2270.84,2679.74-2270.789Z" transform="translate(-2537.456 2399.239)" fill="#fff"/>
      <path id="Path_172767" data-name="Path 172767" d="M2699.459-2211.11a2.425,2.425,0,0,1-.544-.26c-.349-.184-.83-.475-1.418-.855a27.853,27.853,0,0,1-4.216-3.45,27.207,27.207,0,0,1-3.45-4.216c-.38-.583-.671-1.064-.855-1.412a2.037,2.037,0,0,1-.253-.551c.045,0,.494.709,1.3,1.83a33.8,33.8,0,0,0,3.488,4.121,34.874,34.874,0,0,0,4.115,3.488A22.366,22.366,0,0,1,2699.459-2211.11Z" transform="translate(-2541.145 2386.674)" fill="#27456e"/>
      <path id="Path_172768" data-name="Path 172768" d="M2699.884-2224.2a7.457,7.457,0,0,1-1.8.322,21.247,21.247,0,0,1-8.73-.924,7.229,7.229,0,0,1-1.69-.7c0-.045.677.184,1.76.475a27.019,27.019,0,0,0,4.28.81,27.865,27.865,0,0,0,4.362.108A15.41,15.41,0,0,1,2699.884-2224.2Z" transform="translate(-2540.874 2387.612)" fill="#27456e"/>
      <path id="Path_172769" data-name="Path 172769" d="M2639.635-2304.732a.57.57,0,0,1-.044.152l-.171.43c-.14.38-.38.93-.7,1.627a63.158,63.158,0,0,1-3.134,5.7,51.971,51.971,0,0,0-4.355,8.578l-.228.633-.19.633c-.12.443-.247.9-.367,1.355a9.322,9.322,0,0,0-.3,1.4c-.076.475-.158.956-.241,1.443-.114.975-.177,1.976-.234,2.988v1.539c0,.52,0,1.032.045,1.551a98.379,98.379,0,0,0,1.633,11.762,83.429,83.429,0,0,1,1.3,9.585c.126,1.368.063,2.621.083,3.716-.089,1.089-.14,2.033-.234,2.8s-.235,1.323-.311,1.747l-.088.45a.6.6,0,0,1-.044.152.615.615,0,0,1,0-.158,2.365,2.365,0,0,1,.057-.455c.057-.425.139-1.013.247-1.747s.108-1.7.178-2.792c-.038-1.089,0-2.33-.133-3.7a89.384,89.384,0,0,0-1.367-9.54,95.5,95.5,0,0,1-1.659-11.731c-.044-.526-.051-1.044-.044-1.57s0-1.032,0-1.551c.063-1.019.126-2.032.24-3.02.089-.488.171-.975.254-1.456a9.592,9.592,0,0,1,.3-1.418c.133-.462.26-.918.386-1.367l.19-.671c.076-.221.157-.436.234-.632a50.5,50.5,0,0,1,4.431-8.591c1.425-2.349,2.532-4.274,3.216-5.654.336-.69.6-1.222.76-1.595.076-.171.14-.3.2-.418A.552.552,0,0,1,2639.635-2304.732Z" transform="translate(-2525.896 2407.954)" fill="#27456e"/>
      <path id="Path_172770" data-name="Path 172770" d="M2666.233-2339.655l-.083.132-.253.368c-.221.328-.582.791-1.057,1.374-.956,1.171-2.406,2.8-4.236,4.811q-1.358,1.519-2.975,3.3a50.168,50.168,0,0,0-3.26,3.95,25.767,25.767,0,0,0-4.1,10.958l-.31-.088a18.608,18.608,0,0,1,1.779-2.754c.342-.462.684-.925,1-1.393.158-.234.316-.469.456-.709l.209-.361.1-.184.045-.1v-.044l.038-.057a.184.184,0,0,1,.171-.063.2.2,0,0,1,.139.1v.089l.038.1.076.2a2.369,2.369,0,0,1,.133.406,5.435,5.435,0,0,1,.183.835,8.745,8.745,0,0,1,.108,1.672,33.244,33.244,0,0,1-1.038,6.21c-.741,3.95-2.1,7.331-2.9,10.237a26.34,26.34,0,0,0-1.172,7.027,16.289,16.289,0,0,0,.089,1.937,3.92,3.92,0,0,0,.057.5.541.541,0,0,1,0,.177,11.673,11.673,0,0,1-.285-2.615,25.331,25.331,0,0,1,1.082-7.091c.779-2.931,2.1-6.331,2.824-10.237a33.525,33.525,0,0,0,1.013-6.153,8.592,8.592,0,0,0-.108-1.614,5.194,5.194,0,0,0-.177-.8,2.11,2.11,0,0,0-.121-.386l-.076-.189-.032-.095v-.051h0c.051,0-.126.044.121-.063h0c-.108-.057.152.069.121.063h0v.044l-.013.07-.1.2-.216.374c-.152.247-.3.488-.468.722-.323.475-.665.936-1.007,1.405a18.46,18.46,0,0,0-1.747,2.691l-.468.988.158-1.076a25.735,25.735,0,0,1,4.184-11.085c1.083-1.469,2.229-2.754,3.3-3.95s2.089-2.285,3.014-3.286c1.848-1.988,3.323-3.6,4.3-4.735.488-.577.861-1.02,1.1-1.336l.279-.348C2666.189-2339.624,2666.227-2339.662,2666.233-2339.655Z" transform="translate(-2530.995 2416.921)" fill="#27456e"/>
      <path id="Path_172771" data-name="Path 172771" d="M2673.884-2218.089a1.15,1.15,0,0,1,.221.216l.589.665a11.747,11.747,0,0,1,.88,1.089c.323.444.722.93,1.083,1.513s.792,1.215,1.171,1.931.778,1.481,1.177,2.3a34.5,34.5,0,0,1,1.949,5.6,35.007,35.007,0,0,1,.867,5.869c0,.911.07,1.779,0,2.589a21.611,21.611,0,0,1-.152,2.254c-.045.69-.171,1.3-.253,1.843a12.409,12.409,0,0,1-.279,1.374l-.215.861a1.081,1.081,0,0,1-.095.3,1.011,1.011,0,0,1,.032-.311c.044-.24.094-.525.152-.873s.165-.835.221-1.38.177-1.146.209-1.836.115-1.425.108-2.235,0-1.659-.051-2.564a36.3,36.3,0,0,0-.887-5.805,35.643,35.643,0,0,0-1.9-5.558c-.386-.817-.734-1.6-1.139-2.3s-.76-1.355-1.127-1.931-.729-1.089-1.032-1.531-.594-.824-.835-1.121l-.538-.7A1.292,1.292,0,0,1,2673.884-2218.089Z" transform="translate(-2537.335 2385.708)" fill="#27456e"/>
      <path id="Path_172772" data-name="Path 172772" d="M2692.381-2266.752a5.483,5.483,0,0,1-.956-.323l-2.577-.943c-2.184-.792-5.223-1.8-8.641-2.7s-6.565-1.545-8.863-1.944l-2.709-.456a6.714,6.714,0,0,1-.995-.19,5.511,5.511,0,0,1,1.013.063c.633.063,1.577.184,2.729.355a84.8,84.8,0,0,1,8.863,1.848,86.081,86.081,0,0,1,8.7,2.805c1.083.424,1.95.779,2.533,1.051A5.771,5.771,0,0,1,2692.381-2266.752Z" transform="translate(-2535.731 2399.887)" fill="#27456e"/>
      <g id="Group_113924" data-name="Group 113924" transform="translate(142.342 166.245)">
        <path id="Path_172773" data-name="Path 172773" d="M2692.554-2208.4a8.721,8.721,0,0,0-1.785-2.285l-9.091-9.256v.684c2.02,1.374,2.45,4.159,3.032,6.533s1.089,4.913,2.741,6.718a4.363,4.363,0,0,0,2.532,1.449,2.654,2.654,0,0,0,2.6-1.057A2.938,2.938,0,0,0,2692.554-2208.4Z" transform="translate(-2681.678 2219.937)" fill="#27456e"/>
      </g>
      <g id="Group_113925" data-name="Group 113925" transform="translate(127.706 147.917)">
        <path id="Path_172774" data-name="Path 172774" d="M2675.007-2236.683a5.611,5.611,0,0,1-3.109.488,5.541,5.541,0,0,1-2.349-1.507l-7.565-6.894c2.165,3.166,3.9,6.407,6.065,9.591a5.008,5.008,0,0,0,2.2,2.121,4.75,4.75,0,0,0,3.166-.342,26.933,26.933,0,0,0,9.648-6.369Z" transform="translate(-2661.985 2244.596)" fill="#27456e"/>
      </g>
      <g id="Group_113926" data-name="Group 113926" transform="translate(131.225 90.345)">
        <path id="Path_172775" data-name="Path 172775" d="M2666.72-2295.671c7.072-3.387,9.617-12.795,16.637-16.3a12.625,12.625,0,0,1,12.744,1.026c1.215.873,2.564,2.039,4.008,1.627,1.089-.311,1.715-1.418,2.228-2.425q2.633-5.154,5.267-10.32l-6.907,8.142a3.8,3.8,0,0,1-1.792,1.393c-1.393.361-2.4-1.2-3.684-1.842-4-1.994-6.812-4.508-9.041-2.823,0,0-3.893,2.678-5.451,2.962l-14.01,18.29" transform="translate(-2666.72 2322.058)" fill="#27456e"/>
      </g>
      <g id="Group_113927" data-name="Group 113927" transform="translate(118.976 78.544)">
        <path id="Path_172776" data-name="Path 172776" d="M2650.448-2292.86a16.538,16.538,0,0,1,1.4-9.452c1.285-2.894,2.9-5.7,3.691-8.75a17.4,17.4,0,0,0,.26-7.514,8.84,8.84,0,0,1-.3-3.507,6.582,6.582,0,0,1,.95-2.051,45.743,45.743,0,0,1,5.52-7.154l4.432-6.648s.189,7.724.044,8.452a49.009,49.009,0,0,1-1.9,6.735,53.715,53.715,0,0,1-5.014,10.256,81.137,81.137,0,0,0-6.223,11.687Z" transform="translate(-2650.24 2337.935)" fill="#27456e"/>
      </g>
      <path id="Path_172777" data-name="Path 172777" d="M2679.264-2347.432c-8.971-2.114-11.725-6.577-11.832-14.465l-.133-10.041s-9.933-.513-12.25-15.308a147,147,0,0,1-1.507-29.123c.576-8.863,9.794-24.513,18.625-23.556l24.272,11.806a5.2,5.2,0,0,1,4.641,5.286h0l-1.9,57.338" transform="translate(-2532.06 2442.677)" fill="#efbda8"/>
      <path id="Path_172778" data-name="Path 172778" d="M2658.714-2394.148a1.9,1.9,0,0,0,1.823,1.9,1.811,1.811,0,0,0,1.953-1.657c0-.017,0-.035,0-.053a1.9,1.9,0,0,0-1.817-1.9,1.824,1.824,0,0,0-1.96,1.675Z" transform="translate(-2533.44 2431.353)" fill="#27456e"/>
      <path id="Path_172779" data-name="Path 172779" d="M2657.121-2399.2c.2.177,1.7,0,3.678.462s3.336,1.367,3.571,1.266c.12,0-.076-.316-.665-.715a9.2,9.2,0,0,0-2.83-1.191,8.093,8.093,0,0,0-2.956-.209C2657.267-2399.468,2657.02-2399.291,2657.121-2399.2Z" transform="translate(-2533.025 2432.323)" fill="#27456e"/>
      <path id="Path_172780" data-name="Path 172780" d="M2684.267-2393.383a1.9,1.9,0,0,0,1.83,1.9,1.817,1.817,0,0,0,1.953-1.669l0-.04a1.9,1.9,0,0,0-1.823-1.9,1.825,1.825,0,0,0-1.961,1.676Z" transform="translate(-2540.001 2431.156)" fill="#27456e"/>
      <path id="Path_172781" data-name="Path 172781" d="M2684.148-2397.787c.3.069,1.608-.93,3.748-1.5s3.906-.412,4.089-.633c.1-.095-.241-.279-1.013-.367a9.429,9.429,0,0,0-3.33.323,8.351,8.351,0,0,0-2.925,1.367C2684.148-2398.136,2684.009-2397.819,2684.148-2397.787Z" transform="translate(-2539.957 2432.497)" fill="#27456e"/>
      <path id="Path_172782" data-name="Path 172782" d="M2672.3-2384.7a13.959,13.959,0,0,0-3.317-.6c-.519-.057-1.013-.158-1.1-.52a2.656,2.656,0,0,1,.354-1.538c.493-1.267,1.006-2.584,1.551-3.97,2.152-5.641,3.709-10.281,3.482-10.37s-2.159,4.431-4.312,10.066l-1.481,3.988a2.987,2.987,0,0,0-.279,2.044,1.324,1.324,0,0,0,.855.8,3.463,3.463,0,0,0,.886.121A13.518,13.518,0,0,0,2672.3-2384.7Z" transform="translate(-2535.6 2432.852)" fill="#27456e"/>
      <path id="Path_172783" data-name="Path 172783" d="M2672.121-2350.05a37.589,37.589,0,0,0,19.809-5.236s-4.994,10.421-19.809,8.99Z" transform="translate(-2536.882 2420.934)" fill="#d1967c"/>
      <path id="Path_172784" data-name="Path 172784" d="M2674.419-2373.049a5.413,5.413,0,0,1,3.925-2.59,2.33,2.33,0,0,1,2.3,1.267,3.7,3.7,0,0,1-.329,3.393,3.122,3.122,0,0,1-3.09,1.495,5.206,5.206,0,0,1-2.532-1.666,1.929,1.929,0,0,1-.519-.728,1.265,1.265,0,0,1,.164-1.07" transform="translate(-2537.395 2426.163)" fill="#d1967c"/>
      <path id="Path_172785" data-name="Path 172785" d="M2679.912-2376.912c-.335,0-.342,2.2-2.241,3.8s-4.254,1.317-4.274,1.627c-.031.14.526.431,1.52.462a5.571,5.571,0,0,0,3.571-1.235,4.8,4.8,0,0,0,1.735-3.165C2680.3-2376.374,2680.064-2376.925,2679.912-2376.912Z" transform="translate(-2537.209 2426.487)" fill="#27456e"/>
      <path id="Path_172786" data-name="Path 172786" d="M2681.927-2409.585c.253.532,2.254.07,4.666.121s4.4.513,4.672,0c.113-.254-.272-.741-1.1-1.2a8.113,8.113,0,0,0-7.109-.088C2682.212-2410.319,2681.813-2409.844,2681.927-2409.585Z" transform="translate(-2539.395 2435.375)" fill="#27456e"/>
      <path id="Path_172787" data-name="Path 172787" d="M2656.257-2405.833c.449.462,2.2,0,4.292-.051s3.88.3,4.292-.178c.177-.24-.108-.7-.88-1.139a7.047,7.047,0,0,0-3.495-.753,6.876,6.876,0,0,0-3.419.936C2656.313-2406.535,2656.066-2406.036,2656.257-2405.833Z" transform="translate(-2532.793 2434.459)" fill="#27456e"/>
      <path id="Path_172788" data-name="Path 172788" d="M2727.472-2362.1c-3.222-5.211-5.856-18.2-6.963-24.773s-4.609-27.684-10.218-38.776-12.212-15.573-18.689-17.32a14.919,14.919,0,0,0-14.27,3.241c-2.925,2.615-3.925,10.237-3.925,10.237s15.631,3.475,20.892,12.39c6.045,10.237,7.515,15.384,7.515,15.384l1.956,5.6s-1.836,10.839-2.533,16.2.4,10.332,4.812,12.5l8.863,6.274s11.6,7.882,12.13,8.287c2.476,1.9,7.331,9.1,7.331,9.1S2734.062-2351.445,2727.472-2362.1Z" transform="translate(-2537.212 2443.607)" fill="#27456e"/>
      <path id="Path_172789" data-name="Path 172789" d="M2667.341-2428.943s-8.939-.981-12.243,9.148c-1.488,4.565-2.634,17.726-2.634,17.726s-1.3-10.471-.823-16.46,3.463-13.535,8.046-17.726c4.432-4.071,8.23-5.983,16.175-5.5a12.669,12.669,0,0,0-5.749,4.3C2669.1-2435.914,2668.652-2434.628,2667.341-2428.943Z" transform="translate(-2531.596 2443.154)" fill="#27456e"/>
      <path id="Path_172790" data-name="Path 172790" d="M2711.32-2387.713a4.468,4.468,0,0,1,6.559-3.8c1.557.905,2.753,2.715,2.608,6.185-.38,9.268-9.6,6.963-9.61,6.7C2710.877-2378.806,2711.124-2383.877,2711.32-2387.713Z" transform="translate(-2546.833 2430.381)" fill="#efbda8"/>
      <path id="Path_172791" data-name="Path 172791" d="M2714.877-2381.064c.045,0,.158.121.425.26a1.59,1.59,0,0,0,1.2.07c.994-.317,1.9-1.836,2-3.5a5.342,5.342,0,0,0-.36-2.33,1.863,1.863,0,0,0-1.159-1.266.822.822,0,0,0-.975.405c-.133.252-.083.436-.133.456s-.19-.164-.1-.545a1.05,1.05,0,0,1,.385-.569,1.268,1.268,0,0,1,.906-.2,2.287,2.287,0,0,1,1.627,1.507,5.451,5.451,0,0,1,.449,2.6c-.133,1.868-1.158,3.576-2.532,3.906a1.722,1.722,0,0,1-1.462-.3C2714.883-2380.836,2714.845-2381.044,2714.877-2381.064Z" transform="translate(-2547.858 2429.41)" fill="#d1967c"/>
      <path id="Path_172792" data-name="Path 172792" d="M2687.9-2443.558c0,.07-1.266,0-3.285.3a11.369,11.369,0,0,0-3.381,1.013,11.205,11.205,0,0,0-3.394,2.64,17.221,17.221,0,0,0-3.754,6.882c-.538,1.963-.6,3.235-.67,3.229a4.722,4.722,0,0,1,.031-.893,16.853,16.853,0,0,1,.412-2.393,16.581,16.581,0,0,1,3.735-7.039,10.529,10.529,0,0,1,6.964-3.666,19.82,19.82,0,0,1,2.431-.12A4.5,4.5,0,0,1,2687.9-2443.558Z" transform="translate(-2537.212 2443.614)" fill="#27456e"/>
      <path id="Path_172793" data-name="Path 172793" d="M2710.513-2390.7a.465.465,0,0,1,0-.152l.076-.43c.038-.2.088-.43.139-.7s.089-.632.139-.962a21.95,21.95,0,0,0-.082-6.192,22.192,22.192,0,0,0-3.2-8.54,24.983,24.983,0,0,0-8.135-7.635,46,46,0,0,0-5.172-2.71c-1.715-.791-3.437-1.4-5.064-2.127a60.211,60.211,0,0,1-8.034-4.539c-2.2-1.456-3.906-2.735-5.065-3.641-.576-.456-1.025-.81-1.316-1.063l-.336-.285c-.076-.07-.114-.1-.108-.108l.127.082.355.26,1.361,1.013c1.184.874,2.912,2.121,5.116,3.545a61.527,61.527,0,0,0,8.072,4.432c1.576.709,3.311,1.323,5.064,2.108a46.533,46.533,0,0,1,5.21,2.723,25.059,25.059,0,0,1,8.23,7.755,21.966,21.966,0,0,1,3.166,8.674,21.084,21.084,0,0,1,0,6.236l-.171.968c-.063.266-.119.5-.164.7l-.114.43C2710.539-2390.747,2710.52-2390.69,2710.513-2390.7Z" transform="translate(-2537.455 2440.062)" fill="#27456e"/>
      <path id="Path_172794" data-name="Path 172794" d="M2713.852-2396.187a.836.836,0,0,1,0-.152v-.443c0-.393.044-.962,0-1.7a35.457,35.457,0,0,0-3.476-14.973,34.611,34.611,0,0,0-6.471-9.224,40.994,40.994,0,0,0-9.065-6.736c-3.026-1.734-5.881-3.071-8.23-4.228s-4.3-2.1-5.609-2.792c-.633-.335-1.152-.633-1.494-.81l-.386-.221a.568.568,0,0,1-.126-.089.328.328,0,0,1,.146.057l.4.19,1.52.76c1.323.633,3.26,1.577,5.653,2.691s5.255,2.456,8.306,4.178a40.722,40.722,0,0,1,9.148,6.767,34.85,34.85,0,0,1,6.514,9.325,35.879,35.879,0,0,1,2.823,8.863,33.008,33.008,0,0,1,.5,6.249c0,.741-.069,1.317-.088,1.7,0,.178-.031.323-.038.444A.57.57,0,0,1,2713.852-2396.187Z" transform="translate(-2538.647 2442.059)" fill="#27456e"/>
      <path id="Path_172795" data-name="Path 172795" d="M2724.5-2345.785a1.21,1.21,0,0,1-.14-.279l-.348-.823c-.152-.361-.33-.8-.494-1.33s-.386-1.121-.551-1.8c-.089-.342-.184-.691-.278-1.058s-.165-.76-.253-1.158c-.19-.8-.3-1.671-.456-2.577a54.945,54.945,0,0,1-.45-5.977,93.925,93.925,0,0,1,.538-10.857c.146-1.38.272-2.495.373-3.267.051-.354.089-.633.12-.887a1.7,1.7,0,0,1,.063-.31,1.128,1.128,0,0,1,0,.317l-.063.893c-.069.823-.158,1.9-.266,3.279-.215,2.767-.512,6.6-.443,10.825a57.838,57.838,0,0,0,.424,5.938c.139.905.247,1.773.418,2.532.082.4.146.785.234,1.159l.259,1.051c.146.677.349,1.266.5,1.8s.3.974.437,1.341.209.633.291.842A.946.946,0,0,1,2724.5-2345.785Z" transform="translate(-2549.568 2426.279)" fill="#27456e"/>
      <path id="Path_172796" data-name="Path 172796" d="M2567.845-2220.891s10.066,12.915,13.675,13.928,17.277,4.4,17.277,4.4l44.854,10.364-5.28-19.227-42.48-.576Z" transform="translate(-2510.108 2386.427)" fill="#efbda8"/>
      <path id="Path_172797" data-name="Path 172797" d="M2490.226-2309.823c3.362,8.338,20.3,46.48,24.228,55.312a4.43,4.43,0,0,0,2.722,2.431l53.318,16.928,52.9,3.951v-1.741L2580.63-2245.9l-13.51-1.582-20.17-50.013a7.207,7.207,0,0,0-5.388-4.394l-50.279-9.218a.956.956,0,0,0-1.107.777A.963.963,0,0,0,2490.226-2309.823Z" transform="translate(-2490.162 2409.595)" fill="#27456e"/>
      <path id="Path_172798" data-name="Path 172798" d="M2649.715-2211.638h-.171l-.487-.038-1.9-.171-6.932-.7-10.274-1.082-12.592-1.267c-4.47-.443-8.73-.779-12.611-1l-5.514-.342a9.4,9.4,0,0,1-1.266-.164,2.518,2.518,0,0,1-.633-.2,1.094,1.094,0,0,1-.481-.462,20.617,20.617,0,0,1-.874-2.165c-1.032-2.729-1.9-4.951-2.462-6.514-.279-.753-.494-1.348-.633-1.779l-.165-.468a.792.792,0,0,1-.044-.158.333.333,0,0,0,.076.151l.19.45c.177.425.411,1.013.715,1.76l2.564,6.482a20.532,20.532,0,0,0,.867,2.108.882.882,0,0,0,.38.367,2.56,2.56,0,0,0,.557.171,8.723,8.723,0,0,0,1.266.146c1.722.083,3.577.209,5.514.323,3.887.2,8.161.526,12.63.969l12.592,1.266,10.275,1.145,6.925.8,1.9.234.488.063Z" transform="translate(-2516.483 2388.29)" fill="#27456e"/>
      <path id="Path_172799" data-name="Path 172799" d="M2622.29-2225.329s.766-5.027,0-6.02-6.154-5.837-6.154-5.837l-3.058-2.874-6.742-1.032a2.051,2.051,0,0,0-2.058.95l-.689,1.107-1.83-.3-1.615-2.336h-4.494l-3.324,3.59v4.85a.918.918,0,0,0,1.62.361c1.171-.988,1.266-3.722,1.266-3.722l1.994,1.836-2.121,6.47s1.488,1.355,2.571,0,2.6-3.324,2.6-3.324,1.8,4.85,4.849,6.286,10.421,2.748,11.953,2.406S2622-2222.638,2622.29-2225.329Z" transform="translate(-2516.394 2391.763)" fill="#efbda8"/>
      <path id="Path_172800" data-name="Path 172800" d="M2614.08-2235.649s0,.076-.12.184a1.324,1.324,0,0,1-.531.336,2.623,2.623,0,0,1-.982.139c-.386,0-.81-.1-1.266-.139a2.232,2.232,0,0,0-1.418.222,6.456,6.456,0,0,0-1.184,1.266,5.335,5.335,0,0,1-3.6,1.956,3.4,3.4,0,0,1-3.007-1.4l-.069-.1.089-.089a35.36,35.36,0,0,0,3.26-3.976c.728-1.044,1.12-1.683,1.158-1.665a1.9,1.9,0,0,1-.234.488c-.164.3-.418.747-.766,1.266a29.107,29.107,0,0,1-3.165,4.083v-.2a3.113,3.113,0,0,0,2.734,1.266,5.1,5.1,0,0,0,3.387-1.83,6.7,6.7,0,0,1,1.267-1.3,2.463,2.463,0,0,1,1.6-.222c.474.063.893.164,1.266.189a2.778,2.778,0,0,0,.931-.076A1.9,1.9,0,0,0,2614.08-2235.649Z" transform="translate(-2518.852 2391.055)" fill="#d1967c"/>
      <path id="Path_172801" data-name="Path 172801" d="M2623.85-2224.1c-.038,0-.076-.285-.279-.76a7.375,7.375,0,0,0-1.165-1.842c-.583-.722-1.387-1.506-2.115-2.532a5.366,5.366,0,0,1-.835-1.8,4.3,4.3,0,0,1,.031-2.14,5.207,5.207,0,0,1,.968-1.9,2.29,2.29,0,0,1,.811-.678,1.2,1.2,0,0,1,1.051.032,2.418,2.418,0,0,1,1.07,1.469,6.9,6.9,0,0,0,.633,1.386,5.812,5.812,0,0,0,1.431,1.627c.405.323.665.462.633.488a2.562,2.562,0,0,1-.728-.38,5.591,5.591,0,0,1-1.557-1.614,6.731,6.731,0,0,1-.633-1.411,2.165,2.165,0,0,0-.95-1.267.892.892,0,0,0-.791,0,1.953,1.953,0,0,0-.684.6,4.973,4.973,0,0,0-.9,1.791,4,4,0,0,0-.044,1.988,5.276,5.276,0,0,0,.778,1.7c.691,1.007,1.475,1.811,2.046,2.564a6.734,6.734,0,0,1,1.1,1.944,2.927,2.927,0,0,1,.139.595C2623.867-2224.151,2623.863-2224.1,2623.85-2224.1Z" transform="translate(-2523.329 2390.271)" fill="#d1967c"/>
      <path id="Path_172802" data-name="Path 172802" d="M2601.1-2236.752a1.423,1.423,0,0,0-.975.4,6.531,6.531,0,0,0-1.2,2.387c-.367,1.012-.684,1.937-.944,2.6a3.4,3.4,0,0,1-.513,1.031,4.8,4.8,0,0,1,.291-1.107c.2-.678.488-1.614.855-2.634a5.739,5.739,0,0,1,1.361-2.444,1.266,1.266,0,0,1,.816-.323C2601.009-2236.872,2601.11-2236.8,2601.1-2236.752Z" transform="translate(-2517.715 2390.525)" fill="#d1967c"/>
      <path id="Path_172803" data-name="Path 172803" d="M2601.264-2237.234c0,.038-.279.1-.741.038a3.357,3.357,0,0,1-1.69-.753h.241l-.412.361a14.653,14.653,0,0,1-2.444,1.862,14.188,14.188,0,0,1,2.229-2.115l.418-.354.108-.089.1.089a3.791,3.791,0,0,0,1.526.791A4.2,4.2,0,0,1,2601.264-2237.234Z" transform="translate(-2517.393 2390.893)" fill="#d1967c"/>
      <path id="Path_172804" data-name="Path 172804" d="M2612.607-2223.453a3.831,3.831,0,0,1,.481-1.145,13.055,13.055,0,0,1,1.709-2.457,13.446,13.446,0,0,1,2.215-2.019,3.8,3.8,0,0,1,1.076-.633,39.4,39.4,0,0,0-3.045,2.855A37.387,37.387,0,0,0,2612.607-2223.453Z" transform="translate(-2521.601 2388.69)" fill="#d1967c"/>
      <path id="Path_172805" data-name="Path 172805" d="M2561.466-2297.628a.509.509,0,0,1,.082.164l.216.494.785,1.9,2.823,7.028c2.368,5.963,5.615,14.168,9.211,23.228s6.781,17.295,9.116,23.266c1.146,2.969,2.077,5.374,2.735,7.065l.722,1.9c.076.209.133.373.184.506a.765.765,0,0,1,.051.178,1.143,1.143,0,0,1-.082-.165q-.082-.19-.209-.494c-.19-.456-.456-1.1-.785-1.9l-2.83-7.027c-2.362-5.964-5.616-14.168-9.212-23.234s-6.774-17.289-9.116-23.259l-2.729-7.065c-.31-.823-.551-1.468-.728-1.931l-.184-.5A1.572,1.572,0,0,1,2561.466-2297.628Z" transform="translate(-2508.47 2406.13)" fill="#27456e"/>
      <ellipse id="Ellipse_4866" data-name="Ellipse 4866" cx="3.045" cy="4.153" rx="3.045" ry="4.153" transform="translate(34.239 132.304) rotate(-35.87)" fill="#fff"/>
    </g>
    <g id="freepik--Desk--inject-16" transform="translate(2403.051 -2236.814)">
      <path id="Path_172806" data-name="Path 172806" d="M2811.051-2142.516c0,.088-91.34.165-203.991.165s-204.009-.077-204.009-.165,91.347-.164,204.034-.164S2811.051-2142.611,2811.051-2142.516Z" transform="translate(-2403.051 2142.68)" fill="#27456e"/>
    </g>
    <g id="freepik--Screens--inject-16" transform="translate(2421.986 -2509.3)">
      <rect id="Rectangle_36899" data-name="Rectangle 36899" width="134.466" height="83.338" rx="6.704" transform="translate(0 51.978)" fill="#27456e"/>
      <circle id="Ellipse_4867" data-name="Ellipse 4867" cx="10.243" cy="10.243" r="10.243" transform="translate(56.99 84.537)" fill="#00ceeb"/>
      <path id="Path_172807" data-name="Path 172807" d="M2515.665-2379.969v-6.046a.386.386,0,0,1,.387-.385.381.381,0,0,1,.189.05l5.4,3.045a.386.386,0,0,1,.144.527.38.38,0,0,1-.144.144l-5.4,3.026a.386.386,0,0,1-.526-.145A.389.389,0,0,1,2515.665-2379.969Z" transform="translate(-2450.901 2477.744)" fill="#fff"/>
      <path id="Path_172808" data-name="Path 172808" d="M2438.5-2340.518v.254h-1.013v-.171l.551-.52a.364.364,0,0,0,.152-.285c0-.126-.083-.2-.253-.2a.4.4,0,0,0-.323.139l-.178-.132a.633.633,0,0,1,.52-.228c.3,0,.494.146.494.393a.544.544,0,0,1-.228.43l-.367.349Z" transform="translate(-2430.815 2466.255)" fill="#fff"/>
      <path id="Path_172809" data-name="Path 172809" d="M2439.073-2341.092a.158.158,0,0,1,.152-.165h.007a.165.165,0,0,1,.164.165.164.164,0,0,1-.164.164.158.158,0,0,1-.158-.158Zm0,.747a.157.157,0,0,1,.152-.164h.007a.164.164,0,0,1,.164.165.164.164,0,0,1-.164.164.158.158,0,0,1-.158-.158v-.006Z" transform="translate(-2431.235 2466.153)" fill="#fff"/>
      <path id="Path_172810" data-name="Path 172810" d="M2440.162-2341.674v1.406h-.26v-1.159h-.285v-.216Z" transform="translate(-2431.375 2466.26)" fill="#fff"/>
      <path id="Path_172811" data-name="Path 172811" d="M2441.932-2340.617h-.241v.317h-.247v-.317h-.754v-.177l.7-.88h.272l-.633.842h.449v-.273h.241v.273h.241Z" transform="translate(-2431.651 2466.26)" fill="#fff"/>
      <rect id="Rectangle_36900" data-name="Rectangle 36900" width="104.141" height="0.475" transform="translate(12.522 125.098)" fill="#fff"/>
      <rect id="Rectangle_36901" data-name="Rectangle 36901" width="32.547" height="1.266" transform="translate(12.446 124.586)" fill="#00ceeb"/>
      <path id="Path_172812" data-name="Path 172812" d="M2489.375-2341.182a1.582,1.582,0,0,1-1.583,1.582,1.583,1.583,0,0,1-1.583-1.582,1.583,1.583,0,0,1,1.583-1.582A1.582,1.582,0,0,1,2489.375-2341.182Z" transform="translate(-2443.338 2466.54)" fill="#00ceeb"/>
      <path id="Path_172813" data-name="Path 172813" d="M2588.606-2341.021a.456.456,0,0,1-.467.445l-.033,0c-.374,0-.6-.241-.6-.684a.633.633,0,0,1,.529-.722.619.619,0,0,1,.149-.005.68.68,0,0,1,.354.088l-.088.189a.521.521,0,0,0-.266-.063c-.253,0-.418.158-.418.469h0a.475.475,0,0,1,.367-.146.424.424,0,0,1,.467.377C2588.605-2341.057,2588.606-2341.039,2588.606-2341.021Zm-.248,0c0-.146-.107-.234-.272-.234a.254.254,0,0,0-.278.226v.008c0,.126.1.228.285.228a.235.235,0,0,0,.286-.167l.005-.023Z" transform="translate(-2469.346 2466.341)" fill="#fff"/>
      <path id="Path_172814" data-name="Path 172814" d="M2589.191-2341.38a.152.152,0,0,1,.146-.158h.013a.157.157,0,0,1,.164.152v.007a.165.165,0,0,1-.165.165h0a.158.158,0,0,1-.158-.158Zm0,.747a.152.152,0,0,1,.146-.158h.013a.158.158,0,0,1,.164.151v.007a.165.165,0,0,1-.165.165h0a.158.158,0,0,1-.158-.158Z" transform="translate(-2469.78 2466.225)" fill="#fff"/>
      <path id="Path_172815" data-name="Path 172815" d="M2589.838-2341.28c0-.457.248-.709.57-.709s.576.253.576.709-.247.7-.576.7S2589.838-2340.831,2589.838-2341.28Zm.887,0c0-.336-.126-.488-.317-.488s-.317.151-.317.488.133.481.317.481.323-.152.323-.481Z" transform="translate(-2469.946 2466.341)" fill="#fff"/>
      <path id="Path_172816" data-name="Path 172816" d="M2591.619-2341.28c0-.457.247-.709.569-.709s.576.253.576.709-.247.7-.576.7S2591.619-2340.831,2591.619-2341.28Zm.893,0c0-.336-.133-.488-.323-.488s-.317.151-.317.488.133.481.317.481S2592.512-2340.951,2592.512-2341.28Z" transform="translate(-2470.403 2466.341)" fill="#fff"/>
      <path id="Path_172817" data-name="Path 172817" d="M2595.978-2341.627h-.475v-1.367h1.367v.475h-.893Z" transform="translate(-2471.4 2466.599)" fill="#fff"/>
      <path id="Path_172818" data-name="Path 172818" d="M2596.87-2339.223H2595.5v-1.361h.475v.886h.893Z" transform="translate(-2471.4 2465.98)" fill="#fff"/>
      <path id="Path_172819" data-name="Path 172819" d="M2599.809-2339.225h-1.367v-.475h.893v-.893h.475Z" transform="translate(-2472.155 2465.982)" fill="#fff"/>
      <path id="Path_172820" data-name="Path 172820" d="M2599.809-2341.627h-.475v-.893h-.893v-.475h1.367Z" transform="translate(-2472.155 2466.599)" fill="#fff"/>
      <path id="Path_172821" data-name="Path 172821" d="M2576.4-2428.517a3.464,3.464,0,0,1,.728-.063c.488,0,1.216-.051,2.1-.07h.165v.133c0,1.063,0,2.279.031,3.6v.4l-.285-.285-.38-.38-.962-.963h.221l-1.5,1.33-.247.216v-.323c0-1.107.044-2.032.069-2.653a5.006,5.006,0,0,1,.076-.949s.039.405.07,1.038.057,1.52.07,2.533l-.241-.108,1.481-1.355.115-.1.107.108.969.962.373.374-.279.12v-3.6l.133.133c-.83,0-1.519-.044-2.02-.07A5.718,5.718,0,0,1,2576.4-2428.517Z" transform="translate(-2466.462 2488.592)" fill="#fff"/>
      <path id="Path_172822" data-name="Path 172822" d="M2588.9-2427.929a10.956,10.956,0,0,1-.7.88c-.468.569-1.165,1.424-2.013,2.374l-.273.31v-2.374l.051.12-1.266-1.222-.279-.272h.386c1.266,0,2.3.07,3.013.108s1.114.057,1.083.069-.494,0-1.229.057-1.715.076-2.867.076l.108-.266,1.266,1.2.051.051v2.032l-.272-.108c.8-.873,1.519-1.6,2.051-2.146S2588.871-2427.911,2588.9-2427.929Z" transform="translate(-2468.555 2488.454)" fill="#fff"/>
      <path id="Path_172823" data-name="Path 172823" d="M2589.474-2427.866c.038.088-.57.418-1.355.747a3.743,3.743,0,0,1-1.475.443,7.182,7.182,0,0,1,2.83-1.19Z" transform="translate(-2469.126 2488.391)" fill="#fff"/>
      <path id="Path_172824" data-name="Path 172824" d="M2596.541-2428.487a.958.958,0,0,1,.506,0,1.992,1.992,0,0,1,1.178.709,2.1,2.1,0,0,1,.342,2.019,2.147,2.147,0,0,1-2.734,1.318,2.147,2.147,0,0,1-1.318-1.318,2.114,2.114,0,0,1,.336-2.019,2.022,2.022,0,0,1,1.184-.722.956.956,0,0,1,.506,0c0,.032-.177.038-.475.126a1.976,1.976,0,0,0-1.026.741,1.862,1.862,0,0,0,.4,2.6,1.862,1.862,0,0,0,2.6-.4,1.863,1.863,0,0,0,0-2.2,1.977,1.977,0,0,0-1.026-.741C2596.706-2428.449,2596.541-2428.455,2596.541-2428.487Z" transform="translate(-2471.116 2488.562)" fill="#fff"/>
      <path id="Path_172825" data-name="Path 172825" d="M2597.851-2425.347c-.063.063-.5-.266-.975-.734l-.044-.051v-.1c0-.671.069-1.216.164-1.216s.165.545.165,1.216h0l-.051-.115C2597.585-2425.847,2597.914-2425.41,2597.851-2425.347Z" transform="translate(-2471.742 2488.283)" fill="#fff"/>
      <path id="Path_172826" data-name="Path 172826" d="M2510.429-2424.857c0,.095-13.82.165-30.862.165s-30.869-.07-30.869-.165,13.82-.164,30.869-.164S2510.429-2424.945,2510.429-2424.857Z" transform="translate(-2433.707 2487.66)" fill="#fff"/>
      <circle id="Ellipse_4868" data-name="Ellipse 4868" cx="2.437" cy="2.437" r="2.437" transform="translate(7.204 60.366)" fill="#fff"/>
      <rect id="Rectangle_36902" data-name="Rectangle 36902" width="102.305" height="63.409" rx="6.704" transform="translate(234.467 12.695)" fill="#f5f5f5"/>
      <path id="Path_172827" data-name="Path 172827" d="M2830.065-2456.555c-2.444-1.494-5.178-2.766-8.046-2.658-4.071.152-7.464,3.007-10.515,5.7l-14.244,12.661a2.54,2.54,0,0,1-1.9.9,2.529,2.529,0,0,1-1.4-.975l-12.617-13.991c-2.615-2.906-5.6-6-9.5-6.381-3.165-.3-6.166,1.266-8.818,3.013a63.132,63.132,0,0,0-18.866,19.189l-.152,13.231a6.72,6.72,0,0,0,6.091,4.989h90.138a6.173,6.173,0,0,0,6.09-5.59v-12.472A43.055,43.055,0,0,0,2830.065-2456.555Z" transform="translate(-2509.532 2496.986)" fill="#27456e"/>
      <path id="Path_172828" data-name="Path 172828" d="M2751.578-2417.006v.2h-.766v-.133l.411-.392c.1-.095.12-.152.12-.215a.169.169,0,0,0-.189-.146.292.292,0,0,0-.248.108l-.132-.108a.466.466,0,0,1,.393-.171c.227,0,.373.114.373.3a.429.429,0,0,1-.171.329l-.279.266Z" transform="translate(-2511.269 2485.823)" fill="#27456e"/>
      <path id="Path_172829" data-name="Path 172829" d="M2752-2417.442a.12.12,0,0,1,.114-.126h.007a.12.12,0,0,1,.126.114.037.037,0,0,1,0,.013.12.12,0,0,1-.12.121h-.007a.12.12,0,0,1-.12-.121Zm0,.563a.113.113,0,0,1,.107-.12h.013a.12.12,0,0,1,.126.114v.006a.126.126,0,0,1-.1.152.126.126,0,0,1-.151-.095A.123.123,0,0,1,2752-2416.878Z" transform="translate(-2511.582 2485.747)" fill="#27456e"/>
      <path id="Path_172830" data-name="Path 172830" d="M2752.839-2417.892v1.076h-.19v-.88h-.221v-.165Z" transform="translate(-2511.693 2485.83)" fill="#27456e"/>
      <path id="Path_172831" data-name="Path 172831" d="M2754.179-2417.07h-.209v.265h-.19v-.234h-.569v-.139l.513-.671h.247l-.488.633h.342v-.222h.146v.21h.184Z" transform="translate(-2511.894 2485.819)" fill="#27456e"/>
      <rect id="Rectangle_36903" data-name="Rectangle 36903" width="79.236" height="0.475" transform="translate(243.995 68.273)" fill="#27456e"/>
      <rect id="Rectangle_36904" data-name="Rectangle 36904" width="24.76" height="1.266" transform="translate(243.931 67.786)" fill="#00ceeb"/>
      <path id="Path_172832" data-name="Path 172832" d="M2790.289-2417.541a1.209,1.209,0,0,1-1.2,1.215,1.209,1.209,0,0,1-1.215-1.2,1.209,1.209,0,0,1,1.2-1.216h.007A1.21,1.21,0,0,1,2790.289-2417.541Z" transform="translate(-2520.793 2486.048)" fill="#00ceeb"/>
      <path id="Path_172833" data-name="Path 172833" d="M2865.81-2417.394a.35.35,0,0,1-.353.344h-.027c-.285,0-.45-.184-.45-.52a.494.494,0,0,1,.433-.548.516.516,0,0,1,.073,0,.534.534,0,0,1,.279.063l-.076.146a.328.328,0,0,0-.2-.05c-.2,0-.317.12-.317.361h0a.342.342,0,0,1,.279-.108.323.323,0,0,1,.353.29Zm-.183,0c0-.108-.083-.177-.209-.177a.19.19,0,0,0-.214.163v.015c0,.1.083.177.215.177a.183.183,0,0,0,.183-.165Z" transform="translate(-2540.591 2485.889)" fill="#27456e"/>
      <path id="Path_172834" data-name="Path 172834" d="M2866.225-2417.663a.121.121,0,0,1,.114-.127h.013a.121.121,0,0,1,.12.121v.007a.121.121,0,0,1-.12.12h0a.12.12,0,0,1-.126-.114Zm0,.569a.12.12,0,0,1,.114-.126h.013a.12.12,0,0,1,.12.12v.006a.12.12,0,0,1-.12.121h0a.119.119,0,0,1-.126-.114v-.007Z" transform="translate(-2540.912 2485.803)" fill="#27456e"/>
      <path id="Path_172835" data-name="Path 172835" d="M2866.728-2417.59c0-.342.184-.532.43-.532s.437.19.437.532-.184.538-.437.538S2866.728-2417.248,2866.728-2417.59Zm.677,0c0-.253-.1-.367-.247-.367s-.234.114-.234.367.1.367.234.367S2867.405-2417.337,2867.405-2417.59Z" transform="translate(-2541.041 2485.889)" fill="#27456e"/>
      <path id="Path_172836" data-name="Path 172836" d="M2868.074-2417.59c0-.342.19-.532.436-.532s.437.19.437.532-.189.538-.437.538S2868.074-2417.248,2868.074-2417.59Zm.677,0c0-.253-.1-.367-.241-.367s-.24.114-.24.367.1.367.24.367.241-.115.241-.367Z" transform="translate(-2541.386 2485.889)" fill="#27456e"/>
      <path id="Path_172837" data-name="Path 172837" d="M2871.436-2417.872h-.475v-1.1h1.1v.475h-.62Z" transform="translate(-2542.128 2486.107)" fill="#27456e"/>
      <path id="Path_172838" data-name="Path 172838" d="M2872.056-2415.97h-1.1v-1.1h.475v.62h.62Z" transform="translate(-2542.128 2485.617)" fill="#27456e"/>
      <path id="Path_172839" data-name="Path 172839" d="M2874.365-2415.97h-1.1v-.475h.62v-.62h.475Z" transform="translate(-2542.72 2485.617)" fill="#27456e"/>
      <path id="Path_172840" data-name="Path 172840" d="M2874.365-2417.878h-.475v-.62h-.62v-.475h1.1Z" transform="translate(-2542.72 2486.107)" fill="#27456e"/>
      <path id="Path_172841" data-name="Path 172841" d="M2856.459-2483.975a15.6,15.6,0,0,1,2.159-.126h.126v3.273l-.284-.285-.285-.285-.729-.734h.221l-1.145,1.006-.248.215v-.323a21.8,21.8,0,0,1,.14-2.742,24.033,24.033,0,0,1,.146,2.742l-.241-.108,1.127-1.032.114-.1.107.108.734.728.286.292-.279.115v-2.735l.133.126A17.562,17.562,0,0,1,2856.459-2483.975Z" transform="translate(-2538.356 2502.83)" fill="#27456e"/>
      <path id="Path_172842" data-name="Path 172842" d="M2865.981-2483.525a6.11,6.11,0,0,1-.507.664c-.354.437-.88,1.1-1.532,1.836l-.272.3v-1.906l.05.12-.956-.931-.279-.272h.386c.956,0,1.773.07,2.311.108a5,5,0,0,1,.8.069c-.031,0-.386,0-.949.057s-1.3.076-2.165.076l.107-.266.969.918.051.044v1.6l-.279-.108c.633-.633,1.152-1.19,1.57-1.6S2865.949-2483.513,2865.981-2483.525Z" transform="translate(-2539.952 2502.729)" fill="#27456e"/>
      <path id="Path_172843" data-name="Path 172843" d="M2866.444-2483.47c.038.082-.418.354-1.013.633s-1.108.386-1.139.3.418-.354,1.013-.6S2866.412-2483.559,2866.444-2483.47Z" transform="translate(-2540.415 2502.674)" fill="#27456e"/>
      <path id="Path_172844" data-name="Path 172844" d="M2871.8-2483.941a.7.7,0,0,1,.393,0,1.512,1.512,0,0,1,.918.551,1.623,1.623,0,0,1,.266,1.564,1.665,1.665,0,0,1-2.1,1.065,1.663,1.663,0,0,1-1.066-1.065,1.619,1.619,0,0,1,.266-1.564,1.511,1.511,0,0,1,.918-.551,1,1,0,0,1,.386,0c-.006,0-.133.039-.354.115a1.5,1.5,0,0,0-.76.563,1.38,1.38,0,0,0,.308,1.927,1.38,1.38,0,0,0,1.927-.307,1.381,1.381,0,0,0,0-1.62,1.5,1.5,0,0,0-.759-.563C2871.941-2483.9,2871.8-2483.909,2871.8-2483.941Z" transform="translate(-2541.911 2502.796)" fill="#27456e"/>
      <path id="Path_172845" data-name="Path 172845" d="M2872.809-2481.547c-.07.063-.412-.171-.772-.532l-.044-.05v-.076c0-.513.07-.925.164-.925s.165.412.165.925h0l-.051-.121C2872.631-2481.953,2872.872-2481.611,2872.809-2481.547Z" transform="translate(-2542.392 2502.58)" fill="#27456e"/>
      <path id="Path_172846" data-name="Path 172846" d="M2806.305-2481.194c0,.095-10.515.165-23.481.165s-23.481-.07-23.481-.165,10.516-.164,23.488-.164S2806.305-2481.282,2806.305-2481.194Z" transform="translate(-2513.469 2502.125)" fill="#27456e"/>
      <path id="Path_172847" data-name="Path 172847" d="M2755.072-2481.775a1.854,1.854,0,0,1-1.848,1.861,1.855,1.855,0,0,1-1.862-1.849,1.855,1.855,0,0,1,1.848-1.861h.013A1.856,1.856,0,0,1,2755.072-2481.775Z" transform="translate(-2511.419 2502.707)" fill="#27456e"/>
      <path id="Path_172848" data-name="Path 172848" d="M2841.26-2428.868a5.325,5.325,0,0,0,.83-.1,4.839,4.839,0,0,0,2.2-.981,4.939,4.939,0,0,0,1.9-3.349c.063-1.557,0-3.38,0-5.426,0-8.173-.032-19.992-.051-34.6v-14.466a4.881,4.881,0,0,0-3.761-4.242,6.985,6.985,0,0,0-1.551-.12h-91.853a4.8,4.8,0,0,0-3.577,1.589,4.965,4.965,0,0,0-1.266,3.7v52.749a5.235,5.235,0,0,0,.24,1.747,4.813,4.813,0,0,0,2.134,2.658,4.94,4.94,0,0,0,1.614.6,9.856,9.856,0,0,0,1.741.076h20.259l23.847.032,34.6.057h9.4l-9.4.031-34.6.051h-44.151a9.565,9.565,0,0,1-1.792-.082,5.1,5.1,0,0,1-3.988-3.457,5.658,5.658,0,0,1-.254-1.836v-52.59a5.918,5.918,0,0,1,.26-2.089,5.153,5.153,0,0,1,4.894-3.533h91.878a6.906,6.906,0,0,1,1.608.133,5.13,5.13,0,0,1,2.722,1.621,5.2,5.2,0,0,1,1.266,2.855c.051,1.038,0,2.026,0,3.032v11.458c0,14.605-.045,26.425-.057,34.6,0,2.045,0,3.856-.044,5.438a5.066,5.066,0,0,1-1.931,3.394,4.976,4.976,0,0,1-2.235.963,3.9,3.9,0,0,1-.633.051Z" transform="translate(-2509.469 2504.972)" fill="#27456e"/>
      <circle id="Ellipse_4869" data-name="Ellipse 4869" cx="6.799" cy="6.799" r="6.799" transform="translate(280.536 28.098)" fill="#27456e"/>
      <path id="Path_172849" data-name="Path 172849" d="M2656.963-2472.028a3.413,3.413,0,0,0,1.607-.583,3.051,3.051,0,0,0,1.146-1.684,4.967,4.967,0,0,0,.095-1.329v-1.545c0-4.4.044-10.711.082-18.5,0-1.95,0-4,.038-6.129v-3.26a9.151,9.151,0,0,0-.056-1.627,2.675,2.675,0,0,0-.7-1.336,2.573,2.573,0,0,0-1.405-.772,13.776,13.776,0,0,0-1.715-.031h-3.615l-7.546.044-33.6.183a2.735,2.735,0,0,0-2.653,2.532q0,2.19-.057,4.362-.038,4.349-.082,8.572c-.064,5.622-.12,11.041-.171,16.207v1.9a2.924,2.924,0,0,0,.418,1.678,2.661,2.661,0,0,0,1.266,1.07,4.553,4.553,0,0,0,1.735.165h44.765a2.386,2.386,0,0,1,.45,0,3.215,3.215,0,0,1-.45,0l-1.272.177-5.033.076-18.5.183-12.782.1-7.116.051a5.066,5.066,0,0,1-1.9-.2,3.169,3.169,0,0,1-1.551-1.266,3.438,3.438,0,0,1-.5-1.95v-1.9c.044-5.166.095-10.592.14-16.213q.038-4.217.076-8.573,0-2.184.057-4.431a3.312,3.312,0,0,1,3.216-3.052l33.566-.177h11.167a13.527,13.527,0,0,1,1.8.057,3.085,3.085,0,0,1,1.633.874,3.282,3.282,0,0,1,.848,1.6,9.331,9.331,0,0,1,.051,1.722c0,1.107,0,2.2-.038,3.26q-.038,3.2-.076,6.135c-.114,7.787-.2,14.105-.266,18.5,0,.551,0,1.063-.031,1.551a4.846,4.846,0,0,1-.133,1.368,3.168,3.168,0,0,1-1.235,1.735,2.873,2.873,0,0,1-1.229.475A1.705,1.705,0,0,1,2656.963-2472.028Z" transform="translate(-2474.573 2509.3)" fill="#00ceeb"/>
      <path id="Path_172850" data-name="Path 172850" d="M2643.591-2489.478l6.242,3.748-6.344,3.767-6.344,3.76.1-7.514.1-7.515Z" transform="translate(-2482.093 2505.174)" fill="#00ceeb"/>
    </g>
  </g>
</svg>
