<svg xmlns="http://www.w3.org/2000/svg" width="102" height="102" viewBox="0 0 102 102">
  <g id="t3-c4" transform="translate(-1189 -3981.5)">
    <rect id="Rectangle_36960" data-name="Rectangle 36960" width="102" height="102" rx="50" transform="translate(1189 3981.5)" fill="#fff"/>
    <g id="Filledoutline" transform="translate(1184 3976.5)">
      <path id="Path_174036" data-name="Path 174036" d="M4.571,0H27.358A4.571,4.571,0,0,1,31.93,4.571V52.446a4.571,4.571,0,0,1-4.571,4.571H4.571A4.571,4.571,0,0,1,0,52.446V4.571A4.571,4.571,0,0,1,4.571,0Z" transform="translate(41.105 30.842)" fill="#00ceeb"/>
      <path id="Path_174035" data-name="Path 174035" d="M2.286,0H50.17a2.286,2.286,0,0,1,2.286,2.286v22.8a2.286,2.286,0,0,1-2.286,2.286H2.286A2.286,2.286,0,0,1,0,25.083V2.286A2.286,2.286,0,0,1,2.286,0Z" transform="translate(70.754 33.123) rotate(90)" fill="#77e7f7"/>
      <path id="Path_173983" data-name="Path 173983" d="M274.281,47.965h4.561v3.421l4.561-3.421h13.684a2.281,2.281,0,0,0,2.281-2.281v-11.4A2.281,2.281,0,0,0,297.088,32H274.281A2.281,2.281,0,0,0,272,34.281v11.4A2.281,2.281,0,0,0,274.281,47.965Z" transform="translate(-212.649 -6.86)" fill="#ffcf19"/>
      <path id="Path_173984" data-name="Path 173984" d="M57.088,151.965H52.526v3.421l-4.561-3.421H34.281A2.281,2.281,0,0,1,32,149.684v-11.4A2.281,2.281,0,0,1,34.281,136H57.088a2.281,2.281,0,0,1,2.281,2.281v11.4A2.281,2.281,0,0,1,57.088,151.965Z" transform="translate(-6.86 -96.035)" fill="#a6ffe3"/>
      <path id="Path_173985" data-name="Path 173985" d="M274.281,255.965h4.561v3.421l4.561-3.421h13.684a2.281,2.281,0,0,0,2.281-2.281v-11.4A2.281,2.281,0,0,0,297.088,240H274.281A2.281,2.281,0,0,0,272,242.281v11.4A2.281,2.281,0,0,0,274.281,255.965Z" transform="translate(-212.649 -185.211)" fill="#ffe47a"/>
      <path id="Path_173986" data-name="Path 173986" d="M248,424h2.281v2.281H248Z" transform="translate(-192.07 -342.982)"/>
      <path id="Path_173987" data-name="Path 173987" d="M232,104h2.281v2.281H232Z" transform="translate(-178.351 -68.596)"/>
      <path id="Path_173988" data-name="Path 173988" d="M84.439,42.246a3.425,3.425,0,0,0,3.421-3.421v-11.4A3.425,3.425,0,0,0,84.439,24H61.632a3.425,3.425,0,0,0-3.421,3.421V29.7H45.667a5.708,5.708,0,0,0-5.7,5.7v3.421H27.421A3.425,3.425,0,0,0,24,42.246v11.4a3.425,3.425,0,0,0,3.421,3.421H39.965v4.561H36.544a4.567,4.567,0,0,0-4.561,4.561v9.791L30.036,77.93l1.613,1.613,2.281-2.281a1.14,1.14,0,0,0,.334-.806V66.193a2.283,2.283,0,0,1,2.281-2.281h3.421v2.949l-1.947,1.947,1.613,1.613,5.132-5.132A1.279,1.279,0,1,1,46.571,67.1l-5.132,5.132a1.14,1.14,0,0,0,0,1.613,5.317,5.317,0,0,1,0,7.51l-5.7,5.7,1.613,1.613,3.091-3.091A5.709,5.709,0,0,0,45.667,89H68.474a5.708,5.708,0,0,0,5.7-5.7v-11.4H84.439a3.425,3.425,0,0,0,3.421-3.421V57.07a3.425,3.425,0,0,0-3.421-3.421H74.175v-11.4ZM60.491,27.421a1.142,1.142,0,0,1,1.14-1.14H84.439a1.142,1.142,0,0,1,1.14,1.14v11.4a1.142,1.142,0,0,1-1.14,1.14H70.754a1.141,1.141,0,0,0-.684.228l-2.737,2.053v-1.14a1.14,1.14,0,0,0-1.14-1.14H61.632a1.142,1.142,0,0,1-1.14-1.14ZM26.281,53.649v-11.4a1.142,1.142,0,0,1,1.14-1.14H50.228a1.142,1.142,0,0,1,1.14,1.14v11.4a1.142,1.142,0,0,1-1.14,1.14H45.667a1.14,1.14,0,0,0-1.14,1.14v1.14l-2.737-2.053a1.141,1.141,0,0,0-.684-.228H27.421A1.142,1.142,0,0,1,26.281,53.649Zm59.3,3.421v11.4a1.142,1.142,0,0,1-1.14,1.14H70.754a1.141,1.141,0,0,0-.684.228l-2.737,2.053v-1.14a1.14,1.14,0,0,0-1.14-1.14H61.632a1.142,1.142,0,0,1-1.14-1.14V57.07a1.142,1.142,0,0,1,1.14-1.14H84.439A1.142,1.142,0,0,1,85.579,57.07ZM71.895,53.649H61.632a3.425,3.425,0,0,0-3.421,3.421v11.4a3.425,3.425,0,0,0,3.421,3.421h3.421v2.281a1.14,1.14,0,0,0,1.825.912l4.257-3.193h.76V83.3a3.425,3.425,0,0,1-3.421,3.421H45.667a3.425,3.425,0,0,1-3.391-2.978l.777-.777A7.6,7.6,0,0,0,43.8,73.1l4.386-4.386a3.559,3.559,0,1,0-5.034-5.034l-.9.9v-6.37l2.737,2.053a1.14,1.14,0,0,0,1.825-.912V57.07h3.421a3.425,3.425,0,0,0,3.421-3.421v-11.4a3.425,3.425,0,0,0-3.421-3.421H42.246V35.4a3.425,3.425,0,0,1,3.421-3.421H58.211v6.842a3.425,3.425,0,0,0,3.421,3.421h3.421v2.281a1.14,1.14,0,0,0,1.825.912l4.257-3.193h.76Z"/>
      <path id="Path_173989" data-name="Path 173989" d="M352,64h11.4v2.281H352Z" transform="translate(-281.246 -34.298)"/>
      <path id="Path_173990" data-name="Path 173990" d="M304,96h18.246v2.281H304Z" transform="translate(-240.088 -61.737)"/>
      <path id="Path_173991" data-name="Path 173991" d="M320,64h2.281v2.281H320Z" transform="translate(-253.807 -34.298)"/>
      <path id="Path_173992" data-name="Path 173992" d="M352,272h11.4v2.281H352Z" transform="translate(-281.246 -212.649)"/>
      <path id="Path_173993" data-name="Path 173993" d="M304,304h18.246v2.281H304Z" transform="translate(-240.088 -240.088)"/>
      <path id="Path_173994" data-name="Path 173994" d="M320,272h2.281v2.281H320Z" transform="translate(-253.807 -212.649)"/>
      <path id="Path_173995" data-name="Path 173995" d="M112,168h11.4v2.281H112Z" transform="translate(-75.456 -123.474)"/>
      <path id="Path_173996" data-name="Path 173996" d="M64,200H82.246v2.281H64Z" transform="translate(-34.298 -150.912)"/>
      <path id="Path_173997" data-name="Path 173997" d="M80,168h2.281v2.281H80Z" transform="translate(-48.018 -123.474)"/>
    </g>
  </g>
</svg>
