<svg xmlns="http://www.w3.org/2000/svg" width="102" height="102" viewBox="0 0 102 102">
  <g id="t3-c8" transform="translate(1856 7727)">
    <rect id="Rectangle_36974" data-name="Rectangle 36974" width="102" height="102" rx="50" transform="translate(-1856 -7727)" fill="#fff"/>
    <g id="context" transform="translate(-1845.75 -7708)">
      <g id="Group_114134" data-name="Group 114134" transform="translate(11.02 1.27)">
        <path id="Path_174037" data-name="Path 174037" d="M64.184,41.613V20.156L54.027,10H21.02a1.27,1.27,0,0,0-1.27,1.27V71.191a1.27,1.27,0,0,0,1.27,1.27H64.184Z" transform="translate(-19.75 -10)" fill="#f6f6f6"/>
        <circle id="Ellipse_4872" data-name="Ellipse 4872" cx="15.425" cy="15.425" r="15.425" transform="translate(29.136 31.611)" fill="#22f0b0"/>
        <g id="Group_114133" data-name="Group 114133" transform="translate(34.288 37.573)">
          <circle id="Ellipse_4873" data-name="Ellipse 4873" cx="2.539" cy="2.539" r="2.539" transform="translate(11.15)" fill="#fff"/>
          <circle id="Ellipse_4874" data-name="Ellipse 4874" cx="2.539" cy="2.539" r="2.539" transform="translate(11.15 13.849)" fill="#fff"/>
          <circle id="Ellipse_4875" data-name="Ellipse 4875" cx="2.539" cy="2.539" r="2.539" transform="translate(0 6.924)" fill="#fff"/>
        </g>
        <path id="Path_174038" data-name="Path 174038" d="M73.633,315.941H90.025v16.392H73.633Z" transform="translate(-66.792 -277.101)" fill="#ffcf19"/>
        <path id="Path_174039" data-name="Path 174039" d="M299.906,20.156H291.02a1.27,1.27,0,0,1-1.27-1.27V10Z" transform="translate(-255.473 -10)" fill="#e8b700"/>
      </g>
      <g id="Group_114135" data-name="Group 114135" transform="translate(9.75)">
        <circle id="Ellipse_4876" data-name="Ellipse 4876" cx="1.27" cy="1.27" r="1.27" transform="translate(22.217)"/>
        <path id="Path_174040" data-name="Path 174040" d="M56.723,31.651V11.426a1.27,1.27,0,0,0-.372-.9L46.195.372A1.27,1.27,0,0,0,45.3,0H39.032a1.27,1.27,0,1,0,0,2.539h5v7.617A2.542,2.542,0,0,0,46.566,12.7h7.617V31.67A16.69,16.69,0,0,0,46.74,62.461H12.289V2.539H27.522a1.27,1.27,0,0,0,0-2.539H12.289A2.542,2.542,0,0,0,9.75,2.539V62.461A2.542,2.542,0,0,0,12.289,65H55.58a16.694,16.694,0,0,0,1.143-33.349ZM46.566,4.335l5.822,5.822H46.566ZM55.58,62.461A14.155,14.155,0,1,1,69.735,48.306,14.171,14.171,0,0,1,55.58,62.461Z" transform="translate(-9.75)"/>
        <path id="Path_174041" data-name="Path 174041" d="M294.795,303.574a3.812,3.812,0,1,0-3.72-2.994l-5.052,3.138a3.809,3.809,0,1,0,0,5.943l2.121,1.317,2.931,1.82a3.816,3.816,0,1,0,1.341-2.156l-2.933-1.821-2.119-1.316a3.786,3.786,0,0,0,0-1.632l5.052-3.137a3.788,3.788,0,0,0,2.379.838Zm1.27,10.04a1.27,1.27,0,1,1-1.27-1.27A1.271,1.271,0,0,1,296.064,313.614Zm-1.27-15.118a1.27,1.27,0,1,1-1.27,1.27A1.271,1.271,0,0,1,294.795,298.5Zm-12.42,8.194a1.27,1.27,0,1,1,1.27,1.27A1.271,1.271,0,0,1,282.375,306.69Z" transform="translate(-245.548 -258.384)"/>
        <path id="Path_174042" data-name="Path 174042" d="M64.9,305.941a1.27,1.27,0,0,0-1.27,1.27V323.6a1.27,1.27,0,0,0,1.27,1.27H81.294a1.27,1.27,0,0,0,1.27-1.27V307.211a1.27,1.27,0,0,0-1.27-1.27Zm15.122,16.392H66.172V308.48H80.025Z" transform="translate(-56.792 -267.101)"/>
        <path id="Path_174043" data-name="Path 174043" d="M96.488,130H66.02a1.27,1.27,0,0,0,0,2.539H96.488a1.27,1.27,0,0,0,0-2.539Z" transform="translate(-57.768 -113.496)"/>
        <path id="Path_174044" data-name="Path 174044" d="M97.758,186.686a1.27,1.27,0,0,0-1.27-1.27H66.02a1.27,1.27,0,0,0,0,2.539H96.488A1.27,1.27,0,0,0,97.758,186.686Z" transform="translate(-57.768 -161.877)"/>
        <path id="Path_174045" data-name="Path 174045" d="M87.358,242.1a1.27,1.27,0,0,0-1.27-1.27H66.02a1.27,1.27,0,1,0,0,2.539H86.088A1.27,1.27,0,0,0,87.358,242.1Z" transform="translate(-57.768 -210.258)"/>
        <path id="Path_174046" data-name="Path 174046" d="M86.088,80H66.02a1.27,1.27,0,0,0,0,2.539H86.088a1.27,1.27,0,0,0,0-2.539Z" transform="translate(-57.768 -69.844)"/>
      </g>
    </g>
  </g>
</svg>
