<svg xmlns="http://www.w3.org/2000/svg" width="102" height="102" viewBox="0 0 102 102">
  <g id="t3-c6" transform="translate(2442 7727)">
    <rect id="Rectangle_36972" data-name="Rectangle 36972" width="102" height="102" rx="50" transform="translate(-2442 -7727)" fill="#fff"/>
    <g id="_027---Forum" data-name="027---Forum" transform="translate(-2422 -7707)">
      <g id="Layer_3" transform="translate(1.033 1.033)">
        <path id="Shape" d="M59.933,3.1V8.267H0V3.1A3.1,3.1,0,0,1,3.1,0H56.833A3.1,3.1,0,0,1,59.933,3.1Z" transform="translate(0 0)" fill="#ffe47a"/>
        <path id="Shape-2" data-name="Shape" d="M55.1,0H52a3.1,3.1,0,0,1,3.1,3.1V8.267h3.1V3.1A3.1,3.1,0,0,0,55.1,0Z" transform="translate(1.733 0)" fill="#ffcf19"/>
        <path id="Shape-3" data-name="Shape" d="M59.933,8V56.567a3.1,3.1,0,0,1-3.1,3.1H3.1a3.1,3.1,0,0,1-3.1-3.1V8Z" transform="translate(0 0.267)" fill="#77e7f7"/>
        <path id="Shape-4" data-name="Shape" d="M55.1,8V56.567a3.1,3.1,0,0,1-3.1,3.1h3.1a3.1,3.1,0,0,0,3.1-3.1V8Z" transform="translate(1.733 0.267)" fill="#00ceeb"/>
        <path id="Shape-5" data-name="Shape" d="M44.3,15.067v6.2a2.073,2.073,0,0,1-2.067,2.067H9.167A2.073,2.073,0,0,1,7.1,21.267V20.233L4.264,18.617a.517.517,0,0,1,0-.9L7.1,16.1V15.067A2.073,2.073,0,0,1,9.167,13H42.233A2.073,2.073,0,0,1,44.3,15.067Z" transform="translate(0.133 0.433)" fill="#f3f9ff"/>
        <path id="Shape-6" data-name="Shape" d="M49.3,30.067v6.2a2.073,2.073,0,0,1-2.067,2.067H14.167A2.073,2.073,0,0,1,12.1,36.267V35.233l-2.84-1.616a.517.517,0,0,1,0-.9L12.1,31.1V30.067A2.073,2.073,0,0,1,14.167,28H47.233A2.073,2.073,0,0,1,49.3,30.067Z" transform="translate(0.3 0.933)" fill="#ffcf19"/>
        <path id="Shape-7" data-name="Shape" d="M55.3,45.067v6.2a2.073,2.073,0,0,1-2.067,2.067H20.167A2.073,2.073,0,0,1,18.1,51.267V50.233l-2.84-1.616a.517.517,0,0,1,0-.9L18.1,46.1V45.067A2.073,2.073,0,0,1,20.167,43H53.233A2.073,2.073,0,0,1,55.3,45.067Z" transform="translate(0.5 1.433)" fill="#c7ffed"/>
      </g>
      <g id="Layer_11">
        <path id="Shape-8" data-name="Shape" d="M57.867,0H4.133A4.133,4.133,0,0,0,0,4.133V57.867A4.133,4.133,0,0,0,4.133,62H57.867A4.133,4.133,0,0,0,62,57.867V4.133A4.133,4.133,0,0,0,57.867,0ZM4.133,2.067H57.867a2.067,2.067,0,0,1,2.067,2.067V8.267H2.067V4.133A2.067,2.067,0,0,1,4.133,2.067ZM57.867,59.933H4.133a2.067,2.067,0,0,1-2.067-2.067V10.333H59.933V57.867A2.067,2.067,0,0,1,57.867,59.933Z"/>
        <circle id="Oval" cx="1.016" cy="1.016" r="1.016" transform="translate(4.066 4.066)"/>
        <circle id="Oval-2" data-name="Oval" cx="1.016" cy="1.016" r="1.016" transform="translate(8.131 4.066)"/>
        <circle id="Oval-3" data-name="Oval" cx="1.016" cy="1.016" r="1.016" transform="translate(12.197 4.066)"/>
        <path id="Shape-9" data-name="Shape" d="M43.267,25.4a3.1,3.1,0,0,0,3.1-3.1V16.1a3.1,3.1,0,0,0-3.1-3.1H10.2a3.1,3.1,0,0,0-3.1,3.1v.432L4.794,17.847a1.55,1.55,0,0,0-.007,2.7L7.1,21.868V22.3a3.1,3.1,0,0,0,3.1,3.1Zm-34.1-3.1V21.267a1.033,1.033,0,0,0-.522-.9L6.595,19.2,8.65,18.031a1.033,1.033,0,0,0,.517-.9V16.1A1.033,1.033,0,0,1,10.2,15.067H43.267A1.033,1.033,0,0,1,44.3,16.1v6.2a1.033,1.033,0,0,1-1.033,1.033H10.2A1.033,1.033,0,0,1,9.167,22.3Z" transform="translate(0.133 0.433)"/>
        <path id="Shape-10" data-name="Shape" d="M12.033,20.067h1.033a1.033,1.033,0,1,0,0-2.067H12.033a1.033,1.033,0,1,0,0,2.067Z" transform="translate(0.367 0.6)"/>
        <path id="Shape-11" data-name="Shape" d="M28.033,20.067H30.1A1.033,1.033,0,0,0,30.1,18H28.033a1.033,1.033,0,0,0,0,2.067Z" transform="translate(0.9 0.6)"/>
        <path id="Shape-12" data-name="Shape" d="M34.033,20.067h6.2a1.033,1.033,0,1,0,0-2.067h-6.2a1.033,1.033,0,0,0,0,2.067Z" transform="translate(1.1 0.6)"/>
        <path id="Shape-13" data-name="Shape" d="M17.033,20.067h7.233a1.033,1.033,0,0,0,0-2.067H17.033a1.033,1.033,0,1,0,0,2.067Z" transform="translate(0.533 0.6)"/>
        <path id="Shape-14" data-name="Shape" d="M48.267,40.4a3.1,3.1,0,0,0,3.1-3.1V31.1a3.1,3.1,0,0,0-3.1-3.1H15.2a3.1,3.1,0,0,0-3.1,3.1v.432L9.794,32.847a1.55,1.55,0,0,0-.007,2.7l2.314,1.32V37.3a3.1,3.1,0,0,0,3.1,3.1Zm-34.1-3.1V36.267a1.033,1.033,0,0,0-.522-.9L11.595,34.2l2.055-1.169a1.033,1.033,0,0,0,.517-.9V31.1A1.033,1.033,0,0,1,15.2,30.067H48.267A1.033,1.033,0,0,1,49.3,31.1v6.2a1.033,1.033,0,0,1-1.033,1.033H15.2A1.033,1.033,0,0,1,14.167,37.3Z" transform="translate(0.3 0.933)"/>
        <path id="Shape-15" data-name="Shape" d="M17.033,35.067h1.033a1.033,1.033,0,1,0,0-2.067H17.033a1.033,1.033,0,1,0,0,2.067Z" transform="translate(0.533 1.1)"/>
        <path id="Shape-16" data-name="Shape" d="M33.033,35.067H35.1A1.033,1.033,0,0,0,35.1,33H33.033a1.033,1.033,0,1,0,0,2.067Z" transform="translate(1.067 1.1)"/>
        <path id="Shape-17" data-name="Shape" d="M39.033,35.067h6.2a1.033,1.033,0,0,0,0-2.067h-6.2a1.033,1.033,0,0,0,0,2.067Z" transform="translate(1.267 1.1)"/>
        <path id="Shape-18" data-name="Shape" d="M22.033,35.067h7.233a1.033,1.033,0,0,0,0-2.067H22.033a1.033,1.033,0,1,0,0,2.067Z" transform="translate(0.7 1.1)"/>
        <path id="Shape-19" data-name="Shape" d="M54.267,43H21.2a3.1,3.1,0,0,0-3.1,3.1v.432l-2.309,1.315a1.55,1.55,0,0,0-.007,2.7l2.317,1.32V52.3a3.1,3.1,0,0,0,3.1,3.1H54.267a3.1,3.1,0,0,0,3.1-3.1V46.1A3.1,3.1,0,0,0,54.267,43ZM55.3,52.3a1.033,1.033,0,0,1-1.033,1.033H21.2A1.033,1.033,0,0,1,20.167,52.3V51.267a1.033,1.033,0,0,0-.517-.9L17.595,49.2l2.055-1.169a1.033,1.033,0,0,0,.517-.9V46.1A1.033,1.033,0,0,1,21.2,45.067H54.267A1.033,1.033,0,0,1,55.3,46.1Z" transform="translate(0.5 1.433)"/>
        <path id="Shape-20" data-name="Shape" d="M24.067,48H23.033a1.033,1.033,0,1,0,0,2.067h1.033a1.033,1.033,0,1,0,0-2.067Z" transform="translate(0.733 1.6)"/>
        <path id="Shape-21" data-name="Shape" d="M41.1,48H39.033a1.033,1.033,0,0,0,0,2.067H41.1A1.033,1.033,0,1,0,41.1,48Z" transform="translate(1.267 1.6)"/>
        <path id="Shape-22" data-name="Shape" d="M51.233,48h-6.2a1.033,1.033,0,1,0,0,2.067h6.2a1.033,1.033,0,1,0,0-2.067Z" transform="translate(1.467 1.6)"/>
        <path id="Shape-23" data-name="Shape" d="M35.267,48H28.033a1.033,1.033,0,1,0,0,2.067h7.233a1.033,1.033,0,1,0,0-2.067Z" transform="translate(0.9 1.6)"/>
      </g>
    </g>
  </g>
</svg>
