<svg xmlns="http://www.w3.org/2000/svg" width="102" height="102" viewBox="0 0 102 102">
  <g id="t3-c5" transform="translate(2736 7727)">
    <rect id="Rectangle_36971" data-name="Rectangle 36971" width="102" height="102" rx="50" transform="translate(-2736 -7727)" fill="#fff"/>
    <g id="email" transform="translate(-2717 -7763.174)">
      <path id="Path_174047" data-name="Path 174047" d="M105.461,102.017H90.5L81.15,93.6V69.668h33.661V93.6Z" transform="translate(-70.848 -6.543)" fill="#eaf6ff"/>
      <path id="Path_174048" data-name="Path 174048" d="M106.869,100.751l-1.41,1.269H90.5l-9.35-8.415V69.672h2.538V92.336l9.35,8.415Z" transform="translate(-70.845 -6.546)" fill="#d8ecfe"/>
      <path id="Path_174049" data-name="Path 174049" d="M7.5,153.324l9.35-5.61V161.74Z" transform="translate(-6.546 -74.68)" fill="#e8b700"/>
      <path id="Path_174050" data-name="Path 174050" d="M7.5,223.7V191.9l18.7,16.831Z" transform="translate(-6.546 -113.261)" fill="#ffe47a"/>
      <path id="Path_174051" data-name="Path 174051" d="M10.033,194.186v27.477l-2.538,2.031V191.9Z" transform="translate(-6.543 -113.258)" fill="#e8b700"/>
      <path id="Path_174052" data-name="Path 174052" d="M291.346,223.7V191.9l-18.7,16.831Z" transform="translate(-238.032 -113.261)" fill="#ffe47a"/>
      <path id="Path_174053" data-name="Path 174053" d="M7.5,339.44H59.86l-18.7-14.961H26.2Z" transform="translate(-6.546 -229.005)" fill="#ffcf19"/>
      <path id="Path_174054" data-name="Path 174054" d="M59.858,424.872H7.495l3.173-2.538H56.685Z" transform="translate(-6.543 -314.437)" fill="#e8b700"/>
      <circle id="Ellipse_4877" data-name="Ellipse 4877" cx="10.842" cy="10.842" r="10.842" transform="translate(42.563 67.083)" fill="#a6ffe3"/>
      <path id="Path_174055" data-name="Path 174055" d="M337.808,111.685a10.843,10.843,0,0,1,9.572-10.768,10.842,10.842,0,1,0,0,21.536A10.844,10.844,0,0,1,337.808,111.685Z" transform="translate(-292.706 -33.76)" fill="#2effc0"/>
      <g id="Group_114136" data-name="Group 114136" transform="translate(0 62.174)">
        <path id="Path_174056" data-name="Path 174056" d="M64.229,79.064a.952.952,0,0,0-1.116.754,9.89,9.89,0,1,1,0-3.786.952.952,0,0,0,1.869-.362,11.787,11.787,0,0,0-20.067-5.922V63.126a.952.952,0,0,0-.952-.952H19.011a.952.952,0,1,0,0,1.9h24v8.279a11.775,11.775,0,0,0,0,11.137v3.141l-8.685,7.817-.078.07H20.018l-8.764-7.887V64.078h3.61a.952.952,0,0,0,0-1.9H10.3a.952.952,0,0,0-.952.952v9.369L.462,77.827A.967.967,0,0,0,0,78.644v31.791a.966.966,0,0,0,.952.953H33.671a.952.952,0,0,0,0-1.9H3.665L19.987,96.426H34.28L50.6,109.484H37.818a.952.952,0,0,0,0,1.9h15.5a.965.965,0,0,0,.952-.952V89.684a11.8,11.8,0,0,0,10.716-9.5.952.952,0,0,0-.753-1.116ZM36.084,95.432l.049-.044,9.528-8.576a11.746,11.746,0,0,0,6.7,2.86v18.783ZM1.9,108.455V80.781L18.182,95.432ZM9.35,84.921,2.546,78.8l6.8-4.083Z" transform="translate(0 -62.174)"/>
        <path id="Path_174057" data-name="Path 174057" d="M397.041,153.257a.952.952,0,1,0,0,1.9h4.337a.952.952,0,0,0,0-1.9h-1.216v-7.722a.952.952,0,0,0-.952-.952h-2.168a.952.952,0,1,0,0,1.9h1.217v6.77Z" transform="translate(-345.804 -134.122)"/>
        <path id="Path_174058" data-name="Path 174058" d="M126.869,126.3H146.73a.952.952,0,0,0,0-1.9H126.869a.952.952,0,0,0,0,1.9Z" transform="translate(-109.931 -116.499)"/>
        <path id="Path_174059" data-name="Path 174059" d="M126.869,156.308H146.73a.952.952,0,0,0,0-1.9H126.869a.952.952,0,1,0,0,1.9Z" transform="translate(-109.931 -142.695)"/>
        <path id="Path_174060" data-name="Path 174060" d="M126.869,188.413H146.73a.952.952,0,0,0,0-1.9H126.869a.952.952,0,1,0,0,1.9Z" transform="translate(-109.931 -170.724)"/>
        <path id="Path_174061" data-name="Path 174061" d="M126.869,219.467H146.73a.952.952,0,0,0,0-1.9H126.869a.952.952,0,1,0,0,1.9Z" transform="translate(-109.931 -197.836)"/>
        <path id="Path_174062" data-name="Path 174062" d="M126.869,250.4H146.73a.952.952,0,0,0,0-1.9H126.869a.952.952,0,1,0,0,1.9Z" transform="translate(-109.931 -224.844)"/>
      </g>
    </g>
  </g>
</svg>
