<svg xmlns="http://www.w3.org/2000/svg" width="102" height="102" viewBox="0 0 102 102">
  <g id="t3-c1" transform="translate(-309 -3981.5)">
    <rect id="Rectangle_36948" data-name="Rectangle 36948" width="102" height="102" rx="50" transform="translate(309 3981.5)" fill="#fff"/>
    <g id="chatting" transform="translate(298.904 4000.5)">
      <g id="Group_114129" data-name="Group 114129" transform="translate(34.048 0.953)">
        <path id="Path_173947" data-name="Path 173947" d="M211.273,284.276H197.827l-.837.334-2.916,2.708H179.555l-1.518.826c0,.046,0,.091,0,.137v13.425a4.017,4.017,0,0,0,4.005,4.005h20.138a1.229,1.229,0,0,1,1.229,1.229v4.426a.866.866,0,0,0,1.53.554l4.809-5.767a1.229,1.229,0,0,1,.944-.442h.583a4.017,4.017,0,0,0,4.005-4.005V288.281A4.017,4.017,0,0,0,211.273,284.276Z" transform="translate(-160.586 -249.139)" fill="#77e7f7"/>
        <g id="Group_114127" data-name="Group 114127" transform="translate(17.448 38.179)">
          <path id="Path_173948" data-name="Path 173948" d="M374.367,454.36a1.229,1.229,0,0,0-1.229-1.229h-4.922a1.229,1.229,0,0,1,1.229,1.229v4.426a.866.866,0,0,0,1.53.554l3.391-4.067Z" transform="translate(-344.072 -434.737)" fill="#00ceeb"/>
          <path id="Path_173949" data-name="Path 173949" d="M182.956,322.63V309.2c0-.046,0-.092,0-.137l1.518-.826h-4.922l-1.518.826c0,.046,0,.091,0,.137V322.63a4.017,4.017,0,0,0,4.005,4.005h4.922A4.017,4.017,0,0,1,182.956,322.63Z" transform="translate(-178.034 -308.242)" fill="#00ceeb"/>
        </g>
        <path id="Path_173950" data-name="Path 173950" d="M77.837,149.758l-1.028-.713H61.419l-2.911-2.793-.46-.362H44.6A4.017,4.017,0,0,0,40.6,149.9v13.425a4.017,4.017,0,0,0,4.005,4.005h.583a1.229,1.229,0,0,1,.944.442l4.809,5.767a.866.866,0,0,0,1.53-.554v-4.426a1.229,1.229,0,0,1,1.229-1.229H73.835a4.017,4.017,0,0,0,4.005-4.005V149.9c0-.046,0-.092,0-.137Z" transform="translate(-40.596 -128.322)" fill="#ffcf19"/>
        <path id="Path_173951" data-name="Path 173951" d="M51.051,167.768a1.229,1.229,0,0,0-.944-.442h-.583a4.017,4.017,0,0,1-4.005-4.005V149.9a4.017,4.017,0,0,1,4.005-4.005H44.6A4.017,4.017,0,0,0,40.6,149.9v13.425a4.017,4.017,0,0,0,4.005,4.005h.583a1.229,1.229,0,0,1,.944.442l4.809,5.767a.866.866,0,0,0,1.53-.554v-3.513Z" transform="translate(-40.596 -128.322)" fill="#e8b700"/>
        <path id="Path_173952" data-name="Path 173952" d="M211.273,7.5H182.039a4.017,4.017,0,0,0-4.005,4.005V24.935a4.017,4.017,0,0,0,4.005,4.005h20.138a1.229,1.229,0,0,1,1.229,1.229v4.426a.866.866,0,0,0,1.53.554l4.809-5.767a1.229,1.229,0,0,1,.944-.442h.583a4.017,4.017,0,0,0,4.005-4.005V11.509A4.017,4.017,0,0,0,211.273,7.5Z" transform="translate(-160.586 -7.504)" fill="#59ffcc"/>
        <g id="Group_114128" data-name="Group 114128" transform="translate(17.448)">
          <path id="Path_173953" data-name="Path 173953" d="M374.367,177.588a1.229,1.229,0,0,0-1.229-1.229h-4.922a1.229,1.229,0,0,1,1.229,1.229v4.426a.865.865,0,0,0,1.53.554l3.391-4.067v-.913Z" transform="translate(-344.072 -154.923)" fill="#22f0b0"/>
          <path id="Path_173954" data-name="Path 173954" d="M182.956,24.935V11.509A4.017,4.017,0,0,1,186.961,7.5h-4.922a4.017,4.017,0,0,0-4.005,4.005V24.935a4.017,4.017,0,0,0,4.005,4.005h4.922A4.017,4.017,0,0,1,182.956,24.935Z" transform="translate(-178.034 -7.504)" fill="#22f0b0"/>
        </g>
        <path id="Path_173955" data-name="Path 173955" d="M392.333,76.936h-.279l-.952,1.2v1.354l.667,1.069.564.182a2.2,2.2,0,0,0,0-3.807Z" transform="translate(-346.605 -68.122)" fill="#dbedff"/>
        <path id="Path_173956" data-name="Path 173956" d="M377,76.8a2.2,2.2,0,0,1,1.1-1.9,2.2,2.2,0,1,0,0,3.807A2.2,2.2,0,0,1,377,76.8Z" transform="translate(-332.371 -66.081)" fill="#b5dcff"/>
        <path id="Path_173957" data-name="Path 173957" d="M321.922,76.936h-.279l-.952,1.2v1.354l.667,1.069.564.182a2.2,2.2,0,0,0,0-3.807Z" transform="translate(-285.133 -68.122)" fill="#dbedff"/>
        <path id="Path_173958" data-name="Path 173958" d="M306.586,76.8a2.2,2.2,0,0,1,1.1-1.9,2.2,2.2,0,1,0,0,3.807A2.2,2.2,0,0,1,306.586,76.8Z" transform="translate(-270.898 -66.081)" fill="#b5dcff"/>
        <path id="Path_173959" data-name="Path 173959" d="M251.51,76.936h-.279l-.952,1.2v1.354l.666,1.069.564.182a2.2,2.2,0,0,0,0-3.807Z" transform="translate(-223.66 -68.122)" fill="#dbedff"/>
        <path id="Path_173960" data-name="Path 173960" d="M236.175,76.8a2.2,2.2,0,0,1,1.1-1.9,2.2,2.2,0,1,0,0,3.807A2.2,2.2,0,0,1,236.175,76.8Z" transform="translate(-209.425 -66.081)" fill="#b5dcff"/>
        <path id="Path_173961" data-name="Path 173961" d="M257.9,215.322h-.279l-.952,1.2v1.354l.667,1.069.564.182a2.2,2.2,0,0,0,0-3.807Z" transform="translate(-229.237 -188.939)" fill="#dbedff"/>
        <path id="Path_173962" data-name="Path 173962" d="M242.564,215.185a2.2,2.2,0,0,1,1.1-1.9,2.2,2.2,0,1,0,0,3.807A2.2,2.2,0,0,1,242.564,215.185Z" transform="translate(-215.002 -186.899)" fill="#b5dcff"/>
        <path id="Path_173963" data-name="Path 173963" d="M187.488,215.322h-.279l-.952,1.2v1.354l.666,1.069.564.182a2.2,2.2,0,0,0,0-3.807Z" transform="translate(-167.765 -188.939)" fill="#dbedff"/>
        <path id="Path_173964" data-name="Path 173964" d="M172.152,215.185a2.2,2.2,0,0,1,1.1-1.9,2.2,2.2,0,1,0,0,3.807A2.2,2.2,0,0,1,172.152,215.185Z" transform="translate(-153.53 -186.899)" fill="#b5dcff"/>
        <path id="Path_173965" data-name="Path 173965" d="M117.077,215.322H116.8l-.952,1.2v1.354l.666,1.069.564.182a2.2,2.2,0,0,0,0-3.807Z" transform="translate(-106.293 -188.939)" fill="#dbedff"/>
        <path id="Path_173966" data-name="Path 173966" d="M101.741,215.185a2.2,2.2,0,0,1,1.1-1.9,2.2,2.2,0,1,0,0,3.807A2.2,2.2,0,0,1,101.741,215.185Z" transform="translate(-92.058 -186.899)" fill="#b5dcff"/>
        <path id="Path_173967" data-name="Path 173967" d="M392.333,353.708h-.279l-.952,1.2v1.354l.667,1.069.564.182a2.2,2.2,0,0,0,0-3.807Z" transform="translate(-346.605 -309.757)" fill="#dbedff"/>
        <path id="Path_173968" data-name="Path 173968" d="M377,353.571a2.2,2.2,0,0,1,1.1-1.9,2.2,2.2,0,1,0,0,3.807A2.2,2.2,0,0,1,377,353.571Z" transform="translate(-332.371 -307.717)" fill="#b5dcff"/>
        <path id="Path_173969" data-name="Path 173969" d="M321.922,353.708h-.279l-.952,1.2v1.354l.667,1.069.564.182a2.2,2.2,0,0,0,0-3.807Z" transform="translate(-285.133 -309.757)" fill="#dbedff"/>
        <path id="Path_173970" data-name="Path 173970" d="M306.586,353.571a2.2,2.2,0,0,1,1.1-1.9,2.2,2.2,0,1,0,0,3.807A2.2,2.2,0,0,1,306.586,353.571Z" transform="translate(-270.898 -307.717)" fill="#b5dcff"/>
        <path id="Path_173971" data-name="Path 173971" d="M251.51,353.708h-.279l-.952,1.2v1.354l.666,1.069.564.182a2.2,2.2,0,0,0,0-3.807Z" transform="translate(-223.66 -309.757)" fill="#dbedff"/>
        <path id="Path_173972" data-name="Path 173972" d="M236.175,353.571a2.2,2.2,0,0,1,1.1-1.9,2.2,2.2,0,1,0,0,3.807A2.2,2.2,0,0,1,236.175,353.571Z" transform="translate(-209.425 -307.717)" fill="#b5dcff"/>
      </g>
      <g id="Group_114130" data-name="Group 114130" transform="translate(33.096)">
        <path id="Path_173973" data-name="Path 173973" d="M226.474,70.248a3.153,3.153,0,1,0,3.153-3.153A3.156,3.156,0,0,0,226.474,70.248Zm4.4,0A1.248,1.248,0,1,1,229.627,69,1.25,1.25,0,0,1,230.875,70.248Z" transform="translate(-201.924 -58.577)"/>
        <path id="Path_173974" data-name="Path 173974" d="M296.885,70.248a3.153,3.153,0,1,0,3.153-3.153A3.156,3.156,0,0,0,296.885,70.248Zm4.4,0A1.248,1.248,0,1,1,300.038,69,1.25,1.25,0,0,1,301.286,70.248Z" transform="translate(-263.397 -58.577)"/>
        <path id="Path_173975" data-name="Path 173975" d="M367.3,70.248A3.153,3.153,0,1,0,370.45,67.1,3.156,3.156,0,0,0,367.3,70.248Zm4.4,0A1.248,1.248,0,1,1,370.45,69,1.25,1.25,0,0,1,371.7,70.248Z" transform="translate(-324.87 -58.577)"/>
        <path id="Path_173976" data-name="Path 173976" d="M226.474,347.02a3.153,3.153,0,1,0,3.153-3.153A3.156,3.156,0,0,0,226.474,347.02Zm4.4,0a1.248,1.248,0,1,1-1.248-1.248A1.25,1.25,0,0,1,230.875,347.02Z" transform="translate(-201.924 -300.213)"/>
        <path id="Path_173977" data-name="Path 173977" d="M300.038,350.172a3.153,3.153,0,1,0-3.153-3.153A3.156,3.156,0,0,0,300.038,350.172Zm0-4.4a1.248,1.248,0,1,1-1.248,1.248A1.25,1.25,0,0,1,300.038,345.771Z" transform="translate(-263.397 -300.213)"/>
        <path id="Path_173978" data-name="Path 173978" d="M370.45,350.172a3.153,3.153,0,1,0-3.153-3.153A3.156,3.156,0,0,0,370.45,350.172Zm0-4.4a1.248,1.248,0,1,1-1.248,1.248A1.25,1.25,0,0,1,370.45,345.771Z" transform="translate(-324.87 -300.213)"/>
        <path id="Path_173979" data-name="Path 173979" d="M95.193,205.48a3.153,3.153,0,1,0,3.153,3.153A3.156,3.156,0,0,0,95.193,205.48Zm0,4.4a1.248,1.248,0,1,1,1.248-1.248A1.25,1.25,0,0,1,95.193,209.881Z" transform="translate(-84.557 -179.394)"/>
        <path id="Path_173980" data-name="Path 173980" d="M165.6,205.48a3.153,3.153,0,1,0,3.153,3.153A3.156,3.156,0,0,0,165.6,205.48Zm0,4.4a1.248,1.248,0,1,1,1.248-1.248A1.25,1.25,0,0,1,165.6,209.881Z" transform="translate(-146.029 -179.394)"/>
        <path id="Path_173981" data-name="Path 173981" d="M236.015,211.786a3.153,3.153,0,1,0-3.153-3.153A3.156,3.156,0,0,0,236.015,211.786Zm0-4.4a1.248,1.248,0,1,1-1.248,1.248A1.25,1.25,0,0,1,236.015,207.385Z" transform="translate(-207.501 -179.395)"/>
        <path id="Path_173982" data-name="Path 173982" d="M84.735,0H55.5a4.963,4.963,0,0,0-4.958,4.958V17.568H38.054A4.963,4.963,0,0,0,33.1,22.526V35.951a4.963,4.963,0,0,0,4.958,4.958h.583a.276.276,0,0,1,.213.1l4.809,5.767a1.818,1.818,0,0,0,3.214-1.164V41.186a.277.277,0,0,1,.277-.277h3.395V53.52A4.963,4.963,0,0,0,55.5,58.477h7.163a.952.952,0,0,0,0-1.9H55.5a3.057,3.057,0,0,1-3.053-3.053V40.909H67.287a4.969,4.969,0,0,0,4.835-3.868H84.736a3.057,3.057,0,0,1,3.053,3.053V53.52a3.057,3.057,0,0,1-3.053,3.053h-.584a2.175,2.175,0,0,0-1.675.784L77.821,62.94V58.754a2.184,2.184,0,0,0-2.181-2.181H67.107a.952.952,0,0,0,0,1.9H75.64a.277.277,0,0,1,.277.277V63.18a1.818,1.818,0,0,0,3.214,1.164l4.809-5.767a.276.276,0,0,1,.213-.1h.584a4.963,4.963,0,0,0,4.958-4.958V40.094a4.963,4.963,0,0,0-4.958-4.958H72.245v-11.8H75.64a.277.277,0,0,1,.277.277v4.426a1.818,1.818,0,0,0,3.214,1.164l4.809-5.767a.276.276,0,0,1,.213-.1h.584a4.963,4.963,0,0,0,4.958-4.958V13.892a.952.952,0,1,0-1.9,0v4.491a3.057,3.057,0,0,1-3.053,3.053h-.584a2.175,2.175,0,0,0-1.675.784L77.821,27.8V23.618a2.184,2.184,0,0,0-2.181-2.181H55.5a3.079,3.079,0,0,1-3.053-3.053V4.958A3.057,3.057,0,0,1,55.5,1.9H84.735a3.057,3.057,0,0,1,3.053,3.053V9.449a.952.952,0,0,0,1.9,0V4.958A4.963,4.963,0,0,0,84.735,0ZM70.341,23.341c0,13.638,0,12.582,0,12.716A3.078,3.078,0,0,1,67.287,39H47.149a2.184,2.184,0,0,0-2.181,2.181v4.186l-4.655-5.583A2.176,2.176,0,0,0,38.637,39h-.583A3.057,3.057,0,0,1,35,35.951V22.526a3.057,3.057,0,0,1,3.053-3.053H50.666A4.969,4.969,0,0,0,55.5,23.341Z" transform="translate(-33.096)"/>
      </g>
    </g>
  </g>
</svg>
