<svg xmlns="http://www.w3.org/2000/svg" width="102" height="102" viewBox="0 0 102 102">
  <g id="t3-c2" transform="translate(-603 -3981.5)">
    <rect id="Rectangle_36954" data-name="Rectangle 36954" width="102" height="102" rx="50" transform="translate(603 3981.5)" fill="#fff"/>
    <g id="videoconference" transform="translate(622 4000.5)">
      <path id="Path_174013" data-name="Path 174013" d="M152,440h25.161v6.29H152Zm0,0" transform="translate(-132.081 -382.339)" fill="#b0c0d2"/>
      <path id="Path_174014" data-name="Path 174014" d="M12.194,384.387A4.192,4.192,0,0,1,8,380.194V376H21.629l3.145,2.1H70.9v2.1a4.192,4.192,0,0,1-4.194,4.194Zm0,0" transform="translate(-6.952 -326.726)" fill="#d2e1f1"/>
      <path id="Path_174015" data-name="Path 174015" d="M12.194,120A4.192,4.192,0,0,0,8,124.194v29.355H21.629l3.145,2.1H70.9V124.194A4.192,4.192,0,0,0,66.71,120Zm0,0" transform="translate(-6.952 -104.274)" fill="#77e7f7"/>
      <path id="Path_174016" data-name="Path 174016" d="M141.355,254.6H112v-6.018a6.287,6.287,0,0,1,4.55-6.038l4.949-1.426,3.082,7.192,5.242-4.194,5.242,4.194,3.082-7.192,4.949,1.426a6.287,6.287,0,0,1,4.55,6.038V254.6Zm0,0" transform="translate(-97.323 -209.523)" fill="#ffcf19"/>
      <path id="Path_174017" data-name="Path 174017" d="M256.325,233.2l-3.082,7.192L248,236.193,252.194,232Zm0,0" transform="translate(-215.5 -201.597)" fill="#e6e9ed"/>
      <path id="Path_174018" data-name="Path 174018" d="M192.8,236.194l-5.242,4.194L184.48,233.2l4.131-1.2Zm0,0" transform="translate(-160.305 -201.597)" fill="#e6e9ed"/>
      <path id="Path_174019" data-name="Path 174019" d="M160,26.871V19.532a11.532,11.532,0,1,1,23.065,0v7.339a3.149,3.149,0,0,0-3.145-3.145h-1.08a3.6,3.6,0,0,0-4.718-2.956l-2.59.859-2.59-.859a3.523,3.523,0,0,0-1.143-.189,3.611,3.611,0,0,0-3.575,3.145h-1.08A3.141,3.141,0,0,0,160,26.871Zm0,0" transform="translate(-139.032 -6.952)" fill="#636363"/>
      <g id="Group_114132" data-name="Group 114132" transform="translate(20.968 13.629)">
        <path id="Path_174020" data-name="Path 174020" d="M216,205.922c2.956,1.248,3.564,1.321,4.194,1.321a7.224,7.224,0,0,0,4.194-1.321v3.417l-4.194,4.194L216,209.339Zm0,0" transform="translate(-208.661 -192.565)" fill="#f0d0b4"/>
        <path id="Path_174021" data-name="Path 174021" d="M303.032,128a3.145,3.145,0,1,1,0,6.29H301.68a7.243,7.243,0,0,0,.3-2.1v-3.732a3.3,3.3,0,0,0-.031-.461Zm0,0" transform="translate(-283.113 -124.855)" fill="#f0d0b4"/>
        <path id="Path_174022" data-name="Path 174022" d="M206.677,107.607v3.732a7.348,7.348,0,0,1-7.339,7.339c-.629,0-1.237-.073-4.194-1.321a6.888,6.888,0,0,1-1-.828,7.319,7.319,0,0,1-2.149-5.19v-3.732a3.3,3.3,0,0,1,.031-.461A3.611,3.611,0,0,1,195.606,104a3.523,3.523,0,0,1,1.143.189l2.59.859,2.59-.859a3.606,3.606,0,0,1,4.718,2.956,3.3,3.3,0,0,1,.031.461Zm0,0" transform="translate(-187.806 -104)" fill="#f0d0b4"/>
        <path id="Path_174023" data-name="Path 174023" d="M164.225,128a3.3,3.3,0,0,0-.031.461v3.732a7.243,7.243,0,0,0,.3,2.1h-1.352a3.145,3.145,0,0,1,0-6.29Zm0,0" transform="translate(-160 -124.855)" fill="#f0d0b4"/>
      </g>
      <path id="Path_174024" data-name="Path 174024" d="M59.758,14.677H45.081v-2.1a12.581,12.581,0,1,0-25.161,0v2.1H5.242A5.248,5.248,0,0,0,0,19.919V53.468A5.248,5.248,0,0,0,5.242,58.71H18.871V62.9H14.677V65H50.323V62.9H46.129V58.71H59.758A5.248,5.248,0,0,0,65,53.468V19.919A5.248,5.248,0,0,0,59.758,14.677Zm-18.871,6.29V17.823a2.1,2.1,0,0,1,0,4.194h-.072A8.436,8.436,0,0,0,40.887,20.968ZM32.5,2.1A10.5,10.5,0,0,1,42.984,12.581v3.728a4.148,4.148,0,0,0-2.1-.583h-.274a4.629,4.629,0,0,0-5.856-2.905l-2.257.751-2.257-.753a4.634,4.634,0,0,0-5.858,2.906h-.272a4.148,4.148,0,0,0-2.1.583V12.581A10.5,10.5,0,0,1,32.5,2.1ZM42.984,37.742v6.29H22.016v-6.29h-2.1v6.29H15.726V39.067a5.268,5.268,0,0,1,3.789-5.037l4.06-1.172,3.262,7.611L32.5,35.94l5.662,4.53,3.262-7.611,4.06,1.172a5.264,5.264,0,0,1,3.79,5.036v4.965H45.081v-6.29ZM28,31.582l2.928,2.928-3.252,2.6L25.6,32.273Zm9.319,5.529-3.252-2.6L37,31.582l2.4.692Zm-1.677-7.142L32.5,33.114l-3.145-3.145V28.737a8.32,8.32,0,0,0,6.29,0ZM32.5,27.258a6.3,6.3,0,0,1-6.29-6.29V17.236a2.56,2.56,0,0,1,3.368-2.428l2.922.974,2.921-.974a2.561,2.561,0,0,1,3.369,2.428v3.731a6.3,6.3,0,0,1-6.29,6.29Zm-8.315-5.242h-.072a2.1,2.1,0,0,1,0-4.194v3.145A8.437,8.437,0,0,0,24.185,22.016ZM5.242,16.774H19.919v3.145a4.2,4.2,0,0,0,4.194,4.194h.617A8.416,8.416,0,0,0,27.258,27.5v2.111l-8.324,2.4a7.374,7.374,0,0,0-5.3,7.052v7.062H51.371V39.067a7.375,7.375,0,0,0-5.3-7.052l-8.324-2.4V27.5a8.416,8.416,0,0,0,2.528-3.391h.617a4.2,4.2,0,0,0,4.194-4.194V16.774H59.758A3.149,3.149,0,0,1,62.9,19.919v30.4H18.141L15,48.226H2.1V19.919a3.149,3.149,0,0,1,3.145-3.145ZM59.758,56.613H23.065v2.1H44.032V62.9H20.968v-6.29H5.242A3.149,3.149,0,0,1,2.1,53.468V50.323H14.36l3.145,2.1H62.9v1.048a3.149,3.149,0,0,1-3.145,3.145Zm0,0"/>
      <path id="Path_174025" data-name="Path 174025" d="M96,400h2.1v2.1H96Zm0,0" transform="translate(-83.419 -347.581)"/>
      <path id="Path_174026" data-name="Path 174026" d="M64,400h2.1v2.1H64Zm0,0" transform="translate(-55.613 -347.581)"/>
      <path id="Path_174027" data-name="Path 174027" d="M32,400h2.1v2.1H32Zm0,0" transform="translate(-27.806 -347.581)"/>
      <path id="Path_174028" data-name="Path 174028" d="M32,144H45.629v2.1H32Zm0,0" transform="translate(-27.806 -125.129)"/>
      <path id="Path_174029" data-name="Path 174029" d="M32,176H45.629v2.1H32Zm0,0" transform="translate(-27.806 -152.935)"/>
      <path id="Path_174030" data-name="Path 174030" d="M32,208H45.629v2.1H32Zm0,0" transform="translate(-27.806 -180.742)"/>
      <path id="Path_174031" data-name="Path 174031" d="M408,352h7.339v2.1H408Zm0,0" transform="translate(-354.532 -305.871)"/>
      <path id="Path_174032" data-name="Path 174032" d="M408,320h7.339v2.1H408Zm0,0" transform="translate(-354.532 -278.065)"/>
      <path id="Path_174033" data-name="Path 174033" d="M408,288h7.339v2.1H408Zm0,0" transform="translate(-354.532 -250.258)"/>
      <path id="Path_174034" data-name="Path 174034" d="M408,256h7.339v2.1H408Zm0,0" transform="translate(-354.532 -222.452)"/>
    </g>
  </g>
</svg>
