<svg xmlns="http://www.w3.org/2000/svg" width="102" height="102" viewBox="0 0 102 102">
  <g id="t3-c3" transform="translate(-895 -3981.5)">
    <rect id="Rectangle_36957" data-name="Rectangle 36957" width="102" height="102" rx="50" transform="translate(895 3981.5)" fill="#fff"/>
    <g id="presentation" transform="translate(910 4006.5)">
      <g id="Group_114131" data-name="Group 114131" transform="translate(1.398 1.398)">
        <path id="Path_173998" data-name="Path 173998" d="M12.237,14.473h64.3a2.237,2.237,0,0,0,0-4.473h-64.3a2.237,2.237,0,1,0,0,4.473Zm0,0" transform="translate(-10 -10)" fill="#59ffcc" fill-rule="evenodd"/>
        <path id="Path_173999" data-name="Path 173999" d="M90.3,42H26V84.5a2.243,2.243,0,0,0,2.237,2.237H88.065A2.243,2.243,0,0,0,90.3,84.5ZM47.177,51.575a9.995,9.995,0,0,1,9.995,9.995H47.177Zm-5.591,5.591v9.995h9.995a9.995,9.995,0,1,1-9.995-9.995Zm0,0" transform="translate(-23.763 -37.527)" fill="#fff" fill-rule="evenodd"/>
        <path id="Path_174000" data-name="Path 174000" d="M187.495,120.495A9.995,9.995,0,0,0,177.5,110.5v9.995Zm0,0" transform="translate(-154.086 -96.452)" fill="#ffe47a" fill-rule="evenodd"/>
        <path id="Path_174001" data-name="Path 174001" d="M85.989,160.495H75.995V150.5a9.995,9.995,0,1,0,9.995,9.995Zm0,0" transform="translate(-58.172 -130.86)" fill="#5b2ab5" fill-rule="evenodd"/>
      </g>
      <path id="Path_174002" data-name="Path 174002" d="M67.392,163.285a11.4,11.4,0,0,0,11.392-11.392,1.4,1.4,0,0,0-1.4-1.4h-8.6v-8.6a1.4,1.4,0,0,0-1.4-1.4,11.392,11.392,0,0,0,0,22.785Zm-1.4-19.876v8.483a1.4,1.4,0,0,0,1.4,1.4h8.483a8.6,8.6,0,1,1-9.881-9.881Zm0,0" transform="translate(-48.172 -120.86)"/>
      <path id="Path_174003" data-name="Path 174003" d="M168.9,113.29h9.995a1.4,1.4,0,0,0,1.4-1.4A11.405,11.405,0,0,0,168.9,100.5a1.4,1.4,0,0,0-1.4,1.4v9.995A1.4,1.4,0,0,0,168.9,113.29Zm1.4-9.881a8.62,8.62,0,0,1,7.086,7.085H170.3Zm0,0" transform="translate(-144.086 -86.452)"/>
      <path id="Path_174004" data-name="Path 174004" d="M280.4,194.628h21.946a1.4,1.4,0,1,0,0-2.8H280.4a1.4,1.4,0,1,0,0,2.8Zm0,0" transform="translate(-240.003 -165.017)"/>
      <path id="Path_174005" data-name="Path 174005" d="M280.4,152.132h21.946a1.4,1.4,0,1,0,0-2.8H280.4a1.4,1.4,0,1,0,0,2.8Zm0,0" transform="translate(-240.003 -128.461)"/>
      <path id="Path_174006" data-name="Path 174006" d="M280.4,240.464h21.946a1.4,1.4,0,1,0,0-2.8H280.4a1.4,1.4,0,1,0,0,2.8Zm0,0" transform="translate(-240.003 -204.446)"/>
      <path id="Path_174007" data-name="Path 174007" d="M280.4,286.3h10.973a1.4,1.4,0,0,0,0-2.8H280.4a1.4,1.4,0,0,0,0,2.8Zm0,0" transform="translate(-240.003 -243.871)"/>
      <path id="Path_174008" data-name="Path 174008" d="M404.965,323.4a1.4,1.4,0,0,0,1.4,1.4H412.1a1.4,1.4,0,0,0,0-2.8h-5.736A1.4,1.4,0,0,0,404.965,323.4Zm0,0" transform="translate(-348.357 -276.989)"/>
      <path id="Path_174009" data-name="Path 174009" d="M377.43,322H377.4a1.4,1.4,0,0,0,0,2.8h.033a1.4,1.4,0,0,0,0-2.8Zm0,0" transform="translate(-323.441 -276.989)"/>
      <path id="Path_174010" data-name="Path 174010" d="M280.4,112.132h10.973a1.4,1.4,0,0,0,0-2.8H280.4a1.4,1.4,0,1,0,0,2.8Zm0,0" transform="translate(-240.003 -94.052)"/>
      <path id="Path_174011" data-name="Path 174011" d="M57.163,2.8H57.2a1.4,1.4,0,1,0,0-2.8h-.038a1.4,1.4,0,0,0,0,2.8Zm0,0" transform="translate(-47.97)"/>
      <path id="Path_174012" data-name="Path 174012" d="M71.57,3.634A3.639,3.639,0,0,0,67.935,0H14.817a1.4,1.4,0,1,0,0,2.8H67.935a.839.839,0,1,1,0,1.677H3.634a.839.839,0,0,1,0-1.677H5.176a1.4,1.4,0,0,0,0-2.8H3.634a3.634,3.634,0,0,0-1.4,6.989V48.366A3.638,3.638,0,0,0,5.871,52H65.7a3.638,3.638,0,0,0,3.634-3.634V6.989A3.639,3.639,0,0,0,71.57,3.634ZM66.538,48.366a.85.85,0,0,1-.839.839H5.871a.85.85,0,0,1-.839-.839V7.269H66.538Zm0,0"/>
    </g>
  </g>
</svg>
