<svg xmlns="http://www.w3.org/2000/svg" width="102" height="102" viewBox="0 0 102 102">
  <g id="t3-c7" transform="translate(2150 7727)">
    <rect id="Rectangle_36973" data-name="Rectangle 36973" width="102" height="102" rx="50" transform="translate(-2150 -7727)" fill="#fff"/>
    <g id="wikipedia" transform="translate(-2135 -7777.957)">
      <path id="Path_174063" data-name="Path 174063" d="M58.165,147.449H10.4a2.388,2.388,0,0,1-2.388-2.388v-40.6a2.388,2.388,0,0,1,2.388-2.388H58.165a2.388,2.388,0,0,1,2.388,2.388v40.6A2.388,2.388,0,0,1,58.165,147.449Z" transform="translate(-6.897 -21.612)" fill="#f3f9ff"/>
      <path id="Path_174064" data-name="Path 174064" d="M87.6,102.077H42.222v4.776H89.983v-2.388A2.388,2.388,0,0,0,87.6,102.077Z" transform="translate(-36.326 -21.612)" fill="#c7ffed"/>
      <rect id="Rectangle_36975" data-name="Rectangle 36975" width="4.776" height="4.776" transform="translate(44.104 80.465)" fill="#00ceeb"/>
      <rect id="Rectangle_36976" data-name="Rectangle 36976" width="4.776" height="4.776" transform="translate(39.328 80.465)" fill="#ffcf19"/>
      <path id="Path_174065" data-name="Path 174065" d="M354.845,106.853h-4.776v-4.776h2.388a2.388,2.388,0,0,1,2.388,2.388v2.388Z" transform="translate(-301.188 -21.612)" fill="#a6ffe3"/>
      <path id="Path_174066" data-name="Path 174066" d="M258.675,212.634l-17.228,17.228-3.062,6.561a.961.961,0,0,0,1.277,1.277l6.561-3.062,12.452-12.452v-9.552Z" transform="translate(-205.018 -116.732)" fill="#d5dced"/>
      <path id="Path_174067" data-name="Path 174067" d="M213.248,125.571l8.193-3.823a4.775,4.775,0,0,0,1.358-.951l30.7-30.7a1.194,1.194,0,0,0,0-1.689l-3.088-3.088a1.194,1.194,0,0,0-1.689,0l-30.7,30.7a4.776,4.776,0,0,0-.951,1.358Z" transform="translate(-183.472 -6.897)" fill="#d2e1f1"/>
      <path id="Path_174068" data-name="Path 174068" d="M248.37,124.188,213.248,159.31l8.955-4.179,28.554-28.554Z" transform="translate(-183.472 -40.636)" fill="#b0c0d2"/>
      <g id="Group_114137" data-name="Group 114137" transform="translate(29.776 78.077)">
        <path id="Path_174069" data-name="Path 174069" d="M222.8,312.084l-4.776-4.776-.6.6-4.179,8.955,8.955-4.179Z" transform="translate(-213.248 -276.263)" fill="#d2e1f1"/>
        <path id="Path_174070" data-name="Path 174070" d="M452.1,85.325a1.194,1.194,0,0,0-1.689,0l-2.738,2.738,4.776,4.776,2.738-2.738a1.194,1.194,0,0,0,0-1.689Z" transform="translate(-414.941 -84.975)" fill="#d2e1f1"/>
      </g>
      <g id="Group_114138" data-name="Group 114138" transform="translate(29.776 79.97)">
        <path id="Path_174071" data-name="Path 174071" d="M469.9,100.08l-1.544-1.544-3.582,3.582,2.388,2.388,2.738-2.738A1.194,1.194,0,0,0,469.9,100.08Z" transform="translate(-429.655 -98.536)" fill="#b0c0d2"/>
        <path id="Path_174072" data-name="Path 174072" d="M222.2,327.4l.6-.6-2.388-2.388-7.164,7.164Z" transform="translate(-213.25 -292.871)" fill="#b0c0d2"/>
      </g>
      <path id="Path_174073" data-name="Path 174073" d="M70.815,80.722l-3.088-3.088a2.313,2.313,0,0,0-3.272,0l-2.737,2.737h0l-6.942,6.942V82.853a3.511,3.511,0,0,0-3.507-3.507H3.507A3.511,3.511,0,0,0,0,82.853v40.6a3.511,3.511,0,0,0,3.507,3.507H51.269a3.511,3.511,0,0,0,3.507-3.507V100.033L70.815,83.994A2.316,2.316,0,0,0,70.815,80.722ZM39.328,112.314l-3.193-3.193L62.51,82.747,65.7,85.94Zm-4.655-1.488,2.95,2.95-5.532,2.581ZM52.537,82.853v1.269H50V81.584h1.269A1.27,1.27,0,0,1,52.537,82.853Zm-7.313,1.269V81.584h2.537v2.537Zm-4.776,0V81.584h2.537v2.537Zm-33.433,0V81.584H38.209v2.537ZM3.507,81.584H4.776v2.537H2.239V82.853A1.27,1.27,0,0,1,3.507,81.584Zm49.03,41.866a1.27,1.27,0,0,1-1.269,1.269H3.507a1.27,1.27,0,0,1-1.269-1.269V86.36h50.3v3.193L33.164,108.927a1.118,1.118,0,0,0-.223.318L28.762,118.2a1.119,1.119,0,0,0,1.488,1.488l8.955-4.179a1.121,1.121,0,0,0,.318-.223l13.015-13.014ZM69.232,82.411l-1.946,1.946-3.193-3.193,1.946-1.946a.071.071,0,0,1,.053-.022.072.072,0,0,1,.053.022l3.088,3.087A.075.075,0,0,1,69.232,82.411Z" transform="translate(0 0)"/>
      <path id="Path_174074" data-name="Path 174074" d="M70.338,179.573H67.95a1.119,1.119,0,0,0-.426,2.155l-3.156,7.891-3.123-7.807h.735a1.119,1.119,0,0,0,0-2.239H59.592a1.119,1.119,0,0,0-1.039,1.535l1.028,2.569L57.2,189.619l-3.123-7.807h.735a1.119,1.119,0,0,0,0-2.239H52.428a1.119,1.119,0,0,0-1.039,1.535l4.776,11.94a1.119,1.119,0,0,0,2.079,0l2.543-6.357,2.543,6.357a1.119,1.119,0,0,0,2.079,0L69.9,181.812h.436a1.119,1.119,0,0,0,0-2.239Z" transform="translate(-44.144 -88.288)"/>
      <path id="Path_174075" data-name="Path 174075" d="M69.144,316.394H52.427a1.119,1.119,0,0,0,0,2.239H69.144a1.119,1.119,0,0,0,0-2.239Z" transform="translate(-44.144 -206.004)"/>
      <path id="Path_174076" data-name="Path 174076" d="M223.452,181.812h11.94a1.119,1.119,0,0,0,0-2.239h-11.94a1.119,1.119,0,0,0,0,2.239Z" transform="translate(-191.288 -88.288)"/>
      <path id="Path_174077" data-name="Path 174077" d="M223.452,216.017h7.164a1.119,1.119,0,1,0,0-2.239h-7.164a1.119,1.119,0,0,0,0,2.239Z" transform="translate(-191.288 -117.716)"/>
      <path id="Path_174078" data-name="Path 174078" d="M64.368,350.6H52.427a1.119,1.119,0,0,0,0,2.239h11.94a1.119,1.119,0,1,0,0-2.239Z" transform="translate(-44.144 -235.433)"/>
    </g>
  </g>
</svg>
