<svg xmlns="http://www.w3.org/2000/svg" width="190" height="100" viewBox="0 0 190 100">
  <g id="t3-ic1" transform="translate(-180 -738)">
    <rect id="Rectangle_36715" data-name="Rectangle 36715" width="190" height="100" transform="translate(180 738)" fill="none"/>
    <g id="Group_110590" data-name="Group 110590" transform="translate(334.333 738)">
      <path id="Path_169529" data-name="Path 169529" d="M587.464-2336.808l3.5,39.242L623.13-2320.4Z" transform="translate(-587.464 2336.969)" fill="#e8b700"/>
      <path id="Path_169530" data-name="Path 169530" d="M587.6-2337.345l15.359,18.463,20.267-1.9Z" transform="translate(-587.558 2337.345)" fill="#ffe47a"/>
      <path id="Path_169531" data-name="Path 169531" d="M587.6-2337.345l3.459,39.4,11.9-20.94Z" transform="translate(-587.558 2337.345)" fill="#ffcf19"/>
    </g>
    <g id="Group_110591" data-name="Group 110591" transform="translate(180 802.924)">
      <path id="Path_169532" data-name="Path 169532" d="M723.464-2296.124l28.635,20.33,3.115-34.933Z" transform="translate(-723.464 2310.87)" fill="#22f0b0"/>
      <path id="Path_169533" data-name="Path 169533" d="M723.464-2296.412l18.041,1.69,13.673-16.436Z" transform="translate(-723.464 2311.158)" fill="#a6ffe3"/>
      <path id="Path_169534" data-name="Path 169534" d="M777.751-2294.722l10.594,18.64,3.079-35.076Z" transform="translate(-759.71 2311.158)" fill="#59ffcc"/>
    </g>
    <g id="publicidad-digital_1_" data-name="publicidad-digital (1)" transform="translate(226 739)">
      <rect id="Rectangle_37043" data-name="Rectangle 37043" width="34.08" height="7.656" transform="translate(31.967 88.43)" fill="#b0c0d2"/>
      <rect id="Rectangle_37044" data-name="Rectangle 37044" width="15.313" height="10.335" transform="translate(41.351 78.094)" fill="#727997"/>
      <rect id="Rectangle_37045" data-name="Rectangle 37045" width="84.194" height="11.1" transform="translate(6.724 66.994)" fill="#b0c0d2"/>
      <rect id="Rectangle_37046" data-name="Rectangle 37046" width="84.194" height="48.811" transform="translate(6.724 18.184)" fill="#77e7f7"/>
      <rect id="Rectangle_37047" data-name="Rectangle 37047" width="65.844" height="65.08" transform="translate(16.078 1.914)" fill="#fff"/>
      <rect id="Rectangle_37048" data-name="Rectangle 37048" width="20" height="20" transform="translate(2 2)" fill="#c7ffed"/>
      <path id="Path_175194" data-name="Path 175194" d="M35.132,74.707l8.916-8.916,6.215,6.215-.036,2.7Z" transform="translate(-28.408 -53.198)" fill="#2effc0"/>
      <path id="Path_175195" data-name="Path 175195" d="M302,206.439V229.38a2.5,2.5,0,0,0,2.5,2.5h4.361l5,5,5-5h18.908a2.5,2.5,0,0,0,2.5-2.5V206.439a2.5,2.5,0,0,0-2.5-2.5H304.5A2.5,2.5,0,0,0,302,206.439Z" transform="translate(-244.195 -164.902)" fill="#5b2ab5"/>
      <g id="Group_114975" data-name="Group 114975" transform="translate(24.654 18.321)">
        <path id="Path_175196" data-name="Path 175196" d="M393.214,254.521,385.9,259.21a1.907,1.907,0,0,1-2.936-1.605v-9.379a1.907,1.907,0,0,1,2.936-1.605l7.316,4.69A1.907,1.907,0,0,1,393.214,254.521Z" transform="translate(-334.315 -217.491)" fill="#ffcf19"/>
        <path id="Path_175197" data-name="Path 175197" d="M131.607,116.606l3.142-1.015a9.716,9.716,0,0,0,2.626,1.518l.692,3.229h5.6l.692-3.229a9.715,9.715,0,0,0,2.626-1.518l3.142,1.015,2.8-4.845-2.452-2.215a9.814,9.814,0,0,0,0-3.033l2.452-2.215-2.8-4.845-3.142,1.015a9.716,9.716,0,0,0-2.626-1.518l-.692-3.229h-5.6l-.692,3.229a9.716,9.716,0,0,0-2.626,1.518l-3.142-1.015-2.8,4.845,2.452,2.215a9.813,9.813,0,0,0,0,3.033l-2.452,2.215Z" transform="translate(-128.805 -95.72)" fill="#ffcf19"/>
      </g>
      <path id="Path_175198" data-name="Path 175198" d="M323.355,118.341H310.914a1.914,1.914,0,0,0,0,3.828h12.441a1.914,1.914,0,0,0,0-3.828Z" transform="translate(-249.855 -95.69)"/>
      <path id="Path_175199" data-name="Path 175199" d="M323.355,158.341H310.914a1.914,1.914,0,0,0,0,3.828h12.441a1.914,1.914,0,0,0,0-3.828Z" transform="translate(-249.855 -128.034)"/>
      <path id="Path_175200" data-name="Path 175200" d="M119.914,295a1.914,1.914,0,0,0,0,3.828h12.214a1.914,1.914,0,0,0,0-3.828Z" transform="translate(-95.414 -238.535)"/>
      <path id="Path_175201" data-name="Path 175201" d="M225.914,295a1.915,1.915,0,1,0,1.353.561A1.928,1.928,0,0,0,225.914,295Z" transform="translate(-181.125 -238.535)"/>
      <path id="Path_175202" data-name="Path 175202" d="M140.2,255H119.914a1.914,1.914,0,0,0,0,3.828H140.2a1.914,1.914,0,0,0,0-3.828Z" transform="translate(-95.414 -206.191)"/>
      <path id="Path_175203" data-name="Path 175203" d="M93.584,37.121h-.752V18.183a1.914,1.914,0,0,0-1.914-1.914H83.836V1.914A1.914,1.914,0,0,0,81.922,0H30.37a1.914,1.914,0,0,0,0,3.828H80.008V37.121h-19.7a4.421,4.421,0,0,0-4.416,4.416V64.478a4.421,4.421,0,0,0,4.416,4.416h3.568l4.443,4.443a1.914,1.914,0,0,0,2.707,0l4.444-4.443H89V76.18H9V68.906h7.038l.044,0,.044,0H50.595a1.914,1.914,0,0,0,0-3.828h-32.6V23.734H21.82a1.914,1.914,0,0,0,1.914-1.914V1.914A1.914,1.914,0,0,0,21.82,0H1.914A1.914,1.914,0,0,0,0,1.914V21.82a1.914,1.914,0,0,0,1.914,1.914h12.25V65.078H9V28.609a1.914,1.914,0,0,0-3.828,0V78.094a1.914,1.914,0,0,0,1.914,1.914H39.437v6.507H31.967a1.914,1.914,0,0,0-1.914,1.914v7.657A1.914,1.914,0,0,0,31.967,98h34.08a1.914,1.914,0,0,0,1.914-1.914V88.429a1.914,1.914,0,0,0-1.914-1.914H58.577V80.008H90.918a1.914,1.914,0,0,0,1.914-1.914v-9.2h.752A4.421,4.421,0,0,0,98,64.478V41.537A4.421,4.421,0,0,0,93.584,37.121ZM11.034,19.906,15.641,15.3l4.265,4.265v.341ZM3.828,3.828H19.906V14.151l-2.912-2.912a1.915,1.915,0,0,0-2.707,0L5.62,19.906H3.828Zm60.3,90.344H33.881V90.343H64.133v3.829Zm-9.384-7.657H43.265V80.008H54.749ZM83.836,20.1H89V37.121H83.836ZM94.172,64.478a.589.589,0,0,1-.588.588H74.676a1.915,1.915,0,0,0-1.353.561l-3.651,3.651-3.651-3.65a1.915,1.915,0,0,0-1.353-.561H60.307a.589.589,0,0,1-.588-.588V41.537a.589.589,0,0,1,.588-.588H93.584a.589.589,0,0,1,.588.588Z"/>
      <path id="Path_175204" data-name="Path 175204" d="M386.161,241.625l-7.317-4.69a3.821,3.821,0,0,0-5.883,3.217v9.379a3.821,3.821,0,0,0,5.883,3.217l7.317-4.69h0a3.821,3.821,0,0,0,0-6.434Zm-9.371,7.893v-9.352l7.3,4.676Z" transform="translate(-301.574 -191.096)"/>
      <path id="Path_175205" data-name="Path 175205" d="M119.436,97.631l1.727,1.56q-.024.376-.024.751t.024.751l-1.727,1.56a1.914,1.914,0,0,0-.374,2.379l2.8,4.845a1.914,1.914,0,0,0,2.245.863l2.211-.714a11.588,11.588,0,0,0,1.3.753l.487,2.274a1.914,1.914,0,0,0,1.872,1.513h5.6a1.914,1.914,0,0,0,1.872-1.513l.487-2.274a11.56,11.56,0,0,0,1.3-.753l2.211.714a1.914,1.914,0,0,0,2.245-.863l2.8-4.845a1.914,1.914,0,0,0-.374-2.379l-1.727-1.56q.024-.376.024-.751t-.024-.751l1.727-1.56a1.914,1.914,0,0,0,.374-2.379l-2.8-4.845a1.914,1.914,0,0,0-2.245-.863l-2.211.714a11.6,11.6,0,0,0-1.3-.753l-.487-2.274a1.914,1.914,0,0,0-1.872-1.513h-5.6a1.914,1.914,0,0,0-1.872,1.513l-.487,2.274a11.6,11.6,0,0,0-1.3.753l-2.211-.714a1.915,1.915,0,0,0-2.245.863l-2.8,4.845A1.914,1.914,0,0,0,119.436,97.631Zm5.626,3.531a7.884,7.884,0,0,1,0-2.44,1.915,1.915,0,0,0-.608-1.717l-1.3-1.177,1.253-2.166,1.671.54a1.915,1.915,0,0,0,1.793-.334,7.786,7.786,0,0,1,2.108-1.219,1.914,1.914,0,0,0,1.184-1.385l.368-1.716h2.5l.368,1.716a1.913,1.913,0,0,0,1.184,1.385,7.786,7.786,0,0,1,2.108,1.219,1.915,1.915,0,0,0,1.793.334l1.671-.54,1.253,2.166-1.3,1.177a1.914,1.914,0,0,0-.608,1.717,7.884,7.884,0,0,1,0,2.44,1.914,1.914,0,0,0,.608,1.717l1.3,1.177-1.253,2.166-1.671-.54a1.914,1.914,0,0,0-1.793.334,7.786,7.786,0,0,1-2.108,1.219,1.914,1.914,0,0,0-1.184,1.385l-.368,1.716h-2.5l-.368-1.716a1.914,1.914,0,0,0-1.184-1.385,7.786,7.786,0,0,1-2.108-1.219,1.914,1.914,0,0,0-1.793-.334l-1.671.54-1.253-2.166,1.3-1.177A1.913,1.913,0,0,0,125.062,101.162Z" transform="translate(-96.065 -69.312)"/>
      <path id="Path_175206" data-name="Path 175206" d="M188.687,47.267a1.915,1.915,0,1,0-1.353.561A1.929,1.929,0,0,0,188.687,47.267Z" transform="translate(-149.929 -35.578)"/>
      <path id="Path_175207" data-name="Path 175207" d="M151.937,47.267a1.913,1.913,0,1,0-1.353.561A1.929,1.929,0,0,0,151.937,47.267Z" transform="translate(-120.214 -35.578)"/>
      <path id="Path_175208" data-name="Path 175208" d="M253.14,44H224.077a1.914,1.914,0,0,0,0,3.828H253.14a1.914,1.914,0,0,0,0-3.828Z" transform="translate(-179.64 -35.578)"/>
      <path id="Path_175209" data-name="Path 175209" d="M29.784,34.828a1.915,1.915,0,1,0-1.353-.561A1.92,1.92,0,0,0,29.784,34.828Z" transform="translate(-22.536 -25.066)"/>
    </g>
  </g>
</svg>
