<svg xmlns="http://www.w3.org/2000/svg" width="90" height="92" viewBox="0 0 90 92">
  <g id="t3-im4" transform="translate(-3409 9866)">
    <rect id="Rectangle_37081" data-name="Rectangle 37081" width="90" height="92" rx="10" transform="translate(3409 -9866)" fill="#fff5d0"/>
    <path id="Rectangle_37081_-_Outline" data-name="Rectangle 37081 - Outline" d="M10,2a8.009,8.009,0,0,0-8,8V82a8.009,8.009,0,0,0,8,8H80a8.009,8.009,0,0,0,8-8V10a8.009,8.009,0,0,0-8-8H10m0-2H80A10,10,0,0,1,90,10V82A10,10,0,0,1,80,92H10A10,10,0,0,1,0,82V10A10,10,0,0,1,10,0Z" transform="translate(3409 -9866)" fill="#ffcf19"/>
    <g id="proyecto" transform="translate(3422 -9851)">
      <path id="Path_175171" data-name="Path 175171" d="M82.5,112.083a4.333,4.333,0,0,0,4.333-4.333V72H24v35.75a4.333,4.333,0,0,0,4.333,4.333Z" transform="translate(-22.917 -65.5)" fill="#77e7f7"/>
      <path id="Path_175172" data-name="Path 175172" d="M439.583,73.167a4.333,4.333,0,0,0-4.333-4.333H432V32h3.25a4.333,4.333,0,0,1,4.333,4.333Z" transform="translate(-375.667 -30.917)" fill="#00ceeb"/>
      <path id="Path_175173" data-name="Path 175173" d="M24,73.167a4.333,4.333,0,0,1,4.333-4.333h3.25V32h-3.25A4.333,4.333,0,0,0,24,36.333Z" transform="translate(-22.917 -30.917)" fill="#00ceeb"/>
      <path id="Path_175174" data-name="Path 175174" d="M216,312h10.833v8.667H216Z" transform="translate(-188.917 -273)" fill="#b0c0d2"/>
      <path id="Path_175175" data-name="Path 175175" d="M203.5,177.75a10.734,10.734,0,0,1-1.8,5.955l-2.531,3.8H188.333l-2.531-3.8a10.735,10.735,0,0,1-1.8-5.954,9.75,9.75,0,0,1,19.5,0Z" transform="translate(-161.25 -148.5)" fill="#ffcf19"/>
      <path id="Path_175176" data-name="Path 175176" d="M216,376l2.167,4.333h6.5L226.833,376Z" transform="translate(-188.917 -328.333)" fill="#727997"/>
      <path id="Path_175177" data-name="Path 175177" d="M42.6,328a3.064,3.064,0,0,0-2.167.9L24.673,344.66a2.3,2.3,0,0,0,1.625,3.923H42.417a3.25,3.25,0,0,0,3.25-3.25V331.064A3.064,3.064,0,0,0,42.6,328Zm-3.436,14.083H33.75l5.417-5.417Z" transform="translate(-22.917 -286.833)" fill="#2effc0"/>
      <path id="Path_175178" data-name="Path 175178" d="M358.5,440l-3.25,5.417L352,440Z" transform="translate(-306.5 -383.667)" fill="#ffceb6"/>
      <path id="Path_175179" data-name="Path 175179" d="M352,264h6.5v4.333H352Z" transform="translate(-306.5 -231.5)" fill="#e8f2ff"/>
      <path id="Path_175180" data-name="Path 175180" d="M352,320h6.5v16.25H352Z" transform="translate(-306.5 -279.917)" fill="#ffcf19"/>
      <path id="Path_175181" data-name="Path 175181" d="M352,296h6.5v3.25H352Z" transform="translate(-306.5 -259.167)" fill="#ffe28f"/>
      <path id="Path_175182" data-name="Path 175182" d="M75.583,24h-3.25a1.083,1.083,0,0,0-1.083,1.083v4.333H25.75V25.083A1.083,1.083,0,0,0,24.667,24h-3.25A5.423,5.423,0,0,0,16,29.417V66.25a5.423,5.423,0,0,0,5.417,5.417h2.167V69.5H21.417a3.25,3.25,0,0,1,0-6.5h3.25a1.083,1.083,0,0,0,1.083-1.083V31.583h45.5V61.917A1.083,1.083,0,0,0,72.333,63h3.25a3.25,3.25,0,0,1,0,6.5H71.25v2.167h4.333A5.423,5.423,0,0,0,81,66.25V29.417A5.423,5.423,0,0,0,75.583,24Zm-52,36.833H21.417a5.389,5.389,0,0,0-3.25,1.086v-32.5a3.254,3.254,0,0,1,3.25-3.25h2.167Zm52,0H73.417V26.167h2.167a3.254,3.254,0,0,1,3.25,3.25v32.5a5.389,5.389,0,0,0-3.25-1.086Z" transform="translate(-16 -24)"/>
      <path id="Path_175183" data-name="Path 175183" d="M176,170.833a11.78,11.78,0,0,0,1.985,6.555l2.349,3.523v8.339a1.077,1.077,0,0,0,.115.484h0l2.167,4.333a1.083,1.083,0,0,0,.969.6h6.5a1.083,1.083,0,0,0,.969-.6l2.167-4.333h0a1.077,1.077,0,0,0,.115-.484v-8.339l2.349-3.523a11.78,11.78,0,0,0,1.985-6.555,10.833,10.833,0,0,0-21.667,0Zm8.118,1.485,2.065,1.549a1.083,1.083,0,0,0,1.3,0l2.065-1.549-1.436,7.182h-2.557Zm7.048,9.349v6.5H182.5v-6.5ZM189.414,192.5h-5.161l-1.083-2.167H190.5Zm-2.58-30.333a8.676,8.676,0,0,1,8.667,8.667,9.62,9.62,0,0,1-1.621,5.353L191.67,179.5h-1.349l1.908-9.538a1.083,1.083,0,0,0-1.712-1.079l-3.683,2.762-3.683-2.762a1.083,1.083,0,0,0-1.712,1.079l1.908,9.538H182l-2.209-3.313a9.62,9.62,0,0,1-1.621-5.353A8.676,8.676,0,0,1,186.833,162.167Z" transform="translate(-154.333 -141.583)"/>
      <path id="Path_175184" data-name="Path 175184" d="M16,339.367a3.385,3.385,0,0,0,3.381,3.381H35.5a4.338,4.338,0,0,0,4.333-4.333V324.146a4.147,4.147,0,0,0-7.08-2.933L16.99,336.976a3.36,3.36,0,0,0-.99,2.391Zm18.285-16.622a1.981,1.981,0,0,1,3.381,1.4v1.269H35.5v2.167h2.167v2.167H35.5v2.167h2.167v2.167H35.5v2.167h2.167v2.167a2.169,2.169,0,0,1-2.167,2.167H33.333v-2.167H31.167v2.167H29v-2.167H26.833v2.167H24.667v-2.167H22.5v2.167H19.381a1.215,1.215,0,0,1-.859-2.074Z" transform="translate(-16 -279.915)"/>
      <path id="Path_175185" data-name="Path 175185" d="M89.083,391.583H94.5a1.083,1.083,0,0,0,1.083-1.083v-5.417a1.083,1.083,0,0,0-1.849-.766l-5.417,5.417a1.083,1.083,0,0,0,.766,1.849Zm4.333-3.885v1.718H91.7Z" transform="translate(-78.25 -335.25)"/>
      <path id="Path_175186" data-name="Path 175186" d="M344,257.083v23.833a1.084,1.084,0,0,0,.154.557l3.25,5.417a1.083,1.083,0,0,0,1.858,0l3.25-5.417a1.084,1.084,0,0,0,.154-.557V257.083A1.083,1.083,0,0,0,351.583,256h-6.5A1.083,1.083,0,0,0,344,257.083Zm5.417,22.75V265.75H350.5v14.083Zm-3.25,0V265.75h1.083v14.083Zm0-16.25V262.5H350.5v1.083Zm2.167,20.644L347,282h2.673Zm2.167-26.061v2.167h-4.333v-2.167Z" transform="translate(-299.583 -224.583)"/>
      <path id="Path_175187" data-name="Path 175187" d="M0,0H2.167V3.25H0Z" transform="translate(20.239 17.443) rotate(-45)"/>
      <path id="Path_175188" data-name="Path 175188" d="M248,112h2.167v3.25H248Z" transform="translate(-216.583 -100.083)"/>
      <path id="Path_175189" data-name="Path 175189" d="M0,0H3.25V2.167H0Z" transform="translate(40.92 18.213) rotate(-45)"/>
      <path id="Path_175190" data-name="Path 175190" d="M352,224h3.25v2.167H352Z" transform="translate(-306.5 -196.917)"/>
      <path id="Path_175191" data-name="Path 175191" d="M136,224h3.25v2.167H136Z" transform="translate(-119.75 -196.917)"/>
    </g>
  </g>
</svg>
