<svg xmlns="http://www.w3.org/2000/svg" width="90" height="90" viewBox="0 0 90 90">
  <g id="t3-im3" transform="translate(-2409 9866)">
    <rect id="Rectangle_37079" data-name="Rectangle 37079" width="90" height="90" rx="10" transform="translate(2409 -9866)" fill="#ddfff4"/>
    <path id="Rectangle_37079_-_Outline" data-name="Rectangle 37079 - Outline" d="M10,2a8.009,8.009,0,0,0-8,8V80a8.009,8.009,0,0,0,8,8H80a8.009,8.009,0,0,0,8-8V10a8.009,8.009,0,0,0-8-8H10m0-2H80A10,10,0,0,1,90,10V80A10,10,0,0,1,80,90H10A10,10,0,0,1,0,80V10A10,10,0,0,1,10,0Z" transform="translate(2409 -9866)" fill="#59ffcc"/>
    <g id="news-anchor" transform="translate(2431 -9853)">
      <g id="Group_114973" data-name="Group 114973" transform="translate(0.952 0.953)">
        <g id="Group_114972" data-name="Group 114972">
          <path id="Path_175147" data-name="Path 175147" d="M209.76,291.339H221.5v7.955H209.76Z" transform="translate(-193.662 -255.305)" fill="#f6a96c"/>
          <path id="Path_175148" data-name="Path 175148" d="M126.763,309.319v13.126c0,.323-.134.457-.457.457l-3.822.129H119.79l-.965-1.286-.965,1.286H108.33l-3.472-1.286-3.343,1.286H91.985l-.664-1.286-1.266,1.286H83.539a.586.586,0,0,1-.585-.585V309.319a8.754,8.754,0,0,1,8.754-8.754h7.344v-3.922l5.852,7.109.018.021.018-.021,5.852-7.11v3.923h4l3.343.129a8.536,8.536,0,0,1,8.625,8.625Z" transform="translate(-82.954 -259.935)" fill="#5000a1"/>
          <g id="Group_114970" data-name="Group 114970" transform="translate(15.44 44.575)">
            <path id="Path_175149" data-name="Path 175149" d="M210.423,358.616l-4.947,5.379-.9-5.379Z" transform="translate(-204.572 -358.616)" fill="#eef5f6"/>
            <path id="Path_175150" data-name="Path 175150" d="M267.19,358.616l-.9,5.379-4.947-5.379Z" transform="translate(-254.132 -358.616)" fill="#eef5f6"/>
            <path id="Path_175151" data-name="Path 175151" d="M214.521,377.14l-3.225-1.286-3.611,1.286-3.111-18.519h13.057Z" transform="translate(-204.575 -358.62)" fill="#eef5f6"/>
          </g>
          <path id="Path_175152" data-name="Path 175152" d="M342.309,336.3v13.126a.586.586,0,0,1-.585.585h-3.859a.586.586,0,0,0,.585-.585V336.3a8.754,8.754,0,0,0-8.754-8.754h3.859A8.754,8.754,0,0,1,342.309,336.3Z" transform="translate(-298.371 -286.913)" fill="#3f0080"/>
          <path id="Path_175153" data-name="Path 175153" d="M255.993,373.075h0Z" transform="translate(-234.023 -326.664)" fill="#eef5f6"/>
          <path id="Path_175154" data-name="Path 175154" d="M222.944,363.995l-.365,2.175-5.258-5.717h0l-5.258,5.717-.365-2.175,4.947-5.379H218Z" transform="translate(-195.351 -314.041)" fill="#deecf1"/>
          <path id="Path_175155" data-name="Path 175155" d="M232.5,422.525,229.08,432.93h6.835Z" transform="translate(-210.529 -369.837)" fill="#ffcf19"/>
          <path id="Path_175156" data-name="Path 175156" d="M215.765,352.943l-3.392,3.688-2.441-3.688Z" transform="translate(-193.812 -309.088)" fill="#00f2a6"/>
          <path id="Path_175157" data-name="Path 175157" d="M261.955,352.943l-2.441,3.688-3.392-3.688Z" transform="translate(-234.138 -309.088)" fill="#00f2a6"/>
          <path id="Path_175158" data-name="Path 175158" d="M255.893,352.811l.016.017h-.031Z" transform="translate(-233.925 -308.973)" fill="#deecf1"/>
          <path id="Path_175159" data-name="Path 175159" d="M224.507,361.778l2.417-3.65,2.163-5.183h-9.159l2.163,5.183Z" transform="translate(-202.539 -309.09)" fill="#ffcf19"/>
          <path id="Path_175160" data-name="Path 175160" d="M235.976,356.631l-.99,1.5L232.57,355.5h0l-2.416,2.627-.99-1.5,3.392-3.688h.031Z" transform="translate(-210.6 -309.088)" fill="#e8b700"/>
          <path id="Path_175161" data-name="Path 175161" d="M134.723,158.68V168.2c-.463,0-.91-1.326-1.333-1.449s-.822.957-1.187.728a4.76,4.76,0,0,1,0-8.076c.346-.216.721.871,1.119.749C133.765,160.013,134.235,158.68,134.723,158.68Z" transform="translate(-123.996 -139.488)" fill="#fed2a4"/>
          <path id="Path_175162" data-name="Path 175162" d="M150.118,158.678V168.2a4.732,4.732,0,0,1-2.52-.722V159.4A4.733,4.733,0,0,1,150.118,158.678Z" transform="translate(-139.391 -139.486)" fill="#ffbd86"/>
          <path id="Path_175163" data-name="Path 175163" d="M344.551,158.68V168.2a4.759,4.759,0,0,0,0-9.518Z" transform="translate(-311.34 -139.488)" fill="#f6a96c"/>
          <path id="Path_175164" data-name="Path 175164" d="M176.234,83.129a11.774,11.774,0,0,0-1.89.027A11.6,11.6,0,0,0,164.635,94.6v5.172a11.6,11.6,0,0,0,9.709,11.446,11.789,11.789,0,0,0,1.89.027,11.385,11.385,0,0,0,11.473-11.473V94.6A11.385,11.385,0,0,0,176.234,83.129Z" transform="translate(-154.265 -73.505)" fill="#fed2a4"/>
          <path id="Path_175165" data-name="Path 175165" d="M254.6,93.915v5.172a11.6,11.6,0,0,1-11.6,11.6,11.679,11.679,0,0,1-1.89-.154,11.6,11.6,0,0,0,9.709-11.446V93.915a11.6,11.6,0,0,0-9.709-11.445A11.607,11.607,0,0,1,254.6,93.915Z" transform="translate(-221.032 -72.819)" fill="#ffbd86"/>
          <path id="Path_175166" data-name="Path 175166" d="M147.929,21.8a11.524,11.524,0,0,0-2.582,5.584,4.731,4.731,0,0,0-2.984,1.218V19.753a11.567,11.567,0,0,1,9.675-11.41,11.744,11.744,0,0,1,1.889-.028h0a11.525,11.525,0,0,1,7.976,3.192.377.377,0,0,0,.26.1h1.3a7.612,7.612,0,0,1,7.7,7.7l.126,9.364a4.727,4.727,0,0,0-3.059-1.288,11.556,11.556,0,0,0-2.584-5.588.377.377,0,0,0-.511-.061c-5.55,4.068-11.116,4.045-16.7,0a.376.376,0,0,0-.509.062Z" transform="translate(-134.821 -8.19)" fill="#ffe47a"/>
          <path id="Path_175167" data-name="Path 175167" d="M237.824,18.625v9.363a4.728,4.728,0,0,0-3.06-1.288,11.5,11.5,0,0,0-.721-2.528V18.625a7.826,7.826,0,0,0-7.826-7.826h-1.3a.377.377,0,0,1-.26-.1,11.515,11.515,0,0,0-6.087-3.037,11.533,11.533,0,0,1,1.889-.155h0a11.522,11.522,0,0,1,7.977,3.192.377.377,0,0,0,.26.1H230A7.826,7.826,0,0,1,237.824,18.625Z" transform="translate(-201.352 -7.503)" fill="#ffcf19"/>
          <g id="Group_114971" data-name="Group 114971" transform="translate(13.086 36.266)">
            <path id="Path_175168" data-name="Path 175168" d="M189.045,293.165l-3.012,4.364,3.249,9.334,5.634-6.126Z" transform="translate(-186.033 -293.165)" fill="#eef5f6"/>
            <path id="Path_175169" data-name="Path 175169" d="M261.87,293.165l3.012,4.364-3.249,9.334L256,300.737Z" transform="translate(-247.117 -293.165)" fill="#eef5f6"/>
          </g>
        </g>
      </g>
      <path id="Path_175170" data-name="Path 175170" d="M111.589,40.63h-3.832l-2.17-3.143a12.6,12.6,0,0,0,4.89-6.939,5.715,5.715,0,0,0,3.352-9.507V12.074A8.787,8.787,0,0,0,105.052,3.3h-1.074a12.519,12.519,0,0,0-15.755-.956.952.952,0,0,0,1.11,1.547,10.614,10.614,0,0,1,13.5.946,1.324,1.324,0,0,0,.917.368h1.3a6.881,6.881,0,0,1,6.873,6.873v7.6a5.682,5.682,0,0,0-1.308-.4,12.532,12.532,0,0,0-2.656-5.334,1.334,1.334,0,0,0-1.8-.214c-5.209,3.818-10.3,3.817-15.578,0a1.335,1.335,0,0,0-1.794.218,12.5,12.5,0,0,0-2.655,5.331,5.686,5.686,0,0,0-1.232.363V12.516a10.557,10.557,0,0,1,1.809-5.928.952.952,0,0,0-1.578-1.065A12.455,12.455,0,0,0,83,12.516v8.443a5.716,5.716,0,0,0,3.276,9.589,12.594,12.594,0,0,0,4.89,6.939l-2.17,3.143H85.16a9.717,9.717,0,0,0-9.706,9.706v2.077a.952.952,0,0,0,1.9,0V50.336a7.811,7.811,0,0,1,7.8-7.8h3.655l3.02,8.676,2,11.885H85.424V56.024a.952.952,0,0,0-1.9,0V63.1H77.358V56.532a.952.952,0,0,0-1.9,0v6.931A1.539,1.539,0,0,0,76.991,65h28.286a.952.952,0,1,0,0-1.9h-2.36l2-11.885,3.02-8.676h3.655a7.811,7.811,0,0,1,7.8,7.8V63.1H113.23V56.024a.952.952,0,1,0-1.9,0V63.1H109.4a.952.952,0,1,0,0,1.9h10.362a1.539,1.539,0,0,0,1.537-1.537V50.336a9.717,9.717,0,0,0-9.706-9.706ZM110.862,28.5a12.64,12.64,0,0,0,.064-1.277V22.049c0-.244-.01-.487-.024-.731a3.806,3.806,0,0,1-.041,7.18ZM83.326,24.9a3.831,3.831,0,0,1,2.521-3.586c-.014.243-.024.487-.024.731v5.172a12.681,12.681,0,0,0,.064,1.277A3.832,3.832,0,0,1,83.326,24.9Zm4.4,2.317V22.049a10.758,10.758,0,0,1,.14-1.729c0-.005,0-.011,0-.016a10.579,10.579,0,0,1,2.04-4.714A14.9,14.9,0,0,0,98.4,18.5a14.709,14.709,0,0,0,8.441-2.913,10.613,10.613,0,0,1,2.04,4.713c0,.006,0,.011,0,.016v0a10.749,10.749,0,0,1,.14,1.727v5.172a10.65,10.65,0,0,1-5.269,9.183l-.014.008a10.61,10.61,0,0,1-10.729,0L93,36.407a10.65,10.65,0,0,1-5.273-9.186ZM98.375,39.772a12.536,12.536,0,0,0,2.96-.353l-2.96,3.818-2.96-3.818A12.536,12.536,0,0,0,98.375,39.772Zm4.609,11.436-1.491,8.875-2.07-6.3,2.481-3.747Zm-8.139-1.173,2.481,3.747-2.07,6.3-1.491-8.875Zm3.53,6.658,2.1,6.4H96.272Zm0-4.776-2.2-3.325,2.2-2.394,2.2,2.394ZM92.549,38.83l4.58,5.908L93.117,49.1,90.55,41.725ZM103.633,49.1l-1.03-1.12a.944.944,0,0,0-.243-.264L99.62,44.738l4.58-5.908,2,2.9Z" transform="translate(-75.454 0)"/>
    </g>
  </g>
</svg>
