<svg xmlns="http://www.w3.org/2000/svg" width="90" height="90" viewBox="0 0 90 90">
  <g id="t3-im1" transform="translate(-409 9866)">
    <rect id="Rectangle_37077" data-name="Rectangle 37077" width="90" height="90" rx="10" transform="translate(409 -9866)" fill="#ddfff4"/>
    <path id="Rectangle_37077_-_Outline" data-name="Rectangle 37077 - Outline" d="M10,2a8.009,8.009,0,0,0-8,8V80a8.009,8.009,0,0,0,8,8H80a8.009,8.009,0,0,0,8-8V10a8.009,8.009,0,0,0-8-8H10m0-2H80A10,10,0,0,1,90,10V80A10,10,0,0,1,80,90H10A10,10,0,0,1,0,80V10A10,10,0,0,1,10,0Z" transform="translate(409 -9866)" fill="#59ffcc"/>
    <g id="estudio" transform="translate(422 -9853)">
      <g id="Group_114965" data-name="Group 114965" transform="translate(0.952 0.953)">
        <g id="Group_114963" data-name="Group 114963" transform="translate(0 6.207)">
          <g id="Group_114962" data-name="Group 114962">
            <g id="Group_114958" data-name="Group 114958" transform="translate(1.532)">
              <g id="Group_114957" data-name="Group 114957">
                <path id="Path_175086" data-name="Path 175086" d="M141.61,232.757a11,11,0,0,0,6.857-2.512,3.891,3.891,0,0,1-2.849-3.748v-5.806H136.68V226.5a3.892,3.892,0,0,1-2.275,3.54A11.059,11.059,0,0,0,141.61,232.757Z" transform="translate(-119.841 -199.834)" fill="#ffece4"/>
                <g id="Group_114956" data-name="Group 114956">
                  <g id="Group_114955" data-name="Group 114955">
                    <g id="Group_114954" data-name="Group 114954">
                      <g id="Group_114952" data-name="Group 114952" transform="translate(9.929 2.235)">
                        <path id="Path_175087" data-name="Path 175087" d="M120.654,85.03a1.609,1.609,0,0,0-1.606-1.612l-.6,0-.01-2.428c-.021-5.086-4.218-6.956-8.872-6.989-4.633.072-8.821,1.959-8.8,7.064l.007,1.712,0,.716H100.2a2.3,2.3,0,0,0-2.3,2.3l0,2.086a2.3,2.3,0,0,0,2.3,2.3h.59a8.364,8.364,0,0,0,2.813,6.134,8.967,8.967,0,0,0,12.093-.052,8.365,8.365,0,0,0,2.761-6.158l.6,0a1.609,1.609,0,0,0,1.592-1.626Z" transform="translate(-97.904 -74.004)" fill="#ffece4"/>
                      </g>
                      <path id="Path_175088" data-name="Path 175088" d="M180.294,85.905a1.609,1.609,0,0,0-1.606-1.612l-.6,0-.01-2.428c-.018-4.374-3.125-6.367-6.953-6.861a6.788,6.788,0,0,1,.854,3.433l.029,12.541a8.366,8.366,0,0,1-2.761,6.158,9.583,9.583,0,0,1-3.027,1.82,9.1,9.1,0,0,0,3.089.551,9.2,9.2,0,0,0,6.037-2.371,8.365,8.365,0,0,0,2.761-6.158l.6,0a1.609,1.609,0,0,0,1.592-1.626Z" transform="translate(-147.616 -72.645)" fill="#ffddce"/>
                      <path id="Path_175089" data-name="Path 175089" d="M50.2,293.314c-.245-.047-.879-.174-1.606-.321a3.837,3.837,0,0,1-.81-.26,9.629,9.629,0,0,1-12.881-.044c-.075-.065-.147-.133-.22-.2a3.874,3.874,0,0,1-1.276.506c-.727.146-1.361.273-1.606.321A14.93,14.93,0,0,0,19.7,307.975v7.267a3.05,3.05,0,0,0,3.05,3.05H59.261a3.05,3.05,0,0,0,3.05-3.05v-7.267A14.93,14.93,0,0,0,50.2,293.314Z" transform="translate(-19.696 -262.516)" fill="#00ceeb"/>
                      <g id="Group_114953" data-name="Group 114953" transform="translate(25.52 30.217)">
                        <path id="Path_175090" data-name="Path 175090" d="M225.7,295c-.245-.047-.879-.174-1.606-.321a3.837,3.837,0,0,1-.81-.26,10.415,10.415,0,0,1-2.571,1.628,14.932,14.932,0,0,1,8.8,13.614v7.267a3.05,3.05,0,0,1-3.05,3.05h8.3a3.05,3.05,0,0,0,3.05-3.05v-7.267A14.929,14.929,0,0,0,225.7,295Z" transform="translate(-220.713 -294.42)" fill="#00ceeb"/>
                      </g>
                      <path id="Path_175091" data-name="Path 175091" d="M122.007,58.53a2.165,2.165,0,0,0-2.164-2.131h-9.6a6.972,6.972,0,0,0-6.972,6.972v4.607a1.59,1.59,0,0,0,1.067,1.5l1.717.6a.923.923,0,0,0,1.226-.873l0-3.249q0-.078,0-.156a2.226,2.226,0,0,1,3.894-1.319c1.584,1.77,4.836,4.467,9.3,3.388a1.116,1.116,0,0,1,1.267.581h0a2.066,2.066,0,0,0,2.528,1.029,1.59,1.59,0,0,0,1.067-1.5V61.9a2.127,2.127,0,0,0-2.092-2.127A1.26,1.26,0,0,1,122.007,58.53Z" transform="translate(-92.659 -56.399)" fill="#afafaf"/>
                      <path id="Path_175092" data-name="Path 175092" d="M194.592,59.771a1.26,1.26,0,0,1-1.239-1.24,2.165,2.165,0,0,0-2.164-2.131h-6.2a6.154,6.154,0,0,1,3.377,5.8l.013,5.8a8.355,8.355,0,0,0,3.443-.124,1.116,1.116,0,0,1,1.267.581h0a2.066,2.066,0,0,0,2.528,1.029,1.59,1.59,0,0,0,1.067-1.5V61.9A2.127,2.127,0,0,0,194.592,59.771Z" transform="translate(-164.005 -56.4)" fill="#636363"/>
                    </g>
                  </g>
                </g>
              </g>
            </g>
            <g id="Group_114961" data-name="Group 114961" transform="translate(0 30.003)">
              <g id="Group_114960" data-name="Group 114960">
                <g id="Group_114959" data-name="Group 114959">
                  <path id="Path_175093" data-name="Path 175093" d="M81.871,318.451H45.912V295.082a2.352,2.352,0,0,1,2.352-2.352H79.519a2.352,2.352,0,0,1,2.352,2.352v23.369Z" transform="translate(-41.051 -292.73)" fill="#f7f4f7"/>
                  <path id="Path_175094" data-name="Path 175094" d="M253.5,292.731H245.2a2.352,2.352,0,0,1,2.352,2.352v23.369h8.307V295.083A2.352,2.352,0,0,0,253.5,292.731Z" transform="translate(-215.037 -292.731)" fill="#edeaed"/>
                  <path id="Path_175095" data-name="Path 175095" d="M51.266,476.449H9.666a2.039,2.039,0,1,1,0-4.079h41.6a2.039,2.039,0,1,1,0,4.079Z" transform="translate(-7.626 -449.564)" fill="#d1ccd3"/>
                  <path id="Path_175096" data-name="Path 175096" d="M294.323,472.369h-8.3a2.039,2.039,0,1,1,0,4.079h8.3a2.039,2.039,0,1,0,0-4.079Z" transform="translate(-250.683 -449.563)" fill="#c1bcc4"/>
                </g>
              </g>
            </g>
          </g>
          <ellipse id="Ellipse_4896" data-name="Ellipse 4896" cx="3.984" cy="3.984" rx="3.984" ry="3.984" transform="translate(18.856 38.21)" fill="#ffcf19"/>
        </g>
        <g id="Group_114964" data-name="Group 114964" transform="translate(39.593)">
          <path id="Path_175097" data-name="Path 175097" d="M330.731,9.425c-3.181-1.811-8.156-1.948-10.251-1.917a1,1,0,0,0-.983,1V23.7a1,1,0,0,0,1.011,1c1.928-.027,6.219.091,9.36,1.484a3.421,3.421,0,0,0,2.765-.017c3.081-1.353,7.246-1.49,9.215-1.469a1.106,1.106,0,0,0,1.119-1.105V8.507a1,1,0,0,0-.982-1c-2.1-.032-7.077.106-10.258,1.92a1.007,1.007,0,0,1-1,0Z" transform="translate(-319.497 -7.504)" fill="#f7f4f7"/>
          <path id="Path_175098" data-name="Path 175098" d="M422.551,24.7a1.106,1.106,0,0,0,1.119-1.105V8.507a1,1,0,0,0-.982-1c-2.1-.032-7.077.106-10.258,1.92a.993.993,0,0,1-.5.13V26.466a3.527,3.527,0,0,0,1.4-.3C416.417,24.814,420.583,24.677,422.551,24.7Z" transform="translate(-400.2 -7.504)" fill="#edeaed"/>
        </g>
      </g>
      <g id="Group_114966" data-name="Group 114966" transform="translate(0 0)">
        <path id="Path_175099" data-name="Path 175099" d="M342.689,37.439a.952.952,0,0,0,.253-1.87,25.892,25.892,0,0,0-5.606-.822.952.952,0,0,0-.09,1.9A27.64,27.64,0,0,1,342.689,37.439Z" transform="translate(-293.655 -30.335)"/>
        <path id="Path_175100" data-name="Path 175100" d="M337.245,66.316a27.645,27.645,0,0,1,5.444.79.952.952,0,0,0,.253-1.87,25.892,25.892,0,0,0-5.606-.822.952.952,0,1,0-.09,1.9Z" transform="translate(-293.655 -56.235)"/>
        <path id="Path_175101" data-name="Path 175101" d="M337.245,99a27.66,27.66,0,0,1,5.443.79.952.952,0,0,0,.253-1.87,25.9,25.9,0,0,0-5.606-.822.952.952,0,1,0-.09,1.9Z" transform="translate(-293.655 -84.774)"/>
        <path id="Path_175102" data-name="Path 175102" d="M436.038,34.749a25.9,25.9,0,0,0-5.606.822.952.952,0,0,0,.253,1.87,27.938,27.938,0,0,1,5.443-.79.952.952,0,1,0-.09-1.9Z" transform="translate(-375.193 -30.337)"/>
        <path id="Path_175103" data-name="Path 175103" d="M436.038,64.413a25.9,25.9,0,0,0-5.606.822.952.952,0,0,0,.253,1.87,27.938,27.938,0,0,1,5.443-.79.952.952,0,1,0-.09-1.9Z" transform="translate(-375.193 -56.235)"/>
        <path id="Path_175104" data-name="Path 175104" d="M433.007,99.311a21.685,21.685,0,0,0-2.574.533.952.952,0,0,0,.253,1.87c.338,0,.735-.243,2.6-.519a.952.952,0,1,0-.279-1.884Z" transform="translate(-375.193 -86.694)"/>
        <path id="Path_175105" data-name="Path 175105" d="M46.177,102.089V95.31a15.932,15.932,0,0,0-3.328-9.727V82.206a3.308,3.308,0,0,0-3.3-3.3H30.571a3.017,3.017,0,0,1-1.232-2.652,11.075,11.075,0,0,0,1.627-1.19,9.24,9.24,0,0,0,3.027-5.941,2.567,2.567,0,0,0,2.256-2.563l-.007-3.45a2.578,2.578,0,0,0-.144-.836,2.534,2.534,0,0,0,.145-.842V55.349a3.093,3.093,0,0,0-3.029-3.079.307.307,0,0,1-.3-.3A3.13,3.13,0,0,0,29.793,48.9h-9.6a7.933,7.933,0,0,0-7.924,7.924V61.43a2.527,2.527,0,0,0,.035.414,3.241,3.241,0,0,0-.716,2.036l0,2.086A3.256,3.256,0,0,0,14.545,69.2a9.237,9.237,0,0,0,3.076,5.915c.285.246.576.472.874.682a3.373,3.373,0,0,1-1.232,3.1H8.29a3.308,3.308,0,0,0-3.3,3.3v3.377A15.932,15.932,0,0,0,1.657,95.31v6.779a2.991,2.991,0,0,0,1.459,5.6h41.6a2.991,2.991,0,0,0,1.459-5.6ZM42.849,89.176a14.009,14.009,0,0,1,1.424,6.134v6.4H42.849ZM14.172,56.823a6.026,6.026,0,0,1,6.02-6.02h9.6A1.218,1.218,0,0,1,31.006,52h0a2.2,2.2,0,0,0,2.176,2.177,1.18,1.18,0,0,1,1.156,1.175V61.43c0,.816-1.343.937-1.789.052l0-.005A2.06,2.06,0,0,0,30.2,60.4c-4.006.968-6.964-1.525-8.37-3.1a3.178,3.178,0,0,0-5.554,1.908c-.008.173,0,.04,0,3.41L14.6,62.033a.639.639,0,0,1-.428-.6Zm2.212,11.416a.952.952,0,0,0-.952-.928H14.84a1.349,1.349,0,0,1-1.348-1.347,18.964,18.964,0,0,1,.025-2.347,14.38,14.38,0,0,0,2.174.812,1.876,1.876,0,0,0,2.491-1.773c0-2.29-.005-3.278,0-3.357a1.275,1.275,0,0,1,2.233-.731,10.974,10.974,0,0,0,7.97,3.955,9.623,9.623,0,0,0,2.266-.276.166.166,0,0,1,.19.078l0,0a3.024,3.024,0,0,0,3.5,1.562l.006,2.674a.658.658,0,0,1-.644.669l-.6,0a.952.952,0,0,0-.948.936,7.412,7.412,0,0,1-2.438,5.459,8.024,8.024,0,0,1-10.842.046,7.411,7.411,0,0,1-2.484-5.438ZM28.07,78.9h-8.3a4.848,4.848,0,0,0,.621-2.037,9.739,9.739,0,0,0,7.088.257,4.856,4.856,0,0,0,.6,1.779ZM3.562,95.31a14.01,14.01,0,0,1,1.424-6.134V93.8a.952.952,0,0,0,1.9,0v-11.6a1.4,1.4,0,0,1,1.4-1.4H39.544a1.4,1.4,0,0,1,1.4,1.4v19.5H6.89V98.255a.952.952,0,0,0-1.9,0v3.453H3.562Zm41.156,10.477H3.117a1.087,1.087,0,0,1,0-2.175h41.6a1.087,1.087,0,0,1,0,2.175Z" transform="translate(-0.125 -42.691)"/>
        <path id="Path_175106" data-name="Path 175106" d="M153.59,359.748a4.936,4.936,0,1,0-4.936-4.936A4.942,4.942,0,0,0,153.59,359.748Zm0-7.967a3.032,3.032,0,1,1-3.032,3.032A3.035,3.035,0,0,1,153.59,351.78Z" transform="translate(-129.798 -305.458)"/>
        <path id="Path_175107" data-name="Path 175107" d="M335.451,0c-6.295-.1-9.611,1.4-10.744,2.045a.045.045,0,0,1-.025.005h0a.067.067,0,0,1-.028-.009C323.52,1.4,320.206-.091,313.917,0A1.959,1.959,0,0,0,312,1.955V5.363a.952.952,0,0,0,1.9,0V1.955a.046.046,0,0,1,.045-.047c1.939-.029,6.771.087,9.766,1.792l.02.011V18.771l-.026-.01c-3.239-1.436-7.5-1.6-9.76-1.566a.046.046,0,0,1-.046-.047V9.815a.952.952,0,0,0-1.9,0v7.333a1.949,1.949,0,0,0,1.977,1.951c1.69-.023,5.946.065,8.961,1.4a4.39,4.39,0,0,0,3.534-.015c2.976-1.307,7.161-1.406,8.822-1.388a2.057,2.057,0,0,0,2.081-2.057V1.955A1.959,1.959,0,0,0,335.451,0Zm.016,17.037a.154.154,0,0,1-.157.153c-2.216-.024-6.412.146-9.608,1.549-.022.01-.045.016-.067.025V3.711l.015-.008c2.994-1.708,7.831-1.824,9.772-1.8a.046.046,0,0,1,.044.047Z" transform="translate(-272.403 0)"/>
      </g>
    </g>
  </g>
</svg>
