<svg xmlns="http://www.w3.org/2000/svg" width="190" height="101" viewBox="0 0 190 101">
  <g id="t3-ic2" transform="translate(-180 -2055)">
    <rect id="Rectangle_36715" data-name="Rectangle 36715" width="190" height="100" transform="translate(180 2055)" fill="none"/>
    <g id="Group_110590" data-name="Group 110590" transform="translate(180.001 2055)">
      <path id="Path_169529" data-name="Path 169529" d="M623.13-2336.808l-3.5,39.242L587.464-2320.4Z" transform="translate(-587.464 2336.969)" fill="#e8b700"/>
      <path id="Path_169530" data-name="Path 169530" d="M623.224-2337.345l-15.359,18.463-20.267-1.9Z" transform="translate(-587.599 2337.345)" fill="#ffe47a"/>
      <path id="Path_169531" data-name="Path 169531" d="M602.958-2337.345l-3.459,39.4-11.9-20.94Z" transform="translate(-567.332 2337.345)" fill="#ffcf19"/>
    </g>
    <g id="Group_110591" data-name="Group 110591" transform="translate(338.25 2119.924)">
      <path id="Path_169532" data-name="Path 169532" d="M755.214-2296.124l-28.635,20.33-3.115-34.933Z" transform="translate(-723.464 2310.87)" fill="#22f0b0"/>
      <path id="Path_169533" data-name="Path 169533" d="M755.178-2296.412l-18.041,1.69-13.673-16.436Z" transform="translate(-723.428 2311.158)" fill="#a6ffe3"/>
      <path id="Path_169534" data-name="Path 169534" d="M791.423-2294.722l-10.594,18.64-3.079-35.076Z" transform="translate(-777.715 2311.158)" fill="#59ffcc"/>
    </g>
    <g id="woman" transform="translate(163.413 2055)">
      <path id="Path_174613" data-name="Path 174613" d="M150.809,95.689v8.261a1.683,1.683,0,0,1-1.683,1.683H87.684A1.683,1.683,0,0,1,86,103.95V95.689a15.67,15.67,0,0,1,6.312-12.581V28.936A20.937,20.937,0,0,1,113.25,8h10.521a20.937,20.937,0,0,1,20.936,20.936V83.27a15.659,15.659,0,0,1,6.1,12.419Z" transform="translate(-6.318 -6.317)" fill="#ffdfba"/>
      <path id="Path_174614" data-name="Path 174614" d="M150.809,359.56v8.261a1.683,1.683,0,0,1-1.683,1.683H87.684A1.683,1.683,0,0,1,86,367.821V359.56a15.691,15.691,0,0,1,15.691-15.691,8.689,8.689,0,0,0,5.149-1.679l.379,2.451,10.155,7.863a1.686,1.686,0,0,0,2.062,0l10.155-7.863.379-2.451a8.689,8.689,0,0,0,5.149,1.679A15.694,15.694,0,0,1,150.809,359.56Z" transform="translate(-6.318 -270.188)" fill="#36d0e6"/>
      <path id="Path_174615" data-name="Path 174615" d="M209.212,353.84l-3.83,24.863H190.671l-3.83-24.863L197,361.7a1.683,1.683,0,0,0,2.061,0Z" transform="translate(-85.94 -279.386)" fill="#d6f4fc"/>
      <path id="Path_174616" data-name="Path 174616" d="M162.924,50.53V40.154a1.679,1.679,0,0,0-1.106-1.581,16.643,16.643,0,0,1-8.74-7.283,1.674,1.674,0,0,0-2.713-.27,43.005,43.005,0,0,1-27.621,14.663,1.683,1.683,0,0,0-1.483,1.67v3.176a20.834,20.834,0,0,0,12.867,19.253l-.032.078V71.3a8.707,8.707,0,0,1-8.718,8.7A15.629,15.629,0,0,0,116,83.106V28.934A20.937,20.937,0,0,1,136.937,8h10.521a20.937,20.937,0,0,1,20.936,20.936V83.268A15.614,15.614,0,0,0,158.806,80a8.707,8.707,0,0,1-8.718-8.7V69.861l-.032-.078A20.834,20.834,0,0,0,162.924,50.53Z" transform="translate(-30.006 -6.315)" fill="#ffcf19"/>
      <path id="Path_174617" data-name="Path 174617" d="M181.556,122.813a1.679,1.679,0,0,1,1.106,1.581v10.376a20.831,20.831,0,1,1-41.662,0V131.6a1.683,1.683,0,0,1,1.483-1.67A43.006,43.006,0,0,0,170.1,115.261a1.674,1.674,0,0,1,2.713.27A16.644,16.644,0,0,0,181.556,122.813Z" transform="translate(-49.745 -90.556)" fill="#ffebd2"/>
      <path id="Path_174618" data-name="Path 174618" d="M217.338,305.163a20.888,20.888,0,0,1-16.467,0,13.04,13.04,0,0,0,.238-3.455l.032-.078a20.874,20.874,0,0,0,15.929,0l.032.078A13.036,13.036,0,0,0,217.338,305.163Z" transform="translate(-97.018 -238.162)" fill="#ffd6a6"/>
      <path id="Path_174619" data-name="Path 174619" d="M155.342,9.535a2.489,2.489,0,0,1-1.053,4.783c-.424-.01-11.251-.006-11.04-.006a20.937,20.937,0,0,0-20.936,20.936v9.342c0,1.534-1.052,1.576-1.052,2.766,0,3.364-.157,5.867.933,9.358a2.555,2.555,0,0,1,.12.761V78.36a2.49,2.49,0,0,1-1.712,2.379,15.682,15.682,0,0,0-4.6,2.369V28.936A20.937,20.937,0,0,1,136.936,8h10.521a20.875,20.875,0,0,1,7.885,1.535Z" transform="translate(-30.005 -6.317)" fill="#ffe47a"/>
      <path id="Path_174620" data-name="Path 174620" d="M157.2,203.751c3.511,2.185.738,7.575-3.1,6.036A20.834,20.834,0,0,1,141,190.439v-3.175a1.681,1.681,0,0,1,1.479-1.67c.8-.1,1.622-.219,2.468-.369a2.1,2.1,0,0,1,2.466,1.883A21.193,21.193,0,0,0,157.2,203.751Z" transform="translate(-49.745 -146.225)" fill="#fff3e4"/>
      <path id="Path_174621" data-name="Path 174621" d="M108.04,349.967c-9.866.253-15.937,7.682-15.937,15.695V369.5H87.684A1.683,1.683,0,0,1,86,367.821V359.56a15.691,15.691,0,0,1,15.691-15.691,8.689,8.689,0,0,0,5.149-1.679c.478,3.1.227,1.466,1.2,7.777Z" transform="translate(-6.318 -270.188)" fill="#77e7f7"/>
      <path id="Path_174622" data-name="Path 174622" d="M289.261,349.967c9.866.253,15.937,7.682,15.937,15.695V369.5h4.419a1.683,1.683,0,0,0,1.683-1.683V359.56a15.691,15.691,0,0,0-15.691-15.691,8.689,8.689,0,0,1-5.149-1.679c-.479,3.1-.227,1.466-1.2,7.777Z" transform="translate(-166.809 -270.188)" fill="#77e7f7"/>
      <path id="Path_174623" data-name="Path 174623" d="M194.879,378.7h-4.208l-3.83-24.863,4.779,3.7Z" transform="translate(-85.94 -279.386)" fill="#bdeffc"/>
      <path id="Path_174624" data-name="Path 174624" d="M146.174,89.373v9.944a1.683,1.683,0,1,1-3.367,0V89.373A14,14,0,0,0,128.8,75.365a10.464,10.464,0,0,1-3.851-.73l-3.842,24.937a1.683,1.683,0,1,1-3.327-.513L121.84,72.7a10.485,10.485,0,0,1-1.932-2.33,1.683,1.683,0,0,1,2.875-1.752A7.012,7.012,0,0,0,128.8,72a17.365,17.365,0,0,1,17.375,17.374ZM118.37,78.25a1.683,1.683,0,0,0-2.362-.3l-3.922,3.036-9.625-7.452-.129-.834a10.3,10.3,0,0,0,3.406-6.884A22.539,22.539,0,0,0,134.6,44.39c0-.037,0-11.738,0-11.776a1.687,1.687,0,0,0-.958-1.517,15.257,15.257,0,0,1-10.1-8.993,1.684,1.684,0,0,0-2.9-.4A40.985,40.985,0,0,1,95.925,37.115a1.684,1.684,0,0,0,.326,3.335,44.1,44.1,0,0,0,25.373-14.618,18.318,18.318,0,0,0,9.611,8.005V44.214a19.169,19.169,0,0,1-19.148,19.148c-9.882,0-19.148-7.681-19.148-19.805a1.683,1.683,0,1,0-3.367,0c0,.087,0,.929,0,1.013a22.547,22.547,0,0,0,12.833,19.97v.443A7.022,7.022,0,0,1,95.373,72a17.3,17.3,0,0,0-7.7,1.793V22.62A19.275,19.275,0,0,1,106.931,3.367h10.521A19.275,19.275,0,0,1,136.705,22.62V68.175a1.683,1.683,0,1,0,3.367,0V22.62A22.645,22.645,0,0,0,117.452,0H106.931a22.645,22.645,0,0,0-22.62,22.62V75.975A17.287,17.287,0,0,0,78,89.373v9.944a1.683,1.683,0,1,0,3.367,0V89.373A14.008,14.008,0,0,1,95.374,75.365a10.407,10.407,0,0,0,3.85-.734l3.843,24.941a1.683,1.683,0,1,0,3.327-.513l-3.188-20.692,7.85,6.077a1.683,1.683,0,0,0,2.061,0l4.952-3.834a1.683,1.683,0,0,0,.3-2.361Z"/>
    </g>
  </g>
</svg>
