<svg xmlns="http://www.w3.org/2000/svg" width="190" height="100" viewBox="0 0 190 100">
  <g id="t3-ic3" transform="translate(0 0)">
    <rect id="Rectangle_36715" data-name="Rectangle 36715" width="190" height="100" transform="translate(0 0)" fill="none"/>
    <g id="Group_110590" data-name="Group 110590" transform="translate(154.333 0)">
      <path id="Path_169529" data-name="Path 169529" d="M587.464-2336.808l3.5,39.242L623.13-2320.4Z" transform="translate(-587.464 2336.969)" fill="#e8b700"/>
      <path id="Path_169530" data-name="Path 169530" d="M587.6-2337.345l15.359,18.463,20.267-1.9Z" transform="translate(-587.558 2337.345)" fill="#ffe47a"/>
      <path id="Path_169531" data-name="Path 169531" d="M587.6-2337.345l3.459,39.4,11.9-20.94Z" transform="translate(-587.558 2337.345)" fill="#ffcf19"/>
    </g>
    <g id="Group_110591" data-name="Group 110591" transform="translate(0 64.924)">
      <path id="Path_169532" data-name="Path 169532" d="M723.464-2296.124l28.635,20.33,3.115-34.933Z" transform="translate(-723.464 2310.87)" fill="#22f0b0"/>
      <path id="Path_169533" data-name="Path 169533" d="M723.464-2296.412l18.041,1.69,13.673-16.436Z" transform="translate(-723.464 2311.158)" fill="#a6ffe3"/>
      <path id="Path_169534" data-name="Path 169534" d="M777.751-2294.722l10.594,18.64,3.079-35.076Z" transform="translate(-759.71 2311.158)" fill="#59ffcc"/>
    </g>
    <g id="gobierno" transform="translate(47.333 2)">
      <g id="Group_114945" data-name="Group 114945" transform="translate(1.401 1.401)">
        <path id="Path_175048" data-name="Path 175048" d="M115.6,263.522H31.834v45.027H115.6Z" transform="translate(-27.287 -215.685)" fill="#f3f9ff"/>
        <path id="Path_175049" data-name="Path 175049" d="M38.915,263.522H31.834v45.027h7.081Z" transform="translate(49.402 -215.685)" fill="#d2e1f1"/>
        <path id="Path_175050" data-name="Path 175050" d="M11.493,248.131H96.371a3.993,3.993,0,0,1,0,7.986H11.493a3.993,3.993,0,0,1,0-7.986Z" transform="translate(-7.5 -203.169)" fill="#f3f9ff"/>
        <path id="Path_175051" data-name="Path 175051" d="M10.323,254.947a3.979,3.979,0,0,1-2.823,1.17H19.84a3.993,3.993,0,1,0,0-7.986H7.5a3.993,3.993,0,0,1,2.823,6.816Z" transform="translate(69.032 -203.169)" fill="#d2e1f1"/>
        <path id="Path_175052" data-name="Path 175052" d="M171.647,327.818V290.872H121.316v36.946" transform="translate(-100.05 -237.924)" fill="#f6f6f6"/>
        <g id="Group_114944" data-name="Group 114944" transform="translate(17.563 12.1)">
          <path id="Path_175053" data-name="Path 175053" d="M124.925,327.818V290.872h-3.609v36.946" transform="translate(-70.89 -250.024)" fill="#f3f9ff"/>
          <path id="Path_175054" data-name="Path 175054" d="M171.647,296.066v-5.194H121.316v5.194" transform="translate(-117.613 -250.024)" fill="#f3f9ff"/>
          <path id="Path_175055" data-name="Path 175055" d="M105.492,97.133a24.875,24.875,0,0,1,49.751,0,3.993,3.993,0,1,1,0,7.986H105.492a3.993,3.993,0,1,1,0-7.986Z" transform="translate(-101.499 -72.258)" fill="#f3f9ff"/>
        </g>
        <path id="Path_175056" data-name="Path 175056" d="M101.5,73.059a24.883,24.883,0,0,1,18.593,24.076,3.993,3.993,0,1,1,0,7.986h12.562a3.993,3.993,0,1,0,0-7.986A24.9,24.9,0,0,0,101.5,73.059Z" transform="translate(-61.348 -60.159)" fill="#d2e1f1"/>
        <path id="Path_175057" data-name="Path 175057" d="M266.551,7.5H256v7.451h10.55Z" transform="translate(-220.119 -7.5)" fill="#00ceeb"/>
        <path id="Path_175058" data-name="Path 175058" d="M134.289,194.751l25.166,14.321a3.155,3.155,0,0,1-1.56,5.9H107.563a3.155,3.155,0,0,1-1.56-5.9l25.166-14.321A3.155,3.155,0,0,1,134.289,194.751Z" transform="translate(-86.297 -159.428)" fill="#f6f6f6"/>
        <path id="Path_175059" data-name="Path 175059" d="M126.728,214.97h5.688a3.155,3.155,0,0,0,1.562-5.9l-25.167-14.32a3.151,3.151,0,0,0-3.12,0l-1.286.731,23.883,13.59A3.155,3.155,0,0,1,126.728,214.97Z" transform="translate(-60.819 -159.429)" fill="#dddaec"/>
        <path id="Path_175060" data-name="Path 175060" d="M165.929,474.725H112.185v5.563h53.744Z" transform="translate(-92.625 -387.424)" fill="#dddaec"/>
        <path id="Path_175061" data-name="Path 175061" d="M157.977,331.994a4.267,4.267,0,0,1,4.267,4.267v22.4H153.71v-22.4A4.267,4.267,0,0,1,157.977,331.994Z" transform="translate(-96.699 -271.363)" fill="#77e7f7"/>
        <path id="Path_175062" data-name="Path 175062" d="M237.431,331.994a4.267,4.267,0,0,1,4.267,4.267v22.4h-8.534v-22.4A4.267,4.267,0,0,1,237.431,331.994Z" transform="translate(-190.999 -271.363)" fill="#77e7f7"/>
        <path id="Path_175063" data-name="Path 175063" d="M316.884,331.994a4.267,4.267,0,0,1,4.267,4.267v22.4h-8.534v-22.4A4.267,4.267,0,0,1,316.884,331.994Z" transform="translate(-285.298 -271.363)" fill="#77e7f7"/>
        <path id="Path_175064" data-name="Path 175064" d="M449.35,327.236h-7.081v26.669h7.081Z" transform="translate(-437.721 -267.494)" fill="#77e7f7"/>
        <path id="Path_175065" data-name="Path 175065" d="M38.915,327.236H31.834v26.669h7.081Z" transform="translate(49.402 -267.494)" fill="#77e7f7"/>
      </g>
      <path id="Path_175066" data-name="Path 175066" d="M0,50.356a5.395,5.395,0,0,1,5.394-5.394H18.229a5.392,5.392,0,0,1,3.356-7.809A26.313,26.313,0,0,1,46.432,12.138V10.254H37.283a1.4,1.4,0,0,1-1.4-1.4V1.4a1.4,1.4,0,0,1,1.4-1.4h10.55a1.4,1.4,0,0,1,1.4,1.4v10.74a26.219,26.219,0,0,1,12.3,3.806,1.4,1.4,0,0,1-1.462,2.391A23.479,23.479,0,0,0,24.4,36.976H43l2.581-1.469a4.576,4.576,0,0,1,4.507,0l2.581,1.469h18.6A23.272,23.272,0,0,0,64.24,21.589a1.4,1.4,0,0,1,1.959-2,26.055,26.055,0,0,1,7.883,17.568,5.392,5.392,0,0,1,3.356,7.809H90.273a5.394,5.394,0,0,1,.848,10.722V94.265a1.4,1.4,0,0,1-1.4,1.4H5.947a1.4,1.4,0,0,1-1.4-1.4V55.683A5.4,5.4,0,0,1,0,50.356Zm38.684-42.9h7.748V2.8H38.684ZM22.958,39.778a2.592,2.592,0,1,0,0,5.183h6.007l9.108-5.183ZM48.7,37.943h0a1.762,1.762,0,0,0-1.735,0L21.8,52.264a1.753,1.753,0,0,0,.864,3.278H73a1.754,1.754,0,0,0,.867-3.278ZM75.3,42.37a2.6,2.6,0,0,0-2.592-2.592H57.593L66.7,44.962h6.008A2.6,2.6,0,0,0,75.3,42.37Zm17.564,7.986a2.6,2.6,0,0,0-2.592-2.592H71.627l3.626,2.063a4.507,4.507,0,0,1,2.233,3.12H90.273a2.592,2.592,0,0,0,2.592-2.592ZM88.318,89.214H82.637a1.4,1.4,0,0,1-1.4-1.4V61.144a1.4,1.4,0,0,1,1.4-1.4h5.681V55.75H77.112A4.467,4.467,0,0,1,74.4,58.128V87.3h.3a1.4,1.4,0,0,1,1.4,1.4v4.162H88.318Zm0-2.8V62.545H84.039V86.412ZM73.3,92.864V90.1H22.362v2.761ZM59.813,87.3h5.732v-21a2.866,2.866,0,0,0-5.732,0Zm-14.846,0H50.7v-21a2.866,2.866,0,1,0-5.731,0Zm-14.846,0h5.731v-21a2.866,2.866,0,0,0-5.731,0ZM19.56,92.864V88.7a1.4,1.4,0,0,1,1.4-1.4h.3v-8a1.4,1.4,0,1,1,2.8,0v8h3.251v-21a5.668,5.668,0,0,1,11.337,0v21h3.509v-21a5.668,5.668,0,0,1,11.337,0v21h3.509v-21a5.669,5.669,0,0,1,11.337,0v21H71.6V58.344H24.068V73.7a1.4,1.4,0,1,1-2.8,0V58.127a4.467,4.467,0,0,1-2.711-2.377H7.349v3.992h5.68a1.4,1.4,0,0,1,1.4,1.4V87.813a1.4,1.4,0,0,1-1.4,1.4H7.349v3.65ZM7.349,62.545V86.412h4.279V62.545Zm-1.955-9.6H18.182a4.506,4.506,0,0,1,2.233-3.12l3.626-2.063H5.394a2.592,2.592,0,1,0,0,5.183Z" transform="translate(0 0)"/>
    </g>
  </g>
</svg>
