<svg xmlns="http://www.w3.org/2000/svg" width="90" height="90" viewBox="0 0 90 90">
  <g id="t3-im5" transform="translate(-4409 9866)">
    <rect id="Rectangle_37080" data-name="Rectangle 37080" width="90" height="90" rx="10" transform="translate(4409 -9866)" fill="#ddfff4"/>
    <path id="Rectangle_37080_-_Outline" data-name="Rectangle 37080 - Outline" d="M10,2a8.009,8.009,0,0,0-8,8V80a8.009,8.009,0,0,0,8,8H80a8.009,8.009,0,0,0,8-8V10a8.009,8.009,0,0,0-8-8H10m0-2H80A10,10,0,0,1,90,10V80A10,10,0,0,1,80,90H10A10,10,0,0,1,0,80V10A10,10,0,0,1,10,0Z" transform="translate(4409 -9866)" fill="#59ffcc"/>
    <g id="edificio-del-gobierno" transform="translate(4422 -9853)">
      <g id="Group_114950" data-name="Group 114950" transform="translate(0.952 0.952)">
        <g id="Group_114948" data-name="Group 114948">
          <path id="Path_175067" data-name="Path 175067" d="M7.5,21.084H70.6L40.952,7.5H37.144Zm31.548-3.809a2.539,2.539,0,1,1,2.539-2.539A2.539,2.539,0,0,1,39.048,17.275Z" transform="translate(-7.5 -7.5)" fill="#ffcf19" fill-rule="evenodd"/>
          <ellipse id="Ellipse_4895" data-name="Ellipse 4895" cx="2.539" cy="2.539" rx="2.539" ry="2.539" transform="matrix(0.987, -0.16, 0.16, 0.987, 28.631, 5.142)" fill="#e5ecf5"/>
          <path id="Path_175068" data-name="Path 175068" d="M70.6,122.116V114.5H7.5v7.617ZM7.5,164.011H70.6V160.2h-1.9v-3.809H9.4V160.2H7.5Z" transform="translate(-7.5 -100.915)" fill="#e5ecf5" fill-rule="evenodd"/>
          <path id="Path_175069" data-name="Path 175069" d="M52.5,231.159h9.521V204.5H52.5Zm42.148,0h9.521V204.5H94.648Zm-21.074,0H83.1V204.5H73.574Z" transform="translate(-46.787 -179.489)" fill="#e5ecf5" fill-rule="evenodd"/>
          <path id="Path_175070" data-name="Path 175070" d="M37.5,208.776h13.33v-3.809H37.5Zm42.149,0h13.33v-3.809H79.648Zm13.33-30.469V174.5H79.648v3.809Zm-34.4,30.469H71.9v-3.809H58.573ZM71.9,178.308V174.5H58.573v3.809Zm-21.074,0V174.5H37.5v3.809Z" transform="translate(-33.691 -153.298)" fill="#ffe47a" fill-rule="evenodd"/>
          <path id="Path_175071" data-name="Path 175071" d="M7.5,21.084h3.809L40.952,7.5H37.144Z" transform="translate(-7.5 -7.5)" fill="#ffe47a" fill-rule="evenodd"/>
          <path id="Path_175072" data-name="Path 175072" d="M10.356,114.5H7.5v7.617h2.856ZM7.5,164.011h2.856V160.2h1.9v-3.809H9.4V160.2H7.5Z" transform="translate(-7.5 -100.915)" fill="#cad8eb" fill-rule="evenodd"/>
          <path id="Path_175073" data-name="Path 175073" d="M52.5,231.159h2.856V204.5H52.5Zm42.148,0H97.5V204.5H94.648Zm-21.074,0h2.856V204.5H73.574Z" transform="translate(-46.787 -179.489)" fill="#cad8eb" fill-rule="evenodd"/>
          <path id="Path_175074" data-name="Path 175074" d="M37.5,208.776h2.856v-3.809H37.5Zm42.149,0H82.5v-3.809H79.648v3.809ZM82.5,174.5H79.648v3.809H82.5ZM58.574,208.776h2.856v-3.809H58.574ZM61.431,174.5H58.574v3.809h2.856Zm-21.074,0H37.5v3.809h2.856Z" transform="translate(-33.691 -153.298)" fill="#e8b700" fill-rule="evenodd"/>
          <path id="Path_175075" data-name="Path 175075" d="M129.4,208.776h7.744v-3.809h1.9v-26.66h-1.9V174.5H129.4v3.809h-1.9v26.66h1.9Zm21.074,0h7.744v-3.809h1.9v-26.66h-1.9V174.5h-7.744v3.809h-1.9v26.66h1.9Z" transform="translate(-112.265 -153.298)" fill="#77e7f7" fill-rule="evenodd"/>
          <path id="Path_175076" data-name="Path 175076" d="M129.4,179.26v24.756h1.9v4.761h-1.9v-3.809h-1.9v-26.66h1.9V174.5h1.9v4.761Zm21.074,0v24.756h1.9v4.761h-1.9v-3.809h-1.9v-26.66h1.9V174.5h1.9v4.761Z" transform="translate(-112.265 -153.298)" fill="#00ceeb" fill-rule="evenodd"/>
          <path id="Path_175077" data-name="Path 175077" d="M236,47.029a2.543,2.543,0,0,0,3.491,2.354,2.54,2.54,0,0,1,0-4.709A2.543,2.543,0,0,0,236,47.029Z" transform="translate(-206.991 -39.793)" fill="#cad8eb" fill-rule="evenodd"/>
        </g>
        <g id="Group_114949" data-name="Group 114949" transform="translate(8.569 16.44)">
          <path id="Path_175078" data-name="Path 175078" d="M119.052,169.372h-1.9v-1.9h1.9Zm-21.074,0h-1.9v-1.9h1.9Zm-21.074,0H75v-1.9h1.9Zm44.053-11.426h-1.9v-5.713h1.9Zm-21.074,0h-1.9v-5.713h1.9Zm-21.074,0H76.9v-5.713h1.9Zm42.149-7.617h-1.9v-1.9h1.9Zm-21.074,0h-1.9v-1.9h1.9Zm-21.074,0H76.9v-1.9h1.9ZM126.669,138.9h-1.9V137h1.9Zm-3.809,0h-5.713V137h5.713Z" transform="translate(-74.999 -136.999)" fill="#fff"/>
        </g>
      </g>
      <g id="Group_114951" data-name="Group 114951" transform="translate(0)">
        <path id="Path_175079" data-name="Path 175079" d="M18.809,227v22.852H16.9v3.809H15v1.9H76.191v-1.9h-1.9v-3.809h-1.9V227h-1.9v22.852H67.622v1.9h4.761v1.9H60.957v-1.9h4.761v-1.9H62.861V227h-1.9v22.852h-1.9v3.809h-5.84v-3.809h-1.9V227H49.4v22.852H46.548v1.9h4.761v1.9H39.883v-1.9h4.761v-1.9H41.787V227h-1.9v22.852h-1.9v3.809h-5.84v-3.809h-1.9V227h-1.9v22.852H25.474v1.9h4.761v1.9H18.809v-1.9h4.761v-1.9H20.713V227Z" transform="translate(-13.096 -198.181)"/>
        <path id="Path_175080" data-name="Path 175080" d="M1.9,468.9H31.548V467H0v5.713H55.479v-1.9H1.9Z" transform="translate(0 -407.713)"/>
        <path id="Path_175081" data-name="Path 175081" d="M263.5,468.9h29.644v1.9h-5.713v1.9h7.617V467H263.5Z" transform="translate(-230.048 -407.713)"/>
        <path id="Path_175082" data-name="Path 175082" d="M34.612,0H30.388L16.243,6.482l.793,1.731L30.8,1.9H34.2l25.488,11.68H5.316L15.3,9.006l-.793-1.731L0,13.925v9.18H3.809v3.809H19.043V23.105h5.84v3.809H40.117V23.105h5.84v3.809H61.191V23.105H65v-9.18ZM17.139,25.01H5.713v-1.9H17.139Zm42.149,0H47.861v-1.9H59.287ZM33.452,21.2v1.9h4.761v1.9H26.787v-1.9h4.761V21.2H1.9V15.488H63.1V21.2Z" transform="translate(0)"/>
        <path id="Path_175083" data-name="Path 175083" d="M233.5,137h1.9v1.9h-1.9Z" transform="translate(-203.856 -119.607)"/>
        <path id="Path_175084" data-name="Path 175084" d="M212.348,43.982a3.5,3.5,0,0,0,3.359-2.539H218.7v-1.9h-2.988a3.492,3.492,0,0,0-6.719,0H206v1.9h2.988A3.5,3.5,0,0,0,212.348,43.982Zm0-5.078a1.587,1.587,0,1,1-1.587,1.587A1.589,1.589,0,0,1,212.348,38.9Z" transform="translate(-179.848 -32.303)"/>
        <path id="Path_175085" data-name="Path 175085" d="M263.5,137h1.9v1.9h-1.9Z" transform="translate(-230.048 -119.607)"/>
      </g>
    </g>
  </g>
</svg>
