<svg xmlns="http://www.w3.org/2000/svg" width="90" height="92" viewBox="0 0 90 92">
  <g id="t3-im2" transform="translate(-1409 9866)">
    <rect id="Rectangle_37078" data-name="Rectangle 37078" width="90" height="92" rx="10" transform="translate(1409 -9866)" fill="#fff5d0"/>
    <path id="Rectangle_37078_-_Outline" data-name="Rectangle 37078 - Outline" d="M10,2a8.009,8.009,0,0,0-8,8V82a8.009,8.009,0,0,0,8,8H80a8.009,8.009,0,0,0,8-8V10a8.009,8.009,0,0,0-8-8H10m0-2H80A10,10,0,0,1,90,10V82A10,10,0,0,1,80,92H10A10,10,0,0,1,0,82V10A10,10,0,0,1,10,0Z" transform="translate(1409 -9866)" fill="#ffcf19"/>
    <g id="fabrica" transform="translate(1422 -9852)">
      <g id="Group_114968" data-name="Group 114968" transform="translate(0.958 0.946)">
        <path id="Path_175108" data-name="Path 175108" d="M372.65,130.272l-.281-2.793.281-.435-.468-5.011-.813-.5h-5.491l-.666.5-.468,5.011.293.324-.293,3.047-.34.275-1.223,13.11.6.448h9.9l.527-.448-1.223-13.11Z" transform="translate(-318.032 -107.046)" fill="#dbedff"/>
        <path id="Path_175109" data-name="Path 175109" d="M368.255,130.69l.34-.275.293-3.047-.293-.324.468-5.011.666-.5h-3.851l-.666.5-.468,5.011.293.324-.293,3.047-.34.275-1.223,13.11.6.448h3.851l-.6-.448Z" transform="translate(-318.032 -107.046)" fill="#b5dcff"/>
        <path id="Path_175110" data-name="Path 175110" d="M341.119,296.962H322.084l-.987.961v21.921h20.439l.291-.26V297.67A.708.708,0,0,0,341.119,296.962Z" transform="translate(-281.291 -260.208)" fill="#5b2ab5"/>
        <path id="Path_175111" data-name="Path 175111" d="M326.44,297.67a.708.708,0,0,1,.708-.708h-5.063l-.987.961v21.921h5.634l-.291-.26Z" transform="translate(-281.291 -260.208)" fill="#5000a1"/>
        <path id="Path_175112" data-name="Path 175112" d="M379.359,96.78h-7.732a.662.662,0,0,0-.662.662v2.322a.662.662,0,0,0,.662.662h7.732a.662.662,0,0,0,.662-.662V97.442A.662.662,0,0,0,379.359,96.78Z" transform="translate(-324.828 -85.44)" fill="#b5dcff"/>
        <path id="Path_175113" data-name="Path 175113" d="M374.689,99.764V97.442a.662.662,0,0,1,.662-.662h-3.724a.662.662,0,0,0-.662.662v2.322a.662.662,0,0,0,.662.662h3.724A.662.662,0,0,1,374.689,99.764Z" transform="translate(-324.828 -85.44)" fill="#8bcaff"/>
        <path id="Path_175114" data-name="Path 175114" d="M265.457,9.8a.568.568,0,0,1-.626-.311A3.722,3.722,0,0,0,259,8.433a.564.564,0,0,1-.763,0,3.715,3.715,0,0,0-5.02,0,.564.564,0,0,1-.763,0,3.716,3.716,0,1,0,0,5.477.564.564,0,0,1,.763,0,3.715,3.715,0,0,0,5.021,0,.564.564,0,0,1,.762,0,3.716,3.716,0,0,0,4.623.32.57.57,0,0,1,.7.03A2.572,2.572,0,1,0,265.457,9.8Z" transform="translate(-215.928 -7.456)" fill="#dbedff"/>
        <path id="Path_175115" data-name="Path 175115" d="M264.33,26.984a.57.57,0,0,0-.7-.03,3.716,3.716,0,0,1-4.623-.32.564.564,0,0,0-.762,0,3.715,3.715,0,0,1-5.021,0,.564.564,0,0,0-.763,0,3.742,3.742,0,0,1-5.947-1.295,3.728,3.728,0,0,0,5.947,4.183.564.564,0,0,1,.763,0,3.715,3.715,0,0,0,5.021,0,.564.564,0,0,1,.762,0,3.716,3.716,0,0,0,4.623.32.57.57,0,0,1,.7.03,2.575,2.575,0,0,0,4.256-1.943,2.54,2.54,0,0,0-.438-1.437A2.6,2.6,0,0,1,264.33,26.984Z" transform="translate(-215.928 -23.071)" fill="#b5dcff"/>
        <path id="Path_175116" data-name="Path 175116" d="M372.817,168.62H381.4l-.34-3.646h-7.9Z" transform="translate(-326.445 -144.977)" fill="#ffe47a"/>
        <path id="Path_175117" data-name="Path 175117" d="M373.157,164.974l-.34,3.646h3.851l.34-3.646Z" transform="translate(-326.445 -144.977)" fill="#e8b700"/>
        <path id="Path_175118" data-name="Path 175118" d="M361.84,446.384h11.373V450.2H361.84Z" transform="translate(-316.861 -390.661)" fill="#59ffcc"/>
        <path id="Path_175119" data-name="Path 175119" d="M361.84,446.384h5.35V450.2h-5.35Z" transform="translate(-316.861 -390.661)" fill="#22f0b0"/>
        <path id="Path_175120" data-name="Path 175120" d="M361.84,391.47h11.373v3.817H361.84Z" transform="translate(-316.861 -342.719)" fill="#59ffcc"/>
        <path id="Path_175121" data-name="Path 175121" d="M361.84,391.47h5.35v3.817h-5.35Z" transform="translate(-316.861 -342.719)" fill="#22f0b0"/>
        <path id="Path_175122" data-name="Path 175122" d="M237.15,246.541l-11.2,5.637a.774.774,0,0,0-.426.691l-.43.448V275.75H237.75l.522-.26V247.232A.774.774,0,0,0,237.15,246.541Z" transform="translate(-197.478 -216.116)" fill="#ffe47a"/>
        <path id="Path_175123" data-name="Path 175123" d="M361.84,420.231h11.373v3.486H361.84Z" transform="translate(-316.861 -367.828)" fill="#59ffcc"/>
        <path id="Path_175124" data-name="Path 175124" d="M361.84,420.231h5.35v3.486h-5.35Z" transform="translate(-316.861 -367.828)" fill="#22f0b0"/>
        <path id="Path_175125" data-name="Path 175125" d="M373.043,362.307H362.01a.6.6,0,0,1-.17-.028v3.872h11.373v-3.872A.6.6,0,0,1,373.043,362.307Z" transform="translate(-316.861 -317.233)" fill="#59ffcc"/>
        <path id="Path_175126" data-name="Path 175126" d="M367.109,362.307h-5.19a.153.153,0,0,1-.08-.028v3.872h5.35v-3.872A.152.152,0,0,1,367.109,362.307Z" transform="translate(-316.86 -317.233)" fill="#22f0b0"/>
        <path id="Path_175127" data-name="Path 175127" d="M369.659,336.791H358.627a.662.662,0,0,0-.662.662v2.322a.662.662,0,0,0,.662.662h11.032a.662.662,0,0,0,.662-.662v-2.322A.662.662,0,0,0,369.659,336.791Z" transform="translate(-313.478 -294.981)" fill="#dbedff"/>
        <path id="Path_175128" data-name="Path 175128" d="M363.144,339.774v-2.322a.662.662,0,0,1,.662-.662h-5.179a.662.662,0,0,0-.662.662v2.322a.662.662,0,0,0,.662.662h5.179A.662.662,0,0,1,363.144,339.774Z" transform="translate(-313.478 -294.98)" fill="#b5dcff"/>
        <path id="Path_175129" data-name="Path 175129" d="M232.051,254.1a.774.774,0,0,1,.426-.691l8.752-4.406v-1.773a.774.774,0,0,0-1.122-.691l-11.2,5.637a.774.774,0,0,0-.426.691V275.49h3.567V254.1Z" transform="translate(-200.435 -216.116)" fill="#e8b700"/>
        <path id="Path_175130" data-name="Path 175130" d="M135.936,246.541l-11.2,5.637a.774.774,0,0,0-.426.691l-.55.448v22.771h12.314l.98-.6V247.232A.774.774,0,0,0,135.936,246.541Z" transform="translate(-109.009 -216.116)" fill="#ffe47a"/>
        <path id="Path_175131" data-name="Path 175131" d="M131.661,254.1a.774.774,0,0,1,.426-.691l8.752-4.406v-1.773a.774.774,0,0,0-1.122-.691l-11.2,5.637a.774.774,0,0,0-.426.691V275.49h3.567V254.1Z" transform="translate(-112.79 -216.116)" fill="#e8b700"/>
        <path id="Path_175132" data-name="Path 175132" d="M39.327,246.541l-11.2,5.637a.774.774,0,0,0-.426.691V275.49H40.449V247.232a.774.774,0,0,0-1.122-.691Z" transform="translate(-25.145 -216.116)" fill="#ffe47a"/>
        <path id="Path_175133" data-name="Path 175133" d="M31.271,254.1a.774.774,0,0,1,.426-.691l8.752-4.406v-1.773a.774.774,0,0,0-1.122-.691l-11.2,5.637a.774.774,0,0,0-.426.691V275.49h3.567V254.1Z" transform="translate(-25.145 -216.116)" fill="#e8b700"/>
        <path id="Path_175134" data-name="Path 175134" d="M69.721,474.145H8.465a.92.92,0,0,0-.92.92v2.008a.92.92,0,0,0,.92.92H69.721a.92.92,0,0,0,.92-.92v-2.008A.92.92,0,0,0,69.721,474.145Z" transform="translate(-7.545 -414.898)" fill="#dbedff"/>
        <path id="Path_175135" data-name="Path 175135" d="M69.721,482.972H8.465a.92.92,0,0,1-.92-.92v1.924a.92.92,0,0,0,.92.92H69.721a.92.92,0,0,0,.92-.92v-1.924A.92.92,0,0,1,69.721,482.972Z" transform="translate(-7.545 -421.801)" fill="#b5dcff"/>
        <g id="Group_114967" data-name="Group 114967" transform="translate(5.999 39.592)">
          <path id="Path_175136" data-name="Path 175136" d="M260.66,319.319h-4.292a.786.786,0,0,0-.786.786v4.8a.786.786,0,0,0,.786.786h4.292a.786.786,0,0,0,.786-.786v-4.8A.786.786,0,0,0,260.66,319.319Z" transform="translate(-230.091 -319.319)" fill="#59ffcc"/>
          <path id="Path_175137" data-name="Path 175137" d="M160.269,319.319h-4.292a.786.786,0,0,0-.786.786v4.8a.786.786,0,0,0,.786.786h4.292a.786.786,0,0,0,.786-.786v-4.8A.786.786,0,0,0,160.269,319.319Z" transform="translate(-142.446 -319.319)" fill="#59ffcc"/>
          <path id="Path_175138" data-name="Path 175138" d="M59.879,319.319H55.587a.786.786,0,0,0-.786.786v4.8a.786.786,0,0,0,.786.786h4.292a.786.786,0,0,0,.786-.786v-4.8A.786.786,0,0,0,59.879,319.319Z" transform="translate(-54.801 -319.319)" fill="#59ffcc"/>
        </g>
        <path id="Path_175139" data-name="Path 175139" d="M258.513,324.9v-4.8a.786.786,0,0,1,.786-.786h-2.932a.786.786,0,0,0-.786.786v4.8a.786.786,0,0,0,.786.786H259.3A.786.786,0,0,1,258.513,324.9Z" transform="translate(-224.092 -279.726)" fill="#22f0b0"/>
        <path id="Path_175140" data-name="Path 175140" d="M158.123,324.9v-4.8a.786.786,0,0,1,.786-.786h-2.932a.786.786,0,0,0-.786.786v4.8a.786.786,0,0,0,.786.786h2.932A.786.786,0,0,1,158.123,324.9Z" transform="translate(-136.447 -279.726)" fill="#22f0b0"/>
        <path id="Path_175141" data-name="Path 175141" d="M57.733,324.9v-4.8a.786.786,0,0,1,.786-.786H55.587a.786.786,0,0,0-.786.786v4.8a.786.786,0,0,0,.786.786H58.52A.786.786,0,0,1,57.733,324.9Z" transform="translate(-48.802 -279.726)" fill="#22f0b0"/>
      </g>
      <g id="Group_114969" data-name="Group 114969" transform="translate(0 0)">
        <path id="Path_175142" data-name="Path 175142" d="M48.994,320.138h4.292a1.74,1.74,0,0,0,1.738-1.738v-4.8a1.74,1.74,0,0,0-1.738-1.738H48.994a1.74,1.74,0,0,0-1.738,1.738v4.8A1.74,1.74,0,0,0,48.994,320.138Zm.166-6.372h3.96v4.468H49.16Z" transform="translate(-41.257 -272.27)"/>
        <path id="Path_175143" data-name="Path 175143" d="M149.384,320.138h4.292a1.74,1.74,0,0,0,1.738-1.738v-4.8a1.74,1.74,0,0,0-1.738-1.738h-4.292a1.74,1.74,0,0,0-1.738,1.738v4.8A1.74,1.74,0,0,0,149.384,320.138Zm.166-6.372h3.96v4.468h-3.96Z" transform="translate(-128.902 -272.27)"/>
        <path id="Path_175144" data-name="Path 175144" d="M249.775,320.138h4.292a1.74,1.74,0,0,0,1.738-1.738v-4.8a1.74,1.74,0,0,0-1.738-1.738h-4.292a1.74,1.74,0,0,0-1.738,1.738v4.8A1.74,1.74,0,0,0,249.775,320.138Zm.166-6.372h3.96v4.468h-3.96Z" transform="translate(-216.548 -272.27)"/>
        <path id="Path_175145" data-name="Path 175145" d="M258.957,2.317A4.68,4.68,0,0,0,252.028,1a4.692,4.692,0,0,0-5.781,0,4.664,4.664,0,0,0-4.77-.6,4.588,4.588,0,0,0-2.792,4.266,4.588,4.588,0,0,0,2.791,4.266,4.664,4.664,0,0,0,4.771-.6,4.692,4.692,0,0,0,5.783,0,4.7,4.7,0,0,0,5.312.328,3.525,3.525,0,1,0,1.614-6.341Zm-.589,4.724a1.519,1.519,0,0,0-1.876-.1,2.774,2.774,0,0,1-3.436-.238A1.523,1.523,0,0,0,251,6.7a2.769,2.769,0,0,1-3.731,0,1.52,1.52,0,0,0-2.058,0,2.725,2.725,0,0,1-2.979.477,2.675,2.675,0,0,1-1.646-2.519,2.675,2.675,0,0,1,1.647-2.519,2.719,2.719,0,0,1,2.979.477,1.52,1.52,0,0,0,2.058,0,2.769,2.769,0,0,1,3.73,0,1.522,1.522,0,0,0,2.055,0,2.77,2.77,0,0,1,4.329.787,1.516,1.516,0,0,0,1.687.814h0a1.62,1.62,0,1,1-.706,2.811Z" transform="translate(-208.383 -0.001)"/>
        <path id="Path_175146" data-name="Path 175146" d="M63.128,137.357h-.687V116.4a1.662,1.662,0,0,0-1.66-1.66H58l-.378-4.046a.952.952,0,1,0-1.9.177l.361,3.869H47.146l1.046-11.205h6.85l.27,2.894a.952.952,0,0,0,1.9-.177L56.134,94.735a1.616,1.616,0,0,0,.963-1.476V90.937a1.616,1.616,0,0,0-1.614-1.614H47.751a1.616,1.616,0,0,0-1.614,1.614v2.322a1.616,1.616,0,0,0,.963,1.476l-1.866,20H42.7v-4.685a1.726,1.726,0,0,0-2.5-1.542l-10.243,5.156v-3.615a1.726,1.726,0,0,0-2.5-1.542l-10.243,5.156v-3.615a1.726,1.726,0,0,0-2.5-1.542l-11.2,5.637a1.717,1.717,0,0,0-.95,1.542v21.669H1.873A1.874,1.874,0,0,0,0,139.23v1.881a1.874,1.874,0,0,0,1.872,1.872H30.278a.952.952,0,0,0,0-1.9H1.9v-1.817H63.1v1.817H34.722a.952.952,0,0,0,0,1.9H63.128A1.874,1.874,0,0,0,65,141.11V139.23A1.874,1.874,0,0,0,63.128,137.357ZM48.37,101.627l.162-1.742H54.7l.163,1.742Zm.34-3.646L49,94.874h5.235l.29,3.107Zm-.669-6.753h7.152v1.742H48.041ZM15.3,137.357H4.464V115.8l10.84-5.457Zm12.745,0H17.208V115.8l10.84-5.457Zm12.745,0H29.953V115.8l10.84-5.457Zm15.558,0H46.883v-1.581h9.468Zm0-3.486H46.883V132.29h9.468Zm0-3.486H46.883V128.8h9.468Zm0-3.486H46.883v-1.557h9.468Zm.492-3.461H46.391V121.7H56.843Zm3.693,13.918H58.256v-12.47a1.609,1.609,0,0,0,.492-1.158v-2.322a1.616,1.616,0,0,0-1.614-1.614H46.1a1.616,1.616,0,0,0-1.614,1.614v2.322a1.609,1.609,0,0,0,.492,1.158v12.47H42.7V116.641H60.537Z" transform="translate(0 -77.983)"/>
      </g>
    </g>
  </g>
</svg>
