<svg xmlns="http://www.w3.org/2000/svg" xmlns:xlink="http://www.w3.org/1999/xlink" width="160" height="237" viewBox="0 0 160 237">
  <defs>
    <clipPath id="clip-path">
      <path id="icon_arrow-right-circle" data-name="icon / arrow-right-circle" d="M6.328,12.657A6.31,6.31,0,0,1,0,6.328,6.31,6.31,0,0,1,6.328,0a6.31,6.31,0,0,1,6.328,6.328,6.31,6.31,0,0,1-6.328,6.328Zm0-11.506a5.178,5.178,0,1,0,5.178,5.178A5.184,5.184,0,0,0,6.328,1.151Zm0,8.055a.521.521,0,0,1-.4-.173.557.557,0,0,1,0-.805L7.249,6.9H4.027a.575.575,0,0,1,0-1.151H7.249L5.926,4.43a.558.558,0,0,1,0-.806.557.557,0,0,1,.806,0l2.3,2.3c.057.057.115.115.115.173a.207.207,0,0,0,.021.076.378.378,0,0,1,.036.154.349.349,0,0,1-.057.23c0,.058-.059.116-.115.172l-2.3,2.3A.52.52,0,0,1,6.328,9.205Z" transform="translate(0 0)" fill="#12263f"/>
    </clipPath>
  </defs>
  <g id="t3-m2" transform="translate(-510 -1755)">
    <rect id="Rectangle_37011" data-name="Rectangle 37011" width="160" height="237" rx="20" transform="translate(510 1755)" fill="#fff5d0"/>
    <path id="Rectangle_37011_-_Outline" data-name="Rectangle 37011 - Outline" d="M20,2A18,18,0,0,0,2,20V217a18,18,0,0,0,18,18H140a18,18,0,0,0,18-18V20A18,18,0,0,0,140,2H20m0-2H140a20,20,0,0,1,20,20V217a20,20,0,0,1-20,20H20A20,20,0,0,1,0,217V20A20,20,0,0,1,20,0Z" transform="translate(510 1755)" fill="#ffcf19"/>
    <path id="Path_178704" data-name="Path 178704" d="M39.361,12.965H33.971v3.4h6.367V19H30.543V4.781h9.814V7.428H33.971v3h5.391Zm5.332-4.531.107,1.24a3.633,3.633,0,0,1,3.018-1.436A2.675,2.675,0,0,1,50.523,9.83a3.516,3.516,0,0,1,3.105-1.592q3.213,0,3.3,3.887V19h-3.3V12.33a2.014,2.014,0,0,0-.273-1.182,1.164,1.164,0,0,0-1-.371,1.559,1.559,0,0,0-1.455.869l.01.137V19h-3.3V12.35a2.117,2.117,0,0,0-.264-1.2,1.161,1.161,0,0,0-1.006-.371,1.578,1.578,0,0,0-1.445.869V19H41.607V8.434Zm23.926,5.361a6.372,6.372,0,0,1-1.108,3.931,3.554,3.554,0,0,1-2.993,1.47,3.046,3.046,0,0,1-2.393-1.064v4.932H58.834V8.434H61.91l.1.977A3.046,3.046,0,0,1,64.5,8.238a3.582,3.582,0,0,1,3.037,1.44,6.45,6.45,0,0,1,1.084,3.96Zm-3.291-.205q0-2.812-1.641-2.812a1.549,1.549,0,0,0-1.562.84v4.16a1.6,1.6,0,0,0,1.582.879q1.572,0,1.621-2.715Zm11.133-2.178-1.084-.078a1.947,1.947,0,0,0-1.992.977V19H70.094V8.434H73.18l.107,1.357A2.548,2.548,0,0,1,75.6,8.238a3.209,3.209,0,0,1,.918.117ZM82.574,19.2a5.432,5.432,0,0,1-3.936-1.45,5.008,5.008,0,0,1-1.5-3.774V13.7a6.489,6.489,0,0,1,.6-2.861,4.395,4.395,0,0,1,1.753-1.919,5.292,5.292,0,0,1,2.734-.679A4.574,4.574,0,0,1,85.738,9.62a5.43,5.43,0,0,1,1.289,3.853v1.279H80.484a2.372,2.372,0,0,0,.771,1.4,2.3,2.3,0,0,0,1.543.508,2.958,2.958,0,0,0,2.441-1.094l1.5,1.777A4.2,4.2,0,0,1,85,18.692,5.891,5.891,0,0,1,82.574,19.2ZM82.2,10.777q-1.445,0-1.719,1.914H83.8v-.254a1.63,1.63,0,0,0-.4-1.226A1.593,1.593,0,0,0,82.2,10.777Zm11.68,5.254a.76.76,0,0,0-.439-.674,6.685,6.685,0,0,0-1.67-.527,7.615,7.615,0,0,1-2.031-.718,3.4,3.4,0,0,1-1.221-1.079,2.577,2.577,0,0,1-.42-1.455,2.92,2.92,0,0,1,1.2-2.4,4.948,4.948,0,0,1,3.145-.942,5.482,5.482,0,0,1,3.359.947,2.962,2.962,0,0,1,1.27,2.49h-3.3q0-1.27-1.338-1.27a1.326,1.326,0,0,0-.869.288.892.892,0,0,0-.352.718.819.819,0,0,0,.43.713,4.06,4.06,0,0,0,1.372.449,11.857,11.857,0,0,1,1.655.42,3.007,3.007,0,0,1,2.383,2.939,2.767,2.767,0,0,1-1.284,2.354,5.631,5.631,0,0,1-3.325.908,5.747,5.747,0,0,1-2.422-.488,4.05,4.05,0,0,1-1.66-1.328,3.007,3.007,0,0,1-.6-1.768h3.076a1.272,1.272,0,0,0,.488,1.069,2.009,2.009,0,0,0,1.2.337,1.58,1.58,0,0,0,1.011-.273A.875.875,0,0,0,93.883,16.031ZM104.547,19a3.716,3.716,0,0,1-.312-.947A3.06,3.06,0,0,1,101.7,19.2a3.749,3.749,0,0,1-2.539-.9,2.875,2.875,0,0,1-1.045-2.271,2.955,2.955,0,0,1,1.27-2.6,6.468,6.468,0,0,1,3.691-.879h1.016v-.559q0-1.462-1.26-1.462a1.03,1.03,0,0,0-1.172,1.158H98.365a2.95,2.95,0,0,1,1.3-2.487,5.479,5.479,0,0,1,3.325-.956,4.8,4.8,0,0,1,3.193.986,3.429,3.429,0,0,1,1.2,2.705v4.678a4.79,4.79,0,0,0,.449,2.227V19Zm-2.061-2.148a1.836,1.836,0,0,0,1.021-.264,1.653,1.653,0,0,0,.581-.6V14.3h-.957q-1.719,0-1.719,1.543a.942.942,0,0,0,.3.728A1.1,1.1,0,0,0,102.486,16.852Zm12.256-.82a.76.76,0,0,0-.439-.674,6.685,6.685,0,0,0-1.67-.527,7.615,7.615,0,0,1-2.031-.718,3.4,3.4,0,0,1-1.221-1.079,2.577,2.577,0,0,1-.42-1.455,2.92,2.92,0,0,1,1.2-2.4,4.948,4.948,0,0,1,3.145-.942,5.482,5.482,0,0,1,3.359.947,2.962,2.962,0,0,1,1.27,2.49h-3.3q0-1.27-1.338-1.27a1.326,1.326,0,0,0-.869.288.892.892,0,0,0-.352.718.819.819,0,0,0,.43.713,4.06,4.06,0,0,0,1.372.449,11.857,11.857,0,0,1,1.655.42,3.007,3.007,0,0,1,2.383,2.939,2.767,2.767,0,0,1-1.284,2.354,5.631,5.631,0,0,1-3.325.908,5.747,5.747,0,0,1-2.422-.488,4.05,4.05,0,0,1-1.66-1.328,3.007,3.007,0,0,1-.6-1.768h3.076a1.272,1.272,0,0,0,.488,1.069,2.009,2.009,0,0,0,1.2.337,1.58,1.58,0,0,0,1.011-.273A.875.875,0,0,0,114.742,16.031Z" transform="translate(516 1903)" fill="#12263f"/>
    <rect id="Rectangle_37012" data-name="Rectangle 37012" width="100" height="100" rx="50" transform="translate(540 1774)" fill="#fff"/>
    <g id="Group_114751" data-name="Group 114751" transform="translate(318.828 1010.5)">
      <text id="Leer_más" data-name="Leer más" transform="translate(227.172 952)" fill="#12263f" font-size="16" font-family="Roboto-Regular, Roboto"><tspan x="0" y="15">Leer más</tspan></text>
      <g id="icon_arrow_arrow-right-circle" data-name="icon / arrow / arrow-right-circle" transform="translate(303.172 955.888)">
        <g id="Group_201" data-name="Group 201">
          <path id="icon_arrow-right-circle-2" data-name="icon / arrow-right-circle" d="M6.328,12.657A6.31,6.31,0,0,1,0,6.328,6.31,6.31,0,0,1,6.328,0a6.31,6.31,0,0,1,6.328,6.328,6.31,6.31,0,0,1-6.328,6.328Zm0-11.506a5.178,5.178,0,1,0,5.178,5.178A5.184,5.184,0,0,0,6.328,1.151Zm0,8.055a.521.521,0,0,1-.4-.173.557.557,0,0,1,0-.805L7.249,6.9H4.027a.575.575,0,0,1,0-1.151H7.249L5.926,4.43a.558.558,0,0,1,0-.806.557.557,0,0,1,.806,0l2.3,2.3c.057.057.115.115.115.173a.207.207,0,0,0,.021.076.378.378,0,0,1,.036.154.349.349,0,0,1-.057.23c0,.058-.059.116-.115.172l-2.3,2.3A.52.52,0,0,1,6.328,9.205Z" transform="translate(0 0)" fill="#12263f"/>
        </g>
      </g>
    </g>
    <rect id="Rectangle_37018" data-name="Rectangle 37018" width="120" height="1.5" transform="translate(530 1949)" fill="#ffcf19"/>
    <g id="fabrica" transform="translate(558 1792)">
      <g id="Group_114968" data-name="Group 114968" transform="translate(0.958 0.946)">
        <path id="Path_175108" data-name="Path 175108" d="M372.65,130.272l-.281-2.793.281-.435-.468-5.011-.813-.5h-5.491l-.666.5-.468,5.011.293.324-.293,3.047-.34.275-1.223,13.11.6.448h9.9l.527-.448-1.223-13.11Z" transform="translate(-318.032 -107.046)" fill="#dbedff"/>
        <path id="Path_175109" data-name="Path 175109" d="M368.255,130.69l.34-.275.293-3.047-.293-.324.468-5.011.666-.5h-3.851l-.666.5-.468,5.011.293.324-.293,3.047-.34.275-1.223,13.11.6.448h3.851l-.6-.448Z" transform="translate(-318.032 -107.046)" fill="#b5dcff"/>
        <path id="Path_175110" data-name="Path 175110" d="M341.119,296.962H322.084l-.987.961v21.921h20.439l.291-.26V297.67A.708.708,0,0,0,341.119,296.962Z" transform="translate(-281.291 -260.208)" fill="#5b2ab5"/>
        <path id="Path_175111" data-name="Path 175111" d="M326.44,297.67a.708.708,0,0,1,.708-.708h-5.063l-.987.961v21.921h5.634l-.291-.26Z" transform="translate(-281.291 -260.208)" fill="#5000a1"/>
        <path id="Path_175112" data-name="Path 175112" d="M379.359,96.78h-7.732a.662.662,0,0,0-.662.662v2.322a.662.662,0,0,0,.662.662h7.732a.662.662,0,0,0,.662-.662V97.442A.662.662,0,0,0,379.359,96.78Z" transform="translate(-324.828 -85.44)" fill="#b5dcff"/>
        <path id="Path_175113" data-name="Path 175113" d="M374.689,99.764V97.442a.662.662,0,0,1,.662-.662h-3.724a.662.662,0,0,0-.662.662v2.322a.662.662,0,0,0,.662.662h3.724A.662.662,0,0,1,374.689,99.764Z" transform="translate(-324.828 -85.44)" fill="#8bcaff"/>
        <path id="Path_175114" data-name="Path 175114" d="M265.457,9.8a.568.568,0,0,1-.626-.311A3.722,3.722,0,0,0,259,8.433a.564.564,0,0,1-.763,0,3.715,3.715,0,0,0-5.02,0,.564.564,0,0,1-.763,0,3.716,3.716,0,1,0,0,5.477.564.564,0,0,1,.763,0,3.715,3.715,0,0,0,5.021,0,.564.564,0,0,1,.762,0,3.716,3.716,0,0,0,4.623.32.57.57,0,0,1,.7.03A2.572,2.572,0,1,0,265.457,9.8Z" transform="translate(-215.928 -7.456)" fill="#dbedff"/>
        <path id="Path_175115" data-name="Path 175115" d="M264.33,26.984a.57.57,0,0,0-.7-.03,3.716,3.716,0,0,1-4.623-.32.564.564,0,0,0-.762,0,3.715,3.715,0,0,1-5.021,0,.564.564,0,0,0-.763,0,3.742,3.742,0,0,1-5.947-1.295,3.728,3.728,0,0,0,5.947,4.183.564.564,0,0,1,.763,0,3.715,3.715,0,0,0,5.021,0,.564.564,0,0,1,.762,0,3.716,3.716,0,0,0,4.623.32.57.57,0,0,1,.7.03,2.575,2.575,0,0,0,4.256-1.943,2.54,2.54,0,0,0-.438-1.437A2.6,2.6,0,0,1,264.33,26.984Z" transform="translate(-215.928 -23.071)" fill="#b5dcff"/>
        <path id="Path_175116" data-name="Path 175116" d="M372.817,168.62H381.4l-.34-3.646h-7.9Z" transform="translate(-326.445 -144.977)" fill="#ffe47a"/>
        <path id="Path_175117" data-name="Path 175117" d="M373.157,164.974l-.34,3.646h3.851l.34-3.646Z" transform="translate(-326.445 -144.977)" fill="#e8b700"/>
        <path id="Path_175118" data-name="Path 175118" d="M361.84,446.384h11.373V450.2H361.84Z" transform="translate(-316.861 -390.661)" fill="#59ffcc"/>
        <path id="Path_175119" data-name="Path 175119" d="M361.84,446.384h5.35V450.2h-5.35Z" transform="translate(-316.861 -390.661)" fill="#22f0b0"/>
        <path id="Path_175120" data-name="Path 175120" d="M361.84,391.47h11.373v3.817H361.84Z" transform="translate(-316.861 -342.719)" fill="#59ffcc"/>
        <path id="Path_175121" data-name="Path 175121" d="M361.84,391.47h5.35v3.817h-5.35Z" transform="translate(-316.861 -342.719)" fill="#22f0b0"/>
        <path id="Path_175122" data-name="Path 175122" d="M237.15,246.541l-11.2,5.637a.774.774,0,0,0-.426.691l-.43.448V275.75H237.75l.522-.26V247.232A.774.774,0,0,0,237.15,246.541Z" transform="translate(-197.478 -216.116)" fill="#ffe47a"/>
        <path id="Path_175123" data-name="Path 175123" d="M361.84,420.231h11.373v3.486H361.84Z" transform="translate(-316.861 -367.828)" fill="#59ffcc"/>
        <path id="Path_175124" data-name="Path 175124" d="M361.84,420.231h5.35v3.486h-5.35Z" transform="translate(-316.861 -367.828)" fill="#22f0b0"/>
        <path id="Path_175125" data-name="Path 175125" d="M373.043,362.307H362.01a.6.6,0,0,1-.17-.028v3.872h11.373v-3.872A.6.6,0,0,1,373.043,362.307Z" transform="translate(-316.861 -317.233)" fill="#59ffcc"/>
        <path id="Path_175126" data-name="Path 175126" d="M367.109,362.307h-5.19a.153.153,0,0,1-.08-.028v3.872h5.35v-3.872A.152.152,0,0,1,367.109,362.307Z" transform="translate(-316.86 -317.233)" fill="#22f0b0"/>
        <path id="Path_175127" data-name="Path 175127" d="M369.659,336.791H358.627a.662.662,0,0,0-.662.662v2.322a.662.662,0,0,0,.662.662h11.032a.662.662,0,0,0,.662-.662v-2.322A.662.662,0,0,0,369.659,336.791Z" transform="translate(-313.478 -294.981)" fill="#dbedff"/>
        <path id="Path_175128" data-name="Path 175128" d="M363.144,339.774v-2.322a.662.662,0,0,1,.662-.662h-5.179a.662.662,0,0,0-.662.662v2.322a.662.662,0,0,0,.662.662h5.179A.662.662,0,0,1,363.144,339.774Z" transform="translate(-313.478 -294.98)" fill="#b5dcff"/>
        <path id="Path_175129" data-name="Path 175129" d="M232.051,254.1a.774.774,0,0,1,.426-.691l8.752-4.406v-1.773a.774.774,0,0,0-1.122-.691l-11.2,5.637a.774.774,0,0,0-.426.691V275.49h3.567V254.1Z" transform="translate(-200.435 -216.116)" fill="#e8b700"/>
        <path id="Path_175130" data-name="Path 175130" d="M135.936,246.541l-11.2,5.637a.774.774,0,0,0-.426.691l-.55.448v22.771h12.314l.98-.6V247.232A.774.774,0,0,0,135.936,246.541Z" transform="translate(-109.009 -216.116)" fill="#ffe47a"/>
        <path id="Path_175131" data-name="Path 175131" d="M131.661,254.1a.774.774,0,0,1,.426-.691l8.752-4.406v-1.773a.774.774,0,0,0-1.122-.691l-11.2,5.637a.774.774,0,0,0-.426.691V275.49h3.567V254.1Z" transform="translate(-112.79 -216.116)" fill="#e8b700"/>
        <path id="Path_175132" data-name="Path 175132" d="M39.327,246.541l-11.2,5.637a.774.774,0,0,0-.426.691V275.49H40.449V247.232a.774.774,0,0,0-1.122-.691Z" transform="translate(-25.145 -216.116)" fill="#ffe47a"/>
        <path id="Path_175133" data-name="Path 175133" d="M31.271,254.1a.774.774,0,0,1,.426-.691l8.752-4.406v-1.773a.774.774,0,0,0-1.122-.691l-11.2,5.637a.774.774,0,0,0-.426.691V275.49h3.567V254.1Z" transform="translate(-25.145 -216.116)" fill="#e8b700"/>
        <path id="Path_175134" data-name="Path 175134" d="M69.721,474.145H8.465a.92.92,0,0,0-.92.92v2.008a.92.92,0,0,0,.92.92H69.721a.92.92,0,0,0,.92-.92v-2.008A.92.92,0,0,0,69.721,474.145Z" transform="translate(-7.545 -414.898)" fill="#dbedff"/>
        <path id="Path_175135" data-name="Path 175135" d="M69.721,482.972H8.465a.92.92,0,0,1-.92-.92v1.924a.92.92,0,0,0,.92.92H69.721a.92.92,0,0,0,.92-.92v-1.924A.92.92,0,0,1,69.721,482.972Z" transform="translate(-7.545 -421.801)" fill="#b5dcff"/>
        <g id="Group_114967" data-name="Group 114967" transform="translate(5.999 39.592)">
          <path id="Path_175136" data-name="Path 175136" d="M260.66,319.319h-4.292a.786.786,0,0,0-.786.786v4.8a.786.786,0,0,0,.786.786h4.292a.786.786,0,0,0,.786-.786v-4.8A.786.786,0,0,0,260.66,319.319Z" transform="translate(-230.091 -319.319)" fill="#59ffcc"/>
          <path id="Path_175137" data-name="Path 175137" d="M160.269,319.319h-4.292a.786.786,0,0,0-.786.786v4.8a.786.786,0,0,0,.786.786h4.292a.786.786,0,0,0,.786-.786v-4.8A.786.786,0,0,0,160.269,319.319Z" transform="translate(-142.446 -319.319)" fill="#59ffcc"/>
          <path id="Path_175138" data-name="Path 175138" d="M59.879,319.319H55.587a.786.786,0,0,0-.786.786v4.8a.786.786,0,0,0,.786.786h4.292a.786.786,0,0,0,.786-.786v-4.8A.786.786,0,0,0,59.879,319.319Z" transform="translate(-54.801 -319.319)" fill="#59ffcc"/>
        </g>
        <path id="Path_175139" data-name="Path 175139" d="M258.513,324.9v-4.8a.786.786,0,0,1,.786-.786h-2.932a.786.786,0,0,0-.786.786v4.8a.786.786,0,0,0,.786.786H259.3A.786.786,0,0,1,258.513,324.9Z" transform="translate(-224.092 -279.726)" fill="#22f0b0"/>
        <path id="Path_175140" data-name="Path 175140" d="M158.123,324.9v-4.8a.786.786,0,0,1,.786-.786h-2.932a.786.786,0,0,0-.786.786v4.8a.786.786,0,0,0,.786.786h2.932A.786.786,0,0,1,158.123,324.9Z" transform="translate(-136.447 -279.726)" fill="#22f0b0"/>
        <path id="Path_175141" data-name="Path 175141" d="M57.733,324.9v-4.8a.786.786,0,0,1,.786-.786H55.587a.786.786,0,0,0-.786.786v4.8a.786.786,0,0,0,.786.786H58.52A.786.786,0,0,1,57.733,324.9Z" transform="translate(-48.802 -279.726)" fill="#22f0b0"/>
      </g>
      <g id="Group_114969" data-name="Group 114969" transform="translate(0 0)">
        <path id="Path_175142" data-name="Path 175142" d="M48.994,320.138h4.292a1.74,1.74,0,0,0,1.738-1.738v-4.8a1.74,1.74,0,0,0-1.738-1.738H48.994a1.74,1.74,0,0,0-1.738,1.738v4.8A1.74,1.74,0,0,0,48.994,320.138Zm.166-6.372h3.96v4.468H49.16Z" transform="translate(-41.257 -272.27)"/>
        <path id="Path_175143" data-name="Path 175143" d="M149.384,320.138h4.292a1.74,1.74,0,0,0,1.738-1.738v-4.8a1.74,1.74,0,0,0-1.738-1.738h-4.292a1.74,1.74,0,0,0-1.738,1.738v4.8A1.74,1.74,0,0,0,149.384,320.138Zm.166-6.372h3.96v4.468h-3.96Z" transform="translate(-128.902 -272.27)"/>
        <path id="Path_175144" data-name="Path 175144" d="M249.775,320.138h4.292a1.74,1.74,0,0,0,1.738-1.738v-4.8a1.74,1.74,0,0,0-1.738-1.738h-4.292a1.74,1.74,0,0,0-1.738,1.738v4.8A1.74,1.74,0,0,0,249.775,320.138Zm.166-6.372h3.96v4.468h-3.96Z" transform="translate(-216.548 -272.27)"/>
        <path id="Path_175145" data-name="Path 175145" d="M258.957,2.317A4.68,4.68,0,0,0,252.028,1a4.692,4.692,0,0,0-5.781,0,4.664,4.664,0,0,0-4.77-.6,4.588,4.588,0,0,0-2.792,4.266,4.588,4.588,0,0,0,2.791,4.266,4.664,4.664,0,0,0,4.771-.6,4.692,4.692,0,0,0,5.783,0,4.7,4.7,0,0,0,5.312.328,3.525,3.525,0,1,0,1.614-6.341Zm-.589,4.724a1.519,1.519,0,0,0-1.876-.1,2.774,2.774,0,0,1-3.436-.238A1.523,1.523,0,0,0,251,6.7a2.769,2.769,0,0,1-3.731,0,1.52,1.52,0,0,0-2.058,0,2.725,2.725,0,0,1-2.979.477,2.675,2.675,0,0,1-1.646-2.519,2.675,2.675,0,0,1,1.647-2.519,2.719,2.719,0,0,1,2.979.477,1.52,1.52,0,0,0,2.058,0,2.769,2.769,0,0,1,3.73,0,1.522,1.522,0,0,0,2.055,0,2.77,2.77,0,0,1,4.329.787,1.516,1.516,0,0,0,1.687.814h0a1.62,1.62,0,1,1-.706,2.811Z" transform="translate(-208.383 -0.001)"/>
        <path id="Path_175146" data-name="Path 175146" d="M63.128,137.357h-.687V116.4a1.662,1.662,0,0,0-1.66-1.66H58l-.378-4.046a.952.952,0,1,0-1.9.177l.361,3.869H47.146l1.046-11.205h6.85l.27,2.894a.952.952,0,0,0,1.9-.177L56.134,94.735a1.616,1.616,0,0,0,.963-1.476V90.937a1.616,1.616,0,0,0-1.614-1.614H47.751a1.616,1.616,0,0,0-1.614,1.614v2.322a1.616,1.616,0,0,0,.963,1.476l-1.866,20H42.7v-4.685a1.726,1.726,0,0,0-2.5-1.542l-10.243,5.156v-3.615a1.726,1.726,0,0,0-2.5-1.542l-10.243,5.156v-3.615a1.726,1.726,0,0,0-2.5-1.542l-11.2,5.637a1.717,1.717,0,0,0-.95,1.542v21.669H1.873A1.874,1.874,0,0,0,0,139.23v1.881a1.874,1.874,0,0,0,1.872,1.872H30.278a.952.952,0,0,0,0-1.9H1.9v-1.817H63.1v1.817H34.722a.952.952,0,0,0,0,1.9H63.128A1.874,1.874,0,0,0,65,141.11V139.23A1.874,1.874,0,0,0,63.128,137.357ZM48.37,101.627l.162-1.742H54.7l.163,1.742Zm.34-3.646L49,94.874h5.235l.29,3.107Zm-.669-6.753h7.152v1.742H48.041ZM15.3,137.357H4.464V115.8l10.84-5.457Zm12.745,0H17.208V115.8l10.84-5.457Zm12.745,0H29.953V115.8l10.84-5.457Zm15.558,0H46.883v-1.581h9.468Zm0-3.486H46.883V132.29h9.468Zm0-3.486H46.883V128.8h9.468Zm0-3.486H46.883v-1.557h9.468Zm.492-3.461H46.391V121.7H56.843Zm3.693,13.918H58.256v-12.47a1.609,1.609,0,0,0,.492-1.158v-2.322a1.616,1.616,0,0,0-1.614-1.614H46.1a1.616,1.616,0,0,0-1.614,1.614v2.322a1.609,1.609,0,0,0,.492,1.158v12.47H42.7V116.641H60.537Z" transform="translate(0 -77.983)"/>
      </g>
    </g>
  </g>
</svg>
