<svg xmlns="http://www.w3.org/2000/svg" xmlns:xlink="http://www.w3.org/1999/xlink" width="160" height="237" viewBox="0 0 160 237">
  <defs>
    <clipPath id="clip-path">
      <path id="icon_arrow-right-circle" data-name="icon / arrow-right-circle" d="M6.328,12.657A6.31,6.31,0,0,1,0,6.328,6.31,6.31,0,0,1,6.328,0a6.31,6.31,0,0,1,6.328,6.328,6.31,6.31,0,0,1-6.328,6.328Zm0-11.506a5.178,5.178,0,1,0,5.178,5.178A5.184,5.184,0,0,0,6.328,1.151Zm0,8.055a.521.521,0,0,1-.4-.173.557.557,0,0,1,0-.805L7.249,6.9H4.027a.575.575,0,0,1,0-1.151H7.249L5.926,4.43a.558.558,0,0,1,0-.806.557.557,0,0,1,.806,0l2.3,2.3c.057.057.115.115.115.173a.207.207,0,0,0,.021.076.378.378,0,0,1,.036.154.349.349,0,0,1-.057.23c0,.058-.059.116-.115.172l-2.3,2.3A.52.52,0,0,1,6.328,9.205Z" transform="translate(0 0)" fill="#12263f"/>
    </clipPath>
  </defs>
  <g id="t3-m5" transform="translate(-1140 -1755)">
    <rect id="Rectangle_37005" data-name="Rectangle 37005" width="160" height="237" rx="20" transform="translate(1140 1755)" fill="#ddfff4"/>
    <path id="Rectangle_37005_-_Outline" data-name="Rectangle 37005 - Outline" d="M20,2A18,18,0,0,0,2,20V217a18,18,0,0,0,18,18H140a18,18,0,0,0,18-18V20A18,18,0,0,0,140,2H20m0-2H140a20,20,0,0,1,20,20V217a20,20,0,0,1-20,20H20A20,20,0,0,1,0,217V20A20,20,0,0,1,20,0Z" transform="translate(1140 1755)" fill="#59ffcc"/>
    <path id="Path_178707" data-name="Path 178707" d="M45.416,17.242A5.511,5.511,0,0,1,43.1,18.658a9.982,9.982,0,0,1-3.34.537A5.955,5.955,0,0,1,35.3,17.486a6.918,6.918,0,0,1-1.787-4.756L33.5,11.5a8.485,8.485,0,0,1,.742-3.667,5.511,5.511,0,0,1,2.124-2.412,6.008,6.008,0,0,1,3.2-.845,6.3,6.3,0,0,1,4.126,1.216A5.152,5.152,0,0,1,45.406,9.42h-3.3a2.7,2.7,0,0,0-.762-1.7,2.458,2.458,0,0,0-1.66-.508,2.237,2.237,0,0,0-1.992,1.094,5.84,5.84,0,0,0-.713,3.125v.859a5.717,5.717,0,0,0,.728,3.2A2.573,2.573,0,0,0,40,16.559a2.88,2.88,0,0,0,1.992-.6V13.756H39.605V11.4h5.811Zm1.426-3.623a6.236,6.236,0,0,1,.615-2.817,4.4,4.4,0,0,1,1.768-1.9,5.323,5.323,0,0,1,2.705-.664,4.858,4.858,0,0,1,3.74,1.47,5.64,5.64,0,0,1,1.367,4v.117a5.472,5.472,0,0,1-1.372,3.921,4.871,4.871,0,0,1-3.716,1.45,4.927,4.927,0,0,1-3.623-1.353,5.29,5.29,0,0,1-1.475-3.667Zm3.291.205a3.932,3.932,0,0,0,.459,2.148,1.529,1.529,0,0,0,1.357.684q1.758,0,1.8-2.705v-.332q0-2.842-1.816-2.842-1.65,0-1.787,2.451ZM68.3,13.8A6.44,6.44,0,0,1,67.223,17.8,3.6,3.6,0,0,1,64.2,19.2a3.122,3.122,0,0,1-2.6-1.279L61.461,19H58.512V4H61.8V9.283a3.013,3.013,0,0,1,2.373-1.045,3.6,3.6,0,0,1,3.047,1.416A6.473,6.473,0,0,1,68.3,13.639Zm-3.3-.21a4.3,4.3,0,0,0-.405-2.169,1.366,1.366,0,0,0-1.245-.648,1.576,1.576,0,0,0-1.543.848v4.192a1.585,1.585,0,0,0,1.563.838,1.4,1.4,0,0,0,1.475-1.131A8.121,8.121,0,0,0,65,13.595ZM73.219,19h-3.3V8.434h3.3Zm-3.5-13.3A1.482,1.482,0,0,1,70.23,4.54a2.149,2.149,0,0,1,2.637,0A1.482,1.482,0,0,1,73.375,5.7a1.482,1.482,0,0,1-.508,1.159,2.149,2.149,0,0,1-2.637,0A1.482,1.482,0,0,1,69.723,5.7ZM80.357,19.2a5.432,5.432,0,0,1-3.936-1.45,5.008,5.008,0,0,1-1.5-3.774V13.7a6.489,6.489,0,0,1,.6-2.861,4.395,4.395,0,0,1,1.753-1.919,5.292,5.292,0,0,1,2.734-.679A4.574,4.574,0,0,1,83.521,9.62a5.43,5.43,0,0,1,1.289,3.853v1.279H78.268a2.372,2.372,0,0,0,.771,1.4,2.3,2.3,0,0,0,1.543.508,2.958,2.958,0,0,0,2.441-1.094l1.5,1.777a4.2,4.2,0,0,1-1.743,1.353A5.891,5.891,0,0,1,80.357,19.2Zm-.371-8.418q-1.445,0-1.719,1.914h3.32v-.254a1.63,1.63,0,0,0-.4-1.226A1.593,1.593,0,0,0,79.986,10.777Zm12.539.635-1.084-.078a1.947,1.947,0,0,0-1.992.977V19H86.158V8.434h3.086l.107,1.357a2.548,2.548,0,0,1,2.314-1.553,3.209,3.209,0,0,1,.918.117Zm4.209-2.979.107,1.24a3.583,3.583,0,0,1,3.018-1.436,3.015,3.015,0,0,1,2.466.986,4.7,4.7,0,0,1,.845,2.969V19h-3.3V12.33a1.783,1.783,0,0,0-.322-1.177,1.491,1.491,0,0,0-1.172-.376,1.569,1.569,0,0,0-1.436.762V19H93.648V8.434Zm7.842,5.186a6.236,6.236,0,0,1,.615-2.817,4.4,4.4,0,0,1,1.768-1.9,5.323,5.323,0,0,1,2.705-.664,4.858,4.858,0,0,1,3.74,1.47,5.64,5.64,0,0,1,1.367,4v.117a5.472,5.472,0,0,1-1.372,3.921,4.871,4.871,0,0,1-3.716,1.45,4.927,4.927,0,0,1-3.623-1.353,5.29,5.29,0,0,1-1.475-3.667Zm3.291.205a3.932,3.932,0,0,0,.459,2.148,1.529,1.529,0,0,0,1.357.684q1.758,0,1.8-2.705v-.332q0-2.842-1.816-2.842-1.65,0-1.787,2.451Z" transform="translate(1146 1903)" fill="#12263f"/>
    <rect id="Rectangle_37006" data-name="Rectangle 37006" width="100" height="100" rx="50" transform="translate(1170 1774)" fill="#fff"/>
    <g id="Group_114750" data-name="Group 114750" transform="translate(948.828 1010.5)">
      <text id="Leer_más" data-name="Leer más" transform="translate(227.172 952)" fill="#12263f" font-size="16" font-family="Roboto-Regular, Roboto"><tspan x="0" y="15">Leer más</tspan></text>
      <g id="icon_arrow_arrow-right-circle" data-name="icon / arrow / arrow-right-circle" transform="translate(303.172 955.888)">
        <g id="Group_201" data-name="Group 201">
          <path id="icon_arrow-right-circle-2" data-name="icon / arrow-right-circle" d="M6.328,12.657A6.31,6.31,0,0,1,0,6.328,6.31,6.31,0,0,1,6.328,0a6.31,6.31,0,0,1,6.328,6.328,6.31,6.31,0,0,1-6.328,6.328Zm0-11.506a5.178,5.178,0,1,0,5.178,5.178A5.184,5.184,0,0,0,6.328,1.151Zm0,8.055a.521.521,0,0,1-.4-.173.557.557,0,0,1,0-.805L7.249,6.9H4.027a.575.575,0,0,1,0-1.151H7.249L5.926,4.43a.558.558,0,0,1,0-.806.557.557,0,0,1,.806,0l2.3,2.3c.057.057.115.115.115.173a.207.207,0,0,0,.021.076.378.378,0,0,1,.036.154.349.349,0,0,1-.057.23c0,.058-.059.116-.115.172l-2.3,2.3A.52.52,0,0,1,6.328,9.205Z" transform="translate(0 0)" fill="#12263f"/>
        </g>
      </g>
    </g>
    <rect id="Rectangle_37017" data-name="Rectangle 37017" width="120" height="1.5" transform="translate(1160 1949)" fill="#00ceeb"/>
    <g id="edificio-del-gobierno" transform="translate(1187.828 1791.5)">
      <g id="Group_114950" data-name="Group 114950" transform="translate(0.952 0.952)">
        <g id="Group_114948" data-name="Group 114948">
          <path id="Path_175067" data-name="Path 175067" d="M7.5,21.084H70.6L40.952,7.5H37.144Zm31.548-3.809a2.539,2.539,0,1,1,2.539-2.539A2.539,2.539,0,0,1,39.048,17.275Z" transform="translate(-7.5 -7.5)" fill="#ffcf19" fill-rule="evenodd"/>
          <ellipse id="Ellipse_4895" data-name="Ellipse 4895" cx="2.539" cy="2.539" rx="2.539" ry="2.539" transform="matrix(0.987, -0.16, 0.16, 0.987, 28.631, 5.142)" fill="#e5ecf5"/>
          <path id="Path_175068" data-name="Path 175068" d="M70.6,122.116V114.5H7.5v7.617ZM7.5,164.011H70.6V160.2h-1.9v-3.809H9.4V160.2H7.5Z" transform="translate(-7.5 -100.915)" fill="#e5ecf5" fill-rule="evenodd"/>
          <path id="Path_175069" data-name="Path 175069" d="M52.5,231.159h9.521V204.5H52.5Zm42.148,0h9.521V204.5H94.648Zm-21.074,0H83.1V204.5H73.574Z" transform="translate(-46.787 -179.489)" fill="#e5ecf5" fill-rule="evenodd"/>
          <path id="Path_175070" data-name="Path 175070" d="M37.5,208.776h13.33v-3.809H37.5Zm42.149,0h13.33v-3.809H79.648Zm13.33-30.469V174.5H79.648v3.809Zm-34.4,30.469H71.9v-3.809H58.573ZM71.9,178.308V174.5H58.573v3.809Zm-21.074,0V174.5H37.5v3.809Z" transform="translate(-33.691 -153.298)" fill="#ffe47a" fill-rule="evenodd"/>
          <path id="Path_175071" data-name="Path 175071" d="M7.5,21.084h3.809L40.952,7.5H37.144Z" transform="translate(-7.5 -7.5)" fill="#ffe47a" fill-rule="evenodd"/>
          <path id="Path_175072" data-name="Path 175072" d="M10.356,114.5H7.5v7.617h2.856ZM7.5,164.011h2.856V160.2h1.9v-3.809H9.4V160.2H7.5Z" transform="translate(-7.5 -100.915)" fill="#cad8eb" fill-rule="evenodd"/>
          <path id="Path_175073" data-name="Path 175073" d="M52.5,231.159h2.856V204.5H52.5Zm42.148,0H97.5V204.5H94.648Zm-21.074,0h2.856V204.5H73.574Z" transform="translate(-46.787 -179.489)" fill="#cad8eb" fill-rule="evenodd"/>
          <path id="Path_175074" data-name="Path 175074" d="M37.5,208.776h2.856v-3.809H37.5Zm42.149,0H82.5v-3.809H79.648v3.809ZM82.5,174.5H79.648v3.809H82.5ZM58.574,208.776h2.856v-3.809H58.574ZM61.431,174.5H58.574v3.809h2.856Zm-21.074,0H37.5v3.809h2.856Z" transform="translate(-33.691 -153.298)" fill="#e8b700" fill-rule="evenodd"/>
          <path id="Path_175075" data-name="Path 175075" d="M129.4,208.776h7.744v-3.809h1.9v-26.66h-1.9V174.5H129.4v3.809h-1.9v26.66h1.9Zm21.074,0h7.744v-3.809h1.9v-26.66h-1.9V174.5h-7.744v3.809h-1.9v26.66h1.9Z" transform="translate(-112.265 -153.298)" fill="#77e7f7" fill-rule="evenodd"/>
          <path id="Path_175076" data-name="Path 175076" d="M129.4,179.26v24.756h1.9v4.761h-1.9v-3.809h-1.9v-26.66h1.9V174.5h1.9v4.761Zm21.074,0v24.756h1.9v4.761h-1.9v-3.809h-1.9v-26.66h1.9V174.5h1.9v4.761Z" transform="translate(-112.265 -153.298)" fill="#00ceeb" fill-rule="evenodd"/>
          <path id="Path_175077" data-name="Path 175077" d="M236,47.029a2.543,2.543,0,0,0,3.491,2.354,2.54,2.54,0,0,1,0-4.709A2.543,2.543,0,0,0,236,47.029Z" transform="translate(-206.991 -39.793)" fill="#cad8eb" fill-rule="evenodd"/>
        </g>
        <g id="Group_114949" data-name="Group 114949" transform="translate(8.569 16.44)">
          <path id="Path_175078" data-name="Path 175078" d="M119.052,169.372h-1.9v-1.9h1.9Zm-21.074,0h-1.9v-1.9h1.9Zm-21.074,0H75v-1.9h1.9Zm44.053-11.426h-1.9v-5.713h1.9Zm-21.074,0h-1.9v-5.713h1.9Zm-21.074,0H76.9v-5.713h1.9Zm42.149-7.617h-1.9v-1.9h1.9Zm-21.074,0h-1.9v-1.9h1.9Zm-21.074,0H76.9v-1.9h1.9ZM126.669,138.9h-1.9V137h1.9Zm-3.809,0h-5.713V137h5.713Z" transform="translate(-74.999 -136.999)" fill="#fff"/>
        </g>
      </g>
      <g id="Group_114951" data-name="Group 114951" transform="translate(0)">
        <path id="Path_175079" data-name="Path 175079" d="M18.809,227v22.852H16.9v3.809H15v1.9H76.191v-1.9h-1.9v-3.809h-1.9V227h-1.9v22.852H67.622v1.9h4.761v1.9H60.957v-1.9h4.761v-1.9H62.861V227h-1.9v22.852h-1.9v3.809h-5.84v-3.809h-1.9V227H49.4v22.852H46.548v1.9h4.761v1.9H39.883v-1.9h4.761v-1.9H41.787V227h-1.9v22.852h-1.9v3.809h-5.84v-3.809h-1.9V227h-1.9v22.852H25.474v1.9h4.761v1.9H18.809v-1.9h4.761v-1.9H20.713V227Z" transform="translate(-13.096 -198.181)"/>
        <path id="Path_175080" data-name="Path 175080" d="M1.9,468.9H31.548V467H0v5.713H55.479v-1.9H1.9Z" transform="translate(0 -407.713)"/>
        <path id="Path_175081" data-name="Path 175081" d="M263.5,468.9h29.644v1.9h-5.713v1.9h7.617V467H263.5Z" transform="translate(-230.048 -407.713)"/>
        <path id="Path_175082" data-name="Path 175082" d="M34.612,0H30.388L16.243,6.482l.793,1.731L30.8,1.9H34.2l25.488,11.68H5.316L15.3,9.006l-.793-1.731L0,13.925v9.18H3.809v3.809H19.043V23.105h5.84v3.809H40.117V23.105h5.84v3.809H61.191V23.105H65v-9.18ZM17.139,25.01H5.713v-1.9H17.139Zm42.149,0H47.861v-1.9H59.287ZM33.452,21.2v1.9h4.761v1.9H26.787v-1.9h4.761V21.2H1.9V15.488H63.1V21.2Z" transform="translate(0)"/>
        <path id="Path_175083" data-name="Path 175083" d="M233.5,137h1.9v1.9h-1.9Z" transform="translate(-203.856 -119.607)"/>
        <path id="Path_175084" data-name="Path 175084" d="M212.348,43.982a3.5,3.5,0,0,0,3.359-2.539H218.7v-1.9h-2.988a3.492,3.492,0,0,0-6.719,0H206v1.9h2.988A3.5,3.5,0,0,0,212.348,43.982Zm0-5.078a1.587,1.587,0,1,1-1.587,1.587A1.589,1.589,0,0,1,212.348,38.9Z" transform="translate(-179.848 -32.303)"/>
        <path id="Path_175085" data-name="Path 175085" d="M263.5,137h1.9v1.9h-1.9Z" transform="translate(-230.048 -119.607)"/>
      </g>
    </g>
  </g>
</svg>
