<svg xmlns="http://www.w3.org/2000/svg" xmlns:xlink="http://www.w3.org/1999/xlink" width="160" height="237" viewBox="0 0 160 237">
  <defs>
    <clipPath id="clip-path">
      <path id="icon_arrow-right-circle" data-name="icon / arrow-right-circle" d="M6.328,12.657A6.31,6.31,0,0,1,0,6.328,6.31,6.31,0,0,1,6.328,0a6.31,6.31,0,0,1,6.328,6.328,6.31,6.31,0,0,1-6.328,6.328Zm0-11.506a5.178,5.178,0,1,0,5.178,5.178A5.184,5.184,0,0,0,6.328,1.151Zm0,8.055a.521.521,0,0,1-.4-.173.557.557,0,0,1,0-.805L7.249,6.9H4.027a.575.575,0,0,1,0-1.151H7.249L5.926,4.43a.558.558,0,0,1,0-.806.557.557,0,0,1,.806,0l2.3,2.3c.057.057.115.115.115.173a.207.207,0,0,0,.021.076.378.378,0,0,1,.036.154.349.349,0,0,1-.057.23c0,.058-.059.116-.115.172l-2.3,2.3A.52.52,0,0,1,6.328,9.205Z" transform="translate(0 0)" fill="#12263f"/>
    </clipPath>
  </defs>
  <g id="t3-m3" transform="translate(-720 -1755)">
    <rect id="Rectangle_37007" data-name="Rectangle 37007" width="160" height="237" rx="20" transform="translate(720 1755)" fill="#ddfff4"/>
    <path id="Rectangle_37007_-_Outline" data-name="Rectangle 37007 - Outline" d="M20,2A18,18,0,0,0,2,20V217a18,18,0,0,0,18,18H140a18,18,0,0,0,18-18V20A18,18,0,0,0,140,2H20m0-2H140a20,20,0,0,1,20,20V217a20,20,0,0,1-20,20H20A20,20,0,0,1,0,217V20A20,20,0,0,1,20,0Z" transform="translate(720 1755)" fill="#59ffcc"/>
    <path id="Path_178705" data-name="Path 178705" d="M24.39,14.176V19H20.962V4.781h5.674a6.608,6.608,0,0,1,2.886.6,4.526,4.526,0,0,1,1.943,1.709,4.667,4.667,0,0,1,.688,2.515,4.114,4.114,0,0,1-1.489,3.325,6.179,6.179,0,0,1-4.087,1.245Zm0-2.646h2.246a2.118,2.118,0,0,0,1.519-.5,1.85,1.85,0,0,0,.522-1.406,2.287,2.287,0,0,0-.537-1.592,1.9,1.9,0,0,0-1.465-.605H24.39ZM38.813,19.2a5.432,5.432,0,0,1-3.936-1.45,5.008,5.008,0,0,1-1.5-3.774V13.7a6.489,6.489,0,0,1,.6-2.861,4.395,4.395,0,0,1,1.753-1.919,5.292,5.292,0,0,1,2.734-.679A4.574,4.574,0,0,1,41.978,9.62a5.43,5.43,0,0,1,1.289,3.853v1.279H36.724a2.372,2.372,0,0,0,.771,1.4,2.3,2.3,0,0,0,1.543.508,2.958,2.958,0,0,0,2.441-1.094l1.5,1.777a4.2,4.2,0,0,1-1.743,1.353A5.891,5.891,0,0,1,38.813,19.2Zm-.371-8.418q-1.445,0-1.719,1.914h3.32v-.254a1.63,1.63,0,0,0-.4-1.226A1.593,1.593,0,0,0,38.442,10.777Zm12.539.635L49.9,11.334a1.947,1.947,0,0,0-1.992.977V19H44.614V8.434H47.7l.107,1.357a2.548,2.548,0,0,1,2.314-1.553,3.209,3.209,0,0,1,.918.117ZM57.7,16.031a.76.76,0,0,0-.439-.674,6.685,6.685,0,0,0-1.67-.527,7.615,7.615,0,0,1-2.031-.718,3.4,3.4,0,0,1-1.221-1.079,2.577,2.577,0,0,1-.42-1.455,2.92,2.92,0,0,1,1.2-2.4,4.948,4.948,0,0,1,3.145-.942,5.482,5.482,0,0,1,3.359.947,2.962,2.962,0,0,1,1.27,2.49h-3.3q0-1.27-1.338-1.27a1.326,1.326,0,0,0-.869.288.892.892,0,0,0-.352.718.819.819,0,0,0,.43.713,4.06,4.06,0,0,0,1.372.449,11.857,11.857,0,0,1,1.655.42,3.007,3.007,0,0,1,2.383,2.939,2.767,2.767,0,0,1-1.284,2.354,5.632,5.632,0,0,1-3.325.908,5.747,5.747,0,0,1-2.422-.488,4.05,4.05,0,0,1-1.66-1.328,3.007,3.007,0,0,1-.6-1.768h3.076a1.272,1.272,0,0,0,.488,1.069,2.009,2.009,0,0,0,1.2.337,1.58,1.58,0,0,0,1.011-.273A.875.875,0,0,0,57.7,16.031ZM62,13.619a6.236,6.236,0,0,1,.615-2.817A4.4,4.4,0,0,1,64.38,8.9a5.323,5.323,0,0,1,2.705-.664,4.858,4.858,0,0,1,3.74,1.47,5.64,5.64,0,0,1,1.367,4v.117a5.472,5.472,0,0,1-1.372,3.921A4.871,4.871,0,0,1,67.1,19.2a4.927,4.927,0,0,1-3.623-1.353,5.29,5.29,0,0,1-1.475-3.667Zm3.291.205a3.932,3.932,0,0,0,.459,2.148,1.529,1.529,0,0,0,1.357.684q1.758,0,1.8-2.705v-.332q0-2.842-1.816-2.842-1.65,0-1.787,2.451ZM76.665,8.434l.107,1.24A3.583,3.583,0,0,1,79.79,8.238a3.015,3.015,0,0,1,2.466.986,4.7,4.7,0,0,1,.845,2.969V19H79.8V12.33a1.783,1.783,0,0,0-.322-1.177,1.491,1.491,0,0,0-1.172-.376,1.569,1.569,0,0,0-1.436.762V19H73.579V8.434ZM90.874,19a3.716,3.716,0,0,1-.312-.947A3.06,3.06,0,0,1,88.022,19.2a3.749,3.749,0,0,1-2.539-.9,2.875,2.875,0,0,1-1.045-2.271,2.955,2.955,0,0,1,1.27-2.6,6.468,6.468,0,0,1,3.691-.879h1.016v-.559q0-1.462-1.26-1.462a1.03,1.03,0,0,0-1.172,1.158H84.692A2.95,2.95,0,0,1,86,9.194a5.479,5.479,0,0,1,3.325-.956,4.8,4.8,0,0,1,3.193.986,3.429,3.429,0,0,1,1.2,2.705v4.678a4.79,4.79,0,0,0,.449,2.227V19Zm-2.061-2.148a1.836,1.836,0,0,0,1.021-.264,1.653,1.653,0,0,0,.581-.6V14.3h-.957q-1.719,0-1.719,1.543a.942.942,0,0,0,.3.728A1.1,1.1,0,0,0,88.813,16.852ZM99.009,19h-3.3V4h3.3Z" transform="translate(740 1899)" fill="#12263f"/>
    <rect id="Rectangle_37009" data-name="Rectangle 37009" width="100" height="100" rx="50" transform="translate(750 1774)" fill="#fff"/>
    <g id="Group_114748" data-name="Group 114748" transform="translate(528.828 1010.5)">
      <text id="Leer_más" data-name="Leer más" transform="translate(227.172 952)" fill="#12263f" font-size="16" font-family="Roboto-Regular, Roboto"><tspan x="0" y="15">Leer más</tspan></text>
      <g id="icon_arrow_arrow-right-circle" data-name="icon / arrow / arrow-right-circle" transform="translate(303.172 955.888)">
        <g id="Group_201" data-name="Group 201">
          <path id="icon_arrow-right-circle-2" data-name="icon / arrow-right-circle" d="M6.328,12.657A6.31,6.31,0,0,1,0,6.328,6.31,6.31,0,0,1,6.328,0a6.31,6.31,0,0,1,6.328,6.328,6.31,6.31,0,0,1-6.328,6.328Zm0-11.506a5.178,5.178,0,1,0,5.178,5.178A5.184,5.184,0,0,0,6.328,1.151Zm0,8.055a.521.521,0,0,1-.4-.173.557.557,0,0,1,0-.805L7.249,6.9H4.027a.575.575,0,0,1,0-1.151H7.249L5.926,4.43a.558.558,0,0,1,0-.806.557.557,0,0,1,.806,0l2.3,2.3c.057.057.115.115.115.173a.207.207,0,0,0,.021.076.378.378,0,0,1,.036.154.349.349,0,0,1-.057.23c0,.058-.059.116-.115.172l-2.3,2.3A.52.52,0,0,1,6.328,9.205Z" transform="translate(0 0)" fill="#12263f"/>
        </g>
      </g>
    </g>
    <rect id="Rectangle_37015" data-name="Rectangle 37015" width="120" height="1.5" transform="translate(740 1949)" fill="#00ceeb"/>
    <g id="news-anchor" transform="translate(777 1792)">
      <g id="Group_114973" data-name="Group 114973" transform="translate(0.952 0.953)">
        <g id="Group_114972" data-name="Group 114972">
          <path id="Path_175147" data-name="Path 175147" d="M209.76,291.339H221.5v7.955H209.76Z" transform="translate(-193.662 -255.305)" fill="#f6a96c"/>
          <path id="Path_175148" data-name="Path 175148" d="M126.763,309.319v13.126c0,.323-.134.457-.457.457l-3.822.129H119.79l-.965-1.286-.965,1.286H108.33l-3.472-1.286-3.343,1.286H91.985l-.664-1.286-1.266,1.286H83.539a.586.586,0,0,1-.585-.585V309.319a8.754,8.754,0,0,1,8.754-8.754h7.344v-3.922l5.852,7.109.018.021.018-.021,5.852-7.11v3.923h4l3.343.129a8.536,8.536,0,0,1,8.625,8.625Z" transform="translate(-82.954 -259.935)" fill="#5000a1"/>
          <g id="Group_114970" data-name="Group 114970" transform="translate(15.44 44.575)">
            <path id="Path_175149" data-name="Path 175149" d="M210.423,358.616l-4.947,5.379-.9-5.379Z" transform="translate(-204.572 -358.616)" fill="#eef5f6"/>
            <path id="Path_175150" data-name="Path 175150" d="M267.19,358.616l-.9,5.379-4.947-5.379Z" transform="translate(-254.132 -358.616)" fill="#eef5f6"/>
            <path id="Path_175151" data-name="Path 175151" d="M214.521,377.14l-3.225-1.286-3.611,1.286-3.111-18.519h13.057Z" transform="translate(-204.575 -358.62)" fill="#eef5f6"/>
          </g>
          <path id="Path_175152" data-name="Path 175152" d="M342.309,336.3v13.126a.586.586,0,0,1-.585.585h-3.859a.586.586,0,0,0,.585-.585V336.3a8.754,8.754,0,0,0-8.754-8.754h3.859A8.754,8.754,0,0,1,342.309,336.3Z" transform="translate(-298.371 -286.913)" fill="#3f0080"/>
          <path id="Path_175153" data-name="Path 175153" d="M255.993,373.075h0Z" transform="translate(-234.023 -326.664)" fill="#eef5f6"/>
          <path id="Path_175154" data-name="Path 175154" d="M222.944,363.995l-.365,2.175-5.258-5.717h0l-5.258,5.717-.365-2.175,4.947-5.379H218Z" transform="translate(-195.351 -314.041)" fill="#deecf1"/>
          <path id="Path_175155" data-name="Path 175155" d="M232.5,422.525,229.08,432.93h6.835Z" transform="translate(-210.529 -369.837)" fill="#ffcf19"/>
          <path id="Path_175156" data-name="Path 175156" d="M215.765,352.943l-3.392,3.688-2.441-3.688Z" transform="translate(-193.812 -309.088)" fill="#00f2a6"/>
          <path id="Path_175157" data-name="Path 175157" d="M261.955,352.943l-2.441,3.688-3.392-3.688Z" transform="translate(-234.138 -309.088)" fill="#00f2a6"/>
          <path id="Path_175158" data-name="Path 175158" d="M255.893,352.811l.016.017h-.031Z" transform="translate(-233.925 -308.973)" fill="#deecf1"/>
          <path id="Path_175159" data-name="Path 175159" d="M224.507,361.778l2.417-3.65,2.163-5.183h-9.159l2.163,5.183Z" transform="translate(-202.539 -309.09)" fill="#ffcf19"/>
          <path id="Path_175160" data-name="Path 175160" d="M235.976,356.631l-.99,1.5L232.57,355.5h0l-2.416,2.627-.99-1.5,3.392-3.688h.031Z" transform="translate(-210.6 -309.088)" fill="#e8b700"/>
          <path id="Path_175161" data-name="Path 175161" d="M134.723,158.68V168.2c-.463,0-.91-1.326-1.333-1.449s-.822.957-1.187.728a4.76,4.76,0,0,1,0-8.076c.346-.216.721.871,1.119.749C133.765,160.013,134.235,158.68,134.723,158.68Z" transform="translate(-123.996 -139.488)" fill="#fed2a4"/>
          <path id="Path_175162" data-name="Path 175162" d="M150.118,158.678V168.2a4.732,4.732,0,0,1-2.52-.722V159.4A4.733,4.733,0,0,1,150.118,158.678Z" transform="translate(-139.391 -139.486)" fill="#ffbd86"/>
          <path id="Path_175163" data-name="Path 175163" d="M344.551,158.68V168.2a4.759,4.759,0,0,0,0-9.518Z" transform="translate(-311.34 -139.488)" fill="#f6a96c"/>
          <path id="Path_175164" data-name="Path 175164" d="M176.234,83.129a11.774,11.774,0,0,0-1.89.027A11.6,11.6,0,0,0,164.635,94.6v5.172a11.6,11.6,0,0,0,9.709,11.446,11.789,11.789,0,0,0,1.89.027,11.385,11.385,0,0,0,11.473-11.473V94.6A11.385,11.385,0,0,0,176.234,83.129Z" transform="translate(-154.265 -73.505)" fill="#fed2a4"/>
          <path id="Path_175165" data-name="Path 175165" d="M254.6,93.915v5.172a11.6,11.6,0,0,1-11.6,11.6,11.679,11.679,0,0,1-1.89-.154,11.6,11.6,0,0,0,9.709-11.446V93.915a11.6,11.6,0,0,0-9.709-11.445A11.607,11.607,0,0,1,254.6,93.915Z" transform="translate(-221.032 -72.819)" fill="#ffbd86"/>
          <path id="Path_175166" data-name="Path 175166" d="M147.929,21.8a11.524,11.524,0,0,0-2.582,5.584,4.731,4.731,0,0,0-2.984,1.218V19.753a11.567,11.567,0,0,1,9.675-11.41,11.744,11.744,0,0,1,1.889-.028h0a11.525,11.525,0,0,1,7.976,3.192.377.377,0,0,0,.26.1h1.3a7.612,7.612,0,0,1,7.7,7.7l.126,9.364a4.727,4.727,0,0,0-3.059-1.288,11.556,11.556,0,0,0-2.584-5.588.377.377,0,0,0-.511-.061c-5.55,4.068-11.116,4.045-16.7,0a.376.376,0,0,0-.509.062Z" transform="translate(-134.821 -8.19)" fill="#ffe47a"/>
          <path id="Path_175167" data-name="Path 175167" d="M237.824,18.625v9.363a4.728,4.728,0,0,0-3.06-1.288,11.5,11.5,0,0,0-.721-2.528V18.625a7.826,7.826,0,0,0-7.826-7.826h-1.3a.377.377,0,0,1-.26-.1,11.515,11.515,0,0,0-6.087-3.037,11.533,11.533,0,0,1,1.889-.155h0a11.522,11.522,0,0,1,7.977,3.192.377.377,0,0,0,.26.1H230A7.826,7.826,0,0,1,237.824,18.625Z" transform="translate(-201.352 -7.503)" fill="#ffcf19"/>
          <g id="Group_114971" data-name="Group 114971" transform="translate(13.086 36.266)">
            <path id="Path_175168" data-name="Path 175168" d="M189.045,293.165l-3.012,4.364,3.249,9.334,5.634-6.126Z" transform="translate(-186.033 -293.165)" fill="#eef5f6"/>
            <path id="Path_175169" data-name="Path 175169" d="M261.87,293.165l3.012,4.364-3.249,9.334L256,300.737Z" transform="translate(-247.117 -293.165)" fill="#eef5f6"/>
          </g>
        </g>
      </g>
      <path id="Path_175170" data-name="Path 175170" d="M111.589,40.63h-3.832l-2.17-3.143a12.6,12.6,0,0,0,4.89-6.939,5.715,5.715,0,0,0,3.352-9.507V12.074A8.787,8.787,0,0,0,105.052,3.3h-1.074a12.519,12.519,0,0,0-15.755-.956.952.952,0,0,0,1.11,1.547,10.614,10.614,0,0,1,13.5.946,1.324,1.324,0,0,0,.917.368h1.3a6.881,6.881,0,0,1,6.873,6.873v7.6a5.682,5.682,0,0,0-1.308-.4,12.532,12.532,0,0,0-2.656-5.334,1.334,1.334,0,0,0-1.8-.214c-5.209,3.818-10.3,3.817-15.578,0a1.335,1.335,0,0,0-1.794.218,12.5,12.5,0,0,0-2.655,5.331,5.686,5.686,0,0,0-1.232.363V12.516a10.557,10.557,0,0,1,1.809-5.928.952.952,0,0,0-1.578-1.065A12.455,12.455,0,0,0,83,12.516v8.443a5.716,5.716,0,0,0,3.276,9.589,12.594,12.594,0,0,0,4.89,6.939l-2.17,3.143H85.16a9.717,9.717,0,0,0-9.706,9.706v2.077a.952.952,0,0,0,1.9,0V50.336a7.811,7.811,0,0,1,7.8-7.8h3.655l3.02,8.676,2,11.885H85.424V56.024a.952.952,0,0,0-1.9,0V63.1H77.358V56.532a.952.952,0,0,0-1.9,0v6.931A1.539,1.539,0,0,0,76.991,65h28.286a.952.952,0,1,0,0-1.9h-2.36l2-11.885,3.02-8.676h3.655a7.811,7.811,0,0,1,7.8,7.8V63.1H113.23V56.024a.952.952,0,1,0-1.9,0V63.1H109.4a.952.952,0,1,0,0,1.9h10.362a1.539,1.539,0,0,0,1.537-1.537V50.336a9.717,9.717,0,0,0-9.706-9.706ZM110.862,28.5a12.64,12.64,0,0,0,.064-1.277V22.049c0-.244-.01-.487-.024-.731a3.806,3.806,0,0,1-.041,7.18ZM83.326,24.9a3.831,3.831,0,0,1,2.521-3.586c-.014.243-.024.487-.024.731v5.172a12.681,12.681,0,0,0,.064,1.277A3.832,3.832,0,0,1,83.326,24.9Zm4.4,2.317V22.049a10.758,10.758,0,0,1,.14-1.729c0-.005,0-.011,0-.016a10.579,10.579,0,0,1,2.04-4.714A14.9,14.9,0,0,0,98.4,18.5a14.709,14.709,0,0,0,8.441-2.913,10.613,10.613,0,0,1,2.04,4.713c0,.006,0,.011,0,.016v0a10.749,10.749,0,0,1,.14,1.727v5.172a10.65,10.65,0,0,1-5.269,9.183l-.014.008a10.61,10.61,0,0,1-10.729,0L93,36.407a10.65,10.65,0,0,1-5.273-9.186ZM98.375,39.772a12.536,12.536,0,0,0,2.96-.353l-2.96,3.818-2.96-3.818A12.536,12.536,0,0,0,98.375,39.772Zm4.609,11.436-1.491,8.875-2.07-6.3,2.481-3.747Zm-8.139-1.173,2.481,3.747-2.07,6.3-1.491-8.875Zm3.53,6.658,2.1,6.4H96.272Zm0-4.776-2.2-3.325,2.2-2.394,2.2,2.394ZM92.549,38.83l4.58,5.908L93.117,49.1,90.55,41.725ZM103.633,49.1l-1.03-1.12a.944.944,0,0,0-.243-.264L99.62,44.738l4.58-5.908,2,2.9Z" transform="translate(-75.454 0)"/>
    </g>
  </g>
</svg>
