<svg xmlns="http://www.w3.org/2000/svg" xmlns:xlink="http://www.w3.org/1999/xlink" width="160" height="237" viewBox="0 0 160 237">
  <defs>
    <clipPath id="clip-path">
      <path id="icon_arrow-right-circle" data-name="icon / arrow-right-circle" d="M6.328,12.657A6.31,6.31,0,0,1,0,6.328,6.31,6.31,0,0,1,6.328,0a6.31,6.31,0,0,1,6.328,6.328,6.31,6.31,0,0,1-6.328,6.328Zm0-11.506a5.178,5.178,0,1,0,5.178,5.178A5.184,5.184,0,0,0,6.328,1.151Zm0,8.055a.521.521,0,0,1-.4-.173.557.557,0,0,1,0-.805L7.249,6.9H4.027a.575.575,0,0,1,0-1.151H7.249L5.926,4.43a.558.558,0,0,1,0-.806.557.557,0,0,1,.806,0l2.3,2.3c.057.057.115.115.115.173a.207.207,0,0,0,.021.076.378.378,0,0,1,.036.154.349.349,0,0,1-.057.23c0,.058-.059.116-.115.172l-2.3,2.3A.52.52,0,0,1,6.328,9.205Z" transform="translate(0 0)" fill="#12263f"/>
    </clipPath>
  </defs>
  <g id="t3-m4" transform="translate(-930 -1755)">
    <rect id="Rectangle_37008" data-name="Rectangle 37008" width="160" height="237" rx="20" transform="translate(930 1755)" fill="#fff5d0"/>
    <path id="Rectangle_37008_-_Outline" data-name="Rectangle 37008 - Outline" d="M20,2A18,18,0,0,0,2,20V217a18,18,0,0,0,18,18H140a18,18,0,0,0,18-18V20A18,18,0,0,0,140,2H20m0-2H140a20,20,0,0,1,20,20V217a20,20,0,0,1-20,20H20A20,20,0,0,1,0,217V20A20,20,0,0,1,20,0Z" transform="translate(930 1755)" fill="#ffcf19"/>
    <path id="Path_178706" data-name="Path 178706" d="M38.336,17.242a5.511,5.511,0,0,1-2.314,1.416,9.982,9.982,0,0,1-3.34.537,5.955,5.955,0,0,1-4.463-1.709,6.918,6.918,0,0,1-1.787-4.756l-.01-1.23a8.485,8.485,0,0,1,.742-3.667,5.511,5.511,0,0,1,2.124-2.412,6.008,6.008,0,0,1,3.2-.845,6.3,6.3,0,0,1,4.126,1.216A5.152,5.152,0,0,1,38.326,9.42h-3.3a2.7,2.7,0,0,0-.762-1.7,2.458,2.458,0,0,0-1.66-.508,2.237,2.237,0,0,0-1.992,1.094,5.84,5.84,0,0,0-.713,3.125v.859a5.717,5.717,0,0,0,.728,3.2,2.573,2.573,0,0,0,2.29,1.069,2.88,2.88,0,0,0,1.992-.6V13.756H32.525V11.4h5.811ZM45.289,19.2a5.432,5.432,0,0,1-3.936-1.45,5.008,5.008,0,0,1-1.5-3.774V13.7a6.489,6.489,0,0,1,.6-2.861A4.395,4.395,0,0,1,42.2,8.917a5.292,5.292,0,0,1,2.734-.679A4.574,4.574,0,0,1,48.453,9.62a5.43,5.43,0,0,1,1.289,3.853v1.279H43.2a2.372,2.372,0,0,0,.771,1.4,2.3,2.3,0,0,0,1.543.508,2.958,2.958,0,0,0,2.441-1.094l1.5,1.777a4.2,4.2,0,0,1-1.743,1.353A5.891,5.891,0,0,1,45.289,19.2Zm-.371-8.418q-1.445,0-1.719,1.914h3.32v-.254a1.63,1.63,0,0,0-.4-1.226A1.593,1.593,0,0,0,44.918,10.777ZM56.6,16.031a.76.76,0,0,0-.439-.674,6.685,6.685,0,0,0-1.67-.527,7.615,7.615,0,0,1-2.031-.718,3.4,3.4,0,0,1-1.221-1.079,2.577,2.577,0,0,1-.42-1.455,2.92,2.92,0,0,1,1.2-2.4,4.948,4.948,0,0,1,3.145-.942,5.482,5.482,0,0,1,3.359.947,2.962,2.962,0,0,1,1.27,2.49h-3.3q0-1.27-1.338-1.27a1.326,1.326,0,0,0-.869.288.892.892,0,0,0-.352.718.819.819,0,0,0,.43.713,4.06,4.06,0,0,0,1.372.449,11.857,11.857,0,0,1,1.655.42,3.007,3.007,0,0,1,2.383,2.939,2.767,2.767,0,0,1-1.284,2.354,5.632,5.632,0,0,1-3.325.908,5.747,5.747,0,0,1-2.422-.488,4.05,4.05,0,0,1-1.66-1.328,3.007,3.007,0,0,1-.6-1.768h3.076a1.272,1.272,0,0,0,.488,1.069,2.009,2.009,0,0,0,1.2.337,1.58,1.58,0,0,0,1.011-.273A.875.875,0,0,0,56.6,16.031ZM65.143,5.807V8.434h1.738v2.285H65.143v4.834a1.234,1.234,0,0,0,.215.83,1.152,1.152,0,0,0,.85.234,4.828,4.828,0,0,0,.82-.059v2.354a6.074,6.074,0,0,1-1.855.283,3.448,3.448,0,0,1-2.51-.8,3.282,3.282,0,0,1-.811-2.432V10.719H60.5V8.434h1.348V5.807ZM71.646,19h-3.3V8.434h3.3ZM68.15,5.7a1.482,1.482,0,0,1,.508-1.159,2.149,2.149,0,0,1,2.637,0A1.482,1.482,0,0,1,71.8,5.7a1.482,1.482,0,0,1-.508,1.159,2.149,2.149,0,0,1-2.637,0A1.482,1.482,0,0,1,68.15,5.7Zm5.107,7.92a6.236,6.236,0,0,1,.615-2.817,4.4,4.4,0,0,1,1.768-1.9,5.323,5.323,0,0,1,2.705-.664,4.858,4.858,0,0,1,3.74,1.47,5.64,5.64,0,0,1,1.367,4v.117a5.472,5.472,0,0,1-1.372,3.921,4.871,4.871,0,0,1-3.716,1.45,4.927,4.927,0,0,1-3.623-1.353,5.29,5.29,0,0,1-1.475-3.667Zm3.291.205a3.932,3.932,0,0,0,.459,2.148,1.529,1.529,0,0,0,1.357.684q1.758,0,1.8-2.705v-.332q0-2.842-1.816-2.842-1.65,0-1.787,2.451ZM78.795,4h3.477L79.557,7.066l-2.686,0Zm9.131,4.434.107,1.24a3.583,3.583,0,0,1,3.018-1.436,3.015,3.015,0,0,1,2.466.986,4.7,4.7,0,0,1,.845,2.969V19h-3.3V12.33a1.783,1.783,0,0,0-.322-1.177,1.491,1.491,0,0,0-1.172-.376,1.569,1.569,0,0,0-1.436.762V19H84.84V8.434Zm12.822,5.205a6.455,6.455,0,0,1,1.084-3.955,3.568,3.568,0,0,1,3.027-1.445,3.035,3.035,0,0,1,2.383,1.113V4h3.3V19h-2.959l-.166-1.133A3.116,3.116,0,0,1,104.84,19.2a3.562,3.562,0,0,1-2.988-1.445A6.659,6.659,0,0,1,100.748,13.639Zm3.291.205q0,2.813,1.641,2.813a1.62,1.62,0,0,0,1.563-.918V11.715a1.576,1.576,0,0,0-1.543-.937q-1.523,0-1.65,2.461ZM117.525,19.2a5.432,5.432,0,0,1-3.936-1.45,5.008,5.008,0,0,1-1.5-3.774V13.7a6.489,6.489,0,0,1,.6-2.861,4.395,4.395,0,0,1,1.753-1.919,5.292,5.292,0,0,1,2.734-.679,4.574,4.574,0,0,1,3.516,1.382,5.43,5.43,0,0,1,1.289,3.853v1.279h-6.543a2.372,2.372,0,0,0,.771,1.4,2.3,2.3,0,0,0,1.543.508,2.958,2.958,0,0,0,2.441-1.094l1.5,1.777a4.2,4.2,0,0,1-1.743,1.353A5.891,5.891,0,0,1,117.525,19.2Zm-.371-8.418q-1.445,0-1.719,1.914h3.32v-.254a1.63,1.63,0,0,0-.4-1.226A1.593,1.593,0,0,0,117.154,10.777ZM40.167,36.795a6.372,6.372,0,0,1-1.108,3.931,3.554,3.554,0,0,1-2.993,1.47,3.046,3.046,0,0,1-2.393-1.064v4.932H30.382V31.434h3.076l.1.977a3.046,3.046,0,0,1,2.49-1.172,3.582,3.582,0,0,1,3.037,1.44,6.45,6.45,0,0,1,1.084,3.96Zm-3.291-.205q0-2.812-1.641-2.812a1.549,1.549,0,0,0-1.562.84v4.16a1.6,1.6,0,0,0,1.582.879q1.572,0,1.621-2.715Zm11.133-2.178-1.084-.078a1.947,1.947,0,0,0-1.992.977V42H41.642V31.434h3.086l.107,1.357a2.548,2.548,0,0,1,2.314-1.553,3.209,3.209,0,0,1,.918.117Zm.42,2.207a6.236,6.236,0,0,1,.615-2.817,4.4,4.4,0,0,1,1.768-1.9,5.323,5.323,0,0,1,2.705-.664,4.858,4.858,0,0,1,3.74,1.47,5.64,5.64,0,0,1,1.367,4v.117a5.472,5.472,0,0,1-1.372,3.921,4.871,4.871,0,0,1-3.716,1.45,4.927,4.927,0,0,1-3.623-1.353,5.29,5.29,0,0,1-1.475-3.667Zm3.291.205a3.932,3.932,0,0,0,.459,2.148,1.529,1.529,0,0,0,1.357.684q1.758,0,1.8-2.705v-.332q0-2.842-1.816-2.842-1.65,0-1.787,2.451Zm12.432.566,1.758-5.957h3.525L65.128,43.768l-.186.449A3.272,3.272,0,0,1,61.7,46.268a5.158,5.158,0,0,1-1.357-.195V43.729h.43a2.251,2.251,0,0,0,1.06-.2,1.216,1.216,0,0,0,.542-.718l.264-.7L58.966,31.434h3.516Zm11.123,4.8a5.432,5.432,0,0,1-3.936-1.45,5.008,5.008,0,0,1-1.5-3.774V36.7a6.489,6.489,0,0,1,.6-2.861,4.395,4.395,0,0,1,1.753-1.919,5.292,5.292,0,0,1,2.734-.679,4.574,4.574,0,0,1,3.516,1.382,5.43,5.43,0,0,1,1.289,3.853v1.279H73.185a2.372,2.372,0,0,0,.771,1.4,2.3,2.3,0,0,0,1.543.508,2.958,2.958,0,0,0,2.441-1.094l1.5,1.777A4.2,4.2,0,0,1,77.7,41.692,5.891,5.891,0,0,1,75.274,42.2ZM74.9,33.777q-1.445,0-1.719,1.914H76.5v-.254a1.63,1.63,0,0,0-.4-1.226A1.593,1.593,0,0,0,74.9,33.777Zm10.615,5.879a1.464,1.464,0,0,0,1.074-.376,1.379,1.379,0,0,0,.371-1.05H90.05A3.653,3.653,0,0,1,88.8,41.082,4.631,4.631,0,0,1,85.6,42.2a4.689,4.689,0,0,1-3.633-1.445,5.7,5.7,0,0,1-1.328-4v-.137a6.436,6.436,0,0,1,.591-2.827,4.3,4.3,0,0,1,1.7-1.885,5.081,5.081,0,0,1,2.637-.659,4.573,4.573,0,0,1,3.271,1.143,4.053,4.053,0,0,1,1.211,3.1H86.964a1.806,1.806,0,0,0-.4-1.26,1.382,1.382,0,0,0-1.074-.439q-1.279,0-1.494,1.631a11.508,11.508,0,0,0-.068,1.426,4.52,4.52,0,0,0,.381,2.207A1.319,1.319,0,0,0,85.519,39.656Zm9.756-10.85v2.627h1.738v2.285H95.274v4.834a1.234,1.234,0,0,0,.215.83,1.152,1.152,0,0,0,.85.234,4.828,4.828,0,0,0,.82-.059v2.354A6.074,6.074,0,0,1,95.3,42.2a3.448,3.448,0,0,1-2.51-.8,3.282,3.282,0,0,1-.811-2.432V33.719H90.636V31.434h1.348V28.807ZM97.6,36.619a6.236,6.236,0,0,1,.615-2.817,4.4,4.4,0,0,1,1.768-1.9,5.323,5.323,0,0,1,2.705-.664,4.858,4.858,0,0,1,3.74,1.47,5.64,5.64,0,0,1,1.367,4v.117a5.472,5.472,0,0,1-1.372,3.921,4.871,4.871,0,0,1-3.716,1.45,4.927,4.927,0,0,1-3.623-1.353,5.29,5.29,0,0,1-1.475-3.667Zm3.291.205a3.932,3.932,0,0,0,.459,2.148,1.529,1.529,0,0,0,1.357.684q1.758,0,1.8-2.705v-.332q0-2.842-1.816-2.842-1.65,0-1.787,2.451Zm13.887,2.207a.76.76,0,0,0-.439-.674,6.685,6.685,0,0,0-1.67-.527,7.615,7.615,0,0,1-2.031-.718,3.4,3.4,0,0,1-1.221-1.079,2.577,2.577,0,0,1-.42-1.455,2.92,2.92,0,0,1,1.2-2.4,4.948,4.948,0,0,1,3.145-.942,5.482,5.482,0,0,1,3.359.947,2.962,2.962,0,0,1,1.27,2.49h-3.3q0-1.27-1.338-1.27a1.326,1.326,0,0,0-.869.288.892.892,0,0,0-.352.718.819.819,0,0,0,.43.713,4.06,4.06,0,0,0,1.372.449,11.856,11.856,0,0,1,1.655.42,3.007,3.007,0,0,1,2.383,2.939,2.767,2.767,0,0,1-1.284,2.354,5.631,5.631,0,0,1-3.325.908,5.747,5.747,0,0,1-2.422-.488,4.05,4.05,0,0,1-1.66-1.328,3.007,3.007,0,0,1-.6-1.768h3.076a1.272,1.272,0,0,0,.488,1.069,2.009,2.009,0,0,0,1.2.337,1.58,1.58,0,0,0,1.011-.273A.875.875,0,0,0,114.776,39.031Z" transform="translate(936 1888)" fill="#12263f"/>
    <rect id="Rectangle_37010" data-name="Rectangle 37010" width="100" height="100" rx="50" transform="translate(960 1774)" fill="#fff"/>
    <g id="Group_114749" data-name="Group 114749" transform="translate(738.828 1010.5)">
      <text id="Leer_más" data-name="Leer más" transform="translate(227.172 952)" fill="#12263f" font-size="16" font-family="Roboto-Regular, Roboto"><tspan x="0" y="15">Leer más</tspan></text>
      <g id="icon_arrow_arrow-right-circle" data-name="icon / arrow / arrow-right-circle" transform="translate(303.172 955.888)">
        <g id="Group_201" data-name="Group 201">
          <path id="icon_arrow-right-circle-2" data-name="icon / arrow-right-circle" d="M6.328,12.657A6.31,6.31,0,0,1,0,6.328,6.31,6.31,0,0,1,6.328,0a6.31,6.31,0,0,1,6.328,6.328,6.31,6.31,0,0,1-6.328,6.328Zm0-11.506a5.178,5.178,0,1,0,5.178,5.178A5.184,5.184,0,0,0,6.328,1.151Zm0,8.055a.521.521,0,0,1-.4-.173.557.557,0,0,1,0-.805L7.249,6.9H4.027a.575.575,0,0,1,0-1.151H7.249L5.926,4.43a.558.558,0,0,1,0-.806.557.557,0,0,1,.806,0l2.3,2.3c.057.057.115.115.115.173a.207.207,0,0,0,.021.076.378.378,0,0,1,.036.154.349.349,0,0,1-.057.23c0,.058-.059.116-.115.172l-2.3,2.3A.52.52,0,0,1,6.328,9.205Z" transform="translate(0 0)" fill="#12263f"/>
        </g>
      </g>
    </g>
    <rect id="Rectangle_37016" data-name="Rectangle 37016" width="120" height="1.5" transform="translate(950 1949)" fill="#ffcf19"/>
    <g id="proyecto" transform="translate(977.5 1792.583)">
      <path id="Path_175171" data-name="Path 175171" d="M82.5,112.083a4.333,4.333,0,0,0,4.333-4.333V72H24v35.75a4.333,4.333,0,0,0,4.333,4.333Z" transform="translate(-22.917 -65.5)" fill="#77e7f7"/>
      <path id="Path_175172" data-name="Path 175172" d="M439.583,73.167a4.333,4.333,0,0,0-4.333-4.333H432V32h3.25a4.333,4.333,0,0,1,4.333,4.333Z" transform="translate(-375.667 -30.917)" fill="#00ceeb"/>
      <path id="Path_175173" data-name="Path 175173" d="M24,73.167a4.333,4.333,0,0,1,4.333-4.333h3.25V32h-3.25A4.333,4.333,0,0,0,24,36.333Z" transform="translate(-22.917 -30.917)" fill="#00ceeb"/>
      <path id="Path_175174" data-name="Path 175174" d="M216,312h10.833v8.667H216Z" transform="translate(-188.917 -273)" fill="#b0c0d2"/>
      <path id="Path_175175" data-name="Path 175175" d="M203.5,177.75a10.734,10.734,0,0,1-1.8,5.955l-2.531,3.8H188.333l-2.531-3.8a10.735,10.735,0,0,1-1.8-5.954,9.75,9.75,0,0,1,19.5,0Z" transform="translate(-161.25 -148.5)" fill="#ffcf19"/>
      <path id="Path_175176" data-name="Path 175176" d="M216,376l2.167,4.333h6.5L226.833,376Z" transform="translate(-188.917 -328.333)" fill="#727997"/>
      <path id="Path_175177" data-name="Path 175177" d="M42.6,328a3.064,3.064,0,0,0-2.167.9L24.673,344.66a2.3,2.3,0,0,0,1.625,3.923H42.417a3.25,3.25,0,0,0,3.25-3.25V331.064A3.064,3.064,0,0,0,42.6,328Zm-3.436,14.083H33.75l5.417-5.417Z" transform="translate(-22.917 -286.833)" fill="#2effc0"/>
      <path id="Path_175178" data-name="Path 175178" d="M358.5,440l-3.25,5.417L352,440Z" transform="translate(-306.5 -383.667)" fill="#ffceb6"/>
      <path id="Path_175179" data-name="Path 175179" d="M352,264h6.5v4.333H352Z" transform="translate(-306.5 -231.5)" fill="#e8f2ff"/>
      <path id="Path_175180" data-name="Path 175180" d="M352,320h6.5v16.25H352Z" transform="translate(-306.5 -279.917)" fill="#ffcf19"/>
      <path id="Path_175181" data-name="Path 175181" d="M352,296h6.5v3.25H352Z" transform="translate(-306.5 -259.167)" fill="#ffe28f"/>
      <path id="Path_175182" data-name="Path 175182" d="M75.583,24h-3.25a1.083,1.083,0,0,0-1.083,1.083v4.333H25.75V25.083A1.083,1.083,0,0,0,24.667,24h-3.25A5.423,5.423,0,0,0,16,29.417V66.25a5.423,5.423,0,0,0,5.417,5.417h2.167V69.5H21.417a3.25,3.25,0,0,1,0-6.5h3.25a1.083,1.083,0,0,0,1.083-1.083V31.583h45.5V61.917A1.083,1.083,0,0,0,72.333,63h3.25a3.25,3.25,0,0,1,0,6.5H71.25v2.167h4.333A5.423,5.423,0,0,0,81,66.25V29.417A5.423,5.423,0,0,0,75.583,24Zm-52,36.833H21.417a5.389,5.389,0,0,0-3.25,1.086v-32.5a3.254,3.254,0,0,1,3.25-3.25h2.167Zm52,0H73.417V26.167h2.167a3.254,3.254,0,0,1,3.25,3.25v32.5a5.389,5.389,0,0,0-3.25-1.086Z" transform="translate(-16 -24)"/>
      <path id="Path_175183" data-name="Path 175183" d="M176,170.833a11.78,11.78,0,0,0,1.985,6.555l2.349,3.523v8.339a1.077,1.077,0,0,0,.115.484h0l2.167,4.333a1.083,1.083,0,0,0,.969.6h6.5a1.083,1.083,0,0,0,.969-.6l2.167-4.333h0a1.077,1.077,0,0,0,.115-.484v-8.339l2.349-3.523a11.78,11.78,0,0,0,1.985-6.555,10.833,10.833,0,0,0-21.667,0Zm8.118,1.485,2.065,1.549a1.083,1.083,0,0,0,1.3,0l2.065-1.549-1.436,7.182h-2.557Zm7.048,9.349v6.5H182.5v-6.5ZM189.414,192.5h-5.161l-1.083-2.167H190.5Zm-2.58-30.333a8.676,8.676,0,0,1,8.667,8.667,9.62,9.62,0,0,1-1.621,5.353L191.67,179.5h-1.349l1.908-9.538a1.083,1.083,0,0,0-1.712-1.079l-3.683,2.762-3.683-2.762a1.083,1.083,0,0,0-1.712,1.079l1.908,9.538H182l-2.209-3.313a9.62,9.62,0,0,1-1.621-5.353A8.676,8.676,0,0,1,186.833,162.167Z" transform="translate(-154.333 -141.583)"/>
      <path id="Path_175184" data-name="Path 175184" d="M16,339.367a3.385,3.385,0,0,0,3.381,3.381H35.5a4.338,4.338,0,0,0,4.333-4.333V324.146a4.147,4.147,0,0,0-7.08-2.933L16.99,336.976a3.36,3.36,0,0,0-.99,2.391Zm18.285-16.622a1.981,1.981,0,0,1,3.381,1.4v1.269H35.5v2.167h2.167v2.167H35.5v2.167h2.167v2.167H35.5v2.167h2.167v2.167a2.169,2.169,0,0,1-2.167,2.167H33.333v-2.167H31.167v2.167H29v-2.167H26.833v2.167H24.667v-2.167H22.5v2.167H19.381a1.215,1.215,0,0,1-.859-2.074Z" transform="translate(-16 -279.915)"/>
      <path id="Path_175185" data-name="Path 175185" d="M89.083,391.583H94.5a1.083,1.083,0,0,0,1.083-1.083v-5.417a1.083,1.083,0,0,0-1.849-.766l-5.417,5.417a1.083,1.083,0,0,0,.766,1.849Zm4.333-3.885v1.718H91.7Z" transform="translate(-78.25 -335.25)"/>
      <path id="Path_175186" data-name="Path 175186" d="M344,257.083v23.833a1.084,1.084,0,0,0,.154.557l3.25,5.417a1.083,1.083,0,0,0,1.858,0l3.25-5.417a1.084,1.084,0,0,0,.154-.557V257.083A1.083,1.083,0,0,0,351.583,256h-6.5A1.083,1.083,0,0,0,344,257.083Zm5.417,22.75V265.75H350.5v14.083Zm-3.25,0V265.75h1.083v14.083Zm0-16.25V262.5H350.5v1.083Zm2.167,20.644L347,282h2.673Zm2.167-26.061v2.167h-4.333v-2.167Z" transform="translate(-299.583 -224.583)"/>
      <path id="Path_175187" data-name="Path 175187" d="M0,0H2.167V3.25H0Z" transform="translate(20.239 17.443) rotate(-45)"/>
      <path id="Path_175188" data-name="Path 175188" d="M248,112h2.167v3.25H248Z" transform="translate(-216.583 -100.083)"/>
      <path id="Path_175189" data-name="Path 175189" d="M0,0H3.25V2.167H0Z" transform="translate(40.92 18.213) rotate(-45)"/>
      <path id="Path_175190" data-name="Path 175190" d="M352,224h3.25v2.167H352Z" transform="translate(-306.5 -196.917)"/>
      <path id="Path_175191" data-name="Path 175191" d="M136,224h3.25v2.167H136Z" transform="translate(-119.75 -196.917)"/>
    </g>
  </g>
</svg>
