<svg xmlns="http://www.w3.org/2000/svg" width="90" height="90" viewBox="0 0 90 90">
  <g id="t3-t5" transform="translate(-380 8158)">
    <rect id="Rectangle_37089" data-name="Rectangle 37089" width="90" height="90" rx="10" transform="translate(380 -8158)" fill="#5000a1"/>
    <g id="charla" transform="translate(370.906 -8140)">
      <path id="Path_170950" data-name="Path 170950" d="M45.972,46.621H57.931a.806.806,0,0,0,0-1.611H45.972a.806.806,0,0,0,0,1.611ZM52.417,20.84H62.765a.806.806,0,0,0,0-1.611H52.417a.806.806,0,0,0,0,1.611Zm-1.611,3.223H62.765a.806.806,0,0,0,0-1.611H50.806a.806.806,0,1,0,0,1.611Zm0,3.223H62.765a.806.806,0,0,0,0-1.611H50.806a.806.806,0,1,0,0,1.611ZM45.972,40.176H56.32a.806.806,0,1,0,0-1.611H45.972a.806.806,0,0,0,0,1.611Zm0,3.223H57.931a.806.806,0,0,0,0-1.611H45.972a.806.806,0,0,0,0,1.611ZM37.11,17.832a.806.806,0,1,0-.806.806A.806.806,0,0,0,37.11,17.832Zm28.843,18.53a.806.806,0,1,0,.806.806A.806.806,0,0,0,65.953,36.362Zm-22.4-18.53a.806.806,0,1,0-.806.806A.806.806,0,0,0,43.555,17.832Zm9.99-14.259a.806.806,0,1,0,.806-.806A.806.806,0,0,0,53.545,3.573ZM40.333,17.832a.806.806,0,1,0-.806.806A.806.806,0,0,0,40.333,17.832Zm28.843,18.53a.806.806,0,1,0,.806.806A.806.806,0,0,0,69.175,36.362Zm3.223,0a.806.806,0,1,0,.806.806A.806.806,0,0,0,72.4,36.362Zm3.435-5.906a9.389,9.389,0,0,0-4.133-2.4V21.6a.806.806,0,0,0-1.611,0V27.76a9.6,9.6,0,0,0-1.12-.043c-.165,0-.328.012-.491.024V5.64A2.42,2.42,0,0,0,66.06,3.223H63.1a1.667,1.667,0,0,0-1.665,1.665.647.647,0,0,1-.647.647H47.913a.647.647,0,0,1-.647-.647A1.664,1.664,0,0,0,45.6,3.223H42.642A2.42,2.42,0,0,0,40.225,5.64V8.4c-.163-.012-.326-.02-.491-.024a9.415,9.415,0,0,0-1.12.043V5.1A3.5,3.5,0,0,1,42.1,1.611H66.6A3.5,3.5,0,0,1,70.088,5.1V17.837a.806.806,0,0,0,1.611,0V5.1A5.108,5.108,0,0,0,66.6,0H42.1A5.108,5.108,0,0,0,37,5.1V8.727a9.477,9.477,0,0,0-6.31,5.735.806.806,0,0,0,1.505.575,7.842,7.842,0,1,1,13.355,7.811,1.34,1.34,0,0,0,.077,1.815l1.011,1.011h-7a7.928,7.928,0,0,1-7.94-7.3.806.806,0,1,0-1.608.111A9.507,9.507,0,0,0,37,26.915V49.9A5.108,5.108,0,0,0,42.1,55H66.6a5.108,5.108,0,0,0,5.1-5.1V46.251A9.517,9.517,0,0,0,78.627,37.3a9.378,9.378,0,0,0-2.795-6.841Zm-34-3.171h5.712a1.248,1.248,0,0,0,.873-2.109L46.94,23.695a9.45,9.45,0,0,0-5.1-15.029V5.64a.807.807,0,0,1,.806-.806H45.6a.054.054,0,0,1,.038.015.051.051,0,0,1,.015.038,2.261,2.261,0,0,0,2.258,2.258H60.789a2.261,2.261,0,0,0,2.258-2.258.054.054,0,0,1,.054-.054H66.06a.807.807,0,0,1,.806.806V28a9.45,9.45,0,0,0-5.1,15.029L60.28,44.512a1.235,1.235,0,0,0,.874,2.109h5.712V49.36a.807.807,0,0,1-.806.806H42.642a.807.807,0,0,1-.806-.806V27.285ZM70.088,49.9A3.5,3.5,0,0,1,66.6,53.389H42.1A3.5,3.5,0,0,1,38.614,49.9V27.229a9.679,9.679,0,0,0,1.029.057h.582V49.36a2.42,2.42,0,0,0,2.417,2.417H66.06a2.42,2.42,0,0,0,2.417-2.417V46.621h.582a9.645,9.645,0,0,0,1.029-.056ZM69.059,45.01h-7L63.073,44a1.34,1.34,0,0,0,.077-1.815h0a7.841,7.841,0,1,1,13.867-4.908,7.931,7.931,0,0,1-7.957,7.734Z" fill="#fff"/>
    </g>
  </g>
</svg>
