<svg xmlns="http://www.w3.org/2000/svg" width="90" height="90" viewBox="0 0 90 90">
  <g id="t3-t1" transform="translate(-543 -2851)">
    <rect id="Rectangle_37025" data-name="Rectangle 37025" width="90" height="90" rx="10" transform="translate(543 2851)" fill="#5000a1"/>
    <g id="analisis" transform="translate(557 2842.892)">
      <path id="Path_175193" data-name="Path 175193" d="M53.963,27.9a.9.9,0,0,1,0-1.794h1.743a5.557,5.557,0,0,1,5.541,5.541V61.587a5.557,5.557,0,0,1-5.541,5.541H38.466v7.029h3.794a3.476,3.476,0,0,1,0,6.951H20.2a3.476,3.476,0,0,1,0-6.951h3.794V67.128H11.349a.9.9,0,1,1,0-1.794H55.706a3.763,3.763,0,0,0,3.747-3.757H1.794a3.763,3.763,0,0,0,3.747,3.757H7.284a.9.9,0,1,1,0,1.794H5.541A5.557,5.557,0,0,1,0,61.587V31.649a5.557,5.557,0,0,1,5.541-5.541H49.9a.9.9,0,0,1,0,1.794H5.541a3.763,3.763,0,0,0-3.747,3.757H59.453A3.763,3.763,0,0,0,55.706,27.9ZM41.41,41.37a.9.9,0,1,1,1.794,0v.949h.95a.9.9,0,1,1,0,1.794H43.2v.949a.9.9,0,0,1-1.794,0v-.949H40.46a.9.9,0,1,1,0-1.794h.949ZM1.794,49.495H13.143l2.672-7.216a.9.9,0,0,1,1.689.02l4.981,12.122,2.031-4.4a.9.9,0,0,1,.814-.522h4.662l-2.224-2.224A6.129,6.129,0,0,1,36.435,38.6l.854.855.858-.855a6.129,6.129,0,0,1,8.667,8.667L44.59,49.495H59.453V33.453H1.794Zm30.735,0H42.05L45.543,46a4.334,4.334,0,0,0-6.127-6.131l-1.492,1.492a.9.9,0,0,1-1.268,0l-1.492-1.492A4.334,4.334,0,0,0,29.036,46Zm26.924,1.794H42.793l-4.869,4.869a.9.9,0,0,1-1.268,0l-4.869-4.869H25.9l-2.652,5.747A.894.894,0,0,1,21.61,57L16.7,45.049l-2.079,5.605a.9.9,0,0,1-.858.634H1.794v8.494H59.453V51.289Zm-19.2,0H34.323l2.967,2.967ZM37.568,75.954H20.2a1.66,1.66,0,0,0-1.183.492A1.682,1.682,0,0,0,20.2,79.314H42.261a1.68,1.68,0,0,0,0-3.36Zm-.9-8.826H25.784v7.029H36.673Z" transform="translate(0 0)" fill="#fff"/>
    </g>
  </g>
</svg>
