<svg xmlns="http://www.w3.org/2000/svg" width="90" height="90" viewBox="0 0 90 90">
  <g id="t3-t2" transform="translate(-380 8830)">
    <rect id="Rectangle_37083" data-name="Rectangle 37083" width="90" height="90" rx="10" transform="translate(380 -8830)" fill="#5000a1"/>
    <g id="megafono" transform="translate(396 -8813)">
      <path id="Path_178457" data-name="Path 178457" d="M33.557,51.836h-1.8V43a.9.9,0,0,0-1.8,0v8.836H6.508V33.8h7.5a.9.9,0,1,0,0-1.8h-8.4a.9.9,0,0,0-.9.9V51.836H2.9a.9.9,0,0,0-.9.9v1.8a4.508,4.508,0,0,0,4.508,4.508H29.951a4.508,4.508,0,0,0,4.508-4.508v-1.8A.9.9,0,0,0,33.557,51.836Zm-.9,2.7a2.7,2.7,0,0,1-2.7,2.7h-1.8v-.9a.9.9,0,0,0-1.8,0v.9H10.115v-.9a.9.9,0,0,0-1.8,0v.9h-1.8a2.7,2.7,0,0,1-2.7-2.7v-.9H32.656Z" transform="translate(0 -3.049)" fill="#fff"/>
      <path id="Path_178458" data-name="Path 178458" d="M53.508,7.8h1.8a.9.9,0,0,0,0-1.8h-1.8a2.7,2.7,0,0,0-2.7,2.7v.9h-.9a.9.9,0,1,0,0,1.8h.9v2.7a.9.9,0,0,0,1.8,0v-2.7h.9a.9.9,0,1,0,0-1.8h-.9V8.7A.9.9,0,0,1,53.508,7.8Z" transform="translate(-4.623 -0.492)" fill="#fff"/>
      <path id="Path_178459" data-name="Path 178459" d="M57.525,2H46.7A2.7,2.7,0,0,0,44,4.7v1.8a.9.9,0,1,0,1.8,0V4.7a.9.9,0,0,1,.9-.9h10.82a.9.9,0,0,1,.9.9v10.82a.9.9,0,0,1-.9.9H46.7a.9.9,0,0,1-.9-.9v-5.41a.9.9,0,1,0-1.8,0v5.41a2.7,2.7,0,0,0,2.7,2.7h10.82a2.7,2.7,0,0,0,2.7-2.7V4.7a2.7,2.7,0,0,0-2.7-2.7Z" transform="translate(-4.131 -0.098)" fill="#fff"/>
      <path id="Path_178460" data-name="Path 178460" d="M49,41.607A3.607,3.607,0,1,0,52.607,38,3.607,3.607,0,0,0,49,41.607Zm5.41,0a1.8,1.8,0,1,1-1.8-1.8A1.8,1.8,0,0,1,54.41,41.607Z" transform="translate(-4.623 -3.639)" fill="#fff"/>
      <path id="Path_178461" data-name="Path 178461" d="M57.525,33H46.7A2.7,2.7,0,0,0,44,35.7v10.82a2.7,2.7,0,0,0,2.7,2.7h10.82a2.7,2.7,0,0,0,2.7-2.7v-1.8a.9.9,0,1,0-1.8,0v1.8a.9.9,0,0,1-.9.9H46.7a.9.9,0,0,1-.9-.9V35.7a.9.9,0,0,1,.9-.9h10.82a.9.9,0,0,1,.9.9v5.41a.9.9,0,0,0,1.8,0V35.7a2.7,2.7,0,0,0-2.7-2.7Z" transform="translate(-4.131 -3.148)" fill="#fff"/>
      <path id="Path_178462" data-name="Path 178462" d="M24.424,13.078a.9.9,0,0,0,.884.036l5.41-2.7a.9.9,0,0,0,0-1.6l-5.41-2.7A.9.9,0,0,0,24,6.9v5.41A.9.9,0,0,0,24.424,13.078ZM25.8,8.363l2.489,1.244L25.8,10.851Z" transform="translate(-2.164 -0.492)" fill="#fff"/>
      <path id="Path_178463" data-name="Path 178463" d="M26.115,17.23A8.115,8.115,0,1,0,18,9.115,8.115,8.115,0,0,0,26.115,17.23Zm0-14.426A6.311,6.311,0,1,1,19.8,9.115,6.311,6.311,0,0,1,26.115,2.8Z" transform="translate(-1.574)" fill="#fff"/>
      <path id="Path_178464" data-name="Path 178464" d="M36.9,22.41a.9.9,0,0,0,.721-.361l2.7-3.607a.9.9,0,0,0-1.443-1.082l-2.7,3.607A.9.9,0,0,0,36.9,22.41Z" transform="translate(-3.344 -1.574)" fill="#fff"/>
      <path id="Path_178465" data-name="Path 178465" d="M39.18,26.148a.9.9,0,0,0,1.262.18l3.607-2.7a.9.9,0,1,0-1.082-1.443l-3.607,2.7A.9.9,0,0,0,39.18,26.148Z" transform="translate(-3.639 -2.066)" fill="#fff"/>
      <path id="Path_178466" data-name="Path 178466" d="M48.3,28.719A.9.9,0,0,0,47.219,28l-4.508.9a.906.906,0,0,0,.18,1.8h.18l4.508-.9a.9.9,0,0,0,.721-1.082Z" transform="translate(-3.924 -2.653)" fill="#fff"/>
      <path id="Path_178467" data-name="Path 178467" d="M2.9,27.23h10.82a.9.9,0,0,0,.9-.9V11.9a.9.9,0,0,0-.9-.9H2.9a.9.9,0,0,0-.9.9V26.328A.9.9,0,0,0,2.9,27.23ZM3.8,12.8H12.82V25.426H3.8Z" transform="translate(0 -0.984)" fill="#fff"/>
      <path id="Path_178468" data-name="Path 178468" d="M10.7,15H8.9a.9.9,0,1,0,0,1.8h1.8a.9.9,0,1,0,0-1.8Z" transform="translate(-0.59 -1.377)" fill="#fff"/>
      <path id="Path_178469" data-name="Path 178469" d="M10.508,19H6.9a.9.9,0,1,0,0,1.8h3.607a.9.9,0,1,0,0-1.8Z" transform="translate(-0.393 -1.77)" fill="#fff"/>
      <path id="Path_178470" data-name="Path 178470" d="M10.508,23H6.9a.9.9,0,1,0,0,1.8h3.607a.9.9,0,1,0,0-1.8Z" transform="translate(-0.393 -2.164)" fill="#fff"/>
      <path id="Path_178471" data-name="Path 178471" d="M33.456,28.14a.9.9,0,0,0-1.569.9l3.976,6.88-14.426,5.41H21.3l-2.344,1.352-1.56.9a1.8,1.8,0,0,1-2.461-.658l-1.8-3.12a1.8,1.8,0,0,1,.676-2.38l3.12-1.8,2.254,3.9a.9.9,0,1,0,1.569-.9L18.425,34.6l11.316-9.332.37.64a.9.9,0,0,0,1.569-.9l-.9-1.56a.914.914,0,0,0-1.361-.243l-12.623,10.4-3.841,2.218a3.607,3.607,0,0,0-1.659,4.084l-.9.514a2.7,2.7,0,0,0,1.352,5.049,2.759,2.759,0,0,0,1.352-.361L14,44.6a3.5,3.5,0,0,0,1.578.938,3.417,3.417,0,0,0,.947.126,3.552,3.552,0,0,0,1.8-.487l.784-.451,1.8,3.129a2.7,2.7,0,1,0,4.68-2.7L23.953,42.3l13.525-5.076a.9.9,0,0,0,.469-1.289Zm-21.3,15.409a.9.9,0,1,1-.9-1.56l.784-.451.9,1.56Zm11.866,2.525a.9.9,0,0,1-1.56.9l-1.8-3.129,1.5-.857h.072Z" transform="translate(-0.692 -2.164)" fill="#fff"/>
    </g>
  </g>
</svg>
