<svg xmlns="http://www.w3.org/2000/svg" width="90" height="90" viewBox="0 0 90 90">
  <g id="t3-t6" transform="translate(-380 7934)">
    <rect id="Rectangle_37091" data-name="Rectangle 37091" width="90" height="90" rx="10" transform="translate(380 -7934)" fill="#5000a1"/>
    <g id="_22-mobile" data-name="22-mobile" transform="translate(355.941 -7922)">
      <g id="linear_color" data-name="linear color" transform="translate(45.059 6)">
        <path id="Path_178448" data-name="Path 178448" d="M235.792,446.021h-5.605a1.1,1.1,0,1,0,0,2.2h5.605a1.1,1.1,0,1,0,0-2.2Z" transform="translate(-208.844 -397.619)" fill="#fff"/>
        <path id="Path_178449" data-name="Path 178449" d="M91.142,23.6A8.52,8.52,0,0,0,85.6,25.395c-.13.108-.263.228-.4.359V8.86A2.868,2.868,0,0,0,82.342,6h-26.4a2.868,2.868,0,0,0-2.86,2.86v2.926l-.136-.136a4.62,4.62,0,1,0-6.534,6.534l4.76,4.76a4.622,4.622,0,0,0-1.975,7.7L51.9,33.355A4.619,4.619,0,0,0,49.2,41.208l1.828,1.828a4.619,4.619,0,0,0-2.708,7.852l4.766,4.766V58.14A2.863,2.863,0,0,0,55.942,61h21.12a1.1,1.1,0,0,0,1.1-1.1V49.34a5.969,5.969,0,0,1,2.376-4.752l4.224-3.168a1.112,1.112,0,0,0,.44-.88v-8.8c0-4.381,2.674-5.6,4.84-5.874V59.9a1.1,1.1,0,1,0,2.2,0V24.7A1.1,1.1,0,0,0,91.142,23.6ZM55.942,8.2h26.4a.661.661,0,0,1,.66.66v3.3H55.282V8.86A.661.661,0,0,1,55.942,8.2Zm-8.684,6.717a2.428,2.428,0,0,1,4.132-1.711L53.082,14.9v6.846l-5.115-5.115A2.4,2.4,0,0,1,47.258,14.917ZM50.752,25.67a2.431,2.431,0,0,1,3.422,0l4.978,4.978A2.42,2.42,0,0,1,55.73,34.07l-4.978-4.978a2.423,2.423,0,0,1,0-3.422Zm9.956,3.422-1.2-1.2a9.464,9.464,0,1,1,1.93,6.773,4.628,4.628,0,0,0-.734-5.577ZM50.752,36.23a2.431,2.431,0,0,1,3.422,0l4.978,4.978A2.42,2.42,0,0,1,55.73,44.63l-4.978-4.978A2.423,2.423,0,0,1,50.752,36.23Zm-.88,9.68a2.431,2.431,0,0,1,3.422,0l4.978,4.978A2.42,2.42,0,0,1,54.85,54.31l-4.978-4.978a2.423,2.423,0,0,1,0-3.422Zm5.41,12.23v-1.1A4.617,4.617,0,0,0,61.162,52.2h14.8v6.6H55.942A.661.661,0,0,1,55.282,58.14ZM79.218,42.828a8.179,8.179,0,0,0-3.256,6.512V50H60.383a4.617,4.617,0,0,0-.555-.672L58,47.5a4.619,4.619,0,0,0,2.708-7.852L58,36.944a4.569,4.569,0,0,0,1.9-.676A11.656,11.656,0,1,0,57.619,26s-2.181-2.161-2.337-2.282V14.355H83V39.99Z" transform="translate(-45.059 -6)" fill="#fff"/>
        <path id="Path_178450" data-name="Path 178450" d="M222.3,149.24h1.87a1.6,1.6,0,0,1,0,3.19H221.4a.626.626,0,0,1-.6-.731,1.1,1.1,0,1,0-2.2-.039l0,.114a2.806,2.806,0,0,0,2.806,2.857h.793v.66a1.1,1.1,0,1,0,2.2,0v-.667a3.8,3.8,0,0,0-.22-7.583H222.3a1.54,1.54,0,0,1,0-3.08h2.729a.592.592,0,0,1,.605.632,1.1,1.1,0,1,0,2.2.095,2.806,2.806,0,0,0-2.8-2.926h-.639v-.66a1.1,1.1,0,0,0-2.2,0v.663a3.739,3.739,0,1,0,.11,7.478Z" transform="translate(-199.426 -125.26)" fill="#fff"/>
      </g>
    </g>
  </g>
</svg>
