<svg xmlns="http://www.w3.org/2000/svg" width="90" height="90" viewBox="0 0 90 90">
  <g id="t3-t7" transform="translate(-380 7710)">
    <rect id="Rectangle_37093" data-name="Rectangle 37093" width="90" height="90" rx="10" transform="translate(380 -7710)" fill="#5000a1"/>
    <g id="ley" transform="translate(369.03 -7692)">
      <g id="Group_115329" data-name="Group 115329" transform="translate(63.875 5.152)">
        <g id="Group_115328" data-name="Group 115328">
          <path id="Path_178442" data-name="Path 178442" d="M330.744,47.958h-.966a.806.806,0,0,0,0,1.611h.966a.806.806,0,0,0,0-1.611Z" transform="translate(-328.973 -47.958)" fill="#fff"/>
        </g>
      </g>
      <g id="Group_115331" data-name="Group 115331" transform="translate(71.221 44.055)">
        <g id="Group_115330" data-name="Group 115330" transform="translate(0)">
          <path id="Path_178443" data-name="Path 178443" d="M400.869,410.11h-2.7a.806.806,0,1,0,0,1.611h2.7a.806.806,0,1,0,0-1.611Z" transform="translate(-397.363 -410.11)" fill="#fff"/>
        </g>
      </g>
      <g id="Group_115333" data-name="Group 115333" transform="translate(70.003 46.862)">
        <g id="Group_115332" data-name="Group 115332" transform="translate(0)">
          <path id="Path_178444" data-name="Path 178444" d="M391.776,436.244h-4.95a.806.806,0,0,0,0,1.611h4.95a.806.806,0,1,0,0-1.611Z" transform="translate(-386.02 -436.244)" fill="#fff"/>
        </g>
      </g>
      <g id="Group_115335" data-name="Group 115335" transform="translate(70.003 49.67)">
        <g id="Group_115334" data-name="Group 115334" transform="translate(0)">
          <path id="Path_178445" data-name="Path 178445" d="M391.776,462.379h-4.95a.806.806,0,0,0,0,1.611h4.95a.806.806,0,1,0,0-1.611Z" transform="translate(-386.02 -462.379)" fill="#fff"/>
        </g>
      </g>
      <g id="Group_115337" data-name="Group 115337" transform="translate(41.814 13.063)">
        <g id="Group_115336" data-name="Group 115336">
          <path id="Path_178446" data-name="Path 178446" d="M150.809,132.853h-.987l-2.571-6.266a.806.806,0,0,0-.17-1.593h-8.664v-2.586a.806.806,0,1,0-1.611,0v2.586h-8.664a.806.806,0,0,0-.17,1.593l-2.571,6.266h-.987a.805.805,0,0,0-.026,1.61,4.974,4.974,0,0,0,9.816,0,.805.805,0,0,0-.026-1.61h-.987l-2.563-6.247h6.178v13.937h-1.13a3.408,3.408,0,0,0-3.317,2.646,1.821,1.821,0,0,0-1.224,1.717v.394a1.821,1.821,0,0,0,1.819,1.819h9.314a1.821,1.821,0,0,0,1.819-1.819v-.394a1.82,1.82,0,0,0-1.224-1.717,3.408,3.408,0,0,0-3.317-2.646h-1.13V126.606h6.178l-2.563,6.247h-.987a.805.805,0,0,0-.026,1.61,4.974,4.974,0,0,0,9.816,0,.805.805,0,0,0-.026-1.61Zm-21.514,4.168a3.369,3.369,0,0,1-3.265-2.557h6.53A3.369,3.369,0,0,1,129.295,137.021Zm2.154-4.168h-4.308l2.154-5.249Zm10.993,11.94c.051.08.033.143.033.506a.208.208,0,0,1-.207.207h-9.314a.208.208,0,0,1-.207-.207c0-.363-.018-.426.033-.506a.957.957,0,0,0,.457.116h8.748A.956.956,0,0,0,142.442,144.794Zm-2.9-2.639a1.792,1.792,0,0,1,1.571.933H134.1a1.792,1.792,0,0,1,1.571-.933Zm6.381-14.55,2.154,5.249h-4.308Zm0,9.417a3.369,3.369,0,0,1-3.265-2.557h6.53A3.368,3.368,0,0,1,145.927,137.021Z" transform="translate(-123.607 -121.603)" fill="#fff"/>
        </g>
      </g>
      <g id="Group_115339" data-name="Group 115339" transform="translate(31.97)">
        <g id="Group_115338" data-name="Group 115338" transform="translate(0)">
          <path id="Path_178447" data-name="Path 178447" d="M79.3,45.325a.806.806,0,0,0-.806.806v7.195a.064.064,0,0,1-.064.064H68.307V35.113h10.12a.064.064,0,0,1,.064.064v7.194a.806.806,0,1,0,1.611,0V35.176A1.677,1.677,0,0,0,78.426,33.5H73.479V3.987a3.1,3.1,0,0,0-3.1-3.1H48.709A1.3,1.3,0,0,0,47.482,0H42.769a1.3,1.3,0,0,0-1.228.886H35.071a3.1,3.1,0,0,0-3.1,3.1V51.9a3.1,3.1,0,0,0,3.1,3.1H53.815a.806.806,0,0,0,0-1.611h-13.6V2.5h1.256v8.3a1.117,1.117,0,0,0,1.707.946l1.945-1.215,1.945,1.215a1.117,1.117,0,0,0,1.707-.946V2.5h21.6a1.491,1.491,0,0,1,1.489,1.489V33.5H65.052a1.677,1.677,0,0,0-1.675,1.675V53.325c0,.021,0,.043,0,.064h-5.8a.806.806,0,0,0,0,1.611H78.426A1.677,1.677,0,0,0,80.1,53.325V46.13A.806.806,0,0,0,79.3,45.325ZM38.607,53.389H35.071A1.491,1.491,0,0,1,33.582,51.9V3.987A1.491,1.491,0,0,1,35.071,2.5h3.536ZM44.32,9.133,43.085,9.9V1.611H44.32Zm2.845.771-1.234-.771V1.611h1.234ZM66.7,53.389H65.052a.064.064,0,0,1-.064-.064V35.176a.064.064,0,0,1,.064-.064H66.7Z" transform="translate(-31.97)" fill="#fff"/>
        </g>
      </g>
    </g>
  </g>
</svg>
