<svg xmlns="http://www.w3.org/2000/svg" width="54.239" height="50" viewBox="0 0 54.239 50">
  <g id="t3-tab-ic3" transform="translate(0 -2.501)">
    <path id="Path_171942" data-name="Path 171942" d="M27.859,18.5a8.484,8.484,0,0,0-8.469,8.474v.846a.847.847,0,0,0-.847.847v5.089a.847.847,0,0,0,.847.847A10.169,10.169,0,0,0,24.475,43.4v2.225H21.932A5.939,5.939,0,0,0,16,51.553v2.541a.847.847,0,0,0,1.695,0V51.553a4.242,4.242,0,0,1,4.237-4.237h3.039l1.447,1.446a.527.527,0,0,0,.046.03.811.811,0,0,0,.183.122c.027.014.053.03.081.041a.808.808,0,0,0,.558.012l2.274-.758,2.275.758a.808.808,0,0,0,.558-.012.9.9,0,0,0,.081-.041.8.8,0,0,0,.183-.122c.014-.013.032-.017.046-.03l1.447-1.446,3.038,0a4.242,4.242,0,0,1,4.237,4.237v2.541a.847.847,0,0,0,1.695,0V51.553a5.939,5.939,0,0,0-5.932-5.932H34.645V43.4a10.169,10.169,0,0,0,5.085-8.792.847.847,0,0,0,.847-.847V28.669a.847.847,0,0,0-.847-.847v-.846a5.087,5.087,0,0,0-4.237-5.008v-2.62a.847.847,0,0,0-.847-.847H27.859ZM38.881,29.517v3.394h-.846V29.517Zm-2.541,4.242a.848.848,0,0,1-.847.847H23.627a.848.848,0,0,1-.847-.847V28.669a.848.848,0,0,1,.847-.847H35.493a.848.848,0,0,1,.847.847Zm-15.256-.847h-.846V29.517h.846ZM32.95,46.119,31.873,47.2l-2.045-.682a.845.845,0,0,0-.092-.012.816.816,0,0,0-.176-.022.881.881,0,0,0-.177.022.83.83,0,0,0-.091.012l-2.045.682L26.17,46.119V44.18a9.982,9.982,0,0,0,6.78,0Zm-3.39-3.041a8.484,8.484,0,0,1-8.475-8.472h.156A2.539,2.539,0,0,0,23.627,36.3H35.493a2.538,2.538,0,0,0,2.386-1.695h.156a8.484,8.484,0,0,1-8.475,8.472Zm8.475-16.1v.846h-.156a2.539,2.539,0,0,0-2.386-1.695H23.627a2.538,2.538,0,0,0-2.386,1.695h-.156v-.846a6.787,6.787,0,0,1,6.78-6.779H33.8v2.542a.847.847,0,0,0,.847.847,3.393,3.393,0,0,1,3.39,3.39Z" transform="translate(-2.44 -2.44)" fill="#00ceeb"/>
    <path id="Path_171943" data-name="Path 171943" d="M60.56,29.5H47.847a.847.847,0,0,0-.847.847V42.213a.847.847,0,0,0,.847.847H60.56a.847.847,0,0,0,.847-.847V30.348A.847.847,0,0,0,60.56,29.5ZM59.712,31.2v.847H48.695V31.2ZM48.695,41.366V33.738H59.712v7.627Z" transform="translate(-7.168 -4.118)" fill="#00ceeb"/>
    <path id="Path_171944" data-name="Path 171944" d="M57.793,36.5H51.93a.847.847,0,0,0,0,1.695h5.862a.847.847,0,0,0,0-1.695Z" transform="translate(-7.791 -5.185)" fill="#00ceeb"/>
    <path id="Path_171945" data-name="Path 171945" d="M55.25,39.5H51.93a.847.847,0,0,0,0,1.695h3.32a.847.847,0,1,0,0-1.695Z" transform="translate(-7.791 -5.643)" fill="#00ceeb"/>
    <path id="Path_171946" data-name="Path 171946" d="M15.869,6.445l0,0a8.461,8.461,0,0,0-13.379,9.34.858.858,0,0,0,.037.1A8.47,8.47,0,1,0,15.869,6.445Zm-3.7,3.141a.847.847,0,0,1,0-1.695h2.774a6.826,6.826,0,0,1,1.394,1.695Zm-5.085,6.78a.847.847,0,0,1,0,1.695H6.006a6.826,6.826,0,0,1-1.394-1.695Zm3.39,3.39a6.737,6.737,0,0,1-2.13-.347,2.534,2.534,0,0,0-1.26-4.737H3.919a6.738,6.738,0,0,1,7.613-8.384,2.537,2.537,0,0,0,.638,4.994h4.861a6.751,6.751,0,0,1-6.556,8.475Z" transform="translate(-0.305 -0.305)" fill="#00ceeb"/>
    <path id="Path_171947" data-name="Path 171947" d="M.847,43.366H13.561a.859.859,0,0,0,.292-.058.91.91,0,0,0,.087-.042.734.734,0,0,0,.091-.042c.023-.016.036-.04.056-.056a.771.771,0,0,0,.123-.124.76.76,0,0,0,.147-.276.844.844,0,0,0,.035-.17c0-.027.016-.051.016-.079V32.348a.847.847,0,0,0-.847-.847H.847A.847.847,0,0,0,0,32.348v10.17A.847.847,0,0,0,.847,43.366ZM5.932,40.54l.608.81-.214.32H5.085Zm4.237-1.579,1.807,2.709H8.363ZM1.695,33.2H12.712v6.523l-1.834-2.751,0,0,0,0a.728.728,0,0,0-.089-.088.8.8,0,0,0-.146-.147h0a.846.846,0,0,0-.306-.125.87.87,0,0,0-.163,0,.869.869,0,0,0-.163,0,.847.847,0,0,0-.306.125h0a.693.693,0,0,0-.079.079.808.808,0,0,0-.157.157l0,0,0,0L7.537,39.856,6.61,38.62a.671.671,0,0,0-.09-.081.8.8,0,0,0-.08-.089c-.014-.01-.03-.012-.043-.02a.9.9,0,0,0-.163-.078A.853.853,0,0,0,6.1,38.3a.791.791,0,0,0-.168-.009.843.843,0,0,0-.153.008.77.77,0,0,0-.15.053.871.871,0,0,0-.156.074c-.014.01-.031.012-.044.021a.888.888,0,0,0-.081.089.8.8,0,0,0-.089.081L2.966,41.671H1.695Z" transform="translate(0 -4.423)" fill="#00ceeb"/>
    <path id="Path_171948" data-name="Path 171948" d="M4.877,37.2a.847.847,0,0,0,0-1.695H4.868A.847.847,0,0,0,4.877,37.2Z" transform="translate(-0.614 -5.033)" fill="#00ceeb"/>
    <path id="Path_171949" data-name="Path 171949" d="M50.322,2.5H41.847A.847.847,0,0,0,41,3.348v8.475a.847.847,0,0,0,.847.847h8.475a.847.847,0,0,0,.847-.847V3.348a.847.847,0,0,0-.847-.847Zm-.847,8.475h-6.78V4.2h6.78Z" transform="translate(-6.253)" fill="#00ceeb"/>
    <path id="Path_171950" data-name="Path 171950" d="M49,17.348v4.237a.847.847,0,0,0,.847.847h4.237a.847.847,0,0,0,.847-.847V17.348a.847.847,0,0,0-.847-.847H49.847A.847.847,0,0,0,49,17.348Zm1.695.847h2.542v2.542H50.695Z" transform="translate(-7.473 -2.135)" fill="#00ceeb"/>
    <path id="Path_171951" data-name="Path 171951" d="M36.237,11.586a.847.847,0,0,0,.847-.847V7.348a.847.847,0,0,0-.847-.847h-3.39A.847.847,0,0,0,32,7.348v3.39a.847.847,0,0,0,.847.847ZM33.695,8.2H35.39V9.891H33.695Z" transform="translate(-4.88 -0.61)" fill="#00ceeb"/>
    <path id="Path_171952" data-name="Path 171952" d="M35.322,32.5H26.847a.847.847,0,1,0,0,1.695h8.475a.847.847,0,1,0,0-1.695Z" transform="translate(-3.965 -4.576)" fill="#00ceeb"/>
  </g>
</svg>
