<svg xmlns="http://www.w3.org/2000/svg" width="90" height="90" viewBox="0 0 90 90">
  <g id="t3-t4" transform="translate(-380 8382)">
    <rect id="Rectangle_37087" data-name="Rectangle 37087" width="90" height="90" rx="10" transform="translate(380 -8382)" fill="#5000a1"/>
    <g id="acceso" transform="translate(394 -8391.376)">
      <g id="Group_115327" data-name="Group 115327" transform="translate(0 27.376)">
        <g id="Group_115326" data-name="Group 115326" transform="translate(0 0)">
          <path id="Path_178437" data-name="Path 178437" d="M252.31,68.426H237.66a1.234,1.234,0,0,0,0,2.469H252.31a1.234,1.234,0,0,0,0-2.469Z" transform="translate(-207.988 -63.488)" fill="#fff"/>
          <path id="Path_178438" data-name="Path 178438" d="M176.208,70.9h.494a1.234,1.234,0,1,0,0-2.469h-.494a1.234,1.234,0,0,0,0,2.469Z" transform="translate(-153.927 -63.489)" fill="#fff"/>
          <path id="Path_178439" data-name="Path 178439" d="M53.147,69.661a1.234,1.234,0,0,0-1.234-1.234H42.284a1.234,1.234,0,1,0,0,2.469h9.628A1.235,1.235,0,0,0,53.147,69.661Z" transform="translate(-36.112 -63.489)" fill="#fff"/>
          <path id="Path_178440" data-name="Path 178440" d="M106.3,141.371H88.675a6.172,6.172,0,1,0,0,2.469h11.76v3.7a1.234,1.234,0,0,0,2.469,0v-3.7h2.16V145.9a1.234,1.234,0,1,0,2.469,0v-3.292A1.234,1.234,0,0,0,106.3,141.371Zm-23.671,4.938a3.7,3.7,0,1,1,3.7-3.7A3.707,3.707,0,0,1,82.627,146.308Z" transform="translate(-67.259 -123.315)" fill="#fff"/>
          <path id="Path_178441" data-name="Path 178441" d="M55.66,72.315a8.387,8.387,0,0,0,2.119-5.578V62.985a8.434,8.434,0,0,0-7.286-8.344V32.8a5.425,5.425,0,0,0-5.419-5.419H5.419A5.425,5.425,0,0,0,0,32.8V58.772a5.426,5.426,0,0,0,5.419,5.42H18.158a27.637,27.637,0,0,1-1.344,7.244H13.645a1.234,1.234,0,1,0,0,2.469h23.2a1.234,1.234,0,1,0,0-2.469H33.681a27.635,27.635,0,0,1-1.344-7.244h8.6v2.545a8.387,8.387,0,0,0,2.119,5.578,9.553,9.553,0,0,0-5.926,8.826,1.234,1.234,0,0,0,1.234,1.234H60.351a1.234,1.234,0,0,0,1.234-1.234A9.553,9.553,0,0,0,55.66,72.315Zm-6.3-15.285a5.961,5.961,0,0,1,5.954,5.954v3.753a5.954,5.954,0,0,1-11.909,0V62.985A5.961,5.961,0,0,1,49.356,57.03ZM19.4,71.436a30.244,30.244,0,0,0,1.227-7.244h9.234a30.243,30.243,0,0,0,1.227,7.244Zm21.625-9.713H5.419a2.954,2.954,0,0,1-2.95-2.951V57.9h40.18A8.383,8.383,0,0,0,41.028,61.723Zm-38.559-6.3V32.8a2.954,2.954,0,0,1,2.95-2.95H45.074a2.953,2.953,0,0,1,2.95,2.95V54.668a8.358,8.358,0,0,0-2.385.76H2.469ZM39.7,79.907a7.092,7.092,0,0,1,5.715-5.727,8.4,8.4,0,0,0,7.877,0,7.092,7.092,0,0,1,5.715,5.727Z" transform="translate(0 -27.376)" fill="#fff"/>
        </g>
      </g>
    </g>
  </g>
</svg>
