<svg xmlns="http://www.w3.org/2000/svg" width="90" height="90" viewBox="0 0 90 90">
  <g id="t3-t3" transform="translate(-380 8606)">
    <rect id="Rectangle_37085" data-name="Rectangle 37085" width="90" height="90" rx="10" transform="translate(380 -8606)" fill="#5000a1"/>
    <g id="proteger" transform="translate(374.001 -8588)">
      <g id="Group_115341" data-name="Group 115341" transform="translate(25.999 0)">
        <g id="Group_115340" data-name="Group 115340" transform="translate(0 0)">
          <path id="Path_178451" data-name="Path 178451" d="M74.608,9.52A100.194,100.194,0,0,1,51.23.136a1.075,1.075,0,0,0-1.048,0A97.452,97.452,0,0,1,26.8,9.52a1.074,1.074,0,0,0-.8,1.04V22.418A33.237,33.237,0,0,0,36.921,47.3C42.266,52.259,48.465,55,50.706,55s8.44-2.741,13.785-7.7A33.238,33.238,0,0,0,75.413,22.418V10.559A1.075,1.075,0,0,0,74.608,9.52ZM63.03,45.727A35.05,35.05,0,0,1,55.3,51.175a13.849,13.849,0,0,1-4.6,1.676,13.847,13.847,0,0,1-4.6-1.676,35.058,35.058,0,0,1-7.729-5.448A31.136,31.136,0,0,1,28.147,22.418V11.387A99.426,99.426,0,0,0,50.706,2.3a102.547,102.547,0,0,0,22.558,9.085V22.418h0A31.137,31.137,0,0,1,63.03,45.727Z" transform="translate(-25.999 0)" fill="#fff"/>
        </g>
      </g>
      <g id="Group_115343" data-name="Group 115343" transform="translate(29.759 4.282)">
        <g id="Group_115342" data-name="Group 115342" transform="translate(0)">
          <path id="Path_178452" data-name="Path 178452" d="M102.118,47.972a103.592,103.592,0,0,1-19.667-7.985,1.074,1.074,0,0,0-1.009,0,102.359,102.359,0,0,1-19.668,7.987A1.074,1.074,0,0,0,61,49.006V58a29.864,29.864,0,0,0,2.364,11.84,30.193,30.193,0,0,0,6.919,9.876,33.894,33.894,0,0,0,7.237,5.308,19.441,19.441,0,0,0,4.233,1.764,1.075,1.075,0,0,0,.39,0,19.441,19.441,0,0,0,4.233-1.764,33.908,33.908,0,0,0,7.237-5.308,30.192,30.192,0,0,0,6.919-9.876A29.863,29.863,0,0,0,102.893,58V49A1.074,1.074,0,0,0,102.118,47.972ZM100.744,58a27.033,27.033,0,0,1-8.623,20.167,31.725,31.725,0,0,1-6.771,4.968,19.074,19.074,0,0,1-3.4,1.5,19.07,19.07,0,0,1-3.4-1.5,31.726,31.726,0,0,1-6.771-4.968A27.034,27.034,0,0,1,63.146,58V49.81a104.532,104.532,0,0,0,18.8-7.66,105.785,105.785,0,0,0,18.8,7.656V58Z" transform="translate(-60.998 -39.861)" fill="#fff"/>
        </g>
      </g>
      <g id="Group_115345" data-name="Group 115345" transform="translate(39.904 38.116)">
        <g id="Group_115344" data-name="Group 115344">
          <path id="Path_178453" data-name="Path 178453" d="M157.332,355.206l-.021-.023a1.074,1.074,0,0,0-1.592,1.443l.021.023a1.074,1.074,0,0,0,1.592-1.443Z" transform="translate(-155.443 -354.833)" fill="#fff"/>
        </g>
      </g>
      <g id="Group_115347" data-name="Group 115347" transform="translate(42.094 40.294)">
        <g id="Group_115346" data-name="Group 115346" transform="translate(0)">
          <path id="Path_178454" data-name="Path 178454" d="M181.319,378.177a27.988,27.988,0,0,1-3.7-2.8,1.074,1.074,0,1,0-1.432,1.6,30.14,30.14,0,0,0,3.988,3.013,1.074,1.074,0,1,0,1.146-1.817Z" transform="translate(-175.826 -375.106)" fill="#fff"/>
        </g>
      </g>
      <g id="Group_115349" data-name="Group 115349" transform="translate(42.72 13.24)">
        <g id="Group_115348" data-name="Group 115348">
          <path id="Path_178455" data-name="Path 178455" d="M195.322,132.477V128.94a5.682,5.682,0,0,0-11.365,0v3.536a2.393,2.393,0,0,0-2.3,2.389v8.247a2.393,2.393,0,0,0,2.391,2.391h11.191a2.394,2.394,0,0,0,2.391-2.391v-8.247A2.393,2.393,0,0,0,195.322,132.477Zm-9.217-3.536a3.534,3.534,0,0,1,7.068,0v3.534h-7.068V128.94Zm9.372,14.172a.246.246,0,0,1-.243.242H184.044a.246.246,0,0,1-.243-.242v-8.247h0a.246.246,0,0,1,.243-.242h11.191a.246.246,0,0,1,.243.242Z" transform="translate(-181.653 -123.258)" fill="#fff"/>
        </g>
      </g>
      <g id="Group_115351" data-name="Group 115351" transform="translate(49.204 26.816)">
        <g id="Group_115350" data-name="Group 115350" transform="translate(0)">
          <path id="Path_178456" data-name="Path 178456" d="M243.52,249.64a1.5,1.5,0,0,0-1.074,2.549v1.051a1.074,1.074,0,1,0,2.148,0v-1.051a1.5,1.5,0,0,0-1.074-2.549Z" transform="translate(-242.018 -249.64)" fill="#fff"/>
        </g>
      </g>
    </g>
  </g>
</svg>
