<svg xmlns="http://www.w3.org/2000/svg" width="59.256" height="50" viewBox="0 0 59.256 50">
  <g id="t3-tab-ic1" transform="translate(0 -0.055)">
    <path id="Path_171928" data-name="Path 171928" d="M22.608.055a5.976,5.976,0,0,0-5.378,3.377c-.075,0-.149-.011-.224-.011-.018,0-.033.009-.051.01A6.028,6.028,0,0,0,10.8,9.488V9.5a5.925,5.925,0,0,0-1.472-.184,6.071,6.071,0,0,0-5.545,8.378,9.071,9.071,0,0,0,0,14.732A6.072,6.072,0,0,0,9.323,40.8a5.953,5.953,0,0,0,1.472-.184v.006a6.031,6.031,0,0,0,6.159,6.057c.018,0,.033.01.052.01.076,0,.149-.009.224-.011a5.976,5.976,0,0,0,5.378,3.377,6.041,6.041,0,0,0,6-6.067V6.122a6.042,6.042,0,0,0-6-6.068Zm0,47.963a3.928,3.928,0,0,1-3.284-1.791,6.075,6.075,0,0,0,3.749-5.605,1.019,1.019,0,0,0-2.037,0,4.03,4.03,0,0,1-3.117,3.916c-.016,0-.031-.008-.047-.008a1.043,1.043,0,0,0-.223.024,3.984,3.984,0,0,1-4.817-3.933,4.083,4.083,0,0,1,.239-1.366,1.019,1.019,0,0,0-1.536-1.181,3.889,3.889,0,0,1-2.213.687,4,4,0,0,1-3.964-4.03,4.06,4.06,0,0,1,.61-2.139A1.019,1.019,0,0,0,5.6,31.168a7.025,7.025,0,0,1,0-12.226,1.018,1.018,0,0,0,.368-1.425,4.065,4.065,0,0,1-.61-2.139,4,4,0,0,1,3.964-4.03,3.891,3.891,0,0,1,2.213.687,1.019,1.019,0,0,0,1.536-1.181,4.085,4.085,0,0,1-.239-1.366,3.983,3.983,0,0,1,4.817-3.933.986.986,0,0,0,.241.008,4.032,4.032,0,0,1,3.146,3.926,1.019,1.019,0,0,0,2.037,0,6.076,6.076,0,0,0-3.749-5.605,3.928,3.928,0,0,1,3.284-1.791,4,4,0,0,1,3.964,4.03v15.81h-1.5a2.513,2.513,0,0,1-2.646-2.347,1.019,1.019,0,1,0-2.037,0,4.546,4.546,0,0,0,4.683,4.384h1.5v7.219H24.836A1.4,1.4,0,0,1,23.344,29.9a5.657,5.657,0,0,0-5.837-5.444H16.83a1.019,1.019,0,1,0,0,2.037h.678a3.623,3.623,0,0,1,3.8,3.407,3.435,3.435,0,0,0,3.529,3.325h1.736V43.988a4,4,0,0,1-3.964,4.029Zm0,0" fill="#00ceeb"/>
    <path id="Path_171929" data-name="Path 171929" d="M61.793,111.164A3.968,3.968,0,0,0,57.83,107.2h-.421a1.019,1.019,0,0,0,0,2.038h.421a1.926,1.926,0,1,1,0,3.853,1.019,1.019,0,0,0,0,2.037,3.968,3.968,0,0,0,3.964-3.964Zm0,0" transform="translate(-47.976 -91.157)" fill="#00ceeb"/>
    <path id="Path_171930" data-name="Path 171930" d="M67.253,184.73a5.231,5.231,0,0,0-5.226,5.225v.212a1.019,1.019,0,1,0,2.038,0v-.212a3.192,3.192,0,0,1,3.188-3.188,1.019,1.019,0,1,0,0-2.037Zm0,0" transform="translate(-52.772 -157.119)" fill="#00ceeb"/>
    <path id="Path_171931" data-name="Path 171931" d="M108.163,89.21a3.547,3.547,0,0,0,3.543-3.543,1.019,1.019,0,0,0-2.037,0,1.507,1.507,0,0,1-1.506,1.506,1.019,1.019,0,0,0,0,2.038Zm0,0" transform="translate(-91.157 -71.971)" fill="#00ceeb"/>
    <path id="Path_171932" data-name="Path 171932" d="M111.95,220.95a2.771,2.771,0,0,1-2.768-2.768,1.019,1.019,0,0,0-2.037,0,4.81,4.81,0,0,0,4.805,4.805,1.019,1.019,0,0,0,0-2.037Zm0,0" transform="translate(-91.157 -184.713)" fill="#00ceeb"/>
    <path id="Path_171933" data-name="Path 171933" d="M213.226,61.785a1.019,1.019,0,0,0-1.019,1.019V72.99a1.019,1.019,0,0,0,.383.8l2.615,2.093a2.676,2.676,0,0,0-.076.611,2.719,2.719,0,1,0,1.257-2.275L214.245,72.5V62.8a1.019,1.019,0,0,0-1.019-1.019Zm5.269,14.7a.664.664,0,1,1-.664-.664A.664.664,0,0,1,218.495,76.489Zm0,0" transform="translate(-180.542 -52.519)" fill="#00ceeb"/>
    <path id="Path_171934" data-name="Path 171934" d="M266.192,191.789H261.92c-.031,0-.058.015-.089.018a1,1,0,0,0-.918.436l-.294.442a2.706,2.706,0,1,0,1.7,1.141h2.853v5.049h-7.98l-3.822-3.524a2.673,2.673,0,0,0,.153-.861,2.7,2.7,0,1,0-2.7,2.7,2.665,2.665,0,0,0,1.212-.3l4.07,3.752a1.021,1.021,0,0,0,.691.269h9.4a1.018,1.018,0,0,0,1.018-1.018v-7.087a1.019,1.019,0,0,0-1.018-1.019ZM260.078,196a.664.664,0,1,1,.664-.664A.665.665,0,0,1,260.078,196Zm-9.92-1.506a.664.664,0,1,1,.664.664A.665.665,0,0,1,250.159,194.49Zm0,0" transform="translate(-211.098 -163.125)" fill="#00ceeb"/>
    <path id="Path_171935" data-name="Path 171935" d="M229.27,21.933c-.087,0-.169.017-.254.026l-1.252-2.6V12.322a1.018,1.018,0,0,0-1.018-1.018h-5.074a.924.924,0,0,0,.027-.133V6.123A1.019,1.019,0,0,0,220.679,5.1h-5.093V2.136a1.019,1.019,0,0,0-1.018-1.019h-6.621a.906.906,0,0,0-.09.018,2.7,2.7,0,1,0,.514,2.019h5.178v3.2a2.7,2.7,0,1,0,3.658.784h2.454v4.03a.926.926,0,0,0,.027.133h-1.356a1.021,1.021,0,0,0-.695.273l-3.579,3.334a2.676,2.676,0,0,0-1.617-.551,2.7,2.7,0,1,0,2.7,2.7,2.674,2.674,0,0,0-.034-.344l3.625-3.377h6.994v5.093h-2.948a1.019,1.019,0,0,0-.693.272L220.2,20.455a2.7,2.7,0,1,0,1.454,1.43l1.525-1.415h2.863l1.17,2.435a2.676,2.676,0,0,0-.643,1.728,2.7,2.7,0,1,0,2.7-2.7ZM205.71,3.421a.664.664,0,1,1,.664-.664A.665.665,0,0,1,205.71,3.421Zm9.255,5.891a.664.664,0,1,1,.664-.664A.665.665,0,0,1,214.965,9.312Zm-2.524,8.414a.664.664,0,1,1,.664-.664A.665.665,0,0,1,212.441,17.726Zm6.732,5.89a.664.664,0,1,1,.664-.664A.665.665,0,0,1,219.173,23.616Zm10.1,1.683a.664.664,0,1,1,.664-.664A.665.665,0,0,1,229.27,25.3Zm0,0" transform="translate(-172.716 0)" fill="#00ceeb"/>
    <path id="Path_171936" data-name="Path 171936" d="M222.14,249.332a2.691,2.691,0,0,0-1.8,4.7l-.354.867-4.356.1c-.017,0-.03.009-.047.01V253.5a2.706,2.706,0,1,0-2.037-.332v3.867H208a2.7,2.7,0,1,0,.332,2.037h6.236a1.019,1.019,0,0,0,1.018-1.019v-1.032c.024,0,.044.013.069.013h.023l5.024-.111a1.02,1.02,0,0,0,.921-.633l.642-1.571a2.7,2.7,0,0,0-.125-5.39Zm-16.43,9.786a.664.664,0,1,1,.664-.664A.665.665,0,0,1,205.71,259.118Zm9.255-8.9a.664.664,0,1,1-.664.664A.665.665,0,0,1,214.965,250.216Zm7.242,2.467a.984.984,0,0,0-.164-.11,1.013,1.013,0,0,0-.371-.071.67.67,0,1,1,.536.18Zm0,0" transform="translate(-172.716 -211.101)" fill="#00ceeb"/>
    <path id="Path_171937" data-name="Path 171937" d="M205.383,181.506V192.1a1.018,1.018,0,0,0,1.018,1.018h1.648a2.7,2.7,0,1,0-.258-2.037h-.371v-9.229l1.826-2.374a1.019,1.019,0,1,0-1.615-1.243l-2.037,2.649a1.014,1.014,0,0,0-.212.621Zm5,9.62a.664.664,0,1,1-.664.664A.665.665,0,0,1,210.387,191.125Zm0,0" transform="translate(-174.736 -151.256)" fill="#00ceeb"/>
  </g>
</svg>
